ISO-10303-21;
HEADER;
FILE_DESCRIPTION(('FreeCAD Model'),'2;1');
FILE_NAME('Open CASCADE Shape Model','2026-09-24T22:25:42',('FreeCAD'),(
    'FreeCAD'),'Open CASCADE STEP processor 7.8','FreeCAD','Unknown');
FILE_SCHEMA(('AUTOMOTIVE_DESIGN { 1 0 10303 214 1 1 1 1 }'));
ENDSEC;
DATA;
#1 = APPLICATION_PROTOCOL_DEFINITION('international standard',
  'automotive_design',2000,#2);
#2 = APPLICATION_CONTEXT(
  'core data for automotive mechanical design processes');
#3 = SHAPE_DEFINITION_REPRESENTATION(#4,#10);
#4 = PRODUCT_DEFINITION_SHAPE('','',#5);
#5 = PRODUCT_DEFINITION('design','',#6,#9);
#6 = PRODUCT_DEFINITION_FORMATION('','',#7);
#7 = PRODUCT('Open CASCADE STEP translator 7.8 1',
  'Open CASCADE STEP translator 7.8 1','',(#8));
#8 = PRODUCT_CONTEXT('',#2,'mechanical');
#9 = PRODUCT_DEFINITION_CONTEXT('part definition',#2,'design');
#10 = ADVANCED_BREP_SHAPE_REPRESENTATION('',(#11,#15),#1189);
#11 = AXIS2_PLACEMENT_3D('',#12,#13,#14);
#12 = CARTESIAN_POINT('',(0.,0.,0.));
#13 = DIRECTION('',(0.,0.,1.));
#14 = DIRECTION('',(1.,0.,-0.));
#15 = MANIFOLD_SOLID_BREP('',#16);
#16 = CLOSED_SHELL('',(#17,#84,#115,#139,#163,#187,#243,#260,#285,#477,
    #501,#607,#624,#641,#658,#675,#692,#709,#721,#752,#776,#802,#828,
    #852,#878,#904,#928,#945,#970,#1001,#1025,#1049,#1080,#1105,#1122,
    #1142,#1155,#1180));
#17 = ADVANCED_FACE('',(#18,#68),#79,.F.);
#18 = FACE_BOUND('',#19,.F.);
#19 = EDGE_LOOP('',(#20,#30,#38,#46,#54,#62));
#20 = ORIENTED_EDGE('',*,*,#21,.F.);
#21 = EDGE_CURVE('',#22,#24,#26,.T.);
#22 = VERTEX_POINT('',#23);
#23 = CARTESIAN_POINT('',(15.,18.75,0.));
#24 = VERTEX_POINT('',#25);
#25 = CARTESIAN_POINT('',(15.,-18.75,8.326672684689E-15));
#26 = LINE('',#27,#28);
#27 = CARTESIAN_POINT('',(15.,181.49,-3.61355390055E-14));
#28 = VECTOR('',#29,1.);
#29 = DIRECTION('',(0.,-1.,2.22044604925E-16));
#30 = ORIENTED_EDGE('',*,*,#31,.F.);
#31 = EDGE_CURVE('',#32,#22,#34,.T.);
#32 = VERTEX_POINT('',#33);
#33 = CARTESIAN_POINT('',(-12.35,18.75,0.));
#34 = LINE('',#35,#36);
#35 = CARTESIAN_POINT('',(-109.66,18.75,0.));
#36 = VECTOR('',#37,1.);
#37 = DIRECTION('',(1.,0.,0.));
#38 = ORIENTED_EDGE('',*,*,#39,.F.);
#39 = EDGE_CURVE('',#40,#32,#42,.T.);
#40 = VERTEX_POINT('',#41);
#41 = CARTESIAN_POINT('',(-12.35,5.72,2.893241202173E-15));
#42 = LINE('',#43,#44);
#43 = CARTESIAN_POINT('',(-12.35,139.255,-2.675748511649E-14));
#44 = VECTOR('',#45,1.);
#45 = DIRECTION('',(0.,1.,-2.22044604925E-16));
#46 = ORIENTED_EDGE('',*,*,#47,.F.);
#47 = EDGE_CURVE('',#48,#40,#50,.T.);
#48 = VERTEX_POINT('',#49);
#49 = CARTESIAN_POINT('',(-15.,5.72,2.893241202173E-15));
#50 = LINE('',#51,#52);
#51 = CARTESIAN_POINT('',(-188.215,5.72,2.893241202173E-15));
#52 = VECTOR('',#53,1.);
#53 = DIRECTION('',(1.,0.,0.));
#54 = ORIENTED_EDGE('',*,*,#55,.F.);
#55 = EDGE_CURVE('',#56,#48,#58,.T.);
#56 = VERTEX_POINT('',#57);
#57 = CARTESIAN_POINT('',(-15.,-18.75,8.326672684689E-15));
#58 = LINE('',#59,#60);
#59 = CARTESIAN_POINT('',(-15.,100.12,-1.806776950275E-14));
#60 = VECTOR('',#61,1.);
#61 = DIRECTION('',(0.,1.,-2.22044604925E-16));
#62 = ORIENTED_EDGE('',*,*,#63,.T.);
#63 = EDGE_CURVE('',#56,#24,#64,.T.);
#64 = LINE('',#65,#66);
#65 = CARTESIAN_POINT('',(-204.32,-18.75,8.326672684689E-15));
#66 = VECTOR('',#67,1.);
#67 = DIRECTION('',(1.,0.,0.));
#68 = FACE_BOUND('',#69,.F.);
#69 = EDGE_LOOP('',(#70));
#70 = ORIENTED_EDGE('',*,*,#71,.F.);
#71 = EDGE_CURVE('',#72,#72,#74,.T.);
#72 = VERTEX_POINT('',#73);
#73 = CARTESIAN_POINT('',(-8.35,-2.23,4.658495811327E-15));
#74 = CIRCLE('',#75,3.95);
#75 = AXIS2_PLACEMENT_3D('',#76,#77,#78);
#76 = CARTESIAN_POINT('',(-8.35,1.72,3.781419621873E-15));
#77 = DIRECTION('',(-0.,2.22044604925E-16,1.));
#78 = DIRECTION('',(0.,-1.,2.22044604925E-16));
#79 = PLANE('',#80);
#80 = AXIS2_PLACEMENT_3D('',#81,#82,#83);
#81 = CARTESIAN_POINT('',(-204.32,181.49,-3.61355390055E-14));
#82 = DIRECTION('',(0.,2.22044604925E-16,1.));
#83 = DIRECTION('',(0.,-1.,2.22044604925E-16));
#84 = ADVANCED_FACE('',(#85),#110,.T.);
#85 = FACE_BOUND('',#86,.T.);
#86 = EDGE_LOOP('',(#87,#88,#96,#104));
#87 = ORIENTED_EDGE('',*,*,#21,.F.);
#88 = ORIENTED_EDGE('',*,*,#89,.F.);
#89 = EDGE_CURVE('',#90,#22,#92,.T.);
#90 = VERTEX_POINT('',#91);
#91 = CARTESIAN_POINT('',(15.,18.75,3.));
#92 = LINE('',#93,#94);
#93 = CARTESIAN_POINT('',(15.,18.75,-86.5));
#94 = VECTOR('',#95,1.);
#95 = DIRECTION('',(0.,-2.22044604925E-16,-1.));
#96 = ORIENTED_EDGE('',*,*,#97,.T.);
#97 = EDGE_CURVE('',#90,#98,#100,.T.);
#98 = VERTEX_POINT('',#99);
#99 = CARTESIAN_POINT('',(15.,-18.75,3.));
#100 = LINE('',#101,#102);
#101 = CARTESIAN_POINT('',(15.,181.49,3.));
#102 = VECTOR('',#103,1.);
#103 = DIRECTION('',(0.,-1.,2.22044604925E-16));
#104 = ORIENTED_EDGE('',*,*,#105,.F.);
#105 = EDGE_CURVE('',#24,#98,#106,.T.);
#106 = LINE('',#107,#108);
#107 = CARTESIAN_POINT('',(15.,-18.75,8.326672684689E-15));
#108 = VECTOR('',#109,1.);
#109 = DIRECTION('',(0.,2.22044604925E-16,1.));
#110 = PLANE('',#111);
#111 = AXIS2_PLACEMENT_3D('',#112,#113,#114);
#112 = CARTESIAN_POINT('',(15.,181.49,-3.61355390055E-14));
#113 = DIRECTION('',(1.,0.,0.));
#114 = DIRECTION('',(0.,-1.,2.22044604925E-16));
#115 = ADVANCED_FACE('',(#116),#134,.T.);
#116 = FACE_BOUND('',#117,.T.);
#117 = EDGE_LOOP('',(#118,#126,#127,#128));
#118 = ORIENTED_EDGE('',*,*,#119,.F.);
#119 = EDGE_CURVE('',#56,#120,#122,.T.);
#120 = VERTEX_POINT('',#121);
#121 = CARTESIAN_POINT('',(-15.,-18.75,3.));
#122 = LINE('',#123,#124);
#123 = CARTESIAN_POINT('',(-15.,-18.75,-86.5));
#124 = VECTOR('',#125,1.);
#125 = DIRECTION('',(0.,2.22044604925E-16,1.));
#126 = ORIENTED_EDGE('',*,*,#63,.T.);
#127 = ORIENTED_EDGE('',*,*,#105,.T.);
#128 = ORIENTED_EDGE('',*,*,#129,.F.);
#129 = EDGE_CURVE('',#120,#98,#130,.T.);
#130 = LINE('',#131,#132);
#131 = CARTESIAN_POINT('',(-204.32,-18.75,3.));
#132 = VECTOR('',#133,1.);
#133 = DIRECTION('',(1.,0.,0.));
#134 = PLANE('',#135);
#135 = AXIS2_PLACEMENT_3D('',#136,#137,#138);
#136 = CARTESIAN_POINT('',(-204.32,-18.75,8.326672684689E-15));
#137 = DIRECTION('',(0.,-1.,2.22044604925E-16));
#138 = DIRECTION('',(1.,0.,0.));
#139 = ADVANCED_FACE('',(#140),#158,.F.);
#140 = FACE_BOUND('',#141,.F.);
#141 = EDGE_LOOP('',(#142,#143,#144,#152));
#142 = ORIENTED_EDGE('',*,*,#119,.F.);
#143 = ORIENTED_EDGE('',*,*,#55,.T.);
#144 = ORIENTED_EDGE('',*,*,#145,.T.);
#145 = EDGE_CURVE('',#48,#146,#148,.T.);
#146 = VERTEX_POINT('',#147);
#147 = CARTESIAN_POINT('',(-15.,5.72,3.));
#148 = LINE('',#149,#150);
#149 = CARTESIAN_POINT('',(-15.,5.72,-87.5));
#150 = VECTOR('',#151,1.);
#151 = DIRECTION('',(0.,2.22044604925E-16,1.));
#152 = ORIENTED_EDGE('',*,*,#153,.F.);
#153 = EDGE_CURVE('',#120,#146,#154,.T.);
#154 = LINE('',#155,#156);
#155 = CARTESIAN_POINT('',(-15.,100.12,3.));
#156 = VECTOR('',#157,1.);
#157 = DIRECTION('',(0.,1.,-2.22044604925E-16));
#158 = PLANE('',#159);
#159 = AXIS2_PLACEMENT_3D('',#160,#161,#162);
#160 = CARTESIAN_POINT('',(-15.,18.75,-173.));
#161 = DIRECTION('',(1.,0.,0.));
#162 = DIRECTION('',(0.,-1.,2.22044604925E-16));
#163 = ADVANCED_FACE('',(#164),#182,.F.);
#164 = FACE_BOUND('',#165,.F.);
#165 = EDGE_LOOP('',(#166,#167,#168,#176));
#166 = ORIENTED_EDGE('',*,*,#145,.F.);
#167 = ORIENTED_EDGE('',*,*,#47,.T.);
#168 = ORIENTED_EDGE('',*,*,#169,.T.);
#169 = EDGE_CURVE('',#40,#170,#172,.T.);
#170 = VERTEX_POINT('',#171);
#171 = CARTESIAN_POINT('',(-12.35,5.72,3.));
#172 = LINE('',#173,#174);
#173 = CARTESIAN_POINT('',(-12.35,5.72,-2.));
#174 = VECTOR('',#175,1.);
#175 = DIRECTION('',(0.,2.22044604925E-16,1.));
#176 = ORIENTED_EDGE('',*,*,#177,.F.);
#177 = EDGE_CURVE('',#146,#170,#178,.T.);
#178 = LINE('',#179,#180);
#179 = CARTESIAN_POINT('',(-188.215,5.72,3.));
#180 = VECTOR('',#181,1.);
#181 = DIRECTION('',(1.,0.,0.));
#182 = PLANE('',#183);
#183 = AXIS2_PLACEMENT_3D('',#184,#185,#186);
#184 = CARTESIAN_POINT('',(-172.11,5.72,-2.));
#185 = DIRECTION('',(0.,-1.,2.22044604925E-16));
#186 = DIRECTION('',(1.,0.,0.));
#187 = ADVANCED_FACE('',(#188),#238,.F.);
#188 = FACE_BOUND('',#189,.F.);
#189 = EDGE_LOOP('',(#190,#191,#192,#200,#208,#216,#224,#232));
#190 = ORIENTED_EDGE('',*,*,#169,.F.);
#191 = ORIENTED_EDGE('',*,*,#39,.T.);
#192 = ORIENTED_EDGE('',*,*,#193,.F.);
#193 = EDGE_CURVE('',#194,#32,#196,.T.);
#194 = VERTEX_POINT('',#195);
#195 = CARTESIAN_POINT('',(-12.35,18.75,3.));
#196 = LINE('',#197,#198);
#197 = CARTESIAN_POINT('',(-12.35,18.75,-87.5));
#198 = VECTOR('',#199,1.);
#199 = DIRECTION('',(0.,-2.22044604925E-16,-1.));
#200 = ORIENTED_EDGE('',*,*,#201,.F.);
#201 = EDGE_CURVE('',#202,#194,#204,.T.);
#202 = VERTEX_POINT('',#203);
#203 = CARTESIAN_POINT('',(-12.35,18.15,3.));
#204 = LINE('',#205,#206);
#205 = CARTESIAN_POINT('',(-12.35,139.255,3.));
#206 = VECTOR('',#207,1.);
#207 = DIRECTION('',(0.,1.,-2.22044604925E-16));
#208 = ORIENTED_EDGE('',*,*,#209,.F.);
#209 = EDGE_CURVE('',#210,#202,#212,.T.);
#210 = VERTEX_POINT('',#211);
#211 = CARTESIAN_POINT('',(-12.35,18.15,2.4));
#212 = LINE('',#213,#214);
#213 = CARTESIAN_POINT('',(-12.35,18.15,0.8));
#214 = VECTOR('',#215,1.);
#215 = DIRECTION('',(0.,4.440892098501E-16,1.));
#216 = ORIENTED_EDGE('',*,*,#217,.F.);
#217 = EDGE_CURVE('',#218,#210,#220,.T.);
#218 = VERTEX_POINT('',#219);
#219 = CARTESIAN_POINT('',(-12.35,16.716157750337,2.4));
#220 = LINE('',#221,#222);
#221 = CARTESIAN_POINT('',(-12.35,54.810201210764,2.4));
#222 = VECTOR('',#223,1.);
#223 = DIRECTION('',(0.,1.,-4.440892098501E-16));
#224 = ORIENTED_EDGE('',*,*,#225,.F.);
#225 = EDGE_CURVE('',#226,#218,#228,.T.);
#226 = VERTEX_POINT('',#227);
#227 = CARTESIAN_POINT('',(-12.35,16.716157750337,3.));
#228 = LINE('',#229,#230);
#229 = CARTESIAN_POINT('',(-12.35,16.716157750337,0.8));
#230 = VECTOR('',#231,1.);
#231 = DIRECTION('',(0.,-4.440892098501E-16,-1.));
#232 = ORIENTED_EDGE('',*,*,#233,.F.);
#233 = EDGE_CURVE('',#170,#226,#234,.T.);
#234 = LINE('',#235,#236);
#235 = CARTESIAN_POINT('',(-12.35,139.255,3.));
#236 = VECTOR('',#237,1.);
#237 = DIRECTION('',(0.,1.,-2.22044604925E-16));
#238 = PLANE('',#239);
#239 = AXIS2_PLACEMENT_3D('',#240,#241,#242);
#240 = CARTESIAN_POINT('',(-12.35,97.02,-2.));
#241 = DIRECTION('',(1.,0.,0.));
#242 = DIRECTION('',(0.,-1.,2.22044604925E-16));
#243 = ADVANCED_FACE('',(#244),#255,.F.);
#244 = FACE_BOUND('',#245,.F.);
#245 = EDGE_LOOP('',(#246,#247,#248,#249));
#246 = ORIENTED_EDGE('',*,*,#193,.T.);
#247 = ORIENTED_EDGE('',*,*,#31,.T.);
#248 = ORIENTED_EDGE('',*,*,#89,.F.);
#249 = ORIENTED_EDGE('',*,*,#250,.F.);
#250 = EDGE_CURVE('',#194,#90,#251,.T.);
#251 = LINE('',#252,#253);
#252 = CARTESIAN_POINT('',(-109.66,18.75,3.));
#253 = VECTOR('',#254,1.);
#254 = DIRECTION('',(1.,0.,0.));
#255 = PLANE('',#256);
#256 = AXIS2_PLACEMENT_3D('',#257,#258,#259);
#257 = CARTESIAN_POINT('',(-15.,18.75,-173.));
#258 = DIRECTION('',(0.,-1.,2.22044604925E-16));
#259 = DIRECTION('',(1.,0.,0.));
#260 = ADVANCED_FACE('',(#261),#280,.F.);
#261 = FACE_BOUND('',#262,.F.);
#262 = EDGE_LOOP('',(#263,#272,#278,#279));
#263 = ORIENTED_EDGE('',*,*,#264,.F.);
#264 = EDGE_CURVE('',#265,#265,#267,.T.);
#265 = VERTEX_POINT('',#266);
#266 = CARTESIAN_POINT('',(-8.35,-2.23,3.));
#267 = CIRCLE('',#268,3.95);
#268 = AXIS2_PLACEMENT_3D('',#269,#270,#271);
#269 = CARTESIAN_POINT('',(-8.35,1.72,3.));
#270 = DIRECTION('',(-0.,2.22044604925E-16,1.));
#271 = DIRECTION('',(0.,-1.,2.22044604925E-16));
#272 = ORIENTED_EDGE('',*,*,#273,.F.);
#273 = EDGE_CURVE('',#72,#265,#274,.T.);
#274 = LINE('',#275,#276);
#275 = CARTESIAN_POINT('',(-8.35,-2.23,-2.));
#276 = VECTOR('',#277,1.);
#277 = DIRECTION('',(0.,2.22044604925E-16,1.));
#278 = ORIENTED_EDGE('',*,*,#71,.T.);
#279 = ORIENTED_EDGE('',*,*,#273,.T.);
#280 = CYLINDRICAL_SURFACE('',#281,3.95);
#281 = AXIS2_PLACEMENT_3D('',#282,#283,#284);
#282 = CARTESIAN_POINT('',(-8.35,1.72,-2.));
#283 = DIRECTION('',(0.,2.22044604925E-16,1.));
#284 = DIRECTION('',(0.,-1.,2.22044604925E-16));
#285 = ADVANCED_FACE('',(#286,#357,#360,#461),#472,.T.);
#286 = FACE_BOUND('',#287,.T.);
#287 = EDGE_LOOP('',(#288,#289,#290,#291,#299,#307,#315,#323,#331,#339,
    #347,#353,#354,#355,#356));
#288 = ORIENTED_EDGE('',*,*,#97,.F.);
#289 = ORIENTED_EDGE('',*,*,#250,.F.);
#290 = ORIENTED_EDGE('',*,*,#201,.F.);
#291 = ORIENTED_EDGE('',*,*,#292,.F.);
#292 = EDGE_CURVE('',#293,#202,#295,.T.);
#293 = VERTEX_POINT('',#294);
#294 = CARTESIAN_POINT('',(-11.2859464843,18.15,3.));
#295 = LINE('',#296,#297);
#296 = CARTESIAN_POINT('',(-107.8029732421,18.15,3.));
#297 = VECTOR('',#298,1.);
#298 = DIRECTION('',(-1.,0.,0.));
#299 = ORIENTED_EDGE('',*,*,#300,.F.);
#300 = EDGE_CURVE('',#301,#293,#303,.T.);
#301 = VERTEX_POINT('',#302);
#302 = CARTESIAN_POINT('',(-10.02447755261,14.673255813953,3.));
#303 = LINE('',#304,#305);
#304 = CARTESIAN_POINT('',(-48.06836892598,119.52631626162,3.));
#305 = VECTOR('',#306,1.);
#306 = DIRECTION('',(-0.341073931191,0.940036474538,-2.087300276039E-16)
  );
#307 = ORIENTED_EDGE('',*,*,#308,.F.);
#308 = EDGE_CURVE('',#309,#301,#311,.T.);
#309 = VERTEX_POINT('',#310);
#310 = CARTESIAN_POINT('',(-5.221493359302,14.673255813953,3.));
#311 = LINE('',#312,#313);
#312 = CARTESIAN_POINT('',(-104.7707466796,14.673255813953,3.));
#313 = VECTOR('',#314,1.);
#314 = DIRECTION('',(-1.,0.,0.));
#315 = ORIENTED_EDGE('',*,*,#316,.F.);
#316 = EDGE_CURVE('',#317,#309,#319,.T.);
#317 = VERTEX_POINT('',#318);
#318 = CARTESIAN_POINT('',(-3.881672320058,18.15,3.));
#319 = LINE('',#320,#321);
#320 = CARTESIAN_POINT('',(10.562815351713,55.632460016884,3.));
#321 = VECTOR('',#322,1.);
#322 = DIRECTION('',(-0.359589627743,-0.933110550588,2.071921635568E-16)
  );
#323 = ORIENTED_EDGE('',*,*,#324,.F.);
#324 = EDGE_CURVE('',#325,#317,#327,.T.);
#325 = VERTEX_POINT('',#326);
#326 = CARTESIAN_POINT('',(-2.150090743023,18.15,3.));
#327 = LINE('',#328,#329);
#328 = CARTESIAN_POINT('',(-103.2350453715,18.15,3.));
#329 = VECTOR('',#330,1.);
#330 = DIRECTION('',(-1.,0.,0.));
#331 = ORIENTED_EDGE('',*,*,#332,.F.);
#332 = EDGE_CURVE('',#333,#325,#335,.T.);
#333 = VERTEX_POINT('',#334);
#334 = CARTESIAN_POINT('',(-6.851217196512,6.65,3.));
#335 = LINE('',#336,#337);
#336 = CARTESIAN_POINT('',(9.631357713547,46.970041024427,3.));
#337 = VECTOR('',#338,1.);
#338 = DIRECTION('',(0.378397088703,0.92564336721,-2.055341157737E-16));
#339 = ORIENTED_EDGE('',*,*,#340,.F.);
#340 = EDGE_CURVE('',#341,#333,#343,.T.);
#341 = VERTEX_POINT('',#342);
#342 = CARTESIAN_POINT('',(-8.488776244477,6.65,3.));
#343 = LINE('',#344,#345);
#344 = CARTESIAN_POINT('',(-106.4043881222,6.65,3.));
#345 = VECTOR('',#346,1.);
#346 = DIRECTION('',(1.,0.,0.));
#347 = ORIENTED_EDGE('',*,*,#348,.F.);
#348 = EDGE_CURVE('',#226,#341,#349,.T.);
#349 = LINE('',#350,#351);
#350 = CARTESIAN_POINT('',(-52.48537890159,121.34854400226,3.));
#351 = VECTOR('',#352,1.);
#352 = DIRECTION('',(0.358140599612,-0.933667666201,2.073158680729E-16)
  );
#353 = ORIENTED_EDGE('',*,*,#233,.F.);
#354 = ORIENTED_EDGE('',*,*,#177,.F.);
#355 = ORIENTED_EDGE('',*,*,#153,.F.);
#356 = ORIENTED_EDGE('',*,*,#129,.T.);
#357 = FACE_BOUND('',#358,.T.);
#358 = EDGE_LOOP('',(#359));
#359 = ORIENTED_EDGE('',*,*,#264,.F.);
#360 = FACE_BOUND('',#361,.T.);
#361 = EDGE_LOOP('',(#362,#372,#380,#388,#405,#420,#428,#440,#455));
#362 = ORIENTED_EDGE('',*,*,#363,.F.);
#363 = EDGE_CURVE('',#364,#366,#368,.T.);
#364 = VERTEX_POINT('',#365);
#365 = CARTESIAN_POINT('',(3.799445957558,18.15,3.));
#366 = VERTEX_POINT('',#367);
#367 = CARTESIAN_POINT('',(2.389108021512,18.15,3.));
#368 = LINE('',#369,#370);
#369 = CARTESIAN_POINT('',(-100.2602770212,18.15,3.));
#370 = VECTOR('',#371,1.);
#371 = DIRECTION('',(-1.,0.,0.));
#372 = ORIENTED_EDGE('',*,*,#373,.F.);
#373 = EDGE_CURVE('',#374,#364,#376,.T.);
#374 = VERTEX_POINT('',#375);
#375 = CARTESIAN_POINT('',(3.799445957558,6.583139534884,3.));
#376 = LINE('',#377,#378);
#377 = CARTESIAN_POINT('',(3.799445957558,94.036569767442,3.));
#378 = VECTOR('',#379,1.);
#379 = DIRECTION('',(0.,1.,-2.22044604925E-16));
#380 = ORIENTED_EDGE('',*,*,#381,.F.);
#381 = EDGE_CURVE('',#382,#374,#384,.T.);
#382 = VERTEX_POINT('',#383);
#383 = CARTESIAN_POINT('',(2.890561509884,6.583139534884,3.));
#384 = LINE('',#385,#386);
#385 = CARTESIAN_POINT('',(-100.714719245,6.583139534884,3.));
#386 = VECTOR('',#387,1.);
#387 = DIRECTION('',(1.,0.,0.));
#388 = ORIENTED_EDGE('',*,*,#389,.T.);
#389 = EDGE_CURVE('',#382,#390,#392,.T.);
#390 = VERTEX_POINT('',#391);
#391 = CARTESIAN_POINT('',(1.636927788953,8.123541969477,3.));
#392 = B_SPLINE_CURVE_WITH_KNOTS('',6,(#393,#394,#395,#396,#397,#398,
    #399,#400,#401,#402,#403,#404),.UNSPECIFIED.,.F.,.F.,(7,5,7),(0.,
    0.466011463307,1.),.UNSPECIFIED.);
#393 = CARTESIAN_POINT('',(2.890561509884,6.583139534884,3.));
#394 = CARTESIAN_POINT('',(2.824691978398,6.716653805087,3.));
#395 = CARTESIAN_POINT('',(2.750598286391,6.847628800898,3.));
#396 = CARTESIAN_POINT('',(2.669277980274,6.975906169333,3.));
#397 = CARTESIAN_POINT('',(2.581661923331,7.101443450415,3.));
#398 = CARTESIAN_POINT('',(2.488534659049,7.224281831532,3.));
#399 = CARTESIAN_POINT('',(2.278199987448,7.482336669537,3.));
#400 = CARTESIAN_POINT('',(2.159485493616,7.616715961846,3.));
#401 = CARTESIAN_POINT('',(2.03531507846,7.747846167811,3.));
#402 = CARTESIAN_POINT('',(1.906454460738,7.875900457471,3.));
#403 = CARTESIAN_POINT('',(1.773506983555,8.001063871663,3.));
#404 = CARTESIAN_POINT('',(1.636927788953,8.123541969477,3.));
#405 = ORIENTED_EDGE('',*,*,#406,.T.);
#406 = EDGE_CURVE('',#390,#407,#409,.T.);
#407 = VERTEX_POINT('',#408);
#408 = CARTESIAN_POINT('',(-0.431567850581,9.474854651163,3.));
#409 = B_SPLINE_CURVE_WITH_KNOTS('',5,(#410,#411,#412,#413,#414,#415,
    #416,#417,#418,#419),.UNSPECIFIED.,.F.,.F.,(6,4,6),(0.,
    0.491603781875,1.),.UNSPECIFIED.);
#410 = CARTESIAN_POINT('',(1.636927788953,8.123541969477,3.));
#411 = CARTESIAN_POINT('',(1.456468110996,8.285263651375,3.));
#412 = CARTESIAN_POINT('',(1.269336032949,8.43992016978,3.));
#413 = CARTESIAN_POINT('',(1.076023893254,8.587376802271,3.));
#414 = CARTESIAN_POINT('',(0.877062518113,8.727638270419,3.));
#415 = CARTESIAN_POINT('',(0.461918785492,8.998499470788,3.));
#416 = CARTESIAN_POINT('',(0.245377979935,9.128606993472,3.));
#417 = CARTESIAN_POINT('',(2.392778488397E-02,9.251221685369,3.));
#418 = CARTESIAN_POINT('',(-0.201882779552,9.366552816346,3.));
#419 = CARTESIAN_POINT('',(-0.431567850581,9.474854651163,3.));
#420 = ORIENTED_EDGE('',*,*,#421,.F.);
#421 = EDGE_CURVE('',#422,#407,#424,.T.);
#422 = VERTEX_POINT('',#423);
#423 = CARTESIAN_POINT('',(-0.431567850581,10.842360101744,3.));
#424 = LINE('',#425,#426);
#425 = CARTESIAN_POINT('',(-0.431567850581,96.166180050872,3.));
#426 = VECTOR('',#427,1.);
#427 = DIRECTION('',(0.,-1.,2.22044604925E-16));
#428 = ORIENTED_EDGE('',*,*,#429,.T.);
#429 = EDGE_CURVE('',#422,#430,#432,.T.);
#430 = VERTEX_POINT('',#431);
#431 = CARTESIAN_POINT('',(1.052943413953,10.111596111919,3.));
#432 = B_SPLINE_CURVE_WITH_KNOTS('',6,(#433,#434,#435,#436,#437,#438,
    #439),.UNSPECIFIED.,.F.,.F.,(7,7),(0.,1.),.PIECEWISE_BEZIER_KNOTS.);
#433 = CARTESIAN_POINT('',(-0.431567850581,10.842360101744,3.));
#434 = CARTESIAN_POINT('',(-0.184987422118,10.751164482963,3.));
#435 = CARTESIAN_POINT('',(6.295663753653E-02,10.644160523456,3.));
#436 = CARTESIAN_POINT('',(0.311221366072,10.524705661825,3.));
#437 = CARTESIAN_POINT('',(0.559127902282,10.395094627996,3.));
#438 = CARTESIAN_POINT('',(0.806354938339,10.257024081418,3.));
#439 = CARTESIAN_POINT('',(1.052943413953,10.111596111919,3.));
#440 = ORIENTED_EDGE('',*,*,#441,.T.);
#441 = EDGE_CURVE('',#430,#442,#444,.T.);
#442 = VERTEX_POINT('',#443);
#443 = CARTESIAN_POINT('',(2.389108021512,9.136895893895,3.));
#444 = B_SPLINE_CURVE_WITH_KNOTS('',5,(#445,#446,#447,#448,#449,#450,
    #451,#452,#453,#454),.UNSPECIFIED.,.F.,.F.,(6,4,6),(0.,
    0.547147886256,1.),.UNSPECIFIED.);
#445 = CARTESIAN_POINT('',(1.052943413953,10.111596111919,3.));
#446 = CARTESIAN_POINT('',(1.214919127404,10.016129693315,3.));
#447 = CARTESIAN_POINT('',(1.373717930897,9.918046771595,3.));
#448 = CARTESIAN_POINT('',(1.528892949834,9.817117318027,3.));
#449 = CARTESIAN_POINT('',(1.679827981856,9.71310303818,3.));
#450 = CARTESIAN_POINT('',(1.94642321219,9.516855657695,3.));
#451 = CARTESIAN_POINT('',(2.063671148922,9.425687788424,3.));
#452 = CARTESIAN_POINT('',(2.176972387808,9.332063779455,3.));
#453 = CARTESIAN_POINT('',(2.28570829454,9.235841478782,3.));
#454 = CARTESIAN_POINT('',(2.389108021512,9.136895893895,3.));
#455 = ORIENTED_EDGE('',*,*,#456,.F.);
#456 = EDGE_CURVE('',#366,#442,#457,.T.);
#457 = LINE('',#458,#459);
#458 = CARTESIAN_POINT('',(2.389108021512,99.82,3.));
#459 = VECTOR('',#460,1.);
#460 = DIRECTION('',(0.,-1.,2.22044604925E-16));
#461 = FACE_BOUND('',#462,.T.);
#462 = EDGE_LOOP('',(#463));
#463 = ORIENTED_EDGE('',*,*,#464,.F.);
#464 = EDGE_CURVE('',#465,#465,#467,.T.);
#465 = VERTEX_POINT('',#466);
#466 = CARTESIAN_POINT('',(7.5,-7.85,3.));
#467 = CIRCLE('',#468,4.1);
#468 = AXIS2_PLACEMENT_3D('',#469,#470,#471);
#469 = CARTESIAN_POINT('',(7.5,-3.75,3.));
#470 = DIRECTION('',(-0.,2.22044604925E-16,1.));
#471 = DIRECTION('',(0.,-1.,2.22044604925E-16));
#472 = PLANE('',#473);
#473 = AXIS2_PLACEMENT_3D('',#474,#475,#476);
#474 = CARTESIAN_POINT('',(-204.32,181.49,3.));
#475 = DIRECTION('',(0.,2.22044604925E-16,1.));
#476 = DIRECTION('',(0.,-1.,2.22044604925E-16));
#477 = ADVANCED_FACE('',(#478),#496,.F.);
#478 = FACE_BOUND('',#479,.F.);
#479 = EDGE_LOOP('',(#480,#481,#489,#495));
#480 = ORIENTED_EDGE('',*,*,#225,.T.);
#481 = ORIENTED_EDGE('',*,*,#482,.T.);
#482 = EDGE_CURVE('',#218,#483,#485,.T.);
#483 = VERTEX_POINT('',#484);
#484 = CARTESIAN_POINT('',(-8.488776244477,6.65,2.4));
#485 = LINE('',#486,#487);
#486 = CARTESIAN_POINT('',(-12.8999999,18.15,2.4));
#487 = VECTOR('',#488,1.);
#488 = DIRECTION('',(0.358140599612,-0.933667666201,4.146317361458E-16)
  );
#489 = ORIENTED_EDGE('',*,*,#490,.F.);
#490 = EDGE_CURVE('',#341,#483,#491,.T.);
#491 = LINE('',#492,#493);
#492 = CARTESIAN_POINT('',(-8.488776244477,6.65,3.6));
#493 = VECTOR('',#494,1.);
#494 = DIRECTION('',(0.,-4.440892098501E-16,-1.));
#495 = ORIENTED_EDGE('',*,*,#348,.F.);
#496 = PLANE('',#497);
#497 = AXIS2_PLACEMENT_3D('',#498,#499,#500);
#498 = CARTESIAN_POINT('',(-12.8999999,18.15,3.6));
#499 = DIRECTION('',(-0.933667666201,-0.358140599612,1.590463758971E-16)
  );
#500 = DIRECTION('',(0.358140599612,-0.933667666201,4.146317361458E-16)
  );
#501 = ADVANCED_FACE('',(#502,#560),#602,.F.);
#502 = FACE_BOUND('',#503,.F.);
#503 = EDGE_LOOP('',(#504,#505,#506,#514,#522,#530,#538,#546,#554));
#504 = ORIENTED_EDGE('',*,*,#482,.F.);
#505 = ORIENTED_EDGE('',*,*,#217,.T.);
#506 = ORIENTED_EDGE('',*,*,#507,.F.);
#507 = EDGE_CURVE('',#508,#210,#510,.T.);
#508 = VERTEX_POINT('',#509);
#509 = CARTESIAN_POINT('',(-11.2859464843,18.15,2.4));
#510 = LINE('',#511,#512);
#511 = CARTESIAN_POINT('',(-11.2859464843,18.15,2.4));
#512 = VECTOR('',#513,1.);
#513 = DIRECTION('',(-1.,-0.,0.));
#514 = ORIENTED_EDGE('',*,*,#515,.F.);
#515 = EDGE_CURVE('',#516,#508,#518,.T.);
#516 = VERTEX_POINT('',#517);
#517 = CARTESIAN_POINT('',(-10.02447755261,14.673255813953,2.4));
#518 = LINE('',#519,#520);
#519 = CARTESIAN_POINT('',(-10.02447755261,14.673255813953,2.4));
#520 = VECTOR('',#521,1.);
#521 = DIRECTION('',(-0.341073931191,0.940036474538,-4.174600552078E-16)
  );
#522 = ORIENTED_EDGE('',*,*,#523,.F.);
#523 = EDGE_CURVE('',#524,#516,#526,.T.);
#524 = VERTEX_POINT('',#525);
#525 = CARTESIAN_POINT('',(-5.221493359302,14.673255813953,2.4));
#526 = LINE('',#527,#528);
#527 = CARTESIAN_POINT('',(-5.221493359302,14.673255813953,2.4));
#528 = VECTOR('',#529,1.);
#529 = DIRECTION('',(-1.,-0.,0.));
#530 = ORIENTED_EDGE('',*,*,#531,.F.);
#531 = EDGE_CURVE('',#532,#524,#534,.T.);
#532 = VERTEX_POINT('',#533);
#533 = CARTESIAN_POINT('',(-3.881672320058,18.15,2.4));
#534 = LINE('',#535,#536);
#535 = CARTESIAN_POINT('',(-3.881672320058,18.15,2.4));
#536 = VECTOR('',#537,1.);
#537 = DIRECTION('',(-0.359589627743,-0.933110550588,4.143843271136E-16)
  );
#538 = ORIENTED_EDGE('',*,*,#539,.F.);
#539 = EDGE_CURVE('',#540,#532,#542,.T.);
#540 = VERTEX_POINT('',#541);
#541 = CARTESIAN_POINT('',(-2.150090743023,18.15,2.4));
#542 = LINE('',#543,#544);
#543 = CARTESIAN_POINT('',(-2.150090743023,18.15,2.4));
#544 = VECTOR('',#545,1.);
#545 = DIRECTION('',(-1.,-0.,0.));
#546 = ORIENTED_EDGE('',*,*,#547,.F.);
#547 = EDGE_CURVE('',#548,#540,#550,.T.);
#548 = VERTEX_POINT('',#549);
#549 = CARTESIAN_POINT('',(-6.851217196512,6.65,2.4));
#550 = LINE('',#551,#552);
#551 = CARTESIAN_POINT('',(-6.851217196512,6.65,2.4));
#552 = VECTOR('',#553,1.);
#553 = DIRECTION('',(0.378397088703,0.92564336721,-4.110682315475E-16));
#554 = ORIENTED_EDGE('',*,*,#555,.F.);
#555 = EDGE_CURVE('',#483,#548,#556,.T.);
#556 = LINE('',#557,#558);
#557 = CARTESIAN_POINT('',(-8.488776244477,6.65,2.4));
#558 = VECTOR('',#559,1.);
#559 = DIRECTION('',(1.,0.,0.));
#560 = FACE_BOUND('',#561,.F.);
#561 = EDGE_LOOP('',(#562,#572,#580,#588,#596));
#562 = ORIENTED_EDGE('',*,*,#563,.F.);
#563 = EDGE_CURVE('',#564,#566,#568,.T.);
#564 = VERTEX_POINT('',#565);
#565 = CARTESIAN_POINT('',(-9.585705750291,13.436337209302,2.4));
#566 = VERTEX_POINT('',#567);
#567 = CARTESIAN_POINT('',(-5.691606004651,13.436337209302,2.4));
#568 = LINE('',#569,#570);
#569 = CARTESIAN_POINT('',(-9.585705750291,13.436337209302,2.4));
#570 = VECTOR('',#571,1.);
#571 = DIRECTION('',(1.,0.,0.));
#572 = ORIENTED_EDGE('',*,*,#573,.F.);
#573 = EDGE_CURVE('',#574,#564,#576,.T.);
#574 = VERTEX_POINT('',#575);
#575 = CARTESIAN_POINT('',(-8.324236818605,10.061450763081,2.4));
#576 = LINE('',#577,#578);
#577 = CARTESIAN_POINT('',(-8.324236818605,10.061450763081,2.4));
#578 = VECTOR('',#579,1.);
#579 = DIRECTION('',(-0.350122295742,0.936703997015,-4.159801378978E-16)
  );
#580 = ORIENTED_EDGE('',*,*,#581,.F.);
#581 = EDGE_CURVE('',#582,#574,#584,.T.);
#582 = VERTEX_POINT('',#583);
#583 = CARTESIAN_POINT('',(-7.705255168895,7.853488372093,2.4));
#584 = B_SPLINE_CURVE_WITH_KNOTS('',2,(#585,#586,#587),.UNSPECIFIED.,.F.
  ,.F.,(3,3),(0.,1.),.PIECEWISE_BEZIER_KNOTS.);
#585 = CARTESIAN_POINT('',(-7.705255168895,7.853488372093,2.4));
#586 = CARTESIAN_POINT('',(-7.924641070058,8.966088299419,2.4));
#587 = CARTESIAN_POINT('',(-8.324236818605,10.061450763081,2.4));
#588 = ORIENTED_EDGE('',*,*,#589,.F.);
#589 = EDGE_CURVE('',#590,#582,#592,.T.);
#590 = VERTEX_POINT('',#591);
#591 = CARTESIAN_POINT('',(-6.890393250291,10.250540515988,2.4));
#592 = B_SPLINE_CURVE_WITH_KNOTS('',2,(#593,#594,#595),.UNSPECIFIED.,.F.
  ,.F.,(3,3),(0.,1.),.PIECEWISE_BEZIER_KNOTS.);
#593 = CARTESIAN_POINT('',(-6.890393250291,10.250540515988,2.4));
#594 = CARTESIAN_POINT('',(-7.438858003198,8.79789244186,2.4));
#595 = CARTESIAN_POINT('',(-7.705255168895,7.853488372093,2.4));
#596 = ORIENTED_EDGE('',*,*,#597,.F.);
#597 = EDGE_CURVE('',#566,#590,#598,.T.);
#598 = LINE('',#599,#600);
#599 = CARTESIAN_POINT('',(-5.691606004651,13.436337209302,2.4));
#600 = VECTOR('',#601,1.);
#601 = DIRECTION('',(-0.352182697391,-0.935931272935,4.156369794719E-16)
  );
#602 = PLANE('',#603);
#603 = AXIS2_PLACEMENT_3D('',#604,#605,#606);
#604 = CARTESIAN_POINT('',(-3.971413779645,12.600402421527,2.4));
#605 = DIRECTION('',(0.,-4.440892098501E-16,-1.));
#606 = DIRECTION('',(1.,0.,0.));
#607 = ADVANCED_FACE('',(#608),#619,.F.);
#608 = FACE_BOUND('',#609,.F.);
#609 = EDGE_LOOP('',(#610,#611,#617,#618));
#610 = ORIENTED_EDGE('',*,*,#292,.F.);
#611 = ORIENTED_EDGE('',*,*,#612,.T.);
#612 = EDGE_CURVE('',#293,#508,#613,.T.);
#613 = LINE('',#614,#615);
#614 = CARTESIAN_POINT('',(-11.2859464843,18.15,3.6));
#615 = VECTOR('',#616,1.);
#616 = DIRECTION('',(0.,-4.440892098501E-16,-1.));
#617 = ORIENTED_EDGE('',*,*,#507,.T.);
#618 = ORIENTED_EDGE('',*,*,#209,.T.);
#619 = PLANE('',#620);
#620 = AXIS2_PLACEMENT_3D('',#621,#622,#623);
#621 = CARTESIAN_POINT('',(-11.2859464843,18.15,3.6));
#622 = DIRECTION('',(0.,1.,-4.440892098501E-16));
#623 = DIRECTION('',(-1.,-0.,0.));
#624 = ADVANCED_FACE('',(#625),#636,.F.);
#625 = FACE_BOUND('',#626,.F.);
#626 = EDGE_LOOP('',(#627,#628,#629,#630));
#627 = ORIENTED_EDGE('',*,*,#340,.F.);
#628 = ORIENTED_EDGE('',*,*,#490,.T.);
#629 = ORIENTED_EDGE('',*,*,#555,.T.);
#630 = ORIENTED_EDGE('',*,*,#631,.F.);
#631 = EDGE_CURVE('',#333,#548,#632,.T.);
#632 = LINE('',#633,#634);
#633 = CARTESIAN_POINT('',(-6.851217196512,6.65,3.6));
#634 = VECTOR('',#635,1.);
#635 = DIRECTION('',(0.,-4.440892098501E-16,-1.));
#636 = PLANE('',#637);
#637 = AXIS2_PLACEMENT_3D('',#638,#639,#640);
#638 = CARTESIAN_POINT('',(-8.488776244477,6.65,3.6));
#639 = DIRECTION('',(0.,-1.,4.440892098501E-16));
#640 = DIRECTION('',(1.,0.,0.));
#641 = ADVANCED_FACE('',(#642),#653,.F.);
#642 = FACE_BOUND('',#643,.F.);
#643 = EDGE_LOOP('',(#644,#645,#646,#647));
#644 = ORIENTED_EDGE('',*,*,#332,.F.);
#645 = ORIENTED_EDGE('',*,*,#631,.T.);
#646 = ORIENTED_EDGE('',*,*,#547,.T.);
#647 = ORIENTED_EDGE('',*,*,#648,.F.);
#648 = EDGE_CURVE('',#325,#540,#649,.T.);
#649 = LINE('',#650,#651);
#650 = CARTESIAN_POINT('',(-2.150090743023,18.15,3.6));
#651 = VECTOR('',#652,1.);
#652 = DIRECTION('',(0.,-4.440892098501E-16,-1.));
#653 = PLANE('',#654);
#654 = AXIS2_PLACEMENT_3D('',#655,#656,#657);
#655 = CARTESIAN_POINT('',(-6.851217196512,6.65,3.6));
#656 = DIRECTION('',(0.92564336721,-0.378397088703,1.680420641319E-16));
#657 = DIRECTION('',(0.378397088703,0.92564336721,-4.110682315475E-16));
#658 = ADVANCED_FACE('',(#659),#670,.F.);
#659 = FACE_BOUND('',#660,.F.);
#660 = EDGE_LOOP('',(#661,#662,#663,#664));
#661 = ORIENTED_EDGE('',*,*,#324,.F.);
#662 = ORIENTED_EDGE('',*,*,#648,.T.);
#663 = ORIENTED_EDGE('',*,*,#539,.T.);
#664 = ORIENTED_EDGE('',*,*,#665,.F.);
#665 = EDGE_CURVE('',#317,#532,#666,.T.);
#666 = LINE('',#667,#668);
#667 = CARTESIAN_POINT('',(-3.881672320058,18.15,3.6));
#668 = VECTOR('',#669,1.);
#669 = DIRECTION('',(0.,-4.440892098501E-16,-1.));
#670 = PLANE('',#671);
#671 = AXIS2_PLACEMENT_3D('',#672,#673,#674);
#672 = CARTESIAN_POINT('',(-2.150090743023,18.15,3.6));
#673 = DIRECTION('',(0.,1.,-4.440892098501E-16));
#674 = DIRECTION('',(-1.,-0.,0.));
#675 = ADVANCED_FACE('',(#676),#687,.F.);
#676 = FACE_BOUND('',#677,.F.);
#677 = EDGE_LOOP('',(#678,#679,#680,#681));
#678 = ORIENTED_EDGE('',*,*,#316,.F.);
#679 = ORIENTED_EDGE('',*,*,#665,.T.);
#680 = ORIENTED_EDGE('',*,*,#531,.T.);
#681 = ORIENTED_EDGE('',*,*,#682,.F.);
#682 = EDGE_CURVE('',#309,#524,#683,.T.);
#683 = LINE('',#684,#685);
#684 = CARTESIAN_POINT('',(-5.221493359302,14.673255813953,3.6));
#685 = VECTOR('',#686,1.);
#686 = DIRECTION('',(0.,-4.440892098501E-16,-1.));
#687 = PLANE('',#688);
#688 = AXIS2_PLACEMENT_3D('',#689,#690,#691);
#689 = CARTESIAN_POINT('',(-3.881672320058,18.15,3.6));
#690 = DIRECTION('',(-0.933110550588,0.359589627743,-1.596898736548E-16)
  );
#691 = DIRECTION('',(-0.359589627743,-0.933110550588,4.143843271136E-16)
  );
#692 = ADVANCED_FACE('',(#693),#704,.F.);
#693 = FACE_BOUND('',#694,.F.);
#694 = EDGE_LOOP('',(#695,#696,#697,#698));
#695 = ORIENTED_EDGE('',*,*,#308,.F.);
#696 = ORIENTED_EDGE('',*,*,#682,.T.);
#697 = ORIENTED_EDGE('',*,*,#523,.T.);
#698 = ORIENTED_EDGE('',*,*,#699,.F.);
#699 = EDGE_CURVE('',#301,#516,#700,.T.);
#700 = LINE('',#701,#702);
#701 = CARTESIAN_POINT('',(-10.02447755261,14.673255813953,3.6));
#702 = VECTOR('',#703,1.);
#703 = DIRECTION('',(0.,-4.440892098501E-16,-1.));
#704 = PLANE('',#705);
#705 = AXIS2_PLACEMENT_3D('',#706,#707,#708);
#706 = CARTESIAN_POINT('',(-5.221493359302,14.673255813953,3.6));
#707 = DIRECTION('',(0.,1.,-4.440892098501E-16));
#708 = DIRECTION('',(-1.,-0.,0.));
#709 = ADVANCED_FACE('',(#710),#716,.F.);
#710 = FACE_BOUND('',#711,.F.);
#711 = EDGE_LOOP('',(#712,#713,#714,#715));
#712 = ORIENTED_EDGE('',*,*,#300,.F.);
#713 = ORIENTED_EDGE('',*,*,#699,.T.);
#714 = ORIENTED_EDGE('',*,*,#515,.T.);
#715 = ORIENTED_EDGE('',*,*,#612,.F.);
#716 = PLANE('',#717);
#717 = AXIS2_PLACEMENT_3D('',#718,#719,#720);
#718 = CARTESIAN_POINT('',(-10.02447755261,14.673255813953,3.6));
#719 = DIRECTION('',(0.940036474538,0.341073931191,-1.514672526032E-16)
  );
#720 = DIRECTION('',(-0.341073931191,0.940036474538,-4.174600552078E-16)
  );
#721 = ADVANCED_FACE('',(#722),#747,.F.);
#722 = FACE_BOUND('',#723,.F.);
#723 = EDGE_LOOP('',(#724,#725,#733,#741));
#724 = ORIENTED_EDGE('',*,*,#363,.F.);
#725 = ORIENTED_EDGE('',*,*,#726,.T.);
#726 = EDGE_CURVE('',#364,#727,#729,.T.);
#727 = VERTEX_POINT('',#728);
#728 = CARTESIAN_POINT('',(3.799445957558,18.15,2.4));
#729 = LINE('',#730,#731);
#730 = CARTESIAN_POINT('',(3.799445957558,18.15,3.6));
#731 = VECTOR('',#732,1.);
#732 = DIRECTION('',(0.,-4.440892098501E-16,-1.));
#733 = ORIENTED_EDGE('',*,*,#734,.T.);
#734 = EDGE_CURVE('',#727,#735,#737,.T.);
#735 = VERTEX_POINT('',#736);
#736 = CARTESIAN_POINT('',(2.389108021512,18.15,2.4));
#737 = LINE('',#738,#739);
#738 = CARTESIAN_POINT('',(3.799445957558,18.15,2.4));
#739 = VECTOR('',#740,1.);
#740 = DIRECTION('',(-1.,-0.,0.));
#741 = ORIENTED_EDGE('',*,*,#742,.F.);
#742 = EDGE_CURVE('',#366,#735,#743,.T.);
#743 = LINE('',#744,#745);
#744 = CARTESIAN_POINT('',(2.389108021512,18.15,3.6));
#745 = VECTOR('',#746,1.);
#746 = DIRECTION('',(0.,-4.440892098501E-16,-1.));
#747 = PLANE('',#748);
#748 = AXIS2_PLACEMENT_3D('',#749,#750,#751);
#749 = CARTESIAN_POINT('',(3.799445957558,18.15,3.6));
#750 = DIRECTION('',(0.,1.,-4.440892098501E-16));
#751 = DIRECTION('',(-1.,-0.,0.));
#752 = ADVANCED_FACE('',(#753),#771,.F.);
#753 = FACE_BOUND('',#754,.F.);
#754 = EDGE_LOOP('',(#755,#756,#757,#765));
#755 = ORIENTED_EDGE('',*,*,#456,.F.);
#756 = ORIENTED_EDGE('',*,*,#742,.T.);
#757 = ORIENTED_EDGE('',*,*,#758,.T.);
#758 = EDGE_CURVE('',#735,#759,#761,.T.);
#759 = VERTEX_POINT('',#760);
#760 = CARTESIAN_POINT('',(2.389108021512,9.136895893895,2.4));
#761 = LINE('',#762,#763);
#762 = CARTESIAN_POINT('',(2.389108021512,18.15,2.4));
#763 = VECTOR('',#764,1.);
#764 = DIRECTION('',(0.,-1.,4.440892098501E-16));
#765 = ORIENTED_EDGE('',*,*,#766,.F.);
#766 = EDGE_CURVE('',#442,#759,#767,.T.);
#767 = LINE('',#768,#769);
#768 = CARTESIAN_POINT('',(2.389108021512,9.136895893895,3.6));
#769 = VECTOR('',#770,1.);
#770 = DIRECTION('',(0.,-4.440892098501E-16,-1.));
#771 = PLANE('',#772);
#772 = AXIS2_PLACEMENT_3D('',#773,#774,#775);
#773 = CARTESIAN_POINT('',(2.389108021512,18.15,3.6));
#774 = DIRECTION('',(-1.,-0.,0.));
#775 = DIRECTION('',(0.,-1.,4.440892098501E-16));
#776 = ADVANCED_FACE('',(#777),#795,.F.);
#777 = FACE_BOUND('',#778,.F.);
#778 = EDGE_LOOP('',(#779,#780,#781,#789));
#779 = ORIENTED_EDGE('',*,*,#441,.T.);
#780 = ORIENTED_EDGE('',*,*,#766,.T.);
#781 = ORIENTED_EDGE('',*,*,#782,.T.);
#782 = EDGE_CURVE('',#759,#783,#785,.T.);
#783 = VERTEX_POINT('',#784);
#784 = CARTESIAN_POINT('',(1.052943413953,10.111596111919,2.4));
#785 = B_SPLINE_CURVE_WITH_KNOTS('',2,(#786,#787,#788),.UNSPECIFIED.,.F.
  ,.F.,(3,3),(0.,1.),.PIECEWISE_BEZIER_KNOTS.);
#786 = CARTESIAN_POINT('',(2.389108021512,9.136895893895,2.4));
#787 = CARTESIAN_POINT('',(1.879819322384,9.624246002907,2.4));
#788 = CARTESIAN_POINT('',(1.052943413953,10.111596111919,2.4));
#789 = ORIENTED_EDGE('',*,*,#790,.F.);
#790 = EDGE_CURVE('',#430,#783,#791,.T.);
#791 = LINE('',#792,#793);
#792 = CARTESIAN_POINT('',(1.052943413953,10.111596111919,3.6));
#793 = VECTOR('',#794,1.);
#794 = DIRECTION('',(0.,-4.440892098501E-16,-1.));
#795 = SURFACE_OF_LINEAR_EXTRUSION('',#796,#800);
#796 = B_SPLINE_CURVE_WITH_KNOTS('',2,(#797,#798,#799),.UNSPECIFIED.,.F.
  ,.F.,(3,3),(0.,1.),.PIECEWISE_BEZIER_KNOTS.);
#797 = CARTESIAN_POINT('',(2.389108021512,9.136895893895,3.6));
#798 = CARTESIAN_POINT('',(1.879819322384,9.624246002907,3.6));
#799 = CARTESIAN_POINT('',(1.052943413953,10.111596111919,3.6));
#800 = VECTOR('',#801,1.);
#801 = DIRECTION('',(-0.,4.440892098501E-16,1.));
#802 = ADVANCED_FACE('',(#803),#821,.F.);
#803 = FACE_BOUND('',#804,.F.);
#804 = EDGE_LOOP('',(#805,#806,#807,#815));
#805 = ORIENTED_EDGE('',*,*,#429,.T.);
#806 = ORIENTED_EDGE('',*,*,#790,.T.);
#807 = ORIENTED_EDGE('',*,*,#808,.T.);
#808 = EDGE_CURVE('',#783,#809,#811,.T.);
#809 = VERTEX_POINT('',#810);
#810 = CARTESIAN_POINT('',(-0.431567850581,10.842360101744,2.4));
#811 = B_SPLINE_CURVE_WITH_KNOTS('',2,(#812,#813,#814),.UNSPECIFIED.,.F.
  ,.F.,(3,3),(0.,1.),.PIECEWISE_BEZIER_KNOTS.);
#812 = CARTESIAN_POINT('',(1.052943413953,10.111596111919,2.4));
#813 = CARTESIAN_POINT('',(0.226589852907,10.59894622093,2.4));
#814 = CARTESIAN_POINT('',(-0.431567850581,10.842360101744,2.4));
#815 = ORIENTED_EDGE('',*,*,#816,.F.);
#816 = EDGE_CURVE('',#422,#809,#817,.T.);
#817 = LINE('',#818,#819);
#818 = CARTESIAN_POINT('',(-0.431567850581,10.842360101744,3.6));
#819 = VECTOR('',#820,1.);
#820 = DIRECTION('',(0.,-4.440892098501E-16,-1.));
#821 = SURFACE_OF_LINEAR_EXTRUSION('',#822,#826);
#822 = B_SPLINE_CURVE_WITH_KNOTS('',2,(#823,#824,#825),.UNSPECIFIED.,.F.
  ,.F.,(3,3),(0.,1.),.PIECEWISE_BEZIER_KNOTS.);
#823 = CARTESIAN_POINT('',(1.052943413953,10.111596111919,3.6));
#824 = CARTESIAN_POINT('',(0.226589852907,10.59894622093,3.6));
#825 = CARTESIAN_POINT('',(-0.431567850581,10.842360101744,3.6));
#826 = VECTOR('',#827,1.);
#827 = DIRECTION('',(-0.,4.440892098501E-16,1.));
#828 = ADVANCED_FACE('',(#829),#847,.F.);
#829 = FACE_BOUND('',#830,.F.);
#830 = EDGE_LOOP('',(#831,#832,#833,#841));
#831 = ORIENTED_EDGE('',*,*,#421,.F.);
#832 = ORIENTED_EDGE('',*,*,#816,.T.);
#833 = ORIENTED_EDGE('',*,*,#834,.T.);
#834 = EDGE_CURVE('',#809,#835,#837,.T.);
#835 = VERTEX_POINT('',#836);
#836 = CARTESIAN_POINT('',(-0.431567850581,9.474854651163,2.4));
#837 = LINE('',#838,#839);
#838 = CARTESIAN_POINT('',(-0.431567850581,10.842360101744,2.4));
#839 = VECTOR('',#840,1.);
#840 = DIRECTION('',(0.,-1.,4.440892098501E-16));
#841 = ORIENTED_EDGE('',*,*,#842,.F.);
#842 = EDGE_CURVE('',#407,#835,#843,.T.);
#843 = LINE('',#844,#845);
#844 = CARTESIAN_POINT('',(-0.431567850581,9.474854651163,3.6));
#845 = VECTOR('',#846,1.);
#846 = DIRECTION('',(0.,-4.440892098501E-16,-1.));
#847 = PLANE('',#848);
#848 = AXIS2_PLACEMENT_3D('',#849,#850,#851);
#849 = CARTESIAN_POINT('',(-0.431567850581,10.842360101744,3.6));
#850 = DIRECTION('',(-1.,-0.,0.));
#851 = DIRECTION('',(0.,-1.,4.440892098501E-16));
#852 = ADVANCED_FACE('',(#853),#871,.F.);
#853 = FACE_BOUND('',#854,.F.);
#854 = EDGE_LOOP('',(#855,#856,#857,#865));
#855 = ORIENTED_EDGE('',*,*,#406,.T.);
#856 = ORIENTED_EDGE('',*,*,#842,.T.);
#857 = ORIENTED_EDGE('',*,*,#858,.T.);
#858 = EDGE_CURVE('',#835,#859,#861,.T.);
#859 = VERTEX_POINT('',#860);
#860 = CARTESIAN_POINT('',(1.636927788953,8.123541969477,2.4));
#861 = B_SPLINE_CURVE_WITH_KNOTS('',2,(#862,#863,#864),.UNSPECIFIED.,.F.
  ,.F.,(3,3),(0.,1.),.PIECEWISE_BEZIER_KNOTS.);
#862 = CARTESIAN_POINT('',(-0.431567850581,9.474854651163,2.4));
#863 = CARTESIAN_POINT('',(0.751548973547,8.916987645349,2.4));
#864 = CARTESIAN_POINT('',(1.636927788953,8.123541969477,2.4));
#865 = ORIENTED_EDGE('',*,*,#866,.F.);
#866 = EDGE_CURVE('',#390,#859,#867,.T.);
#867 = LINE('',#868,#869);
#868 = CARTESIAN_POINT('',(1.636927788953,8.123541969477,3.6));
#869 = VECTOR('',#870,1.);
#870 = DIRECTION('',(0.,-4.440892098501E-16,-1.));
#871 = SURFACE_OF_LINEAR_EXTRUSION('',#872,#876);
#872 = B_SPLINE_CURVE_WITH_KNOTS('',2,(#873,#874,#875),.UNSPECIFIED.,.F.
  ,.F.,(3,3),(0.,1.),.PIECEWISE_BEZIER_KNOTS.);
#873 = CARTESIAN_POINT('',(-0.431567850581,9.474854651163,3.6));
#874 = CARTESIAN_POINT('',(0.751548973547,8.916987645349,3.6));
#875 = CARTESIAN_POINT('',(1.636927788953,8.123541969477,3.6));
#876 = VECTOR('',#877,1.);
#877 = DIRECTION('',(-0.,4.440892098501E-16,1.));
#878 = ADVANCED_FACE('',(#879),#897,.F.);
#879 = FACE_BOUND('',#880,.F.);
#880 = EDGE_LOOP('',(#881,#882,#883,#891));
#881 = ORIENTED_EDGE('',*,*,#389,.T.);
#882 = ORIENTED_EDGE('',*,*,#866,.T.);
#883 = ORIENTED_EDGE('',*,*,#884,.T.);
#884 = EDGE_CURVE('',#859,#885,#887,.T.);
#885 = VERTEX_POINT('',#886);
#886 = CARTESIAN_POINT('',(2.890561509884,6.583139534884,2.4));
#887 = B_SPLINE_CURVE_WITH_KNOTS('',2,(#888,#889,#890),.UNSPECIFIED.,.F.
  ,.F.,(3,3),(0.,1.),.PIECEWISE_BEZIER_KNOTS.);
#888 = CARTESIAN_POINT('',(1.636927788953,8.123541969477,2.4));
#889 = CARTESIAN_POINT('',(2.52230660436,7.329573946221,2.4));
#890 = CARTESIAN_POINT('',(2.890561509884,6.583139534884,2.4));
#891 = ORIENTED_EDGE('',*,*,#892,.F.);
#892 = EDGE_CURVE('',#382,#885,#893,.T.);
#893 = LINE('',#894,#895);
#894 = CARTESIAN_POINT('',(2.890561509884,6.583139534884,3.6));
#895 = VECTOR('',#896,1.);
#896 = DIRECTION('',(0.,-4.440892098501E-16,-1.));
#897 = SURFACE_OF_LINEAR_EXTRUSION('',#898,#902);
#898 = B_SPLINE_CURVE_WITH_KNOTS('',2,(#899,#900,#901),.UNSPECIFIED.,.F.
  ,.F.,(3,3),(0.,1.),.PIECEWISE_BEZIER_KNOTS.);
#899 = CARTESIAN_POINT('',(1.636927788953,8.123541969477,3.6));
#900 = CARTESIAN_POINT('',(2.52230660436,7.329573946221,3.6));
#901 = CARTESIAN_POINT('',(2.890561509884,6.583139534884,3.6));
#902 = VECTOR('',#903,1.);
#903 = DIRECTION('',(-0.,4.440892098501E-16,1.));
#904 = ADVANCED_FACE('',(#905),#923,.F.);
#905 = FACE_BOUND('',#906,.F.);
#906 = EDGE_LOOP('',(#907,#908,#909,#917));
#907 = ORIENTED_EDGE('',*,*,#381,.F.);
#908 = ORIENTED_EDGE('',*,*,#892,.T.);
#909 = ORIENTED_EDGE('',*,*,#910,.T.);
#910 = EDGE_CURVE('',#885,#911,#913,.T.);
#911 = VERTEX_POINT('',#912);
#912 = CARTESIAN_POINT('',(3.799445957558,6.583139534884,2.4));
#913 = LINE('',#914,#915);
#914 = CARTESIAN_POINT('',(2.890561509884,6.583139534884,2.4));
#915 = VECTOR('',#916,1.);
#916 = DIRECTION('',(1.,0.,0.));
#917 = ORIENTED_EDGE('',*,*,#918,.F.);
#918 = EDGE_CURVE('',#374,#911,#919,.T.);
#919 = LINE('',#920,#921);
#920 = CARTESIAN_POINT('',(3.799445957558,6.583139534884,3.6));
#921 = VECTOR('',#922,1.);
#922 = DIRECTION('',(0.,-4.440892098501E-16,-1.));
#923 = PLANE('',#924);
#924 = AXIS2_PLACEMENT_3D('',#925,#926,#927);
#925 = CARTESIAN_POINT('',(2.890561509884,6.583139534884,3.6));
#926 = DIRECTION('',(0.,-1.,4.440892098501E-16));
#927 = DIRECTION('',(1.,0.,0.));
#928 = ADVANCED_FACE('',(#929),#940,.F.);
#929 = FACE_BOUND('',#930,.F.);
#930 = EDGE_LOOP('',(#931,#932,#933,#939));
#931 = ORIENTED_EDGE('',*,*,#373,.F.);
#932 = ORIENTED_EDGE('',*,*,#918,.T.);
#933 = ORIENTED_EDGE('',*,*,#934,.T.);
#934 = EDGE_CURVE('',#911,#727,#935,.T.);
#935 = LINE('',#936,#937);
#936 = CARTESIAN_POINT('',(3.799445957558,6.583139534884,2.4));
#937 = VECTOR('',#938,1.);
#938 = DIRECTION('',(0.,1.,-4.440892098501E-16));
#939 = ORIENTED_EDGE('',*,*,#726,.F.);
#940 = PLANE('',#941);
#941 = AXIS2_PLACEMENT_3D('',#942,#943,#944);
#942 = CARTESIAN_POINT('',(3.799445957558,6.583139534884,3.6));
#943 = DIRECTION('',(1.,0.,0.));
#944 = DIRECTION('',(0.,1.,-4.440892098501E-16));
#945 = ADVANCED_FACE('',(#946),#965,.T.);
#946 = FACE_BOUND('',#947,.T.);
#947 = EDGE_LOOP('',(#948,#956,#963,#964));
#948 = ORIENTED_EDGE('',*,*,#949,.T.);
#949 = EDGE_CURVE('',#465,#950,#952,.T.);
#950 = VERTEX_POINT('',#951);
#951 = CARTESIAN_POINT('',(7.5,-7.85,10.1));
#952 = LINE('',#953,#954);
#953 = CARTESIAN_POINT('',(7.5,-7.85,2.7));
#954 = VECTOR('',#955,1.);
#955 = DIRECTION('',(0.,2.22044604925E-16,1.));
#956 = ORIENTED_EDGE('',*,*,#957,.F.);
#957 = EDGE_CURVE('',#950,#950,#958,.T.);
#958 = CIRCLE('',#959,4.1);
#959 = AXIS2_PLACEMENT_3D('',#960,#961,#962);
#960 = CARTESIAN_POINT('',(7.5,-3.75,10.1));
#961 = DIRECTION('',(-0.,2.22044604925E-16,1.));
#962 = DIRECTION('',(0.,-1.,2.22044604925E-16));
#963 = ORIENTED_EDGE('',*,*,#949,.F.);
#964 = ORIENTED_EDGE('',*,*,#464,.T.);
#965 = CYLINDRICAL_SURFACE('',#966,4.1);
#966 = AXIS2_PLACEMENT_3D('',#967,#968,#969);
#967 = CARTESIAN_POINT('',(7.5,-3.75,2.7));
#968 = DIRECTION('',(0.,2.22044604925E-16,1.));
#969 = DIRECTION('',(0.,-1.,2.22044604925E-16));
#970 = ADVANCED_FACE('',(#971),#996,.F.);
#971 = FACE_BOUND('',#972,.F.);
#972 = EDGE_LOOP('',(#973,#983,#989,#990));
#973 = ORIENTED_EDGE('',*,*,#974,.F.);
#974 = EDGE_CURVE('',#975,#977,#979,.T.);
#975 = VERTEX_POINT('',#976);
#976 = CARTESIAN_POINT('',(-9.585705750291,13.436337209302,3.));
#977 = VERTEX_POINT('',#978);
#978 = CARTESIAN_POINT('',(-5.691606004651,13.436337209302,3.));
#979 = LINE('',#980,#981);
#980 = CARTESIAN_POINT('',(-106.9528528751,13.436337209302,3.));
#981 = VECTOR('',#982,1.);
#982 = DIRECTION('',(1.,0.,0.));
#983 = ORIENTED_EDGE('',*,*,#984,.T.);
#984 = EDGE_CURVE('',#975,#564,#985,.T.);
#985 = LINE('',#986,#987);
#986 = CARTESIAN_POINT('',(-9.585705750291,13.436337209302,3.6));
#987 = VECTOR('',#988,1.);
#988 = DIRECTION('',(0.,-4.440892098501E-16,-1.));
#989 = ORIENTED_EDGE('',*,*,#563,.T.);
#990 = ORIENTED_EDGE('',*,*,#991,.F.);
#991 = EDGE_CURVE('',#977,#566,#992,.T.);
#992 = LINE('',#993,#994);
#993 = CARTESIAN_POINT('',(-5.691606004651,13.436337209302,3.6));
#994 = VECTOR('',#995,1.);
#995 = DIRECTION('',(0.,-4.440892098501E-16,-1.));
#996 = PLANE('',#997);
#997 = AXIS2_PLACEMENT_3D('',#998,#999,#1000);
#998 = CARTESIAN_POINT('',(-9.585705750291,13.436337209302,3.6));
#999 = DIRECTION('',(0.,-1.,4.440892098501E-16));
#1000 = DIRECTION('',(1.,0.,0.));
#1001 = ADVANCED_FACE('',(#1002),#1020,.F.);
#1002 = FACE_BOUND('',#1003,.F.);
#1003 = EDGE_LOOP('',(#1004,#1012,#1018,#1019));
#1004 = ORIENTED_EDGE('',*,*,#1005,.F.);
#1005 = EDGE_CURVE('',#1006,#975,#1008,.T.);
#1006 = VERTEX_POINT('',#1007);
#1007 = CARTESIAN_POINT('',(-8.324236818605,10.061450763081,3.));
#1008 = LINE('',#1009,#1010);
#1009 = CARTESIAN_POINT('',(-48.44830334952,117.40786643855,3.));
#1010 = VECTOR('',#1011,1.);
#1011 = DIRECTION('',(-0.350122295742,0.936703997015,-2.079900689489E-16
    ));
#1012 = ORIENTED_EDGE('',*,*,#1013,.T.);
#1013 = EDGE_CURVE('',#1006,#574,#1014,.T.);
#1014 = LINE('',#1015,#1016);
#1015 = CARTESIAN_POINT('',(-8.324236818605,10.061450763081,3.6));
#1016 = VECTOR('',#1017,1.);
#1017 = DIRECTION('',(0.,-4.440892098501E-16,-1.));
#1018 = ORIENTED_EDGE('',*,*,#573,.T.);
#1019 = ORIENTED_EDGE('',*,*,#984,.F.);
#1020 = PLANE('',#1021);
#1021 = AXIS2_PLACEMENT_3D('',#1022,#1023,#1024);
#1022 = CARTESIAN_POINT('',(-8.324236818605,10.061450763081,3.6));
#1023 = DIRECTION('',(0.936703997015,0.350122295742,-1.554855336671E-16)
  );
#1024 = DIRECTION('',(-0.350122295742,0.936703997015,-4.159801378978E-16
    ));
#1025 = ADVANCED_FACE('',(#1026),#1044,.F.);
#1026 = FACE_BOUND('',#1027,.F.);
#1027 = EDGE_LOOP('',(#1028,#1036,#1037,#1038));
#1028 = ORIENTED_EDGE('',*,*,#1029,.F.);
#1029 = EDGE_CURVE('',#977,#1030,#1032,.T.);
#1030 = VERTEX_POINT('',#1031);
#1031 = CARTESIAN_POINT('',(-6.890393250291,10.250540515988,3.));
#1032 = LINE('',#1033,#1034);
#1033 = CARTESIAN_POINT('',(9.687014081993,54.305271374202,3.));
#1034 = VECTOR('',#1035,1.);
#1035 = DIRECTION('',(-0.352182697391,-0.935931272935,2.078184897359E-16
    ));
#1036 = ORIENTED_EDGE('',*,*,#991,.T.);
#1037 = ORIENTED_EDGE('',*,*,#597,.T.);
#1038 = ORIENTED_EDGE('',*,*,#1039,.F.);
#1039 = EDGE_CURVE('',#1030,#590,#1040,.T.);
#1040 = LINE('',#1041,#1042);
#1041 = CARTESIAN_POINT('',(-6.890393250291,10.250540515988,3.6));
#1042 = VECTOR('',#1043,1.);
#1043 = DIRECTION('',(0.,-4.440892098501E-16,-1.));
#1044 = PLANE('',#1045);
#1045 = AXIS2_PLACEMENT_3D('',#1046,#1047,#1048);
#1046 = CARTESIAN_POINT('',(-5.691606004651,13.436337209302,3.6));
#1047 = DIRECTION('',(-0.935931272935,0.352182697391,-1.564005358072E-16
    ));
#1048 = DIRECTION('',(-0.352182697391,-0.935931272935,4.156369794719E-16
    ));
#1049 = ADVANCED_FACE('',(#1050),#1073,.F.);
#1050 = FACE_BOUND('',#1051,.F.);
#1051 = EDGE_LOOP('',(#1052,#1065,#1071,#1072));
#1052 = ORIENTED_EDGE('',*,*,#1053,.T.);
#1053 = EDGE_CURVE('',#1006,#1054,#1056,.T.);
#1054 = VERTEX_POINT('',#1055);
#1055 = CARTESIAN_POINT('',(-7.705255168895,7.853488372093,3.));
#1056 = B_SPLINE_CURVE_WITH_KNOTS('',4,(#1057,#1058,#1059,#1060,#1061,
    #1062,#1063,#1064),.UNSPECIFIED.,.F.,.F.,(5,3,5),(0.,0.502929426219,
    1.),.UNSPECIFIED.);
#1057 = CARTESIAN_POINT('',(-8.324236818605,10.061450763081,3.));
#1058 = CARTESIAN_POINT('',(-8.225081158251,9.789647599994,3.));
#1059 = CARTESIAN_POINT('',(-8.132781051004,9.515652369774,3.));
#1060 = CARTESIAN_POINT('',(-8.04758563134,9.239626954022,3.));
#1061 = CARTESIAN_POINT('',(-7.892708832777,8.687167690288,3.));
#1062 = CARTESIAN_POINT('',(-7.822857615152,8.410775576412,3.));
#1063 = CARTESIAN_POINT('',(-7.760331438959,8.132803741703,3.));
#1064 = CARTESIAN_POINT('',(-7.705255168895,7.853488372093,3.));
#1065 = ORIENTED_EDGE('',*,*,#1066,.T.);
#1066 = EDGE_CURVE('',#1054,#582,#1067,.T.);
#1067 = LINE('',#1068,#1069);
#1068 = CARTESIAN_POINT('',(-7.705255168895,7.853488372093,3.6));
#1069 = VECTOR('',#1070,1.);
#1070 = DIRECTION('',(0.,-4.440892098501E-16,-1.));
#1071 = ORIENTED_EDGE('',*,*,#581,.T.);
#1072 = ORIENTED_EDGE('',*,*,#1013,.F.);
#1073 = SURFACE_OF_LINEAR_EXTRUSION('',#1074,#1078);
#1074 = B_SPLINE_CURVE_WITH_KNOTS('',2,(#1075,#1076,#1077),
  .UNSPECIFIED.,.F.,.F.,(3,3),(0.,1.),.PIECEWISE_BEZIER_KNOTS.);
#1075 = CARTESIAN_POINT('',(-7.705255168895,7.853488372093,3.6));
#1076 = CARTESIAN_POINT('',(-7.924641070058,8.966088299419,3.6));
#1077 = CARTESIAN_POINT('',(-8.324236818605,10.061450763081,3.6));
#1078 = VECTOR('',#1079,1.);
#1079 = DIRECTION('',(-0.,4.440892098501E-16,1.));
#1080 = ADVANCED_FACE('',(#1081),#1098,.F.);
#1081 = FACE_BOUND('',#1082,.F.);
#1082 = EDGE_LOOP('',(#1083,#1095,#1096,#1097));
#1083 = ORIENTED_EDGE('',*,*,#1084,.T.);
#1084 = EDGE_CURVE('',#1054,#1030,#1085,.T.);
#1085 = B_SPLINE_CURVE_WITH_KNOTS('',8,(#1086,#1087,#1088,#1089,#1090,
    #1091,#1092,#1093,#1094),.UNSPECIFIED.,.F.,.F.,(9,9),(0.,1.),
  .PIECEWISE_BEZIER_KNOTS.);
#1086 = CARTESIAN_POINT('',(-7.705255168895,7.853488372093,3.));
#1087 = CARTESIAN_POINT('',(-7.622833765848,8.145680326425,3.));
#1088 = CARTESIAN_POINT('',(-7.531707980439,8.441836880363,3.));
#1089 = CARTESIAN_POINT('',(-7.434449783954,8.740491995766,3.));
#1090 = CARTESIAN_POINT('',(-7.332309788857,9.040805425977,3.));
#1091 = CARTESIAN_POINT('',(-7.226305024443,9.342169076433,3.));
#1092 = CARTESIAN_POINT('',(-7.117044739855,9.644278533107,3.));
#1093 = CARTESIAN_POINT('',(-7.004987724114,9.947028866749,3.));
#1094 = CARTESIAN_POINT('',(-6.890393250291,10.250540515988,3.));
#1095 = ORIENTED_EDGE('',*,*,#1039,.T.);
#1096 = ORIENTED_EDGE('',*,*,#589,.T.);
#1097 = ORIENTED_EDGE('',*,*,#1066,.F.);
#1098 = SURFACE_OF_LINEAR_EXTRUSION('',#1099,#1103);
#1099 = B_SPLINE_CURVE_WITH_KNOTS('',2,(#1100,#1101,#1102),
  .UNSPECIFIED.,.F.,.F.,(3,3),(0.,1.),.PIECEWISE_BEZIER_KNOTS.);
#1100 = CARTESIAN_POINT('',(-6.890393250291,10.250540515988,3.6));
#1101 = CARTESIAN_POINT('',(-7.438858003198,8.79789244186,3.6));
#1102 = CARTESIAN_POINT('',(-7.705255168895,7.853488372093,3.6));
#1103 = VECTOR('',#1104,1.);
#1104 = DIRECTION('',(-0.,4.440892098501E-16,1.));
#1105 = ADVANCED_FACE('',(#1106),#1117,.F.);
#1106 = FACE_BOUND('',#1107,.F.);
#1107 = EDGE_LOOP('',(#1108,#1109,#1110,#1111,#1112,#1113,#1114,#1115,
    #1116));
#1108 = ORIENTED_EDGE('',*,*,#734,.F.);
#1109 = ORIENTED_EDGE('',*,*,#934,.F.);
#1110 = ORIENTED_EDGE('',*,*,#910,.F.);
#1111 = ORIENTED_EDGE('',*,*,#884,.F.);
#1112 = ORIENTED_EDGE('',*,*,#858,.F.);
#1113 = ORIENTED_EDGE('',*,*,#834,.F.);
#1114 = ORIENTED_EDGE('',*,*,#808,.F.);
#1115 = ORIENTED_EDGE('',*,*,#782,.F.);
#1116 = ORIENTED_EDGE('',*,*,#758,.F.);
#1117 = PLANE('',#1118);
#1118 = AXIS2_PLACEMENT_3D('',#1119,#1120,#1121);
#1119 = CARTESIAN_POINT('',(-3.971413779645,12.600402421527,2.4));
#1120 = DIRECTION('',(0.,-4.440892098501E-16,-1.));
#1121 = DIRECTION('',(1.,0.,0.));
#1122 = ADVANCED_FACE('',(#1123,#1126),#1137,.T.);
#1123 = FACE_BOUND('',#1124,.T.);
#1124 = EDGE_LOOP('',(#1125));
#1125 = ORIENTED_EDGE('',*,*,#957,.T.);
#1126 = FACE_BOUND('',#1127,.T.);
#1127 = EDGE_LOOP('',(#1128));
#1128 = ORIENTED_EDGE('',*,*,#1129,.F.);
#1129 = EDGE_CURVE('',#1130,#1130,#1132,.T.);
#1130 = VERTEX_POINT('',#1131);
#1131 = CARTESIAN_POINT('',(7.5,-5.75,10.1));
#1132 = CIRCLE('',#1133,2.);
#1133 = AXIS2_PLACEMENT_3D('',#1134,#1135,#1136);
#1134 = CARTESIAN_POINT('',(7.5,-3.75,10.1));
#1135 = DIRECTION('',(-0.,2.22044604925E-16,1.));
#1136 = DIRECTION('',(0.,-1.,2.22044604925E-16));
#1137 = PLANE('',#1138);
#1138 = AXIS2_PLACEMENT_3D('',#1139,#1140,#1141);
#1139 = CARTESIAN_POINT('',(7.5,-3.75,10.1));
#1140 = DIRECTION('',(0.,2.22044604925E-16,1.));
#1141 = DIRECTION('',(0.,-1.,2.22044604925E-16));
#1142 = ADVANCED_FACE('',(#1143),#1150,.T.);
#1143 = FACE_BOUND('',#1144,.T.);
#1144 = EDGE_LOOP('',(#1145,#1146,#1147,#1148,#1149));
#1145 = ORIENTED_EDGE('',*,*,#974,.F.);
#1146 = ORIENTED_EDGE('',*,*,#1005,.F.);
#1147 = ORIENTED_EDGE('',*,*,#1053,.T.);
#1148 = ORIENTED_EDGE('',*,*,#1084,.T.);
#1149 = ORIENTED_EDGE('',*,*,#1029,.F.);
#1150 = PLANE('',#1151);
#1151 = AXIS2_PLACEMENT_3D('',#1152,#1153,#1154);
#1152 = CARTESIAN_POINT('',(-204.32,181.49,3.));
#1153 = DIRECTION('',(0.,2.22044604925E-16,1.));
#1154 = DIRECTION('',(0.,-1.,2.22044604925E-16));
#1155 = ADVANCED_FACE('',(#1156),#1175,.F.);
#1156 = FACE_BOUND('',#1157,.F.);
#1157 = EDGE_LOOP('',(#1158,#1159,#1167,#1174));
#1158 = ORIENTED_EDGE('',*,*,#1129,.F.);
#1159 = ORIENTED_EDGE('',*,*,#1160,.F.);
#1160 = EDGE_CURVE('',#1161,#1130,#1163,.T.);
#1161 = VERTEX_POINT('',#1162);
#1162 = CARTESIAN_POINT('',(7.5,-5.75,3.9));
#1163 = LINE('',#1164,#1165);
#1164 = CARTESIAN_POINT('',(7.5,-5.75,3.9));
#1165 = VECTOR('',#1166,1.);
#1166 = DIRECTION('',(0.,2.22044604925E-16,1.));
#1167 = ORIENTED_EDGE('',*,*,#1168,.T.);
#1168 = EDGE_CURVE('',#1161,#1161,#1169,.T.);
#1169 = CIRCLE('',#1170,2.);
#1170 = AXIS2_PLACEMENT_3D('',#1171,#1172,#1173);
#1171 = CARTESIAN_POINT('',(7.5,-3.75,3.9));
#1172 = DIRECTION('',(-0.,2.22044604925E-16,1.));
#1173 = DIRECTION('',(0.,-1.,2.22044604925E-16));
#1174 = ORIENTED_EDGE('',*,*,#1160,.T.);
#1175 = CYLINDRICAL_SURFACE('',#1176,2.);
#1176 = AXIS2_PLACEMENT_3D('',#1177,#1178,#1179);
#1177 = CARTESIAN_POINT('',(7.5,-3.75,3.9));
#1178 = DIRECTION('',(0.,2.22044604925E-16,1.));
#1179 = DIRECTION('',(0.,-1.,2.22044604925E-16));
#1180 = ADVANCED_FACE('',(#1181),#1184,.T.);
#1181 = FACE_BOUND('',#1182,.F.);
#1182 = EDGE_LOOP('',(#1183));
#1183 = ORIENTED_EDGE('',*,*,#1168,.F.);
#1184 = PLANE('',#1185);
#1185 = AXIS2_PLACEMENT_3D('',#1186,#1187,#1188);
#1186 = CARTESIAN_POINT('',(7.5,-3.75,3.9));
#1187 = DIRECTION('',(0.,2.22044604925E-16,1.));
#1188 = DIRECTION('',(0.,-1.,2.22044604925E-16));
#1189 = ( GEOMETRIC_REPRESENTATION_CONTEXT(3) 
GLOBAL_UNCERTAINTY_ASSIGNED_CONTEXT((#1193)) 
GLOBAL_UNIT_ASSIGNED_CONTEXT((#1190,#1191,#1192)) REPRESENTATION_CONTEXT
('Context #1','3D Context with UNIT and UNCERTAINTY') );
#1190 = ( LENGTH_UNIT() NAMED_UNIT(*) SI_UNIT(.MILLI.,.METRE.) );
#1191 = ( NAMED_UNIT(*) PLANE_ANGLE_UNIT() SI_UNIT($,.RADIAN.) );
#1192 = ( NAMED_UNIT(*) SI_UNIT($,.STERADIAN.) SOLID_ANGLE_UNIT() );
#1193 = UNCERTAINTY_MEASURE_WITH_UNIT(LENGTH_MEASURE(5.E-07),#1190,
  'distance_accuracy_value','confusion accuracy');
#1194 = PRODUCT_RELATED_PRODUCT_CATEGORY('part',$,(#7));
ENDSEC;
END-ISO-10303-21;
