ISO-10303-21;
HEADER;
FILE_DESCRIPTION(('FreeCAD Model'),'2;1');
FILE_NAME('Open CASCADE Shape Model','2026-09-24T17:19:18',('FreeCAD'),(
    'FreeCAD'),'Open CASCADE STEP processor 7.8','FreeCAD','Unknown');
FILE_SCHEMA(('AUTOMOTIVE_DESIGN { 1 0 10303 214 1 1 1 1 }'));
ENDSEC;
DATA;
#1 = APPLICATION_PROTOCOL_DEFINITION('international standard',
  'automotive_design',2000,#2);
#2 = APPLICATION_CONTEXT(
  'core data for automotive mechanical design processes');
#3 = SHAPE_DEFINITION_REPRESENTATION(#4,#10);
#4 = PRODUCT_DEFINITION_SHAPE('','',#5);
#5 = PRODUCT_DEFINITION('design','',#6,#9);
#6 = PRODUCT_DEFINITION_FORMATION('','',#7);
#7 = PRODUCT('Open CASCADE STEP translator 7.8 2',
  'Open CASCADE STEP translator 7.8 2','',(#8));
#8 = PRODUCT_CONTEXT('',#2,'mechanical');
#9 = PRODUCT_DEFINITION_CONTEXT('part definition',#2,'design');
#10 = ADVANCED_BREP_SHAPE_REPRESENTATION('',(#11,#15),#1531);
#11 = AXIS2_PLACEMENT_3D('',#12,#13,#14);
#12 = CARTESIAN_POINT('',(0.,0.,0.));
#13 = DIRECTION('',(0.,0.,1.));
#14 = DIRECTION('',(1.,0.,-0.));
#15 = MANIFOLD_SOLID_BREP('',#16);
#16 = CLOSED_SHELL('',(#17,#132,#174,#198,#540,#564,#619,#643,#659,#671,
    #688,#721,#755,#781,#806,#830,#858,#875,#892,#904,#935,#959,#985,
    #1011,#1037,#1063,#1089,#1115,#1141,#1167,#1193,#1217,#1243,#1269,
    #1295,#1321,#1347,#1373,#1399,#1425,#1451,#1468,#1483,#1501));
#17 = ADVANCED_FACE('',(#18,#116),#127,.F.);
#18 = FACE_BOUND('',#19,.F.);
#19 = EDGE_LOOP('',(#20,#30,#38,#46,#54,#62,#70,#78,#86,#94,#102,#110));
#20 = ORIENTED_EDGE('',*,*,#21,.F.);
#21 = EDGE_CURVE('',#22,#24,#26,.T.);
#22 = VERTEX_POINT('',#23);
#23 = CARTESIAN_POINT('',(12.,-18.75,3.));
#24 = VERTEX_POINT('',#25);
#25 = CARTESIAN_POINT('',(12.,15.75,3.));
#26 = LINE('',#27,#28);
#27 = CARTESIAN_POINT('',(12.,-178.49,3.));
#28 = VECTOR('',#29,1.);
#29 = DIRECTION('',(0.,1.,2.22044604925E-16));
#30 = ORIENTED_EDGE('',*,*,#31,.F.);
#31 = EDGE_CURVE('',#32,#22,#34,.T.);
#32 = VERTEX_POINT('',#33);
#33 = CARTESIAN_POINT('',(-15.,-18.75,3.));
#34 = LINE('',#35,#36);
#35 = CARTESIAN_POINT('',(-108.16,-18.75,3.));
#36 = VECTOR('',#37,1.);
#37 = DIRECTION('',(1.,0.,-0.));
#38 = ORIENTED_EDGE('',*,*,#39,.F.);
#39 = EDGE_CURVE('',#40,#32,#42,.T.);
#40 = VERTEX_POINT('',#41);
#41 = CARTESIAN_POINT('',(-15.,-16.66627906976,3.));
#42 = LINE('',#43,#44);
#43 = CARTESIAN_POINT('',(-15.,-98.62,3.));
#44 = VECTOR('',#45,1.);
#45 = DIRECTION('',(-0.,-1.,-2.22044604925E-16));
#46 = ORIENTED_EDGE('',*,*,#47,.F.);
#47 = EDGE_CURVE('',#48,#40,#50,.T.);
#48 = VERTEX_POINT('',#49);
#49 = CARTESIAN_POINT('',(-14.38,-16.66627906976,3.));
#50 = LINE('',#51,#52);
#51 = CARTESIAN_POINT('',(-108.45,-16.66627906976,3.));
#52 = VECTOR('',#53,1.);
#53 = DIRECTION('',(-1.,-1.110223024625E-16,-2.465190328816E-32));
#54 = ORIENTED_EDGE('',*,*,#55,.F.);
#55 = EDGE_CURVE('',#56,#48,#58,.T.);
#56 = VERTEX_POINT('',#57);
#57 = CARTESIAN_POINT('',(-14.38,-16.49418604651,3.));
#58 = LINE('',#59,#60);
#59 = CARTESIAN_POINT('',(-14.38,-97.45379856801,3.));
#60 = VECTOR('',#61,1.);
#61 = DIRECTION('',(1.110223024625E-16,-1.,-2.22044604925E-16));
#62 = ORIENTED_EDGE('',*,*,#63,.F.);
#63 = EDGE_CURVE('',#64,#56,#66,.T.);
#64 = VERTEX_POINT('',#65);
#65 = CARTESIAN_POINT('',(-15.,-16.49418604651,3.));
#66 = LINE('',#67,#68);
#67 = CARTESIAN_POINT('',(-108.45,-16.49418604651,3.));
#68 = VECTOR('',#69,1.);
#69 = DIRECTION('',(1.,1.110223024625E-16,2.465190328816E-32));
#70 = ORIENTED_EDGE('',*,*,#71,.F.);
#71 = EDGE_CURVE('',#72,#64,#74,.T.);
#72 = VERTEX_POINT('',#73);
#73 = CARTESIAN_POINT('',(-15.,-16.06125782818,3.));
#74 = LINE('',#75,#76);
#75 = CARTESIAN_POINT('',(-15.,-98.62,3.));
#76 = VECTOR('',#77,1.);
#77 = DIRECTION('',(-0.,-1.,-2.22044604925E-16));
#78 = ORIENTED_EDGE('',*,*,#79,.F.);
#79 = EDGE_CURVE('',#80,#72,#82,.T.);
#80 = VERTEX_POINT('',#81);
#81 = CARTESIAN_POINT('',(-14.38,-16.06125782818,3.));
#82 = LINE('',#83,#84);
#83 = CARTESIAN_POINT('',(-108.45,-16.06125782818,3.));
#84 = VECTOR('',#85,1.);
#85 = DIRECTION('',(-1.,-1.110223024625E-16,-2.465190328816E-32));
#86 = ORIENTED_EDGE('',*,*,#87,.F.);
#87 = EDGE_CURVE('',#88,#80,#90,.T.);
#88 = VERTEX_POINT('',#89);
#89 = CARTESIAN_POINT('',(-14.38,-15.55,3.));
#90 = LINE('',#91,#92);
#91 = CARTESIAN_POINT('',(-14.38,-97.45379856801,3.));
#92 = VECTOR('',#93,1.);
#93 = DIRECTION('',(1.110223024625E-16,-1.,-2.22044604925E-16));
#94 = ORIENTED_EDGE('',*,*,#95,.F.);
#95 = EDGE_CURVE('',#96,#88,#98,.T.);
#96 = VERTEX_POINT('',#97);
#97 = CARTESIAN_POINT('',(-15.,-15.55,3.));
#98 = LINE('',#99,#100);
#99 = CARTESIAN_POINT('',(-108.45,-15.55,3.));
#100 = VECTOR('',#101,1.);
#101 = DIRECTION('',(1.,1.110223024625E-16,2.465190328816E-32));
#102 = ORIENTED_EDGE('',*,*,#103,.F.);
#103 = EDGE_CURVE('',#104,#96,#106,.T.);
#104 = VERTEX_POINT('',#105);
#105 = CARTESIAN_POINT('',(-15.,15.75,3.));
#106 = LINE('',#107,#108);
#107 = CARTESIAN_POINT('',(-15.,-98.62,3.));
#108 = VECTOR('',#109,1.);
#109 = DIRECTION('',(-0.,-1.,-2.22044604925E-16));
#110 = ORIENTED_EDGE('',*,*,#111,.T.);
#111 = EDGE_CURVE('',#104,#24,#112,.T.);
#112 = LINE('',#113,#114);
#113 = CARTESIAN_POINT('',(-201.32,15.75,3.));
#114 = VECTOR('',#115,1.);
#115 = DIRECTION('',(1.,0.,-0.));
#116 = FACE_BOUND('',#117,.F.);
#117 = EDGE_LOOP('',(#118));
#118 = ORIENTED_EDGE('',*,*,#119,.F.);
#119 = EDGE_CURVE('',#120,#120,#122,.T.);
#120 = VERTEX_POINT('',#121);
#121 = CARTESIAN_POINT('',(7.5,5.45,3.));
#122 = CIRCLE('',#123,1.7);
#123 = AXIS2_PLACEMENT_3D('',#124,#125,#126);
#124 = CARTESIAN_POINT('',(7.5,3.75,3.));
#125 = DIRECTION('',(-0.,2.22044604925E-16,-1.));
#126 = DIRECTION('',(0.,1.,2.22044604925E-16));
#127 = PLANE('',#128);
#128 = AXIS2_PLACEMENT_3D('',#129,#130,#131);
#129 = CARTESIAN_POINT('',(-201.32,-178.49,3.));
#130 = DIRECTION('',(0.,2.22044604925E-16,-1.));
#131 = DIRECTION('',(0.,1.,2.22044604925E-16));
#132 = ADVANCED_FACE('',(#133,#158),#169,.F.);
#133 = FACE_BOUND('',#134,.F.);
#134 = EDGE_LOOP('',(#135,#143,#151,#157));
#135 = ORIENTED_EDGE('',*,*,#136,.F.);
#136 = EDGE_CURVE('',#137,#24,#139,.T.);
#137 = VERTEX_POINT('',#138);
#138 = CARTESIAN_POINT('',(12.,15.75,51.56));
#139 = LINE('',#140,#141);
#140 = CARTESIAN_POINT('',(12.,15.75,52.56));
#141 = VECTOR('',#142,1.);
#142 = DIRECTION('',(0.,2.22044604925E-16,-1.));
#143 = ORIENTED_EDGE('',*,*,#144,.T.);
#144 = EDGE_CURVE('',#137,#145,#147,.T.);
#145 = VERTEX_POINT('',#146);
#146 = CARTESIAN_POINT('',(12.,-18.75,51.56));
#147 = LINE('',#148,#149);
#148 = CARTESIAN_POINT('',(12.,-179.99,51.56));
#149 = VECTOR('',#150,1.);
#150 = DIRECTION('',(-0.,-1.,-2.22044604925E-16));
#151 = ORIENTED_EDGE('',*,*,#152,.F.);
#152 = EDGE_CURVE('',#22,#145,#153,.T.);
#153 = LINE('',#154,#155);
#154 = CARTESIAN_POINT('',(12.,-18.75,140.06));
#155 = VECTOR('',#156,1.);
#156 = DIRECTION('',(0.,-2.22044604925E-16,1.));
#157 = ORIENTED_EDGE('',*,*,#21,.T.);
#158 = FACE_BOUND('',#159,.F.);
#159 = EDGE_LOOP('',(#160));
#160 = ORIENTED_EDGE('',*,*,#161,.F.);
#161 = EDGE_CURVE('',#162,#162,#164,.T.);
#162 = VERTEX_POINT('',#163);
#163 = CARTESIAN_POINT('',(12.,-0.55,36.56));
#164 = CIRCLE('',#165,1.7);
#165 = AXIS2_PLACEMENT_3D('',#166,#167,#168);
#166 = CARTESIAN_POINT('',(12.,-2.25,36.56));
#167 = DIRECTION('',(1.,0.,-0.));
#168 = DIRECTION('',(0.,1.,2.22044604925E-16));
#169 = PLANE('',#170);
#170 = AXIS2_PLACEMENT_3D('',#171,#172,#173);
#171 = CARTESIAN_POINT('',(12.,-178.49,52.56));
#172 = DIRECTION('',(1.,0.,-0.));
#173 = DIRECTION('',(0.,1.,2.22044604925E-16));
#174 = ADVANCED_FACE('',(#175),#193,.F.);
#175 = FACE_BOUND('',#176,.F.);
#176 = EDGE_LOOP('',(#177,#185,#191,#192));
#177 = ORIENTED_EDGE('',*,*,#178,.F.);
#178 = EDGE_CURVE('',#179,#104,#181,.T.);
#179 = VERTEX_POINT('',#180);
#180 = CARTESIAN_POINT('',(-15.,15.75,51.56));
#181 = LINE('',#182,#183);
#182 = CARTESIAN_POINT('',(-15.,15.75,140.06));
#183 = VECTOR('',#184,1.);
#184 = DIRECTION('',(0.,2.22044604925E-16,-1.));
#185 = ORIENTED_EDGE('',*,*,#186,.T.);
#186 = EDGE_CURVE('',#179,#137,#187,.T.);
#187 = LINE('',#188,#189);
#188 = CARTESIAN_POINT('',(-202.82,15.75,51.56));
#189 = VECTOR('',#190,1.);
#190 = DIRECTION('',(1.,0.,-0.));
#191 = ORIENTED_EDGE('',*,*,#136,.T.);
#192 = ORIENTED_EDGE('',*,*,#111,.F.);
#193 = PLANE('',#194);
#194 = AXIS2_PLACEMENT_3D('',#195,#196,#197);
#195 = CARTESIAN_POINT('',(-201.32,15.75,52.56));
#196 = DIRECTION('',(0.,1.,2.22044604925E-16));
#197 = DIRECTION('',(1.,0.,-0.));
#198 = ADVANCED_FACE('',(#199,#272),#535,.F.);
#199 = FACE_BOUND('',#200,.F.);
#200 = EDGE_LOOP('',(#201,#202,#203,#211,#219,#227,#235,#241,#242,#250,
    #258,#266));
#201 = ORIENTED_EDGE('',*,*,#178,.T.);
#202 = ORIENTED_EDGE('',*,*,#103,.T.);
#203 = ORIENTED_EDGE('',*,*,#204,.F.);
#204 = EDGE_CURVE('',#205,#96,#207,.T.);
#205 = VERTEX_POINT('',#206);
#206 = CARTESIAN_POINT('',(-15.,-15.55,2.998430132558));
#207 = LINE('',#208,#209);
#208 = CARTESIAN_POINT('',(-15.,-15.55,115.39313221744));
#209 = VECTOR('',#210,1.);
#210 = DIRECTION('',(0.,-1.110223024625E-16,1.));
#211 = ORIENTED_EDGE('',*,*,#212,.F.);
#212 = EDGE_CURVE('',#213,#205,#215,.T.);
#213 = VERTEX_POINT('',#214);
#214 = CARTESIAN_POINT('',(-15.,-17.15,2.344360365116));
#215 = LINE('',#216,#217);
#216 = CARTESIAN_POINT('',(-15.,22.406647510722,18.51486488894));
#217 = VECTOR('',#218,1.);
#218 = DIRECTION('',(0.,0.92564336721,0.378397088703));
#219 = ORIENTED_EDGE('',*,*,#220,.F.);
#220 = EDGE_CURVE('',#221,#213,#223,.T.);
#221 = VERTEX_POINT('',#222);
#222 = CARTESIAN_POINT('',(-15.,-17.15,2.585276062791));
#223 = LINE('',#224,#225);
#224 = CARTESIAN_POINT('',(-15.,-17.15,114.95218018255));
#225 = VECTOR('',#226,1.);
#226 = DIRECTION('',(-0.,1.110223024625E-16,-1.));
#227 = ORIENTED_EDGE('',*,*,#228,.F.);
#228 = EDGE_CURVE('',#229,#221,#231,.T.);
#229 = VERTEX_POINT('',#230);
#230 = CARTESIAN_POINT('',(-15.,-16.66627906976,2.771685946512));
#231 = LINE('',#232,#233);
#232 = CARTESIAN_POINT('',(-15.,19.897101731798,16.861991198317));
#233 = VECTOR('',#234,1.);
#234 = DIRECTION('',(-0.,-0.933110550588,-0.359589627743));
#235 = ORIENTED_EDGE('',*,*,#236,.F.);
#236 = EDGE_CURVE('',#40,#229,#237,.T.);
#237 = LINE('',#238,#239);
#238 = CARTESIAN_POINT('',(-15.,-16.66627906976,115.16584297325));
#239 = VECTOR('',#240,1.);
#240 = DIRECTION('',(-0.,1.110223024625E-16,-1.));
#241 = ORIENTED_EDGE('',*,*,#39,.T.);
#242 = ORIENTED_EDGE('',*,*,#243,.T.);
#243 = EDGE_CURVE('',#32,#244,#246,.T.);
#244 = VERTEX_POINT('',#245);
#245 = CARTESIAN_POINT('',(-15.,-18.75,7.105427357601E-15));
#246 = LINE('',#247,#248);
#247 = CARTESIAN_POINT('',(-15.,-18.75,227.56));
#248 = VECTOR('',#249,1.);
#249 = DIRECTION('',(0.,2.22044604925E-16,-1.));
#250 = ORIENTED_EDGE('',*,*,#251,.F.);
#251 = EDGE_CURVE('',#252,#244,#254,.T.);
#252 = VERTEX_POINT('',#253);
#253 = CARTESIAN_POINT('',(-15.,18.75,1.42108547152E-14));
#254 = LINE('',#255,#256);
#255 = CARTESIAN_POINT('',(-15.,-100.12,-7.105427357601E-15));
#256 = VECTOR('',#257,1.);
#257 = DIRECTION('',(-0.,-1.,-2.22044604925E-16));
#258 = ORIENTED_EDGE('',*,*,#259,.F.);
#259 = EDGE_CURVE('',#260,#252,#262,.T.);
#260 = VERTEX_POINT('',#261);
#261 = CARTESIAN_POINT('',(-15.,18.75,51.56));
#262 = LINE('',#263,#264);
#263 = CARTESIAN_POINT('',(-15.,18.75,139.56));
#264 = VECTOR('',#265,1.);
#265 = DIRECTION('',(0.,2.22044604925E-16,-1.));
#266 = ORIENTED_EDGE('',*,*,#267,.T.);
#267 = EDGE_CURVE('',#260,#179,#268,.T.);
#268 = LINE('',#269,#270);
#269 = CARTESIAN_POINT('',(-15.,-100.12,51.56));
#270 = VECTOR('',#271,1.);
#271 = DIRECTION('',(-0.,-1.,-2.22044604925E-16));
#272 = FACE_BOUND('',#273,.F.);
#273 = EDGE_LOOP('',(#274,#284,#292,#305,#315,#326,#338,#349,#362,#377,
    #392,#407,#415,#430,#441,#456,#471,#484,#495,#507,#519,#529));
#274 = ORIENTED_EDGE('',*,*,#275,.F.);
#275 = EDGE_CURVE('',#276,#278,#280,.T.);
#276 = VERTEX_POINT('',#277);
#277 = CARTESIAN_POINT('',(-15.,-17.15,1.224447574419));
#278 = VERTEX_POINT('',#279);
#279 = CARTESIAN_POINT('',(-15.,-16.95930232558,1.224447574419));
#280 = LINE('',#281,#282);
#281 = CARTESIAN_POINT('',(-15.,-17.85465116279,1.224447574419));
#282 = VECTOR('',#283,1.);
#283 = DIRECTION('',(0.,1.,1.110223024625E-16));
#284 = ORIENTED_EDGE('',*,*,#285,.F.);
#285 = EDGE_CURVE('',#286,#276,#288,.T.);
#286 = VERTEX_POINT('',#287);
#287 = CARTESIAN_POINT('',(-15.,-17.15,2.280770248837));
#288 = LINE('',#289,#290);
#289 = CARTESIAN_POINT('',(-15.,-17.15,114.3922237872));
#290 = VECTOR('',#291,1.);
#291 = DIRECTION('',(-0.,1.110223024625E-16,-1.));
#292 = ORIENTED_EDGE('',*,*,#293,.F.);
#293 = EDGE_CURVE('',#294,#286,#296,.T.);
#294 = VERTEX_POINT('',#295);
#295 = CARTESIAN_POINT('',(-15.,-17.01337209302,2.257877806977));
#296 = B_SPLINE_CURVE_WITH_KNOTS('',4,(#297,#298,#299,#300,#301,#302,
    #303,#304),.UNSPECIFIED.,.F.,.F.,(5,3,5),(0.,0.413979439425,1.),
  .UNSPECIFIED.);
#297 = CARTESIAN_POINT('',(-15.,-17.01337209302,2.257877806977));
#298 = CARTESIAN_POINT('',(-15.,-17.02693906031,2.263066946352));
#299 = CARTESIAN_POINT('',(-15.,-17.04066610901,2.267478752803));
#300 = CARTESIAN_POINT('',(-15.,-17.05455218912,2.271112168127));
#301 = CARTESIAN_POINT('',(-15.,-17.08847632181,2.278008100032));
#302 = CARTESIAN_POINT('',(-15.,-17.10867279912,2.280488966864));
#303 = CARTESIAN_POINT('',(-15.,-17.12918205602,2.281408836076));
#304 = CARTESIAN_POINT('',(-15.,-17.15,2.280770248837));
#305 = ORIENTED_EDGE('',*,*,#306,.F.);
#306 = EDGE_CURVE('',#307,#294,#309,.T.);
#307 = VERTEX_POINT('',#308);
#308 = CARTESIAN_POINT('',(-15.,-16.80014534883,2.128735365116));
#309 = B_SPLINE_CURVE_WITH_KNOTS('',4,(#310,#311,#312,#313,#314),
  .UNSPECIFIED.,.F.,.F.,(5,5),(0.,1.),.PIECEWISE_BEZIER_KNOTS.);
#310 = CARTESIAN_POINT('',(-15.,-16.80014534883,2.128735365116));
#311 = CARTESIAN_POINT('',(-15.,-16.85230608423,2.172876929286));
#312 = CARTESIAN_POINT('',(-15.,-16.90527175816,2.209250472858));
#313 = CARTESIAN_POINT('',(-15.,-16.95898581458,2.23761983078));
#314 = CARTESIAN_POINT('',(-15.,-17.01337209302,2.257877806977));
#315 = ORIENTED_EDGE('',*,*,#316,.F.);
#316 = EDGE_CURVE('',#317,#307,#319,.T.);
#317 = VERTEX_POINT('',#318);
#318 = CARTESIAN_POINT('',(-15.,-16.55654069767,1.871976644186));
#319 = B_SPLINE_CURVE_WITH_KNOTS('',5,(#320,#321,#322,#323,#324,#325),
  .UNSPECIFIED.,.F.,.F.,(6,6),(0.,1.),.PIECEWISE_BEZIER_KNOTS.);
#320 = CARTESIAN_POINT('',(-15.,-16.55654069767,1.871976644186));
#321 = CARTESIAN_POINT('',(-15.,-16.61053728595,1.937349872135));
#322 = CARTESIAN_POINT('',(-15.,-16.66213106149,1.996196270659));
#323 = CARTESIAN_POINT('',(-15.,-16.71108993646,2.048022765149));
#324 = CARTESIAN_POINT('',(-15.,-16.75716904676,2.092336461072));
#325 = CARTESIAN_POINT('',(-15.,-16.80014534883,2.128735365116));
#326 = ORIENTED_EDGE('',*,*,#327,.F.);
#327 = EDGE_CURVE('',#328,#317,#330,.T.);
#328 = VERTEX_POINT('',#329);
#329 = CARTESIAN_POINT('',(-15.,-16.21606104651,1.519869086047));
#330 = B_SPLINE_CURVE_WITH_KNOTS('',6,(#331,#332,#333,#334,#335,#336,
    #337),.UNSPECIFIED.,.F.,.F.,(7,7),(0.,1.),.PIECEWISE_BEZIER_KNOTS.);
#331 = CARTESIAN_POINT('',(-15.,-16.21606104651,1.519869086047));
#332 = CARTESIAN_POINT('',(-15.,-16.2604647592,1.552473210753));
#333 = CARTESIAN_POINT('',(-15.,-16.31085583172,1.597240628042));
#334 = CARTESIAN_POINT('',(-15.,-16.36645277027,1.652979649807));
#335 = CARTESIAN_POINT('',(-15.,-16.42639254566,1.718198957364));
#336 = CARTESIAN_POINT('',(-15.,-16.48994084744,1.791558839172));
#337 = CARTESIAN_POINT('',(-15.,-16.55654069767,1.871976644186));
#338 = ORIENTED_EDGE('',*,*,#339,.F.);
#339 = EDGE_CURVE('',#340,#328,#342,.T.);
#340 = VERTEX_POINT('',#341);
#341 = CARTESIAN_POINT('',(-15.,-15.98015988372,1.428299318605));
#342 = B_SPLINE_CURVE_WITH_KNOTS('',5,(#343,#344,#345,#346,#347,#348),
  .UNSPECIFIED.,.F.,.F.,(6,6),(0.,1.),.PIECEWISE_BEZIER_KNOTS.);
#343 = CARTESIAN_POINT('',(-15.,-15.98015988372,1.428299318605));
#344 = CARTESIAN_POINT('',(-15.,-16.02497547644,1.428299318605));
#345 = CARTESIAN_POINT('',(-15.,-16.07111614752,1.437608514897));
#346 = CARTESIAN_POINT('',(-15.,-16.1184457216,1.456173829219));
#347 = CARTESIAN_POINT('',(-15.,-16.16681303279,1.483729017742));
#348 = CARTESIAN_POINT('',(-15.,-16.21606104651,1.519869086047));
#349 = ORIENTED_EDGE('',*,*,#350,.F.);
#350 = EDGE_CURVE('',#351,#340,#353,.T.);
#351 = VERTEX_POINT('',#352);
#352 = CARTESIAN_POINT('',(-15.,-15.78357558139,1.511729551163));
#353 = B_SPLINE_CURVE_WITH_KNOTS('',4,(#354,#355,#356,#357,#358,#359,
    #360,#361),.UNSPECIFIED.,.F.,.F.,(5,3,5),(0.,0.485964765585,1.),
  .UNSPECIFIED.);
#354 = CARTESIAN_POINT('',(-15.,-15.78357558139,1.511729551163));
#355 = CARTESIAN_POINT('',(-15.,-15.80297074382,1.491506439017));
#356 = CARTESIAN_POINT('',(-15.,-15.82384585002,1.47450112389));
#357 = CARTESIAN_POINT('',(-15.,-15.84619355867,1.460774888755));
#358 = CARTESIAN_POINT('',(-15.,-15.89514844598,1.439304944495));
#359 = CARTESIAN_POINT('',(-15.,-15.92192726973,1.431952540659));
#360 = CARTESIAN_POINT('',(-15.,-15.95028455832,1.428299318605));
#361 = CARTESIAN_POINT('',(-15.,-15.98015988372,1.428299318605));
#362 = ORIENTED_EDGE('',*,*,#363,.F.);
#363 = EDGE_CURVE('',#364,#351,#366,.T.);
#364 = VERTEX_POINT('',#365);
#365 = CARTESIAN_POINT('',(-15.,-15.70348837209,1.729171411628));
#366 = B_SPLINE_CURVE_WITH_KNOTS('',5,(#367,#368,#369,#370,#371,#372,
    #373,#374,#375,#376),.UNSPECIFIED.,.F.,.F.,(6,4,6),(0.,
    0.757534645253,1.),.UNSPECIFIED.);
#367 = CARTESIAN_POINT('',(-15.,-15.70348837209,1.729171411628));
#368 = CARTESIAN_POINT('',(-15.,-15.70348837209,1.688831840697));
#369 = CARTESIAN_POINT('',(-15.,-15.70801890394,1.651168727345));
#370 = CARTESIAN_POINT('',(-15.,-15.71716678343,1.616297652333));
#371 = CARTESIAN_POINT('',(-15.,-15.73096502925,1.584304041695));
#372 = CARTESIAN_POINT('',(-15.,-15.75527710284,1.545933052406));
#373 = CARTESIAN_POINT('',(-15.,-15.7616451636,1.536929157577));
#374 = CARTESIAN_POINT('',(-15.,-15.76848545153,1.528226572594));
#375 = CARTESIAN_POINT('',(-15.,-15.77579634153,1.519826455085));
#376 = CARTESIAN_POINT('',(-15.,-15.78357558139,1.511729551163));
#377 = ORIENTED_EDGE('',*,*,#378,.F.);
#378 = EDGE_CURVE('',#379,#364,#381,.T.);
#379 = VERTEX_POINT('',#380);
#380 = CARTESIAN_POINT('',(-15.,-15.78989825581,1.955915597674));
#381 = B_SPLINE_CURVE_WITH_KNOTS('',5,(#382,#383,#384,#385,#386,#387,
    #388,#389,#390,#391),.UNSPECIFIED.,.F.,.F.,(6,4,6),(0.,
    0.248367717019,1.),.UNSPECIFIED.);
#382 = CARTESIAN_POINT('',(-15.,-15.78989825581,1.955915597674));
#383 = CARTESIAN_POINT('',(-15.,-15.78129896105,1.947453718052));
#384 = CARTESIAN_POINT('',(-15.,-15.77322917757,1.938635697221));
#385 = CARTESIAN_POINT('',(-15.,-15.76569201904,1.929462408993));
#386 = CARTESIAN_POINT('',(-15.,-15.75868971941,1.919935327934));
#387 = CARTESIAN_POINT('',(-15.,-15.73265539187,1.880160438138));
#388 = CARTESIAN_POINT('',(-15.,-15.71799760944,1.847042590595));
#389 = CARTESIAN_POINT('',(-15.,-15.70828915658,1.810761803923));
#390 = CARTESIAN_POINT('',(-15.,-15.70348837209,1.77142377072));
#391 = CARTESIAN_POINT('',(-15.,-15.70348837209,1.729171411628));
#392 = ORIENTED_EDGE('',*,*,#393,.F.);
#393 = EDGE_CURVE('',#394,#379,#396,.T.);
#394 = VERTEX_POINT('',#395);
#395 = CARTESIAN_POINT('',(-15.,-16.02906976744,2.042034783721));
#396 = B_SPLINE_CURVE_WITH_KNOTS('',5,(#397,#398,#399,#400,#401,#402,
    #403,#404,#405,#406),.UNSPECIFIED.,.F.,.F.,(6,4,6),(0.,
    0.879574226719,1.),.UNSPECIFIED.);
#397 = CARTESIAN_POINT('',(-15.,-16.02906976744,2.042034783721));
#398 = CARTESIAN_POINT('',(-15.,-15.97591743563,2.041655665805));
#399 = CARTESIAN_POINT('',(-15.,-15.92736383916,2.034928294121));
#400 = CARTESIAN_POINT('',(-15.,-15.88369942468,2.021649116504));
#401 = CARTESIAN_POINT('',(-15.,-15.84513424643,2.001734494985));
#402 = CARTESIAN_POINT('',(-15.,-15.80719679781,1.971639465094));
#403 = CARTESIAN_POINT('',(-15.,-15.80272553498,1.967892329799));
#404 = CARTESIAN_POINT('',(-15.,-15.7983518974,1.964022468893));
#405 = CARTESIAN_POINT('',(-15.,-15.79407608493,1.960030126349));
#406 = CARTESIAN_POINT('',(-15.,-15.78989825581,1.955915597674));
#407 = ORIENTED_EDGE('',*,*,#408,.F.);
#408 = EDGE_CURVE('',#409,#394,#411,.T.);
#409 = VERTEX_POINT('',#410);
#410 = CARTESIAN_POINT('',(-15.,-16.00116279069,2.243706295349));
#411 = LINE('',#412,#413);
#412 = CARTESIAN_POINT('',(-15.,-0.744395319886,112.49768997113));
#413 = VECTOR('',#414,1.);
#414 = DIRECTION('',(-0.,-0.137072232435,-0.990561054704));
#415 = ORIENTED_EDGE('',*,*,#416,.F.);
#416 = EDGE_CURVE('',#417,#409,#419,.T.);
#417 = VERTEX_POINT('',#418);
#418 = CARTESIAN_POINT('',(-15.,-15.65857558139,2.087819667442));
#419 = B_SPLINE_CURVE_WITH_KNOTS('',5,(#420,#421,#422,#423,#424,#425,
    #426,#427,#428,#429),.UNSPECIFIED.,.F.,.F.,(6,4,6),(0.,
    0.115876252047,1.),.UNSPECIFIED.);
#420 = CARTESIAN_POINT('',(-15.,-15.65857558139,2.087819667442));
#421 = CARTESIAN_POINT('',(-15.,-15.66408667931,2.094143320821));
#422 = CARTESIAN_POINT('',(-15.,-15.66974574081,2.100312292278));
#423 = CARTESIAN_POINT('',(-15.,-15.67555239547,2.106325770116));
#424 = CARTESIAN_POINT('',(-15.,-15.68150615444,2.112183064651));
#425 = CARTESIAN_POINT('',(-15.,-15.73415072929,2.161378162529));
#426 = CARTESIAN_POINT('',(-15.,-15.7892297703,2.195753332339));
#427 = CARTESIAN_POINT('',(-15.,-15.85255773874,2.22073288055));
#428 = CARTESIAN_POINT('',(-15.,-15.92347826026,2.236548166938));
#429 = CARTESIAN_POINT('',(-15.,-16.00116279069,2.243706295349));
#430 = ORIENTED_EDGE('',*,*,#431,.F.);
#431 = EDGE_CURVE('',#432,#417,#434,.T.);
#432 = VERTEX_POINT('',#433);
#433 = CARTESIAN_POINT('',(-15.,-15.54069767441,1.724810946512));
#434 = B_SPLINE_CURVE_WITH_KNOTS('',5,(#435,#436,#437,#438,#439,#440),
  .UNSPECIFIED.,.F.,.F.,(6,6),(0.,1.),.PIECEWISE_BEZIER_KNOTS.);
#435 = CARTESIAN_POINT('',(-15.,-15.54069767441,1.724810946512));
#436 = CARTESIAN_POINT('',(-15.,-15.54069767441,1.813855608311));
#437 = CARTESIAN_POINT('',(-15.,-15.55195127633,1.895596406109));
#438 = CARTESIAN_POINT('',(-15.,-15.57523776085,1.968979737494));
#439 = CARTESIAN_POINT('',(-15.,-15.61091969614,2.033171118382));
#440 = CARTESIAN_POINT('',(-15.,-15.65857558139,2.087819667442));
#441 = ORIENTED_EDGE('',*,*,#442,.F.);
#442 = EDGE_CURVE('',#443,#432,#445,.T.);
#443 = VERTEX_POINT('',#444);
#444 = CARTESIAN_POINT('',(-15.,-15.66845930232,1.360712109302));
#445 = B_SPLINE_CURVE_WITH_KNOTS('',5,(#446,#447,#448,#449,#450,#451,
    #452,#453,#454,#455),.UNSPECIFIED.,.F.,.F.,(6,4,6),(0.,
    0.133752985741,1.),.UNSPECIFIED.);
#446 = CARTESIAN_POINT('',(-15.,-15.66845930232,1.360712109302));
#447 = CARTESIAN_POINT('',(-15.,-15.66156396234,1.367948686243));
#448 = CARTESIAN_POINT('',(-15.,-15.65489838046,1.375362875742));
#449 = CARTESIAN_POINT('',(-15.,-15.64846387472,1.382953983828));
#450 = CARTESIAN_POINT('',(-15.,-15.64226151409,1.390721120438));
#451 = CARTESIAN_POINT('',(-15.,-15.597631515,1.450099824669));
#452 = CARTESIAN_POINT('',(-15.,-15.56873734109,1.508881270045));
#453 = CARTESIAN_POINT('',(-15.,-15.54985407817,1.574694069884));
#454 = CARTESIAN_POINT('',(-15.,-15.54069767441,1.646921893788));
#455 = CARTESIAN_POINT('',(-15.,-15.54069767441,1.724810946512));
#456 = ORIENTED_EDGE('',*,*,#457,.F.);
#457 = EDGE_CURVE('',#458,#443,#460,.T.);
#458 = VERTEX_POINT('',#459);
#459 = CARTESIAN_POINT('',(-15.,-15.9851744186,1.226627806977));
#460 = B_SPLINE_CURVE_WITH_KNOTS('',5,(#461,#462,#463,#464,#465,#466,
    #467,#468,#469,#470),.UNSPECIFIED.,.F.,.F.,(6,4,6),(0.,
    0.531209903476,1.),.UNSPECIFIED.);
#461 = CARTESIAN_POINT('',(-15.,-15.9851744186,1.226627806977));
#462 = CARTESIAN_POINT('',(-15.,-15.94532995111,1.226627806977));
#463 = CARTESIAN_POINT('',(-15.,-15.90697279899,1.2303541551));
#464 = CARTESIAN_POINT('',(-15.,-15.87020557583,1.237886675114));
#465 = CARTESIAN_POINT('',(-15.,-15.83511346395,1.249256353544));
#466 = CARTESIAN_POINT('',(-15.,-15.77232485324,1.277828858125));
#467 = CARTESIAN_POINT('',(-15.,-15.74424322554,1.29418987493));
#468 = CARTESIAN_POINT('',(-15.,-15.71755738707,1.313497065771));
#469 = CARTESIAN_POINT('',(-15.,-15.69229313036,1.335698791479));
#470 = CARTESIAN_POINT('',(-15.,-15.66845930232,1.360712109302));
#471 = ORIENTED_EDGE('',*,*,#472,.F.);
#472 = EDGE_CURVE('',#473,#458,#475,.T.);
#473 = VERTEX_POINT('',#474);
#474 = CARTESIAN_POINT('',(-15.,-16.17412790697,1.265871993023));
#475 = B_SPLINE_CURVE_WITH_KNOTS('',4,(#476,#477,#478,#479,#480,#481,
    #482,#483),.UNSPECIFIED.,.F.,.F.,(5,3,5),(0.,0.80009646035,1.),
  .UNSPECIFIED.);
#476 = CARTESIAN_POINT('',(-15.,-16.17412790697,1.265871993023));
#477 = CARTESIAN_POINT('',(-15.,-16.13702417675,1.250194360536));
#478 = CARTESIAN_POINT('',(-15.,-16.09953298748,1.238672109912));
#479 = CARTESIAN_POINT('',(-15.,-16.06167566963,1.23133912479));
#480 = CARTESIAN_POINT('',(-15.,-16.01393276944,1.227412660261));
#481 = CARTESIAN_POINT('',(-15.,-16.0043674682,1.226889393729));
#482 = CARTESIAN_POINT('',(-15.,-15.99478122115,1.226627806977));
#483 = CARTESIAN_POINT('',(-15.,-15.9851744186,1.226627806977));
#484 = ORIENTED_EDGE('',*,*,#485,.F.);
#485 = EDGE_CURVE('',#486,#473,#488,.T.);
#486 = VERTEX_POINT('',#487);
#487 = CARTESIAN_POINT('',(-15.,-16.36962209302,1.396177225581));
#488 = B_SPLINE_CURVE_WITH_KNOTS('',5,(#489,#490,#491,#492,#493,#494),
  .UNSPECIFIED.,.F.,.F.,(6,6),(0.,1.),.PIECEWISE_BEZIER_KNOTS.);
#489 = CARTESIAN_POINT('',(-15.,-16.36962209302,1.396177225581));
#490 = CARTESIAN_POINT('',(-15.,-16.32891581143,1.360080289395));
#491 = CARTESIAN_POINT('',(-15.,-16.28896497256,1.328881421368));
#492 = CARTESIAN_POINT('',(-15.,-16.24981893506,1.302713802907));
#493 = CARTESIAN_POINT('',(-15.,-16.21152523384,1.281686054502));
#494 = CARTESIAN_POINT('',(-15.,-16.17412790697,1.265871993023));
#495 = ORIENTED_EDGE('',*,*,#496,.F.);
#496 = EDGE_CURVE('',#497,#486,#499,.T.);
#497 = VERTEX_POINT('',#498);
#498 = CARTESIAN_POINT('',(-15.,-16.65130813953,1.698648155814));
#499 = B_SPLINE_CURVE_WITH_KNOTS('',6,(#500,#501,#502,#503,#504,#505,
    #506),.UNSPECIFIED.,.F.,.F.,(7,7),(0.,1.),.PIECEWISE_BEZIER_KNOTS.);
#500 = CARTESIAN_POINT('',(-15.,-16.65130813953,1.698648155814));
#501 = CARTESIAN_POINT('',(-15.,-16.59467681672,1.631766195844));
#502 = CARTESIAN_POINT('',(-15.,-16.54134413632,1.570592353398));
#503 = CARTESIAN_POINT('',(-15.,-16.49171323557,1.515757568698));
#504 = CARTESIAN_POINT('',(-15.,-16.4462411888,1.467959499794));
#505 = CARTESIAN_POINT('',(-15.,-16.40540525964,1.42790564244));
#506 = CARTESIAN_POINT('',(-15.,-16.36962209302,1.396177225581));
#507 = ORIENTED_EDGE('',*,*,#508,.F.);
#508 = EDGE_CURVE('',#509,#497,#511,.T.);
#509 = VERTEX_POINT('',#510);
#510 = CARTESIAN_POINT('',(-15.,-16.85283430232,1.92539234186));
#511 = B_SPLINE_CURVE_WITH_KNOTS('',6,(#512,#513,#514,#515,#516,#517,
    #518),.UNSPECIFIED.,.F.,.F.,(7,7),(0.,1.),.PIECEWISE_BEZIER_KNOTS.);
#512 = CARTESIAN_POINT('',(-15.,-16.85283430232,1.92539234186));
#513 = CARTESIAN_POINT('',(-15.,-16.834508849,1.908047262589));
#514 = CARTESIAN_POINT('',(-15.,-16.80949223145,1.881784718361));
#515 = CARTESIAN_POINT('',(-15.,-16.77811530857,1.847007406605));
#516 = CARTESIAN_POINT('',(-15.,-16.74090747811,1.804392027358));
#517 = CARTESIAN_POINT('',(-15.,-16.6984511926,1.754693957649));
#518 = CARTESIAN_POINT('',(-15.,-16.65130813953,1.698648155814));
#519 = ORIENTED_EDGE('',*,*,#520,.F.);
#520 = EDGE_CURVE('',#521,#509,#523,.T.);
#521 = VERTEX_POINT('',#522);
#522 = CARTESIAN_POINT('',(-15.,-16.95930232558,2.00824117907));
#523 = B_SPLINE_CURVE_WITH_KNOTS('',4,(#524,#525,#526,#527,#528),
  .UNSPECIFIED.,.F.,.F.,(5,5),(0.,1.),.PIECEWISE_BEZIER_KNOTS.);
#524 = CARTESIAN_POINT('',(-15.,-16.95930232558,2.00824117907));
#525 = CARTESIAN_POINT('',(-15.,-16.93252421997,1.991868696023));
#526 = CARTESIAN_POINT('',(-15.,-16.90585023324,1.972593540188));
#527 = CARTESIAN_POINT('',(-15.,-16.87928538237,1.950428343549));
#528 = CARTESIAN_POINT('',(-15.,-16.85283430232,1.92539234186));
#529 = ORIENTED_EDGE('',*,*,#530,.F.);
#530 = EDGE_CURVE('',#278,#521,#531,.T.);
#531 = LINE('',#532,#533);
#532 = CARTESIAN_POINT('',(-15.,-16.95930232558,114.78412058953));
#533 = VECTOR('',#534,1.);
#534 = DIRECTION('',(0.,-1.110223024625E-16,1.));
#535 = PLANE('',#536);
#536 = AXIS2_PLACEMENT_3D('',#537,#538,#539);
#537 = CARTESIAN_POINT('',(-15.,-18.75,227.56));
#538 = DIRECTION('',(1.,0.,-0.));
#539 = DIRECTION('',(0.,1.,2.22044604925E-16));
#540 = ADVANCED_FACE('',(#541),#559,.F.);
#541 = FACE_BOUND('',#542,.F.);
#542 = EDGE_LOOP('',(#543,#544,#552,#558));
#543 = ORIENTED_EDGE('',*,*,#95,.T.);
#544 = ORIENTED_EDGE('',*,*,#545,.T.);
#545 = EDGE_CURVE('',#88,#546,#548,.T.);
#546 = VERTEX_POINT('',#547);
#547 = CARTESIAN_POINT('',(-14.38,-15.55,2.998430132558));
#548 = LINE('',#549,#550);
#549 = CARTESIAN_POINT('',(-14.38,-15.55,3.226264434884));
#550 = VECTOR('',#551,1.);
#551 = DIRECTION('',(0.,1.110223024625E-16,-1.));
#552 = ORIENTED_EDGE('',*,*,#553,.F.);
#553 = EDGE_CURVE('',#205,#546,#554,.T.);
#554 = LINE('',#555,#556);
#555 = CARTESIAN_POINT('',(-15.58,-15.55,2.998430132558));
#556 = VECTOR('',#557,1.);
#557 = DIRECTION('',(1.,1.110223024625E-16,1.232595164408E-32));
#558 = ORIENTED_EDGE('',*,*,#204,.T.);
#559 = PLANE('',#560);
#560 = AXIS2_PLACEMENT_3D('',#561,#562,#563);
#561 = CARTESIAN_POINT('',(-15.58,-15.55,3.226264434884));
#562 = DIRECTION('',(-1.110223024625E-16,1.,1.110223024625E-16));
#563 = DIRECTION('',(0.,1.110223024625E-16,-1.));
#564 = ADVANCED_FACE('',(#565),#614,.F.);
#565 = FACE_BOUND('',#566,.F.);
#566 = EDGE_LOOP('',(#567,#568,#569,#577,#583,#584,#592,#600,#608));
#567 = ORIENTED_EDGE('',*,*,#545,.F.);
#568 = ORIENTED_EDGE('',*,*,#87,.T.);
#569 = ORIENTED_EDGE('',*,*,#570,.F.);
#570 = EDGE_CURVE('',#571,#80,#573,.T.);
#571 = VERTEX_POINT('',#572);
#572 = CARTESIAN_POINT('',(-14.38,-16.49418604651,2.837092923256));
#573 = LINE('',#574,#575);
#574 = CARTESIAN_POINT('',(-14.38,-16.49418604651,2.837092923256));
#575 = VECTOR('',#576,1.);
#576 = DIRECTION('',(-1.03909244868E-16,0.935931272935,0.352182697391));
#577 = ORIENTED_EDGE('',*,*,#578,.F.);
#578 = EDGE_CURVE('',#56,#571,#579,.T.);
#579 = LINE('',#580,#581);
#580 = CARTESIAN_POINT('',(-14.38,-16.49418604651,3.378880713953));
#581 = VECTOR('',#582,1.);
#582 = DIRECTION('',(0.,1.110223024625E-16,-1.));
#583 = ORIENTED_EDGE('',*,*,#55,.T.);
#584 = ORIENTED_EDGE('',*,*,#585,.F.);
#585 = EDGE_CURVE('',#586,#48,#588,.T.);
#586 = VERTEX_POINT('',#587);
#587 = CARTESIAN_POINT('',(-14.38,-16.66627906976,2.771685946512));
#588 = LINE('',#589,#590);
#589 = CARTESIAN_POINT('',(-14.38,-16.66627906976,2.771685946512));
#590 = VECTOR('',#591,1.);
#591 = DIRECTION('',(0.,-1.110223024625E-16,1.));
#592 = ORIENTED_EDGE('',*,*,#593,.F.);
#593 = EDGE_CURVE('',#594,#586,#596,.T.);
#594 = VERTEX_POINT('',#595);
#595 = CARTESIAN_POINT('',(-14.38,-17.15,2.585276062791));
#596 = LINE('',#597,#598);
#597 = CARTESIAN_POINT('',(-14.38,-17.15,2.585276062791));
#598 = VECTOR('',#599,1.);
#599 = DIRECTION('',(-1.035960817784E-16,0.933110550588,0.359589627743)
  );
#600 = ORIENTED_EDGE('',*,*,#601,.F.);
#601 = EDGE_CURVE('',#602,#594,#604,.T.);
#602 = VERTEX_POINT('',#603);
#603 = CARTESIAN_POINT('',(-14.38,-17.15,2.344360365116));
#604 = LINE('',#605,#606);
#605 = CARTESIAN_POINT('',(-14.38,-17.15,2.344360365116));
#606 = VECTOR('',#607,1.);
#607 = DIRECTION('',(0.,-1.110223024625E-16,1.));
#608 = ORIENTED_EDGE('',*,*,#609,.F.);
#609 = EDGE_CURVE('',#546,#602,#610,.T.);
#610 = LINE('',#611,#612);
#611 = CARTESIAN_POINT('',(-14.38,-15.55,2.998430132558));
#612 = VECTOR('',#613,1.);
#613 = DIRECTION('',(1.027670578869E-16,-0.92564336721,-0.378397088703)
  );
#614 = PLANE('',#615);
#615 = AXIS2_PLACEMENT_3D('',#616,#617,#618);
#616 = CARTESIAN_POINT('',(-14.38,-16.41759713602,2.436150549072));
#617 = DIRECTION('',(1.,1.110223024625E-16,1.232595164408E-32));
#618 = DIRECTION('',(0.,1.110223024625E-16,-1.));
#619 = ADVANCED_FACE('',(#620),#638,.F.);
#620 = FACE_BOUND('',#621,.F.);
#621 = EDGE_LOOP('',(#622,#630,#636,#637));
#622 = ORIENTED_EDGE('',*,*,#623,.T.);
#623 = EDGE_CURVE('',#72,#624,#626,.T.);
#624 = VERTEX_POINT('',#625);
#625 = CARTESIAN_POINT('',(-15.,-16.49418604651,2.837092923256));
#626 = LINE('',#627,#628);
#627 = CARTESIAN_POINT('',(-15.,19.55425178312,16.40180268207));
#628 = VECTOR('',#629,1.);
#629 = DIRECTION('',(-0.,-0.935931272935,-0.352182697391));
#630 = ORIENTED_EDGE('',*,*,#631,.T.);
#631 = EDGE_CURVE('',#624,#571,#632,.T.);
#632 = LINE('',#633,#634);
#633 = CARTESIAN_POINT('',(-15.58,-16.49418604651,2.837092923256));
#634 = VECTOR('',#635,1.);
#635 = DIRECTION('',(1.,1.110223024625E-16,1.232595164408E-32));
#636 = ORIENTED_EDGE('',*,*,#570,.T.);
#637 = ORIENTED_EDGE('',*,*,#79,.T.);
#638 = PLANE('',#639);
#639 = AXIS2_PLACEMENT_3D('',#640,#641,#642);
#640 = CARTESIAN_POINT('',(-15.58,-16.49418604651,2.837092923256));
#641 = DIRECTION('',(3.910013395179E-17,-0.352182697391,0.935931272935)
  );
#642 = DIRECTION('',(-1.03909244868E-16,0.935931272935,0.352182697391));
#643 = ADVANCED_FACE('',(#644),#654,.F.);
#644 = FACE_BOUND('',#645,.F.);
#645 = EDGE_LOOP('',(#646,#647,#648));
#646 = ORIENTED_EDGE('',*,*,#623,.F.);
#647 = ORIENTED_EDGE('',*,*,#71,.T.);
#648 = ORIENTED_EDGE('',*,*,#649,.F.);
#649 = EDGE_CURVE('',#624,#64,#650,.T.);
#650 = LINE('',#651,#652);
#651 = CARTESIAN_POINT('',(-15.,-16.49418604651,115.46944035697));
#652 = VECTOR('',#653,1.);
#653 = DIRECTION('',(0.,-1.110223024625E-16,1.));
#654 = PLANE('',#655);
#655 = AXIS2_PLACEMENT_3D('',#656,#657,#658);
#656 = CARTESIAN_POINT('',(-15.,-18.75,227.56));
#657 = DIRECTION('',(1.,0.,-0.));
#658 = DIRECTION('',(0.,1.,2.22044604925E-16));
#659 = ADVANCED_FACE('',(#660),#666,.F.);
#660 = FACE_BOUND('',#661,.F.);
#661 = EDGE_LOOP('',(#662,#663,#664,#665));
#662 = ORIENTED_EDGE('',*,*,#63,.T.);
#663 = ORIENTED_EDGE('',*,*,#578,.T.);
#664 = ORIENTED_EDGE('',*,*,#631,.F.);
#665 = ORIENTED_EDGE('',*,*,#649,.T.);
#666 = PLANE('',#667);
#667 = AXIS2_PLACEMENT_3D('',#668,#669,#670);
#668 = CARTESIAN_POINT('',(-15.58,-16.49418604651,3.378880713953));
#669 = DIRECTION('',(-1.110223024625E-16,1.,1.110223024625E-16));
#670 = DIRECTION('',(0.,1.110223024625E-16,-1.));
#671 = ADVANCED_FACE('',(#672),#683,.F.);
#672 = FACE_BOUND('',#673,.F.);
#673 = EDGE_LOOP('',(#674,#675,#681,#682));
#674 = ORIENTED_EDGE('',*,*,#236,.T.);
#675 = ORIENTED_EDGE('',*,*,#676,.T.);
#676 = EDGE_CURVE('',#229,#586,#677,.T.);
#677 = LINE('',#678,#679);
#678 = CARTESIAN_POINT('',(-15.58,-16.66627906976,2.771685946512));
#679 = VECTOR('',#680,1.);
#680 = DIRECTION('',(1.,1.110223024625E-16,1.232595164408E-32));
#681 = ORIENTED_EDGE('',*,*,#585,.T.);
#682 = ORIENTED_EDGE('',*,*,#47,.T.);
#683 = PLANE('',#684);
#684 = AXIS2_PLACEMENT_3D('',#685,#686,#687);
#685 = CARTESIAN_POINT('',(-15.58,-16.66627906976,2.771685946512));
#686 = DIRECTION('',(1.110223024625E-16,-1.,-1.110223024625E-16));
#687 = DIRECTION('',(0.,-1.110223024625E-16,1.));
#688 = ADVANCED_FACE('',(#689),#716,.F.);
#689 = FACE_BOUND('',#690,.F.);
#690 = EDGE_LOOP('',(#691,#692,#693,#694,#702,#710));
#691 = ORIENTED_EDGE('',*,*,#243,.F.);
#692 = ORIENTED_EDGE('',*,*,#31,.T.);
#693 = ORIENTED_EDGE('',*,*,#152,.T.);
#694 = ORIENTED_EDGE('',*,*,#695,.T.);
#695 = EDGE_CURVE('',#145,#696,#698,.T.);
#696 = VERTEX_POINT('',#697);
#697 = CARTESIAN_POINT('',(15.,-18.75,51.56));
#698 = LINE('',#699,#700);
#699 = CARTESIAN_POINT('',(-109.66,-18.75,51.56));
#700 = VECTOR('',#701,1.);
#701 = DIRECTION('',(1.,0.,-0.));
#702 = ORIENTED_EDGE('',*,*,#703,.F.);
#703 = EDGE_CURVE('',#704,#696,#706,.T.);
#704 = VERTEX_POINT('',#705);
#705 = CARTESIAN_POINT('',(15.,-18.75,7.105427357601E-15));
#706 = LINE('',#707,#708);
#707 = CARTESIAN_POINT('',(15.,-18.75,139.56));
#708 = VECTOR('',#709,1.);
#709 = DIRECTION('',(0.,-2.22044604925E-16,1.));
#710 = ORIENTED_EDGE('',*,*,#711,.F.);
#711 = EDGE_CURVE('',#244,#704,#712,.T.);
#712 = LINE('',#713,#714);
#713 = CARTESIAN_POINT('',(-109.66,-18.75,7.105427357601E-15));
#714 = VECTOR('',#715,1.);
#715 = DIRECTION('',(1.,0.,-0.));
#716 = PLANE('',#717);
#717 = AXIS2_PLACEMENT_3D('',#718,#719,#720);
#718 = CARTESIAN_POINT('',(-15.,-18.75,227.56));
#719 = DIRECTION('',(0.,1.,2.22044604925E-16));
#720 = DIRECTION('',(1.,0.,-0.));
#721 = ADVANCED_FACE('',(#722),#750,.F.);
#722 = FACE_BOUND('',#723,.F.);
#723 = EDGE_LOOP('',(#724,#735,#741,#742,#743));
#724 = ORIENTED_EDGE('',*,*,#725,.T.);
#725 = EDGE_CURVE('',#726,#728,#730,.T.);
#726 = VERTEX_POINT('',#727);
#727 = CARTESIAN_POINT('',(7.5,2.05,2.6));
#728 = VERTEX_POINT('',#729);
#729 = CARTESIAN_POINT('',(7.5,5.45,2.6));
#730 = CIRCLE('',#731,1.7);
#731 = AXIS2_PLACEMENT_3D('',#732,#733,#734);
#732 = CARTESIAN_POINT('',(7.5,3.75,2.6));
#733 = DIRECTION('',(0.,-2.22044604925E-16,1.));
#734 = DIRECTION('',(0.,-1.,-2.22044604925E-16));
#735 = ORIENTED_EDGE('',*,*,#736,.F.);
#736 = EDGE_CURVE('',#120,#728,#737,.T.);
#737 = LINE('',#738,#739);
#738 = CARTESIAN_POINT('',(7.5,5.45,5.));
#739 = VECTOR('',#740,1.);
#740 = DIRECTION('',(0.,2.22044604925E-16,-1.));
#741 = ORIENTED_EDGE('',*,*,#119,.T.);
#742 = ORIENTED_EDGE('',*,*,#736,.T.);
#743 = ORIENTED_EDGE('',*,*,#744,.T.);
#744 = EDGE_CURVE('',#728,#726,#745,.T.);
#745 = CIRCLE('',#746,1.7);
#746 = AXIS2_PLACEMENT_3D('',#747,#748,#749);
#747 = CARTESIAN_POINT('',(7.5,3.75,2.6));
#748 = DIRECTION('',(0.,-2.22044604925E-16,1.));
#749 = DIRECTION('',(0.,-1.,-2.22044604925E-16));
#750 = CYLINDRICAL_SURFACE('',#751,1.7);
#751 = AXIS2_PLACEMENT_3D('',#752,#753,#754);
#752 = CARTESIAN_POINT('',(7.5,3.75,5.));
#753 = DIRECTION('',(0.,2.22044604925E-16,-1.));
#754 = DIRECTION('',(0.,1.,2.22044604925E-16));
#755 = ADVANCED_FACE('',(#756),#776,.F.);
#756 = FACE_BOUND('',#757,.F.);
#757 = EDGE_LOOP('',(#758,#759,#767,#773,#774,#775));
#758 = ORIENTED_EDGE('',*,*,#267,.F.);
#759 = ORIENTED_EDGE('',*,*,#760,.T.);
#760 = EDGE_CURVE('',#260,#761,#763,.T.);
#761 = VERTEX_POINT('',#762);
#762 = CARTESIAN_POINT('',(15.,18.75,51.56));
#763 = LINE('',#764,#765);
#764 = CARTESIAN_POINT('',(-204.32,18.75,51.56));
#765 = VECTOR('',#766,1.);
#766 = DIRECTION('',(1.,0.,-0.));
#767 = ORIENTED_EDGE('',*,*,#768,.F.);
#768 = EDGE_CURVE('',#696,#761,#769,.T.);
#769 = LINE('',#770,#771);
#770 = CARTESIAN_POINT('',(15.,-181.49,51.56));
#771 = VECTOR('',#772,1.);
#772 = DIRECTION('',(0.,1.,2.22044604925E-16));
#773 = ORIENTED_EDGE('',*,*,#695,.F.);
#774 = ORIENTED_EDGE('',*,*,#144,.F.);
#775 = ORIENTED_EDGE('',*,*,#186,.F.);
#776 = PLANE('',#777);
#777 = AXIS2_PLACEMENT_3D('',#778,#779,#780);
#778 = CARTESIAN_POINT('',(-204.32,-181.49,51.56));
#779 = DIRECTION('',(0.,2.22044604925E-16,-1.));
#780 = DIRECTION('',(0.,1.,2.22044604925E-16));
#781 = ADVANCED_FACE('',(#782),#801,.F.);
#782 = FACE_BOUND('',#783,.F.);
#783 = EDGE_LOOP('',(#784,#793,#799,#800));
#784 = ORIENTED_EDGE('',*,*,#785,.F.);
#785 = EDGE_CURVE('',#786,#786,#788,.T.);
#786 = VERTEX_POINT('',#787);
#787 = CARTESIAN_POINT('',(15.,-0.55,36.56));
#788 = CIRCLE('',#789,1.7);
#789 = AXIS2_PLACEMENT_3D('',#790,#791,#792);
#790 = CARTESIAN_POINT('',(15.,-2.25,36.56));
#791 = DIRECTION('',(1.,0.,-0.));
#792 = DIRECTION('',(0.,1.,2.22044604925E-16));
#793 = ORIENTED_EDGE('',*,*,#794,.F.);
#794 = EDGE_CURVE('',#162,#786,#795,.T.);
#795 = LINE('',#796,#797);
#796 = CARTESIAN_POINT('',(10.,-0.55,36.56));
#797 = VECTOR('',#798,1.);
#798 = DIRECTION('',(1.,0.,0.));
#799 = ORIENTED_EDGE('',*,*,#161,.T.);
#800 = ORIENTED_EDGE('',*,*,#794,.T.);
#801 = CYLINDRICAL_SURFACE('',#802,1.7);
#802 = AXIS2_PLACEMENT_3D('',#803,#804,#805);
#803 = CARTESIAN_POINT('',(10.,-2.25,36.56));
#804 = DIRECTION('',(1.,0.,0.));
#805 = DIRECTION('',(0.,1.,2.22044604925E-16));
#806 = ADVANCED_FACE('',(#807),#825,.T.);
#807 = FACE_BOUND('',#808,.T.);
#808 = EDGE_LOOP('',(#809,#810,#811,#819));
#809 = ORIENTED_EDGE('',*,*,#259,.F.);
#810 = ORIENTED_EDGE('',*,*,#760,.T.);
#811 = ORIENTED_EDGE('',*,*,#812,.T.);
#812 = EDGE_CURVE('',#761,#813,#815,.T.);
#813 = VERTEX_POINT('',#814);
#814 = CARTESIAN_POINT('',(15.,18.75,1.42108547152E-14));
#815 = LINE('',#816,#817);
#816 = CARTESIAN_POINT('',(15.,18.75,51.56));
#817 = VECTOR('',#818,1.);
#818 = DIRECTION('',(0.,2.22044604925E-16,-1.));
#819 = ORIENTED_EDGE('',*,*,#820,.F.);
#820 = EDGE_CURVE('',#252,#813,#821,.T.);
#821 = LINE('',#822,#823);
#822 = CARTESIAN_POINT('',(-204.32,18.75,1.42108547152E-14));
#823 = VECTOR('',#824,1.);
#824 = DIRECTION('',(1.,0.,-0.));
#825 = PLANE('',#826);
#826 = AXIS2_PLACEMENT_3D('',#827,#828,#829);
#827 = CARTESIAN_POINT('',(-204.32,18.75,51.56));
#828 = DIRECTION('',(0.,1.,2.22044604925E-16));
#829 = DIRECTION('',(1.,0.,-0.));
#830 = ADVANCED_FACE('',(#831,#842),#853,.T.);
#831 = FACE_BOUND('',#832,.T.);
#832 = EDGE_LOOP('',(#833,#834,#835,#841));
#833 = ORIENTED_EDGE('',*,*,#251,.F.);
#834 = ORIENTED_EDGE('',*,*,#820,.T.);
#835 = ORIENTED_EDGE('',*,*,#836,.F.);
#836 = EDGE_CURVE('',#704,#813,#837,.T.);
#837 = LINE('',#838,#839);
#838 = CARTESIAN_POINT('',(15.,-181.49,-2.84217094304E-14));
#839 = VECTOR('',#840,1.);
#840 = DIRECTION('',(0.,1.,2.22044604925E-16));
#841 = ORIENTED_EDGE('',*,*,#711,.F.);
#842 = FACE_BOUND('',#843,.T.);
#843 = EDGE_LOOP('',(#844));
#844 = ORIENTED_EDGE('',*,*,#845,.T.);
#845 = EDGE_CURVE('',#846,#846,#848,.T.);
#846 = VERTEX_POINT('',#847);
#847 = CARTESIAN_POINT('',(7.5,0.5,1.42108547152E-14));
#848 = CIRCLE('',#849,3.25);
#849 = AXIS2_PLACEMENT_3D('',#850,#851,#852);
#850 = CARTESIAN_POINT('',(7.5,3.75,1.42108547152E-14));
#851 = DIRECTION('',(0.,-2.22044604925E-16,1.));
#852 = DIRECTION('',(0.,-1.,-2.22044604925E-16));
#853 = PLANE('',#854);
#854 = AXIS2_PLACEMENT_3D('',#855,#856,#857);
#855 = CARTESIAN_POINT('',(-204.32,-181.49,-2.84217094304E-14));
#856 = DIRECTION('',(0.,2.22044604925E-16,-1.));
#857 = DIRECTION('',(0.,1.,2.22044604925E-16));
#858 = ADVANCED_FACE('',(#859),#870,.F.);
#859 = FACE_BOUND('',#860,.F.);
#860 = EDGE_LOOP('',(#861,#862,#868,#869));
#861 = ORIENTED_EDGE('',*,*,#228,.T.);
#862 = ORIENTED_EDGE('',*,*,#863,.T.);
#863 = EDGE_CURVE('',#221,#594,#864,.T.);
#864 = LINE('',#865,#866);
#865 = CARTESIAN_POINT('',(-15.58,-17.15,2.585276062791));
#866 = VECTOR('',#867,1.);
#867 = DIRECTION('',(1.,1.110223024625E-16,1.232595164408E-32));
#868 = ORIENTED_EDGE('',*,*,#593,.T.);
#869 = ORIENTED_EDGE('',*,*,#676,.F.);
#870 = PLANE('',#871);
#871 = AXIS2_PLACEMENT_3D('',#872,#873,#874);
#872 = CARTESIAN_POINT('',(-15.58,-17.15,2.585276062791));
#873 = DIRECTION('',(3.99224684137E-17,-0.359589627743,0.933110550588));
#874 = DIRECTION('',(-1.035960817784E-16,0.933110550588,0.359589627743)
  );
#875 = ADVANCED_FACE('',(#876),#887,.F.);
#876 = FACE_BOUND('',#877,.F.);
#877 = EDGE_LOOP('',(#878,#879,#885,#886));
#878 = ORIENTED_EDGE('',*,*,#220,.T.);
#879 = ORIENTED_EDGE('',*,*,#880,.T.);
#880 = EDGE_CURVE('',#213,#602,#881,.T.);
#881 = LINE('',#882,#883);
#882 = CARTESIAN_POINT('',(-15.58,-17.15,2.344360365116));
#883 = VECTOR('',#884,1.);
#884 = DIRECTION('',(1.,1.110223024625E-16,1.232595164408E-32));
#885 = ORIENTED_EDGE('',*,*,#601,.T.);
#886 = ORIENTED_EDGE('',*,*,#863,.F.);
#887 = PLANE('',#888);
#888 = AXIS2_PLACEMENT_3D('',#889,#890,#891);
#889 = CARTESIAN_POINT('',(-15.58,-17.15,2.344360365116));
#890 = DIRECTION('',(1.110223024625E-16,-1.,-1.110223024625E-16));
#891 = DIRECTION('',(0.,-1.110223024625E-16,1.));
#892 = ADVANCED_FACE('',(#893),#899,.F.);
#893 = FACE_BOUND('',#894,.F.);
#894 = EDGE_LOOP('',(#895,#896,#897,#898));
#895 = ORIENTED_EDGE('',*,*,#212,.T.);
#896 = ORIENTED_EDGE('',*,*,#553,.T.);
#897 = ORIENTED_EDGE('',*,*,#609,.T.);
#898 = ORIENTED_EDGE('',*,*,#880,.F.);
#899 = PLANE('',#900);
#900 = AXIS2_PLACEMENT_3D('',#901,#902,#903);
#901 = CARTESIAN_POINT('',(-15.58,-15.55,2.998430132558));
#902 = DIRECTION('',(-4.201051603297E-17,0.378397088703,-0.92564336721)
  );
#903 = DIRECTION('',(1.027670578869E-16,-0.92564336721,-0.378397088703)
  );
#904 = ADVANCED_FACE('',(#905),#930,.F.);
#905 = FACE_BOUND('',#906,.F.);
#906 = EDGE_LOOP('',(#907,#908,#916,#924));
#907 = ORIENTED_EDGE('',*,*,#275,.T.);
#908 = ORIENTED_EDGE('',*,*,#909,.T.);
#909 = EDGE_CURVE('',#278,#910,#912,.T.);
#910 = VERTEX_POINT('',#911);
#911 = CARTESIAN_POINT('',(-14.38,-16.95930232558,1.224447574419));
#912 = LINE('',#913,#914);
#913 = CARTESIAN_POINT('',(-15.58,-16.95930232558,1.224447574419));
#914 = VECTOR('',#915,1.);
#915 = DIRECTION('',(1.,1.110223024625E-16,1.232595164408E-32));
#916 = ORIENTED_EDGE('',*,*,#917,.T.);
#917 = EDGE_CURVE('',#910,#918,#920,.T.);
#918 = VERTEX_POINT('',#919);
#919 = CARTESIAN_POINT('',(-14.38,-17.15,1.224447574419));
#920 = LINE('',#921,#922);
#921 = CARTESIAN_POINT('',(-14.38,-16.95930232558,1.224447574419));
#922 = VECTOR('',#923,1.);
#923 = DIRECTION('',(1.110223024625E-16,-1.,-1.110223024625E-16));
#924 = ORIENTED_EDGE('',*,*,#925,.F.);
#925 = EDGE_CURVE('',#276,#918,#926,.T.);
#926 = LINE('',#927,#928);
#927 = CARTESIAN_POINT('',(-15.58,-17.15,1.224447574419));
#928 = VECTOR('',#929,1.);
#929 = DIRECTION('',(1.,1.110223024625E-16,1.232595164408E-32));
#930 = PLANE('',#931);
#931 = AXIS2_PLACEMENT_3D('',#932,#933,#934);
#932 = CARTESIAN_POINT('',(-15.58,-16.95930232558,1.224447574419));
#933 = DIRECTION('',(0.,1.110223024625E-16,-1.));
#934 = DIRECTION('',(1.110223024625E-16,-1.,-1.110223024625E-16));
#935 = ADVANCED_FACE('',(#936),#954,.F.);
#936 = FACE_BOUND('',#937,.F.);
#937 = EDGE_LOOP('',(#938,#939,#947,#953));
#938 = ORIENTED_EDGE('',*,*,#530,.T.);
#939 = ORIENTED_EDGE('',*,*,#940,.T.);
#940 = EDGE_CURVE('',#521,#941,#943,.T.);
#941 = VERTEX_POINT('',#942);
#942 = CARTESIAN_POINT('',(-14.38,-16.95930232558,2.00824117907));
#943 = LINE('',#944,#945);
#944 = CARTESIAN_POINT('',(-15.58,-16.95930232558,2.00824117907));
#945 = VECTOR('',#946,1.);
#946 = DIRECTION('',(1.,1.110223024625E-16,1.232595164408E-32));
#947 = ORIENTED_EDGE('',*,*,#948,.T.);
#948 = EDGE_CURVE('',#941,#910,#949,.T.);
#949 = LINE('',#950,#951);
#950 = CARTESIAN_POINT('',(-14.38,-16.95930232558,2.00824117907));
#951 = VECTOR('',#952,1.);
#952 = DIRECTION('',(0.,1.110223024625E-16,-1.));
#953 = ORIENTED_EDGE('',*,*,#909,.F.);
#954 = PLANE('',#955);
#955 = AXIS2_PLACEMENT_3D('',#956,#957,#958);
#956 = CARTESIAN_POINT('',(-15.58,-16.95930232558,2.00824117907));
#957 = DIRECTION('',(-1.110223024625E-16,1.,1.110223024625E-16));
#958 = DIRECTION('',(0.,1.110223024625E-16,-1.));
#959 = ADVANCED_FACE('',(#960),#978,.F.);
#960 = FACE_BOUND('',#961,.F.);
#961 = EDGE_LOOP('',(#962,#963,#971,#977));
#962 = ORIENTED_EDGE('',*,*,#520,.T.);
#963 = ORIENTED_EDGE('',*,*,#964,.T.);
#964 = EDGE_CURVE('',#509,#965,#967,.T.);
#965 = VERTEX_POINT('',#966);
#966 = CARTESIAN_POINT('',(-14.38,-16.85283430232,1.92539234186));
#967 = LINE('',#968,#969);
#968 = CARTESIAN_POINT('',(-15.58,-16.85283430232,1.92539234186));
#969 = VECTOR('',#970,1.);
#970 = DIRECTION('',(1.,1.110223024625E-16,1.232595164408E-32));
#971 = ORIENTED_EDGE('',*,*,#972,.T.);
#972 = EDGE_CURVE('',#965,#941,#973,.T.);
#973 = B_SPLINE_CURVE_WITH_KNOTS('',2,(#974,#975,#976),.UNSPECIFIED.,.F.
  ,.F.,(3,3),(0.,1.),.PIECEWISE_BEZIER_KNOTS.);
#974 = CARTESIAN_POINT('',(-14.38,-16.85283430232,1.92539234186));
#975 = CARTESIAN_POINT('',(-14.38,-16.90581395348,1.975537690698));
#976 = CARTESIAN_POINT('',(-14.38,-16.95930232558,2.00824117907));
#977 = ORIENTED_EDGE('',*,*,#940,.F.);
#978 = SURFACE_OF_LINEAR_EXTRUSION('',#979,#983);
#979 = B_SPLINE_CURVE_WITH_KNOTS('',2,(#980,#981,#982),.UNSPECIFIED.,.F.
  ,.F.,(3,3),(0.,1.),.PIECEWISE_BEZIER_KNOTS.);
#980 = CARTESIAN_POINT('',(-15.58,-16.85283430232,1.92539234186));
#981 = CARTESIAN_POINT('',(-15.58,-16.90581395348,1.975537690698));
#982 = CARTESIAN_POINT('',(-15.58,-16.95930232558,2.00824117907));
#983 = VECTOR('',#984,1.);
#984 = DIRECTION('',(-1.,-1.110223024625E-16,-1.232595164408E-32));
#985 = ADVANCED_FACE('',(#986),#1004,.F.);
#986 = FACE_BOUND('',#987,.F.);
#987 = EDGE_LOOP('',(#988,#989,#997,#1003));
#988 = ORIENTED_EDGE('',*,*,#508,.T.);
#989 = ORIENTED_EDGE('',*,*,#990,.T.);
#990 = EDGE_CURVE('',#497,#991,#993,.T.);
#991 = VERTEX_POINT('',#992);
#992 = CARTESIAN_POINT('',(-14.38,-16.65130813953,1.698648155814));
#993 = LINE('',#994,#995);
#994 = CARTESIAN_POINT('',(-15.58,-16.65130813953,1.698648155814));
#995 = VECTOR('',#996,1.);
#996 = DIRECTION('',(1.,1.110223024625E-16,1.232595164408E-32));
#997 = ORIENTED_EDGE('',*,*,#998,.T.);
#998 = EDGE_CURVE('',#991,#965,#999,.T.);
#999 = B_SPLINE_CURVE_WITH_KNOTS('',2,(#1000,#1001,#1002),
  .UNSPECIFIED.,.F.,.F.,(3,3),(0.,1.),.PIECEWISE_BEZIER_KNOTS.);
#1000 = CARTESIAN_POINT('',(-14.38,-16.65130813953,1.698648155814));
#1001 = CARTESIAN_POINT('',(-14.38,-16.79985465116,1.875246993023));
#1002 = CARTESIAN_POINT('',(-14.38,-16.85283430232,1.92539234186));
#1003 = ORIENTED_EDGE('',*,*,#964,.F.);
#1004 = SURFACE_OF_LINEAR_EXTRUSION('',#1005,#1009);
#1005 = B_SPLINE_CURVE_WITH_KNOTS('',2,(#1006,#1007,#1008),
  .UNSPECIFIED.,.F.,.F.,(3,3),(0.,1.),.PIECEWISE_BEZIER_KNOTS.);
#1006 = CARTESIAN_POINT('',(-15.58,-16.65130813953,1.698648155814));
#1007 = CARTESIAN_POINT('',(-15.58,-16.79985465116,1.875246993023));
#1008 = CARTESIAN_POINT('',(-15.58,-16.85283430232,1.92539234186));
#1009 = VECTOR('',#1010,1.);
#1010 = DIRECTION('',(-1.,-1.110223024625E-16,-1.232595164408E-32));
#1011 = ADVANCED_FACE('',(#1012),#1030,.F.);
#1012 = FACE_BOUND('',#1013,.F.);
#1013 = EDGE_LOOP('',(#1014,#1015,#1023,#1029));
#1014 = ORIENTED_EDGE('',*,*,#496,.T.);
#1015 = ORIENTED_EDGE('',*,*,#1016,.T.);
#1016 = EDGE_CURVE('',#486,#1017,#1019,.T.);
#1017 = VERTEX_POINT('',#1018);
#1018 = CARTESIAN_POINT('',(-14.38,-16.36962209302,1.396177225581));
#1019 = LINE('',#1020,#1021);
#1020 = CARTESIAN_POINT('',(-15.58,-16.36962209302,1.396177225581));
#1021 = VECTOR('',#1022,1.);
#1022 = DIRECTION('',(1.,1.110223024625E-16,1.232595164408E-32));
#1023 = ORIENTED_EDGE('',*,*,#1024,.T.);
#1024 = EDGE_CURVE('',#1017,#991,#1025,.T.);
#1025 = B_SPLINE_CURVE_WITH_KNOTS('',2,(#1026,#1027,#1028),
  .UNSPECIFIED.,.F.,.F.,(3,3),(0.,1.),.PIECEWISE_BEZIER_KNOTS.);
#1026 = CARTESIAN_POINT('',(-14.38,-16.36962209302,1.396177225581));
#1027 = CARTESIAN_POINT('',(-14.38,-16.47223837209,1.487165597674));
#1028 = CARTESIAN_POINT('',(-14.38,-16.65130813953,1.698648155814));
#1029 = ORIENTED_EDGE('',*,*,#990,.F.);
#1030 = SURFACE_OF_LINEAR_EXTRUSION('',#1031,#1035);
#1031 = B_SPLINE_CURVE_WITH_KNOTS('',2,(#1032,#1033,#1034),
  .UNSPECIFIED.,.F.,.F.,(3,3),(0.,1.),.PIECEWISE_BEZIER_KNOTS.);
#1032 = CARTESIAN_POINT('',(-15.58,-16.36962209302,1.396177225581));
#1033 = CARTESIAN_POINT('',(-15.58,-16.47223837209,1.487165597674));
#1034 = CARTESIAN_POINT('',(-15.58,-16.65130813953,1.698648155814));
#1035 = VECTOR('',#1036,1.);
#1036 = DIRECTION('',(-1.,-1.110223024625E-16,-1.232595164408E-32));
#1037 = ADVANCED_FACE('',(#1038),#1056,.F.);
#1038 = FACE_BOUND('',#1039,.F.);
#1039 = EDGE_LOOP('',(#1040,#1041,#1049,#1055));
#1040 = ORIENTED_EDGE('',*,*,#485,.T.);
#1041 = ORIENTED_EDGE('',*,*,#1042,.T.);
#1042 = EDGE_CURVE('',#473,#1043,#1045,.T.);
#1043 = VERTEX_POINT('',#1044);
#1044 = CARTESIAN_POINT('',(-14.38,-16.17412790697,1.265871993023));
#1045 = LINE('',#1046,#1047);
#1046 = CARTESIAN_POINT('',(-15.58,-16.17412790697,1.265871993023));
#1047 = VECTOR('',#1048,1.);
#1048 = DIRECTION('',(1.,1.110223024625E-16,1.232595164408E-32));
#1049 = ORIENTED_EDGE('',*,*,#1050,.T.);
#1050 = EDGE_CURVE('',#1043,#1017,#1051,.T.);
#1051 = B_SPLINE_CURVE_WITH_KNOTS('',2,(#1052,#1053,#1054),
  .UNSPECIFIED.,.F.,.F.,(3,3),(0.,1.),.PIECEWISE_BEZIER_KNOTS.);
#1052 = CARTESIAN_POINT('',(-14.38,-16.17412790697,1.265871993023));
#1053 = CARTESIAN_POINT('',(-14.38,-16.26693313953,1.30511617907));
#1054 = CARTESIAN_POINT('',(-14.38,-16.36962209302,1.396177225581));
#1055 = ORIENTED_EDGE('',*,*,#1016,.F.);
#1056 = SURFACE_OF_LINEAR_EXTRUSION('',#1057,#1061);
#1057 = B_SPLINE_CURVE_WITH_KNOTS('',2,(#1058,#1059,#1060),
  .UNSPECIFIED.,.F.,.F.,(3,3),(0.,1.),.PIECEWISE_BEZIER_KNOTS.);
#1058 = CARTESIAN_POINT('',(-15.58,-16.17412790697,1.265871993023));
#1059 = CARTESIAN_POINT('',(-15.58,-16.26693313953,1.30511617907));
#1060 = CARTESIAN_POINT('',(-15.58,-16.36962209302,1.396177225581));
#1061 = VECTOR('',#1062,1.);
#1062 = DIRECTION('',(-1.,-1.110223024625E-16,-1.232595164408E-32));
#1063 = ADVANCED_FACE('',(#1064),#1082,.F.);
#1064 = FACE_BOUND('',#1065,.F.);
#1065 = EDGE_LOOP('',(#1066,#1067,#1075,#1081));
#1066 = ORIENTED_EDGE('',*,*,#472,.T.);
#1067 = ORIENTED_EDGE('',*,*,#1068,.T.);
#1068 = EDGE_CURVE('',#458,#1069,#1071,.T.);
#1069 = VERTEX_POINT('',#1070);
#1070 = CARTESIAN_POINT('',(-14.38,-15.9851744186,1.226627806977));
#1071 = LINE('',#1072,#1073);
#1072 = CARTESIAN_POINT('',(-15.58,-15.9851744186,1.226627806977));
#1073 = VECTOR('',#1074,1.);
#1074 = DIRECTION('',(1.,1.110223024625E-16,1.232595164408E-32));
#1075 = ORIENTED_EDGE('',*,*,#1076,.T.);
#1076 = EDGE_CURVE('',#1069,#1043,#1077,.T.);
#1077 = B_SPLINE_CURVE_WITH_KNOTS('',2,(#1078,#1079,#1080),
  .UNSPECIFIED.,.F.,.F.,(3,3),(0.,1.),.PIECEWISE_BEZIER_KNOTS.);
#1078 = CARTESIAN_POINT('',(-14.38,-15.9851744186,1.226627806977));
#1079 = CARTESIAN_POINT('',(-14.38,-16.08125,1.226627806977));
#1080 = CARTESIAN_POINT('',(-14.38,-16.17412790697,1.265871993023));
#1081 = ORIENTED_EDGE('',*,*,#1042,.F.);
#1082 = SURFACE_OF_LINEAR_EXTRUSION('',#1083,#1087);
#1083 = B_SPLINE_CURVE_WITH_KNOTS('',2,(#1084,#1085,#1086),
  .UNSPECIFIED.,.F.,.F.,(3,3),(0.,1.),.PIECEWISE_BEZIER_KNOTS.);
#1084 = CARTESIAN_POINT('',(-15.58,-15.9851744186,1.226627806977));
#1085 = CARTESIAN_POINT('',(-15.58,-16.08125,1.226627806977));
#1086 = CARTESIAN_POINT('',(-15.58,-16.17412790697,1.265871993023));
#1087 = VECTOR('',#1088,1.);
#1088 = DIRECTION('',(-1.,-1.110223024625E-16,-1.232595164408E-32));
#1089 = ADVANCED_FACE('',(#1090),#1108,.F.);
#1090 = FACE_BOUND('',#1091,.F.);
#1091 = EDGE_LOOP('',(#1092,#1093,#1101,#1107));
#1092 = ORIENTED_EDGE('',*,*,#457,.T.);
#1093 = ORIENTED_EDGE('',*,*,#1094,.T.);
#1094 = EDGE_CURVE('',#443,#1095,#1097,.T.);
#1095 = VERTEX_POINT('',#1096);
#1096 = CARTESIAN_POINT('',(-14.38,-15.66845930232,1.360712109302));
#1097 = LINE('',#1098,#1099);
#1098 = CARTESIAN_POINT('',(-15.58,-15.66845930232,1.360712109302));
#1099 = VECTOR('',#1100,1.);
#1100 = DIRECTION('',(1.,1.110223024625E-16,1.232595164408E-32));
#1101 = ORIENTED_EDGE('',*,*,#1102,.T.);
#1102 = EDGE_CURVE('',#1095,#1069,#1103,.T.);
#1103 = B_SPLINE_CURVE_WITH_KNOTS('',2,(#1104,#1105,#1106),
  .UNSPECIFIED.,.F.,.F.,(3,3),(0.,1.),.PIECEWISE_BEZIER_KNOTS.);
#1104 = CARTESIAN_POINT('',(-14.38,-15.66845930232,1.360712109302));
#1105 = CARTESIAN_POINT('',(-14.38,-15.79622093023,1.226627806977));
#1106 = CARTESIAN_POINT('',(-14.38,-15.9851744186,1.226627806977));
#1107 = ORIENTED_EDGE('',*,*,#1068,.F.);
#1108 = SURFACE_OF_LINEAR_EXTRUSION('',#1109,#1113);
#1109 = B_SPLINE_CURVE_WITH_KNOTS('',2,(#1110,#1111,#1112),
  .UNSPECIFIED.,.F.,.F.,(3,3),(0.,1.),.PIECEWISE_BEZIER_KNOTS.);
#1110 = CARTESIAN_POINT('',(-15.58,-15.66845930232,1.360712109302));
#1111 = CARTESIAN_POINT('',(-15.58,-15.79622093023,1.226627806977));
#1112 = CARTESIAN_POINT('',(-15.58,-15.9851744186,1.226627806977));
#1113 = VECTOR('',#1114,1.);
#1114 = DIRECTION('',(-1.,-1.110223024625E-16,-1.232595164408E-32));
#1115 = ADVANCED_FACE('',(#1116),#1134,.F.);
#1116 = FACE_BOUND('',#1117,.F.);
#1117 = EDGE_LOOP('',(#1118,#1119,#1127,#1133));
#1118 = ORIENTED_EDGE('',*,*,#442,.T.);
#1119 = ORIENTED_EDGE('',*,*,#1120,.T.);
#1120 = EDGE_CURVE('',#432,#1121,#1123,.T.);
#1121 = VERTEX_POINT('',#1122);
#1122 = CARTESIAN_POINT('',(-14.38,-15.54069767441,1.724810946512));
#1123 = LINE('',#1124,#1125);
#1124 = CARTESIAN_POINT('',(-15.58,-15.54069767441,1.724810946512));
#1125 = VECTOR('',#1126,1.);
#1126 = DIRECTION('',(1.,1.110223024625E-16,1.232595164408E-32));
#1127 = ORIENTED_EDGE('',*,*,#1128,.T.);
#1128 = EDGE_CURVE('',#1121,#1095,#1129,.T.);
#1129 = B_SPLINE_CURVE_WITH_KNOTS('',2,(#1130,#1131,#1132),
  .UNSPECIFIED.,.F.,.F.,(3,3),(0.,1.),.PIECEWISE_BEZIER_KNOTS.);
#1130 = CARTESIAN_POINT('',(-14.38,-15.54069767441,1.724810946512));
#1131 = CARTESIAN_POINT('',(-14.38,-15.54069767441,1.494796411628));
#1132 = CARTESIAN_POINT('',(-14.38,-15.66845930232,1.360712109302));
#1133 = ORIENTED_EDGE('',*,*,#1094,.F.);
#1134 = SURFACE_OF_LINEAR_EXTRUSION('',#1135,#1139);
#1135 = B_SPLINE_CURVE_WITH_KNOTS('',2,(#1136,#1137,#1138),
  .UNSPECIFIED.,.F.,.F.,(3,3),(0.,1.),.PIECEWISE_BEZIER_KNOTS.);
#1136 = CARTESIAN_POINT('',(-15.58,-15.54069767441,1.724810946512));
#1137 = CARTESIAN_POINT('',(-15.58,-15.54069767441,1.494796411628));
#1138 = CARTESIAN_POINT('',(-15.58,-15.66845930232,1.360712109302));
#1139 = VECTOR('',#1140,1.);
#1140 = DIRECTION('',(-1.,-1.110223024625E-16,-1.232595164408E-32));
#1141 = ADVANCED_FACE('',(#1142),#1160,.F.);
#1142 = FACE_BOUND('',#1143,.F.);
#1143 = EDGE_LOOP('',(#1144,#1145,#1153,#1159));
#1144 = ORIENTED_EDGE('',*,*,#431,.T.);
#1145 = ORIENTED_EDGE('',*,*,#1146,.T.);
#1146 = EDGE_CURVE('',#417,#1147,#1149,.T.);
#1147 = VERTEX_POINT('',#1148);
#1148 = CARTESIAN_POINT('',(-14.38,-15.65857558139,2.087819667442));
#1149 = LINE('',#1150,#1151);
#1150 = CARTESIAN_POINT('',(-15.58,-15.65857558139,2.087819667442));
#1151 = VECTOR('',#1152,1.);
#1152 = DIRECTION('',(1.,1.110223024625E-16,1.232595164408E-32));
#1153 = ORIENTED_EDGE('',*,*,#1154,.T.);
#1154 = EDGE_CURVE('',#1147,#1121,#1155,.T.);
#1155 = B_SPLINE_CURVE_WITH_KNOTS('',2,(#1156,#1157,#1158),
  .UNSPECIFIED.,.F.,.F.,(3,3),(0.,1.),.PIECEWISE_BEZIER_KNOTS.);
#1156 = CARTESIAN_POINT('',(-14.38,-15.65857558139,2.087819667442));
#1157 = CARTESIAN_POINT('',(-14.38,-15.54069767441,1.952645248837));
#1158 = CARTESIAN_POINT('',(-14.38,-15.54069767441,1.724810946512));
#1159 = ORIENTED_EDGE('',*,*,#1120,.F.);
#1160 = SURFACE_OF_LINEAR_EXTRUSION('',#1161,#1165);
#1161 = B_SPLINE_CURVE_WITH_KNOTS('',2,(#1162,#1163,#1164),
  .UNSPECIFIED.,.F.,.F.,(3,3),(0.,1.),.PIECEWISE_BEZIER_KNOTS.);
#1162 = CARTESIAN_POINT('',(-15.58,-15.65857558139,2.087819667442));
#1163 = CARTESIAN_POINT('',(-15.58,-15.54069767441,1.952645248837));
#1164 = CARTESIAN_POINT('',(-15.58,-15.54069767441,1.724810946512));
#1165 = VECTOR('',#1166,1.);
#1166 = DIRECTION('',(-1.,-1.110223024625E-16,-1.232595164408E-32));
#1167 = ADVANCED_FACE('',(#1168),#1186,.F.);
#1168 = FACE_BOUND('',#1169,.F.);
#1169 = EDGE_LOOP('',(#1170,#1171,#1179,#1185));
#1170 = ORIENTED_EDGE('',*,*,#416,.T.);
#1171 = ORIENTED_EDGE('',*,*,#1172,.T.);
#1172 = EDGE_CURVE('',#409,#1173,#1175,.T.);
#1173 = VERTEX_POINT('',#1174);
#1174 = CARTESIAN_POINT('',(-14.38,-16.00116279069,2.243706295349));
#1175 = LINE('',#1176,#1177);
#1176 = CARTESIAN_POINT('',(-15.58,-16.00116279069,2.243706295349));
#1177 = VECTOR('',#1178,1.);
#1178 = DIRECTION('',(1.,1.110223024625E-16,1.232595164408E-32));
#1179 = ORIENTED_EDGE('',*,*,#1180,.T.);
#1180 = EDGE_CURVE('',#1173,#1147,#1181,.T.);
#1181 = B_SPLINE_CURVE_WITH_KNOTS('',2,(#1182,#1183,#1184),
  .UNSPECIFIED.,.F.,.F.,(3,3),(0.,1.),.PIECEWISE_BEZIER_KNOTS.);
#1182 = CARTESIAN_POINT('',(-14.38,-16.00116279069,2.243706295349));
#1183 = CARTESIAN_POINT('',(-14.38,-15.77638081395,2.222994086047));
#1184 = CARTESIAN_POINT('',(-14.38,-15.65857558139,2.087819667442));
#1185 = ORIENTED_EDGE('',*,*,#1146,.F.);
#1186 = SURFACE_OF_LINEAR_EXTRUSION('',#1187,#1191);
#1187 = B_SPLINE_CURVE_WITH_KNOTS('',2,(#1188,#1189,#1190),
  .UNSPECIFIED.,.F.,.F.,(3,3),(0.,1.),.PIECEWISE_BEZIER_KNOTS.);
#1188 = CARTESIAN_POINT('',(-15.58,-16.00116279069,2.243706295349));
#1189 = CARTESIAN_POINT('',(-15.58,-15.77638081395,2.222994086047));
#1190 = CARTESIAN_POINT('',(-15.58,-15.65857558139,2.087819667442));
#1191 = VECTOR('',#1192,1.);
#1192 = DIRECTION('',(-1.,-1.110223024625E-16,-1.232595164408E-32));
#1193 = ADVANCED_FACE('',(#1194),#1212,.F.);
#1194 = FACE_BOUND('',#1195,.F.);
#1195 = EDGE_LOOP('',(#1196,#1197,#1205,#1211));
#1196 = ORIENTED_EDGE('',*,*,#408,.T.);
#1197 = ORIENTED_EDGE('',*,*,#1198,.T.);
#1198 = EDGE_CURVE('',#394,#1199,#1201,.T.);
#1199 = VERTEX_POINT('',#1200);
#1200 = CARTESIAN_POINT('',(-14.38,-16.02906976744,2.042034783721));
#1201 = LINE('',#1202,#1203);
#1202 = CARTESIAN_POINT('',(-15.58,-16.02906976744,2.042034783721));
#1203 = VECTOR('',#1204,1.);
#1204 = DIRECTION('',(1.,1.110223024625E-16,1.232595164408E-32));
#1205 = ORIENTED_EDGE('',*,*,#1206,.T.);
#1206 = EDGE_CURVE('',#1199,#1173,#1207,.T.);
#1207 = LINE('',#1208,#1209);
#1208 = CARTESIAN_POINT('',(-14.38,-16.02906976744,2.042034783721));
#1209 = VECTOR('',#1210,1.);
#1210 = DIRECTION('',(-1.521807484857E-17,0.137072232435,0.990561054704)
  );
#1211 = ORIENTED_EDGE('',*,*,#1172,.F.);
#1212 = PLANE('',#1213);
#1213 = AXIS2_PLACEMENT_3D('',#1214,#1215,#1216);
#1214 = CARTESIAN_POINT('',(-15.58,-16.02906976744,2.042034783721));
#1215 = DIRECTION('',(1.099743690229E-16,-0.990561054704,0.137072232435)
  );
#1216 = DIRECTION('',(-1.521807484857E-17,0.137072232435,0.990561054704)
  );
#1217 = ADVANCED_FACE('',(#1218),#1236,.F.);
#1218 = FACE_BOUND('',#1219,.F.);
#1219 = EDGE_LOOP('',(#1220,#1221,#1229,#1235));
#1220 = ORIENTED_EDGE('',*,*,#393,.T.);
#1221 = ORIENTED_EDGE('',*,*,#1222,.T.);
#1222 = EDGE_CURVE('',#379,#1223,#1225,.T.);
#1223 = VERTEX_POINT('',#1224);
#1224 = CARTESIAN_POINT('',(-14.38,-15.78989825581,1.955915597674));
#1225 = LINE('',#1226,#1227);
#1226 = CARTESIAN_POINT('',(-15.58,-15.78989825581,1.955915597674));
#1227 = VECTOR('',#1228,1.);
#1228 = DIRECTION('',(1.,1.110223024625E-16,1.232595164408E-32));
#1229 = ORIENTED_EDGE('',*,*,#1230,.T.);
#1230 = EDGE_CURVE('',#1223,#1199,#1231,.T.);
#1231 = B_SPLINE_CURVE_WITH_KNOTS('',2,(#1232,#1233,#1234),
  .UNSPECIFIED.,.F.,.F.,(3,3),(0.,1.),.PIECEWISE_BEZIER_KNOTS.);
#1232 = CARTESIAN_POINT('',(-14.38,-15.78989825581,1.955915597674));
#1233 = CARTESIAN_POINT('',(-14.38,-15.87623546511,2.040944667442));
#1234 = CARTESIAN_POINT('',(-14.38,-16.02906976744,2.042034783721));
#1235 = ORIENTED_EDGE('',*,*,#1198,.F.);
#1236 = SURFACE_OF_LINEAR_EXTRUSION('',#1237,#1241);
#1237 = B_SPLINE_CURVE_WITH_KNOTS('',2,(#1238,#1239,#1240),
  .UNSPECIFIED.,.F.,.F.,(3,3),(0.,1.),.PIECEWISE_BEZIER_KNOTS.);
#1238 = CARTESIAN_POINT('',(-15.58,-15.78989825581,1.955915597674));
#1239 = CARTESIAN_POINT('',(-15.58,-15.87623546511,2.040944667442));
#1240 = CARTESIAN_POINT('',(-15.58,-16.02906976744,2.042034783721));
#1241 = VECTOR('',#1242,1.);
#1242 = DIRECTION('',(-1.,-1.110223024625E-16,-1.232595164408E-32));
#1243 = ADVANCED_FACE('',(#1244),#1262,.F.);
#1244 = FACE_BOUND('',#1245,.F.);
#1245 = EDGE_LOOP('',(#1246,#1247,#1255,#1261));
#1246 = ORIENTED_EDGE('',*,*,#378,.T.);
#1247 = ORIENTED_EDGE('',*,*,#1248,.T.);
#1248 = EDGE_CURVE('',#364,#1249,#1251,.T.);
#1249 = VERTEX_POINT('',#1250);
#1250 = CARTESIAN_POINT('',(-14.38,-15.70348837209,1.729171411628));
#1251 = LINE('',#1252,#1253);
#1252 = CARTESIAN_POINT('',(-15.58,-15.70348837209,1.729171411628));
#1253 = VECTOR('',#1254,1.);
#1254 = DIRECTION('',(1.,1.110223024625E-16,1.232595164408E-32));
#1255 = ORIENTED_EDGE('',*,*,#1256,.T.);
#1256 = EDGE_CURVE('',#1249,#1223,#1257,.T.);
#1257 = B_SPLINE_CURVE_WITH_KNOTS('',2,(#1258,#1259,#1260),
  .UNSPECIFIED.,.F.,.F.,(3,3),(0.,1.),.PIECEWISE_BEZIER_KNOTS.);
#1258 = CARTESIAN_POINT('',(-14.38,-15.70348837209,1.729171411628));
#1259 = CARTESIAN_POINT('',(-14.38,-15.70348837209,1.870886527907));
#1260 = CARTESIAN_POINT('',(-14.38,-15.78989825581,1.955915597674));
#1261 = ORIENTED_EDGE('',*,*,#1222,.F.);
#1262 = SURFACE_OF_LINEAR_EXTRUSION('',#1263,#1267);
#1263 = B_SPLINE_CURVE_WITH_KNOTS('',2,(#1264,#1265,#1266),
  .UNSPECIFIED.,.F.,.F.,(3,3),(0.,1.),.PIECEWISE_BEZIER_KNOTS.);
#1264 = CARTESIAN_POINT('',(-15.58,-15.70348837209,1.729171411628));
#1265 = CARTESIAN_POINT('',(-15.58,-15.70348837209,1.870886527907));
#1266 = CARTESIAN_POINT('',(-15.58,-15.78989825581,1.955915597674));
#1267 = VECTOR('',#1268,1.);
#1268 = DIRECTION('',(-1.,-1.110223024625E-16,-1.232595164408E-32));
#1269 = ADVANCED_FACE('',(#1270),#1288,.F.);
#1270 = FACE_BOUND('',#1271,.F.);
#1271 = EDGE_LOOP('',(#1272,#1273,#1281,#1287));
#1272 = ORIENTED_EDGE('',*,*,#363,.T.);
#1273 = ORIENTED_EDGE('',*,*,#1274,.T.);
#1274 = EDGE_CURVE('',#351,#1275,#1277,.T.);
#1275 = VERTEX_POINT('',#1276);
#1276 = CARTESIAN_POINT('',(-14.38,-15.78357558139,1.511729551163));
#1277 = LINE('',#1278,#1279);
#1278 = CARTESIAN_POINT('',(-15.58,-15.78357558139,1.511729551163));
#1279 = VECTOR('',#1280,1.);
#1280 = DIRECTION('',(1.,1.110223024625E-16,1.232595164408E-32));
#1281 = ORIENTED_EDGE('',*,*,#1282,.T.);
#1282 = EDGE_CURVE('',#1275,#1249,#1283,.T.);
#1283 = B_SPLINE_CURVE_WITH_KNOTS('',2,(#1284,#1285,#1286),
  .UNSPECIFIED.,.F.,.F.,(3,3),(0.,1.),.PIECEWISE_BEZIER_KNOTS.);
#1284 = CARTESIAN_POINT('',(-14.38,-15.78357558139,1.511729551163));
#1285 = CARTESIAN_POINT('',(-14.38,-15.70348837209,1.595087109302));
#1286 = CARTESIAN_POINT('',(-14.38,-15.70348837209,1.729171411628));
#1287 = ORIENTED_EDGE('',*,*,#1248,.F.);
#1288 = SURFACE_OF_LINEAR_EXTRUSION('',#1289,#1293);
#1289 = B_SPLINE_CURVE_WITH_KNOTS('',2,(#1290,#1291,#1292),
  .UNSPECIFIED.,.F.,.F.,(3,3),(0.,1.),.PIECEWISE_BEZIER_KNOTS.);
#1290 = CARTESIAN_POINT('',(-15.58,-15.78357558139,1.511729551163));
#1291 = CARTESIAN_POINT('',(-15.58,-15.70348837209,1.595087109302));
#1292 = CARTESIAN_POINT('',(-15.58,-15.70348837209,1.729171411628));
#1293 = VECTOR('',#1294,1.);
#1294 = DIRECTION('',(-1.,-1.110223024625E-16,-1.232595164408E-32));
#1295 = ADVANCED_FACE('',(#1296),#1314,.F.);
#1296 = FACE_BOUND('',#1297,.F.);
#1297 = EDGE_LOOP('',(#1298,#1299,#1307,#1313));
#1298 = ORIENTED_EDGE('',*,*,#350,.T.);
#1299 = ORIENTED_EDGE('',*,*,#1300,.T.);
#1300 = EDGE_CURVE('',#340,#1301,#1303,.T.);
#1301 = VERTEX_POINT('',#1302);
#1302 = CARTESIAN_POINT('',(-14.38,-15.98015988372,1.428299318605));
#1303 = LINE('',#1304,#1305);
#1304 = CARTESIAN_POINT('',(-15.58,-15.98015988372,1.428299318605));
#1305 = VECTOR('',#1306,1.);
#1306 = DIRECTION('',(1.,1.110223024625E-16,1.232595164408E-32));
#1307 = ORIENTED_EDGE('',*,*,#1308,.T.);
#1308 = EDGE_CURVE('',#1301,#1275,#1309,.T.);
#1309 = B_SPLINE_CURVE_WITH_KNOTS('',2,(#1310,#1311,#1312),
  .UNSPECIFIED.,.F.,.F.,(3,3),(0.,1.),.PIECEWISE_BEZIER_KNOTS.);
#1310 = CARTESIAN_POINT('',(-14.38,-15.98015988372,1.428299318605));
#1311 = CARTESIAN_POINT('',(-14.38,-15.86359011627,1.428299318605));
#1312 = CARTESIAN_POINT('',(-14.38,-15.78357558139,1.511729551163));
#1313 = ORIENTED_EDGE('',*,*,#1274,.F.);
#1314 = SURFACE_OF_LINEAR_EXTRUSION('',#1315,#1319);
#1315 = B_SPLINE_CURVE_WITH_KNOTS('',2,(#1316,#1317,#1318),
  .UNSPECIFIED.,.F.,.F.,(3,3),(0.,1.),.PIECEWISE_BEZIER_KNOTS.);
#1316 = CARTESIAN_POINT('',(-15.58,-15.98015988372,1.428299318605));
#1317 = CARTESIAN_POINT('',(-15.58,-15.86359011627,1.428299318605));
#1318 = CARTESIAN_POINT('',(-15.58,-15.78357558139,1.511729551163));
#1319 = VECTOR('',#1320,1.);
#1320 = DIRECTION('',(-1.,-1.110223024625E-16,-1.232595164408E-32));
#1321 = ADVANCED_FACE('',(#1322),#1340,.F.);
#1322 = FACE_BOUND('',#1323,.F.);
#1323 = EDGE_LOOP('',(#1324,#1325,#1333,#1339));
#1324 = ORIENTED_EDGE('',*,*,#339,.T.);
#1325 = ORIENTED_EDGE('',*,*,#1326,.T.);
#1326 = EDGE_CURVE('',#328,#1327,#1329,.T.);
#1327 = VERTEX_POINT('',#1328);
#1328 = CARTESIAN_POINT('',(-14.38,-16.21606104651,1.519869086047));
#1329 = LINE('',#1330,#1331);
#1330 = CARTESIAN_POINT('',(-15.58,-16.21606104651,1.519869086047));
#1331 = VECTOR('',#1332,1.);
#1332 = DIRECTION('',(1.,1.110223024625E-16,1.232595164408E-32));
#1333 = ORIENTED_EDGE('',*,*,#1334,.T.);
#1334 = EDGE_CURVE('',#1327,#1301,#1335,.T.);
#1335 = B_SPLINE_CURVE_WITH_KNOTS('',2,(#1336,#1337,#1338),
  .UNSPECIFIED.,.F.,.F.,(3,3),(0.,1.),.PIECEWISE_BEZIER_KNOTS.);
#1336 = CARTESIAN_POINT('',(-14.38,-16.21606104651,1.519869086047));
#1337 = CARTESIAN_POINT('',(-14.38,-16.09127906976,1.428299318605));
#1338 = CARTESIAN_POINT('',(-14.38,-15.98015988372,1.428299318605));
#1339 = ORIENTED_EDGE('',*,*,#1300,.F.);
#1340 = SURFACE_OF_LINEAR_EXTRUSION('',#1341,#1345);
#1341 = B_SPLINE_CURVE_WITH_KNOTS('',2,(#1342,#1343,#1344),
  .UNSPECIFIED.,.F.,.F.,(3,3),(0.,1.),.PIECEWISE_BEZIER_KNOTS.);
#1342 = CARTESIAN_POINT('',(-15.58,-16.21606104651,1.519869086047));
#1343 = CARTESIAN_POINT('',(-15.58,-16.09127906976,1.428299318605));
#1344 = CARTESIAN_POINT('',(-15.58,-15.98015988372,1.428299318605));
#1345 = VECTOR('',#1346,1.);
#1346 = DIRECTION('',(-1.,-1.110223024625E-16,-1.232595164408E-32));
#1347 = ADVANCED_FACE('',(#1348),#1366,.F.);
#1348 = FACE_BOUND('',#1349,.F.);
#1349 = EDGE_LOOP('',(#1350,#1351,#1359,#1365));
#1350 = ORIENTED_EDGE('',*,*,#327,.T.);
#1351 = ORIENTED_EDGE('',*,*,#1352,.T.);
#1352 = EDGE_CURVE('',#317,#1353,#1355,.T.);
#1353 = VERTEX_POINT('',#1354);
#1354 = CARTESIAN_POINT('',(-14.38,-16.55654069767,1.871976644186));
#1355 = LINE('',#1356,#1357);
#1356 = CARTESIAN_POINT('',(-15.58,-16.55654069767,1.871976644186));
#1357 = VECTOR('',#1358,1.);
#1358 = DIRECTION('',(1.,1.110223024625E-16,1.232595164408E-32));
#1359 = ORIENTED_EDGE('',*,*,#1360,.T.);
#1360 = EDGE_CURVE('',#1353,#1327,#1361,.T.);
#1361 = B_SPLINE_CURVE_WITH_KNOTS('',2,(#1362,#1363,#1364),
  .UNSPECIFIED.,.F.,.F.,(3,3),(0.,1.),.PIECEWISE_BEZIER_KNOTS.);
#1362 = CARTESIAN_POINT('',(-14.38,-16.55654069767,1.871976644186));
#1363 = CARTESIAN_POINT('',(-14.38,-16.34077034883,1.611438853488));
#1364 = CARTESIAN_POINT('',(-14.38,-16.21606104651,1.519869086047));
#1365 = ORIENTED_EDGE('',*,*,#1326,.F.);
#1366 = SURFACE_OF_LINEAR_EXTRUSION('',#1367,#1371);
#1367 = B_SPLINE_CURVE_WITH_KNOTS('',2,(#1368,#1369,#1370),
  .UNSPECIFIED.,.F.,.F.,(3,3),(0.,1.),.PIECEWISE_BEZIER_KNOTS.);
#1368 = CARTESIAN_POINT('',(-15.58,-16.55654069767,1.871976644186));
#1369 = CARTESIAN_POINT('',(-15.58,-16.34077034883,1.611438853488));
#1370 = CARTESIAN_POINT('',(-15.58,-16.21606104651,1.519869086047));
#1371 = VECTOR('',#1372,1.);
#1372 = DIRECTION('',(-1.,-1.110223024625E-16,-1.232595164408E-32));
#1373 = ADVANCED_FACE('',(#1374),#1392,.F.);
#1374 = FACE_BOUND('',#1375,.F.);
#1375 = EDGE_LOOP('',(#1376,#1377,#1385,#1391));
#1376 = ORIENTED_EDGE('',*,*,#316,.T.);
#1377 = ORIENTED_EDGE('',*,*,#1378,.T.);
#1378 = EDGE_CURVE('',#307,#1379,#1381,.T.);
#1379 = VERTEX_POINT('',#1380);
#1380 = CARTESIAN_POINT('',(-14.38,-16.80014534883,2.128735365116));
#1381 = LINE('',#1382,#1383);
#1382 = CARTESIAN_POINT('',(-15.58,-16.80014534883,2.128735365116));
#1383 = VECTOR('',#1384,1.);
#1384 = DIRECTION('',(1.,1.110223024625E-16,1.232595164408E-32));
#1385 = ORIENTED_EDGE('',*,*,#1386,.T.);
#1386 = EDGE_CURVE('',#1379,#1353,#1387,.T.);
#1387 = B_SPLINE_CURVE_WITH_KNOTS('',2,(#1388,#1389,#1390),
  .UNSPECIFIED.,.F.,.F.,(3,3),(0.,1.),.PIECEWISE_BEZIER_KNOTS.);
#1388 = CARTESIAN_POINT('',(-14.38,-16.80014534883,2.128735365116));
#1389 = CARTESIAN_POINT('',(-14.38,-16.69520348837,2.039854551163));
#1390 = CARTESIAN_POINT('',(-14.38,-16.55654069767,1.871976644186));
#1391 = ORIENTED_EDGE('',*,*,#1352,.F.);
#1392 = SURFACE_OF_LINEAR_EXTRUSION('',#1393,#1397);
#1393 = B_SPLINE_CURVE_WITH_KNOTS('',2,(#1394,#1395,#1396),
  .UNSPECIFIED.,.F.,.F.,(3,3),(0.,1.),.PIECEWISE_BEZIER_KNOTS.);
#1394 = CARTESIAN_POINT('',(-15.58,-16.80014534883,2.128735365116));
#1395 = CARTESIAN_POINT('',(-15.58,-16.69520348837,2.039854551163));
#1396 = CARTESIAN_POINT('',(-15.58,-16.55654069767,1.871976644186));
#1397 = VECTOR('',#1398,1.);
#1398 = DIRECTION('',(-1.,-1.110223024625E-16,-1.232595164408E-32));
#1399 = ADVANCED_FACE('',(#1400),#1418,.F.);
#1400 = FACE_BOUND('',#1401,.F.);
#1401 = EDGE_LOOP('',(#1402,#1403,#1411,#1417));
#1402 = ORIENTED_EDGE('',*,*,#306,.T.);
#1403 = ORIENTED_EDGE('',*,*,#1404,.T.);
#1404 = EDGE_CURVE('',#294,#1405,#1407,.T.);
#1405 = VERTEX_POINT('',#1406);
#1406 = CARTESIAN_POINT('',(-14.38,-17.01337209302,2.257877806977));
#1407 = LINE('',#1408,#1409);
#1408 = CARTESIAN_POINT('',(-15.58,-17.01337209302,2.257877806977));
#1409 = VECTOR('',#1410,1.);
#1410 = DIRECTION('',(1.,1.110223024625E-16,1.232595164408E-32));
#1411 = ORIENTED_EDGE('',*,*,#1412,.T.);
#1412 = EDGE_CURVE('',#1405,#1379,#1413,.T.);
#1413 = B_SPLINE_CURVE_WITH_KNOTS('',2,(#1414,#1415,#1416),
  .UNSPECIFIED.,.F.,.F.,(3,3),(0.,1.),.PIECEWISE_BEZIER_KNOTS.);
#1414 = CARTESIAN_POINT('',(-14.38,-17.01337209302,2.257877806977));
#1415 = CARTESIAN_POINT('',(-14.38,-16.9050872093,2.217543504651));
#1416 = CARTESIAN_POINT('',(-14.38,-16.80014534883,2.128735365116));
#1417 = ORIENTED_EDGE('',*,*,#1378,.F.);
#1418 = SURFACE_OF_LINEAR_EXTRUSION('',#1419,#1423);
#1419 = B_SPLINE_CURVE_WITH_KNOTS('',2,(#1420,#1421,#1422),
  .UNSPECIFIED.,.F.,.F.,(3,3),(0.,1.),.PIECEWISE_BEZIER_KNOTS.);
#1420 = CARTESIAN_POINT('',(-15.58,-17.01337209302,2.257877806977));
#1421 = CARTESIAN_POINT('',(-15.58,-16.9050872093,2.217543504651));
#1422 = CARTESIAN_POINT('',(-15.58,-16.80014534883,2.128735365116));
#1423 = VECTOR('',#1424,1.);
#1424 = DIRECTION('',(-1.,-1.110223024625E-16,-1.232595164408E-32));
#1425 = ADVANCED_FACE('',(#1426),#1444,.F.);
#1426 = FACE_BOUND('',#1427,.F.);
#1427 = EDGE_LOOP('',(#1428,#1429,#1437,#1443));
#1428 = ORIENTED_EDGE('',*,*,#293,.T.);
#1429 = ORIENTED_EDGE('',*,*,#1430,.T.);
#1430 = EDGE_CURVE('',#286,#1431,#1433,.T.);
#1431 = VERTEX_POINT('',#1432);
#1432 = CARTESIAN_POINT('',(-14.38,-17.15,2.280770248837));
#1433 = LINE('',#1434,#1435);
#1434 = CARTESIAN_POINT('',(-15.58,-17.15,2.280770248837));
#1435 = VECTOR('',#1436,1.);
#1436 = DIRECTION('',(1.,1.110223024625E-16,1.232595164408E-32));
#1437 = ORIENTED_EDGE('',*,*,#1438,.T.);
#1438 = EDGE_CURVE('',#1431,#1405,#1439,.T.);
#1439 = B_SPLINE_CURVE_WITH_KNOTS('',2,(#1440,#1441,#1442),
  .UNSPECIFIED.,.F.,.F.,(3,3),(0.,1.),.PIECEWISE_BEZIER_KNOTS.);
#1440 = CARTESIAN_POINT('',(-14.38,-17.15,2.280770248837));
#1441 = CARTESIAN_POINT('',(-14.38,-17.0789244186,2.282950481395));
#1442 = CARTESIAN_POINT('',(-14.38,-17.01337209302,2.257877806977));
#1443 = ORIENTED_EDGE('',*,*,#1404,.F.);
#1444 = SURFACE_OF_LINEAR_EXTRUSION('',#1445,#1449);
#1445 = B_SPLINE_CURVE_WITH_KNOTS('',2,(#1446,#1447,#1448),
  .UNSPECIFIED.,.F.,.F.,(3,3),(0.,1.),.PIECEWISE_BEZIER_KNOTS.);
#1446 = CARTESIAN_POINT('',(-15.58,-17.15,2.280770248837));
#1447 = CARTESIAN_POINT('',(-15.58,-17.0789244186,2.282950481395));
#1448 = CARTESIAN_POINT('',(-15.58,-17.01337209302,2.257877806977));
#1449 = VECTOR('',#1450,1.);
#1450 = DIRECTION('',(-1.,-1.110223024625E-16,-1.232595164408E-32));
#1451 = ADVANCED_FACE('',(#1452),#1463,.F.);
#1452 = FACE_BOUND('',#1453,.F.);
#1453 = EDGE_LOOP('',(#1454,#1455,#1456,#1462));
#1454 = ORIENTED_EDGE('',*,*,#285,.T.);
#1455 = ORIENTED_EDGE('',*,*,#925,.T.);
#1456 = ORIENTED_EDGE('',*,*,#1457,.T.);
#1457 = EDGE_CURVE('',#918,#1431,#1458,.T.);
#1458 = LINE('',#1459,#1460);
#1459 = CARTESIAN_POINT('',(-14.38,-17.15,1.224447574419));
#1460 = VECTOR('',#1461,1.);
#1461 = DIRECTION('',(0.,-1.110223024625E-16,1.));
#1462 = ORIENTED_EDGE('',*,*,#1430,.F.);
#1463 = PLANE('',#1464);
#1464 = AXIS2_PLACEMENT_3D('',#1465,#1466,#1467);
#1465 = CARTESIAN_POINT('',(-15.58,-17.15,1.224447574419));
#1466 = DIRECTION('',(1.110223024625E-16,-1.,-1.110223024625E-16));
#1467 = DIRECTION('',(0.,-1.110223024625E-16,1.));
#1468 = ADVANCED_FACE('',(#1469,#1475),#1478,.T.);
#1469 = FACE_BOUND('',#1470,.T.);
#1470 = EDGE_LOOP('',(#1471,#1472,#1473,#1474));
#1471 = ORIENTED_EDGE('',*,*,#768,.F.);
#1472 = ORIENTED_EDGE('',*,*,#703,.F.);
#1473 = ORIENTED_EDGE('',*,*,#836,.T.);
#1474 = ORIENTED_EDGE('',*,*,#812,.F.);
#1475 = FACE_BOUND('',#1476,.T.);
#1476 = EDGE_LOOP('',(#1477));
#1477 = ORIENTED_EDGE('',*,*,#785,.F.);
#1478 = PLANE('',#1479);
#1479 = AXIS2_PLACEMENT_3D('',#1480,#1481,#1482);
#1480 = CARTESIAN_POINT('',(15.,-181.49,51.56));
#1481 = DIRECTION('',(1.,0.,-0.));
#1482 = DIRECTION('',(0.,1.,2.22044604925E-16));
#1483 = ADVANCED_FACE('',(#1484),#1496,.F.);
#1484 = FACE_BOUND('',#1485,.F.);
#1485 = EDGE_LOOP('',(#1486,#1492,#1493,#1494,#1495));
#1486 = ORIENTED_EDGE('',*,*,#1487,.T.);
#1487 = EDGE_CURVE('',#846,#726,#1488,.T.);
#1488 = LINE('',#1489,#1490);
#1489 = CARTESIAN_POINT('',(7.5,0.5,1.42108547152E-14));
#1490 = VECTOR('',#1491,1.);
#1491 = DIRECTION('',(1.254196405409E-16,0.512064542317,0.858946974209)
  );
#1492 = ORIENTED_EDGE('',*,*,#744,.F.);
#1493 = ORIENTED_EDGE('',*,*,#725,.F.);
#1494 = ORIENTED_EDGE('',*,*,#1487,.F.);
#1495 = ORIENTED_EDGE('',*,*,#845,.T.);
#1496 = CONICAL_SURFACE('',#1497,3.25,0.537586646659);
#1497 = AXIS2_PLACEMENT_3D('',#1498,#1499,#1500);
#1498 = CARTESIAN_POINT('',(7.5,3.75,1.42108547152E-14));
#1499 = DIRECTION('',(-0.,2.22044604925E-16,-1.));
#1500 = DIRECTION('',(0.,-1.,-2.22044604925E-16));
#1501 = ADVANCED_FACE('',(#1502),#1526,.F.);
#1502 = FACE_BOUND('',#1503,.F.);
#1503 = EDGE_LOOP('',(#1504,#1505,#1506,#1507,#1508,#1509,#1510,#1511,
    #1512,#1513,#1514,#1515,#1516,#1517,#1518,#1519,#1520,#1521,#1522,
    #1523,#1524,#1525));
#1504 = ORIENTED_EDGE('',*,*,#917,.F.);
#1505 = ORIENTED_EDGE('',*,*,#948,.F.);
#1506 = ORIENTED_EDGE('',*,*,#972,.F.);
#1507 = ORIENTED_EDGE('',*,*,#998,.F.);
#1508 = ORIENTED_EDGE('',*,*,#1024,.F.);
#1509 = ORIENTED_EDGE('',*,*,#1050,.F.);
#1510 = ORIENTED_EDGE('',*,*,#1076,.F.);
#1511 = ORIENTED_EDGE('',*,*,#1102,.F.);
#1512 = ORIENTED_EDGE('',*,*,#1128,.F.);
#1513 = ORIENTED_EDGE('',*,*,#1154,.F.);
#1514 = ORIENTED_EDGE('',*,*,#1180,.F.);
#1515 = ORIENTED_EDGE('',*,*,#1206,.F.);
#1516 = ORIENTED_EDGE('',*,*,#1230,.F.);
#1517 = ORIENTED_EDGE('',*,*,#1256,.F.);
#1518 = ORIENTED_EDGE('',*,*,#1282,.F.);
#1519 = ORIENTED_EDGE('',*,*,#1308,.F.);
#1520 = ORIENTED_EDGE('',*,*,#1334,.F.);
#1521 = ORIENTED_EDGE('',*,*,#1360,.F.);
#1522 = ORIENTED_EDGE('',*,*,#1386,.F.);
#1523 = ORIENTED_EDGE('',*,*,#1412,.F.);
#1524 = ORIENTED_EDGE('',*,*,#1438,.F.);
#1525 = ORIENTED_EDGE('',*,*,#1457,.F.);
#1526 = PLANE('',#1527);
#1527 = AXIS2_PLACEMENT_3D('',#1528,#1529,#1530);
#1528 = CARTESIAN_POINT('',(-14.38,-16.41759713602,2.436150549072));
#1529 = DIRECTION('',(1.,1.110223024625E-16,1.232595164408E-32));
#1530 = DIRECTION('',(0.,1.110223024625E-16,-1.));
#1531 = ( GEOMETRIC_REPRESENTATION_CONTEXT(3) 
GLOBAL_UNCERTAINTY_ASSIGNED_CONTEXT((#1535)) 
GLOBAL_UNIT_ASSIGNED_CONTEXT((#1532,#1533,#1534)) REPRESENTATION_CONTEXT
('Context #1','3D Context with UNIT and UNCERTAINTY') );
#1532 = ( LENGTH_UNIT() NAMED_UNIT(*) SI_UNIT(.MILLI.,.METRE.) );
#1533 = ( NAMED_UNIT(*) PLANE_ANGLE_UNIT() SI_UNIT($,.RADIAN.) );
#1534 = ( NAMED_UNIT(*) SI_UNIT($,.STERADIAN.) SOLID_ANGLE_UNIT() );
#1535 = UNCERTAINTY_MEASURE_WITH_UNIT(LENGTH_MEASURE(1.E-06),#1532,
  'distance_accuracy_value','confusion accuracy');
#1536 = PRODUCT_RELATED_PRODUCT_CATEGORY('part',$,(#7));
ENDSEC;
END-ISO-10303-21;
