ISO-10303-21;
HEADER;
FILE_DESCRIPTION(('FreeCAD Model'),'2;1');
FILE_NAME('Open CASCADE Shape Model','2026-09-24T17:19:19',('FreeCAD'),(
    'FreeCAD'),'Open CASCADE STEP processor 7.8','FreeCAD','Unknown');
FILE_SCHEMA(('AUTOMOTIVE_DESIGN { 1 0 10303 214 1 1 1 1 }'));
ENDSEC;
DATA;
#1 = APPLICATION_PROTOCOL_DEFINITION('international standard',
  'automotive_design',2000,#2);
#2 = APPLICATION_CONTEXT(
  'core data for automotive mechanical design processes');
#3 = SHAPE_DEFINITION_REPRESENTATION(#4,#10);
#4 = PRODUCT_DEFINITION_SHAPE('','',#5);
#5 = PRODUCT_DEFINITION('design','',#6,#9);
#6 = PRODUCT_DEFINITION_FORMATION('','',#7);
#7 = PRODUCT('Open CASCADE STEP translator 7.8 4',
  'Open CASCADE STEP translator 7.8 4','',(#8));
#8 = PRODUCT_CONTEXT('',#2,'mechanical');
#9 = PRODUCT_DEFINITION_CONTEXT('part definition',#2,'design');
#10 = ADVANCED_BREP_SHAPE_REPRESENTATION('',(#11,#15),#1611);
#11 = AXIS2_PLACEMENT_3D('',#12,#13,#14);
#12 = CARTESIAN_POINT('',(0.,0.,0.));
#13 = DIRECTION('',(0.,0.,1.));
#14 = DIRECTION('',(1.,0.,-0.));
#15 = MANIFOLD_SOLID_BREP('',#16);
#16 = CLOSED_SHELL('',(#17,#57,#88,#112,#181,#198,#386,#410,#426,#440,
    #465,#496,#520,#546,#572,#598,#624,#650,#676,#702,#728,#754,#780,
    #806,#823,#843,#1021,#1046,#1077,#1101,#1125,#1154,#1185,#1216,#1244
    ,#1272,#1300,#1322,#1353,#1377,#1401,#1430,#1461,#1489,#1517,#1545,
    #1567,#1576,#1594));
#17 = ADVANCED_FACE('',(#18),#52,.F.);
#18 = FACE_BOUND('',#19,.F.);
#19 = EDGE_LOOP('',(#20,#30,#38,#46));
#20 = ORIENTED_EDGE('',*,*,#21,.F.);
#21 = EDGE_CURVE('',#22,#24,#26,.T.);
#22 = VERTEX_POINT('',#23);
#23 = CARTESIAN_POINT('',(-12.67,18.5,1.7763568394E-15));
#24 = VERTEX_POINT('',#25);
#25 = CARTESIAN_POINT('',(-12.67,-18.5,9.992007221626E-15));
#26 = LINE('',#27,#28);
#27 = CARTESIAN_POINT('',(-12.67,26.5,0.));
#28 = VECTOR('',#29,1.);
#29 = DIRECTION('',(0.,-1.,2.22044604925E-16));
#30 = ORIENTED_EDGE('',*,*,#31,.F.);
#31 = EDGE_CURVE('',#32,#22,#34,.T.);
#32 = VERTEX_POINT('',#33);
#33 = CARTESIAN_POINT('',(-12.67,18.5,3.));
#34 = LINE('',#35,#36);
#35 = CARTESIAN_POINT('',(-12.67,18.5,-82.5));
#36 = VECTOR('',#37,1.);
#37 = DIRECTION('',(0.,-2.22044604925E-16,-1.));
#38 = ORIENTED_EDGE('',*,*,#39,.T.);
#39 = EDGE_CURVE('',#32,#40,#42,.T.);
#40 = VERTEX_POINT('',#41);
#41 = CARTESIAN_POINT('',(-12.67,-18.5,3.));
#42 = LINE('',#43,#44);
#43 = CARTESIAN_POINT('',(-12.67,26.5,3.));
#44 = VECTOR('',#45,1.);
#45 = DIRECTION('',(0.,-1.,2.22044604925E-16));
#46 = ORIENTED_EDGE('',*,*,#47,.T.);
#47 = EDGE_CURVE('',#40,#24,#48,.T.);
#48 = LINE('',#49,#50);
#49 = CARTESIAN_POINT('',(-12.67,-18.5,-82.5));
#50 = VECTOR('',#51,1.);
#51 = DIRECTION('',(0.,-2.22044604925E-16,-1.));
#52 = PLANE('',#53);
#53 = AXIS2_PLACEMENT_3D('',#54,#55,#56);
#54 = CARTESIAN_POINT('',(-12.67,26.5,0.));
#55 = DIRECTION('',(1.,0.,0.));
#56 = DIRECTION('',(0.,-1.,2.22044604925E-16));
#57 = ADVANCED_FACE('',(#58),#83,.F.);
#58 = FACE_BOUND('',#59,.F.);
#59 = EDGE_LOOP('',(#60,#68,#69,#77));
#60 = ORIENTED_EDGE('',*,*,#61,.F.);
#61 = EDGE_CURVE('',#22,#62,#64,.T.);
#62 = VERTEX_POINT('',#63);
#63 = CARTESIAN_POINT('',(12.67,18.5,1.7763568394E-15));
#64 = LINE('',#65,#66);
#65 = CARTESIAN_POINT('',(-17.5,18.5,1.7763568394E-15));
#66 = VECTOR('',#67,1.);
#67 = DIRECTION('',(1.,0.,0.));
#68 = ORIENTED_EDGE('',*,*,#21,.T.);
#69 = ORIENTED_EDGE('',*,*,#70,.T.);
#70 = EDGE_CURVE('',#24,#71,#73,.T.);
#71 = VERTEX_POINT('',#72);
#72 = CARTESIAN_POINT('',(12.67,-18.5,9.992007221626E-15));
#73 = LINE('',#74,#75);
#74 = CARTESIAN_POINT('',(-17.5,-18.5,9.992007221626E-15));
#75 = VECTOR('',#76,1.);
#76 = DIRECTION('',(1.,0.,0.));
#77 = ORIENTED_EDGE('',*,*,#78,.T.);
#78 = EDGE_CURVE('',#71,#62,#79,.T.);
#79 = LINE('',#80,#81);
#80 = CARTESIAN_POINT('',(12.67,22.5,8.881784197001E-16));
#81 = VECTOR('',#82,1.);
#82 = DIRECTION('',(0.,1.,-2.22044604925E-16));
#83 = PLANE('',#84);
#84 = AXIS2_PLACEMENT_3D('',#85,#86,#87);
#85 = CARTESIAN_POINT('',(-12.67,26.5,0.));
#86 = DIRECTION('',(0.,2.22044604925E-16,1.));
#87 = DIRECTION('',(0.,-1.,2.22044604925E-16));
#88 = ADVANCED_FACE('',(#89),#107,.T.);
#89 = FACE_BOUND('',#90,.T.);
#90 = EDGE_LOOP('',(#91,#99,#105,#106));
#91 = ORIENTED_EDGE('',*,*,#92,.T.);
#92 = EDGE_CURVE('',#71,#93,#95,.T.);
#93 = VERTEX_POINT('',#94);
#94 = CARTESIAN_POINT('',(12.67,-18.5,3.));
#95 = LINE('',#96,#97);
#96 = CARTESIAN_POINT('',(12.67,-18.5,-165.));
#97 = VECTOR('',#98,1.);
#98 = DIRECTION('',(0.,2.22044604925E-16,1.));
#99 = ORIENTED_EDGE('',*,*,#100,.F.);
#100 = EDGE_CURVE('',#40,#93,#101,.T.);
#101 = LINE('',#102,#103);
#102 = CARTESIAN_POINT('',(-17.5,-18.5,3.));
#103 = VECTOR('',#104,1.);
#104 = DIRECTION('',(1.,0.,0.));
#105 = ORIENTED_EDGE('',*,*,#47,.T.);
#106 = ORIENTED_EDGE('',*,*,#70,.T.);
#107 = PLANE('',#108);
#108 = AXIS2_PLACEMENT_3D('',#109,#110,#111);
#109 = CARTESIAN_POINT('',(-22.33,-18.5,-165.));
#110 = DIRECTION('',(0.,-1.,2.22044604925E-16));
#111 = DIRECTION('',(1.,0.,0.));
#112 = ADVANCED_FACE('',(#113,#165),#176,.T.);
#113 = FACE_BOUND('',#114,.T.);
#114 = EDGE_LOOP('',(#115,#123,#124,#125,#133,#143,#151,#159));
#115 = ORIENTED_EDGE('',*,*,#116,.F.);
#116 = EDGE_CURVE('',#32,#117,#119,.T.);
#117 = VERTEX_POINT('',#118);
#118 = CARTESIAN_POINT('',(12.67,18.5,3.));
#119 = LINE('',#120,#121);
#120 = CARTESIAN_POINT('',(-17.5,18.5,3.));
#121 = VECTOR('',#122,1.);
#122 = DIRECTION('',(1.,0.,0.));
#123 = ORIENTED_EDGE('',*,*,#39,.T.);
#124 = ORIENTED_EDGE('',*,*,#100,.T.);
#125 = ORIENTED_EDGE('',*,*,#126,.T.);
#126 = EDGE_CURVE('',#93,#127,#129,.T.);
#127 = VERTEX_POINT('',#128);
#128 = CARTESIAN_POINT('',(12.67,16.814982455471,3.));
#129 = LINE('',#130,#131);
#130 = CARTESIAN_POINT('',(12.67,22.5,3.));
#131 = VECTOR('',#132,1.);
#132 = DIRECTION('',(0.,1.,-2.22044604925E-16));
#133 = ORIENTED_EDGE('',*,*,#134,.T.);
#134 = EDGE_CURVE('',#127,#135,#137,.T.);
#135 = VERTEX_POINT('',#136);
#136 = CARTESIAN_POINT('',(12.05,16.814982455471,3.));
#137 = B_SPLINE_CURVE_WITH_KNOTS('',4,(#138,#139,#140,#141,#142),
  .UNSPECIFIED.,.F.,.F.,(5,5),(0.,1.),.PIECEWISE_BEZIER_KNOTS.);
#138 = CARTESIAN_POINT('',(12.67,16.814982455471,3.));
#139 = CARTESIAN_POINT('',(12.514999846516,16.814982455471,3.));
#140 = CARTESIAN_POINT('',(12.359999693032,16.814982455471,3.));
#141 = CARTESIAN_POINT('',(12.204999539549,16.814982455471,3.));
#142 = CARTESIAN_POINT('',(12.049999386065,16.814982455471,3.));
#143 = ORIENTED_EDGE('',*,*,#144,.T.);
#144 = EDGE_CURVE('',#135,#145,#147,.T.);
#145 = VERTEX_POINT('',#146);
#146 = CARTESIAN_POINT('',(12.05,16.9,3.));
#147 = LINE('',#148,#149);
#148 = CARTESIAN_POINT('',(12.05,21.31251910634,3.));
#149 = VECTOR('',#150,1.);
#150 = DIRECTION('',(1.110223024625E-16,1.,-2.22044604925E-16));
#151 = ORIENTED_EDGE('',*,*,#152,.F.);
#152 = EDGE_CURVE('',#153,#145,#155,.T.);
#153 = VERTEX_POINT('',#154);
#154 = CARTESIAN_POINT('',(12.67,16.9,3.));
#155 = LINE('',#156,#157);
#156 = CARTESIAN_POINT('',(-0.31,16.9,3.));
#157 = VECTOR('',#158,1.);
#158 = DIRECTION('',(-1.,1.110223024625E-16,-2.465190328816E-32));
#159 = ORIENTED_EDGE('',*,*,#160,.T.);
#160 = EDGE_CURVE('',#153,#117,#161,.T.);
#161 = LINE('',#162,#163);
#162 = CARTESIAN_POINT('',(12.67,22.5,3.));
#163 = VECTOR('',#164,1.);
#164 = DIRECTION('',(0.,1.,-2.22044604925E-16));
#165 = FACE_BOUND('',#166,.T.);
#166 = EDGE_LOOP('',(#167));
#167 = ORIENTED_EDGE('',*,*,#168,.F.);
#168 = EDGE_CURVE('',#169,#169,#171,.T.);
#169 = VERTEX_POINT('',#170);
#170 = CARTESIAN_POINT('',(-4.77,4.,3.));
#171 = CIRCLE('',#172,4.5);
#172 = AXIS2_PLACEMENT_3D('',#173,#174,#175);
#173 = CARTESIAN_POINT('',(-4.77,8.5,3.));
#174 = DIRECTION('',(-0.,2.22044604925E-16,1.));
#175 = DIRECTION('',(0.,-1.,2.22044604925E-16));
#176 = PLANE('',#177);
#177 = AXIS2_PLACEMENT_3D('',#178,#179,#180);
#178 = CARTESIAN_POINT('',(-12.67,26.5,3.));
#179 = DIRECTION('',(0.,2.22044604925E-16,1.));
#180 = DIRECTION('',(0.,-1.,2.22044604925E-16));
#181 = ADVANCED_FACE('',(#182),#193,.F.);
#182 = FACE_BOUND('',#183,.F.);
#183 = EDGE_LOOP('',(#184,#190,#191,#192));
#184 = ORIENTED_EDGE('',*,*,#185,.T.);
#185 = EDGE_CURVE('',#62,#117,#186,.T.);
#186 = LINE('',#187,#188);
#187 = CARTESIAN_POINT('',(12.67,18.5,-165.));
#188 = VECTOR('',#189,1.);
#189 = DIRECTION('',(0.,2.22044604925E-16,1.));
#190 = ORIENTED_EDGE('',*,*,#116,.F.);
#191 = ORIENTED_EDGE('',*,*,#31,.T.);
#192 = ORIENTED_EDGE('',*,*,#61,.T.);
#193 = PLANE('',#194);
#194 = AXIS2_PLACEMENT_3D('',#195,#196,#197);
#195 = CARTESIAN_POINT('',(-22.33,18.5,-165.));
#196 = DIRECTION('',(0.,-1.,2.22044604925E-16));
#197 = DIRECTION('',(1.,0.,0.));
#198 = ADVANCED_FACE('',(#199,#222),#381,.T.);
#199 = FACE_BOUND('',#200,.T.);
#200 = EDGE_LOOP('',(#201,#202,#203,#204,#205,#213,#221));
#201 = ORIENTED_EDGE('',*,*,#92,.F.);
#202 = ORIENTED_EDGE('',*,*,#78,.T.);
#203 = ORIENTED_EDGE('',*,*,#185,.T.);
#204 = ORIENTED_EDGE('',*,*,#160,.F.);
#205 = ORIENTED_EDGE('',*,*,#206,.F.);
#206 = EDGE_CURVE('',#207,#153,#209,.T.);
#207 = VERTEX_POINT('',#208);
#208 = CARTESIAN_POINT('',(12.67,16.9,2.992441960465));
#209 = LINE('',#210,#211);
#210 = CARTESIAN_POINT('',(12.67,16.9,-80.47561768255));
#211 = VECTOR('',#212,1.);
#212 = DIRECTION('',(0.,3.330669073875E-16,1.));
#213 = ORIENTED_EDGE('',*,*,#214,.F.);
#214 = EDGE_CURVE('',#127,#207,#215,.T.);
#215 = B_SPLINE_CURVE_WITH_KNOTS('',4,(#216,#217,#218,#219,#220),
  .UNSPECIFIED.,.F.,.F.,(5,5),(0.,1.),.PIECEWISE_BEZIER_KNOTS.);
#216 = CARTESIAN_POINT('',(12.67,16.814982455471,3.));
#217 = CARTESIAN_POINT('',(12.67,16.835721932554,2.995552381938));
#218 = CARTESIAN_POINT('',(12.67,16.856807479182,2.992810152511));
#219 = CARTESIAN_POINT('',(12.67,16.878235016694,2.99177432294));
#220 = CARTESIAN_POINT('',(12.67,16.9,2.992441960465));
#221 = ORIENTED_EDGE('',*,*,#126,.F.);
#222 = FACE_BOUND('',#223,.T.);
#223 = EDGE_LOOP('',(#224,#234,#242,#253,#266,#279,#292,#303,#318,#331,
    #344,#354,#364,#375));
#224 = ORIENTED_EDGE('',*,*,#225,.F.);
#225 = EDGE_CURVE('',#226,#228,#230,.T.);
#226 = VERTEX_POINT('',#227);
#227 = CARTESIAN_POINT('',(12.67,15.3,1.6000001));
#228 = VERTEX_POINT('',#229);
#229 = CARTESIAN_POINT('',(12.67,16.9,1.6000001));
#230 = LINE('',#231,#232);
#231 = CARTESIAN_POINT('',(12.67,17.7,1.6000001));
#232 = VECTOR('',#233,1.);
#233 = DIRECTION('',(0.,1.,-3.330669073875E-16));
#234 = ORIENTED_EDGE('',*,*,#235,.F.);
#235 = EDGE_CURVE('',#236,#226,#238,.T.);
#236 = VERTEX_POINT('',#237);
#237 = CARTESIAN_POINT('',(12.67,15.3,2.199564053488));
#238 = LINE('',#239,#240);
#239 = CARTESIAN_POINT('',(12.67,15.3,-81.69999995));
#240 = VECTOR('',#241,1.);
#241 = DIRECTION('',(0.,-3.330669073875E-16,-1.));
#242 = ORIENTED_EDGE('',*,*,#243,.F.);
#243 = EDGE_CURVE('',#244,#236,#246,.T.);
#244 = VERTEX_POINT('',#245);
#245 = CARTESIAN_POINT('',(12.67,15.348619186047,2.493314053488));
#246 = B_SPLINE_CURVE_WITH_KNOTS('',5,(#247,#248,#249,#250,#251,#252),
  .UNSPECIFIED.,.F.,.F.,(6,6),(0.,1.),.PIECEWISE_BEZIER_KNOTS.);
#247 = CARTESIAN_POINT('',(12.67,15.348619186047,2.493314053488));
#248 = CARTESIAN_POINT('',(12.67,15.328873519091,2.448391923285));
#249 = CARTESIAN_POINT('',(12.67,15.314246802198,2.396235950358));
#250 = CARTESIAN_POINT('',(12.67,15.304677243991,2.337115171629));
#251 = CARTESIAN_POINT('',(12.67,15.3,2.27141479654));
#252 = CARTESIAN_POINT('',(12.67,15.3,2.199564053488));
#253 = ORIENTED_EDGE('',*,*,#254,.F.);
#254 = EDGE_CURVE('',#255,#244,#257,.T.);
#255 = VERTEX_POINT('',#256);
#256 = CARTESIAN_POINT('',(12.67,15.498183139535,2.66664254186));
#257 = B_SPLINE_CURVE_WITH_KNOTS('',4,(#258,#259,#260,#261,#262,#263,
    #264,#265),.UNSPECIFIED.,.F.,.F.,(5,3,5),(0.,0.451925685267,1.),
  .UNSPECIFIED.);
#258 = CARTESIAN_POINT('',(12.67,15.498183139535,2.66664254186));
#259 = CARTESIAN_POINT('',(12.67,15.475383085225,2.652503227605));
#260 = CARTESIAN_POINT('',(12.67,15.454335239208,2.636714015737));
#261 = CARTESIAN_POINT('',(12.67,15.435064812719,2.619274376181));
#262 = CARTESIAN_POINT('',(12.67,15.396382745588,2.577060483317));
#263 = CARTESIAN_POINT('',(12.67,15.377813273114,2.551515078839));
#264 = CARTESIAN_POINT('',(12.67,15.361895480607,2.523583210098));
#265 = CARTESIAN_POINT('',(12.67,15.348619186047,2.493314053488));
#266 = ORIENTED_EDGE('',*,*,#267,.F.);
#267 = EDGE_CURVE('',#268,#255,#270,.T.);
#268 = VERTEX_POINT('',#269);
#269 = CARTESIAN_POINT('',(12.67,15.709375,2.729360565116));
#270 = B_SPLINE_CURVE_WITH_KNOTS('',4,(#271,#272,#273,#274,#275,#276,
    #277,#278),.UNSPECIFIED.,.F.,.F.,(5,3,5),(0.,0.255761617399,1.),
  .UNSPECIFIED.);
#271 = CARTESIAN_POINT('',(12.67,15.709375,2.729360565116));
#272 = CARTESIAN_POINT('',(12.67,15.695268075754,2.729360565116));
#273 = CARTESIAN_POINT('',(12.67,15.68125798149,2.728675973875));
#274 = CARTESIAN_POINT('',(12.67,15.667347225117,2.727305761832));
#275 = CARTESIAN_POINT('',(12.67,15.613355153608,2.719269039558));
#276 = CARTESIAN_POINT('',(12.67,15.574032824022,2.70748513099));
#277 = CARTESIAN_POINT('',(12.67,15.535628740521,2.689907879262));
#278 = CARTESIAN_POINT('',(12.67,15.498183139535,2.66664254186));
#279 = ORIENTED_EDGE('',*,*,#280,.F.);
#280 = EDGE_CURVE('',#281,#268,#283,.T.);
#281 = VERTEX_POINT('',#282);
#282 = CARTESIAN_POINT('',(12.67,15.90261627907,2.673764634884));
#283 = B_SPLINE_CURVE_WITH_KNOTS('',4,(#284,#285,#286,#287,#288,#289,
    #290,#291),.UNSPECIFIED.,.F.,.F.,(5,3,5),(0.,0.620116397125,1.),
  .UNSPECIFIED.);
#284 = CARTESIAN_POINT('',(12.67,15.90261627907,2.673764634884));
#285 = CARTESIAN_POINT('',(12.67,15.874567095128,2.690972033212));
#286 = CARTESIAN_POINT('',(12.67,15.845707684819,2.704656156936));
#287 = CARTESIAN_POINT('',(12.67,15.8160544581,2.714778108594));
#288 = CARTESIAN_POINT('',(12.67,15.766994915656,2.725347743952));
#289 = CARTESIAN_POINT('',(12.67,15.748069244961,2.728024159738));
#290 = CARTESIAN_POINT('',(12.67,15.72886041779,2.729360565116));
#291 = CARTESIAN_POINT('',(12.67,15.709375,2.729360565116));
#292 = ORIENTED_EDGE('',*,*,#293,.F.);
#293 = EDGE_CURVE('',#294,#281,#296,.T.);
#294 = VERTEX_POINT('',#295);
#295 = CARTESIAN_POINT('',(12.67,16.048837209302,2.505886727907));
#296 = B_SPLINE_CURVE_WITH_KNOTS('',5,(#297,#298,#299,#300,#301,#302),
  .UNSPECIFIED.,.F.,.F.,(6,6),(0.,1.),.PIECEWISE_BEZIER_KNOTS.);
#297 = CARTESIAN_POINT('',(12.67,16.048837209302,2.505886727907));
#298 = CARTESIAN_POINT('',(12.67,16.026693690655,2.550549569042));
#299 = CARTESIAN_POINT('',(12.67,16.001008633664,2.589792069392));
#300 = CARTESIAN_POINT('',(12.67,15.971753856205,2.623462434041));
#301 = CARTESIAN_POINT('',(12.67,15.938938717747,2.65146394019));
#302 = CARTESIAN_POINT('',(12.67,15.90261627907,2.673764634884));
#303 = ORIENTED_EDGE('',*,*,#304,.F.);
#304 = EDGE_CURVE('',#305,#294,#307,.T.);
#305 = VERTEX_POINT('',#306);
#306 = CARTESIAN_POINT('',(12.67,16.193968023256,2.728779169767));
#307 = B_SPLINE_CURVE_WITH_KNOTS('',5,(#308,#309,#310,#311,#312,#313,
    #314,#315,#316,#317),.UNSPECIFIED.,.F.,.F.,(6,4,6),(0.,
    0.113608385918,1.),.UNSPECIFIED.);
#308 = CARTESIAN_POINT('',(12.67,16.193968023256,2.728779169767));
#309 = CARTESIAN_POINT('',(12.67,16.189292649495,2.725227078576));
#310 = CARTESIAN_POINT('',(12.67,16.184694713633,2.721587484898));
#311 = CARTESIAN_POINT('',(12.67,16.180174399947,2.717860471));
#312 = CARTESIAN_POINT('',(12.67,16.175731872415,2.714046142233));
#313 = CARTESIAN_POINT('',(12.67,16.13731395396,2.679704353403));
#314 = CARTESIAN_POINT('',(12.67,16.108003819116,2.643956104032));
#315 = CARTESIAN_POINT('',(12.67,16.083507614275,2.602962230646));
#316 = CARTESIAN_POINT('',(12.67,16.0638123052,2.556868496364));
#317 = CARTESIAN_POINT('',(12.67,16.048837209302,2.505886727907));
#318 = ORIENTED_EDGE('',*,*,#319,.F.);
#319 = EDGE_CURVE('',#320,#305,#322,.T.);
#320 = VERTEX_POINT('',#321);
#321 = CARTESIAN_POINT('',(12.67,16.436191860465,2.80675882093));
#322 = B_SPLINE_CURVE_WITH_KNOTS('',4,(#323,#324,#325,#326,#327,#328,
    #329,#330),.UNSPECIFIED.,.F.,.F.,(5,3,5),(0.,0.696384024542,1.),
  .UNSPECIFIED.);
#323 = CARTESIAN_POINT('',(12.67,16.436191860465,2.80675882093));
#324 = CARTESIAN_POINT('',(12.67,16.387800765495,2.80675882093));
#325 = CARTESIAN_POINT('',(12.67,16.342165352445,2.800519667879));
#326 = CARTESIAN_POINT('',(12.67,16.299449726969,2.787914074239));
#327 = CARTESIAN_POINT('',(12.67,16.242436395127,2.760731021011));
#328 = CARTESIAN_POINT('',(12.67,16.225698764459,2.751275682745));
#329 = CARTESIAN_POINT('',(12.67,16.20954116415,2.740621820497));
#330 = CARTESIAN_POINT('',(12.67,16.193968023256,2.728779169767));
#331 = ORIENTED_EDGE('',*,*,#332,.F.);
#332 = EDGE_CURVE('',#333,#320,#335,.T.);
#333 = VERTEX_POINT('',#334);
#334 = CARTESIAN_POINT('',(12.67,16.645203488372,2.759302425581));
#335 = B_SPLINE_CURVE_WITH_KNOTS('',4,(#336,#337,#338,#339,#340,#341,
    #342,#343),.UNSPECIFIED.,.F.,.F.,(5,3,5),(0.,0.286862481671,1.),
  .UNSPECIFIED.);
#336 = CARTESIAN_POINT('',(12.67,16.645203488372,2.759302425581));
#337 = CARTESIAN_POINT('',(12.67,16.631347309936,2.766110615588));
#338 = CARTESIAN_POINT('',(12.67,16.617270093123,2.772269458592));
#339 = CARTESIAN_POINT('',(12.67,16.602973394942,2.777777288216));
#340 = CARTESIAN_POINT('',(12.67,16.55237678153,2.794705861235));
#341 = CARTESIAN_POINT('',(12.67,16.514949754315,2.802750910345));
#342 = CARTESIAN_POINT('',(12.67,16.476207592188,2.80675882093));
#343 = CARTESIAN_POINT('',(12.67,16.436191860465,2.80675882093));
#344 = ORIENTED_EDGE('',*,*,#345,.F.);
#345 = EDGE_CURVE('',#346,#333,#348,.T.);
#346 = VERTEX_POINT('',#347);
#347 = CARTESIAN_POINT('',(12.67,16.794186046512,2.642151262791));
#348 = B_SPLINE_CURVE_WITH_KNOTS('',4,(#349,#350,#351,#352,#353),
  .UNSPECIFIED.,.F.,.F.,(5,5),(0.,1.),.PIECEWISE_BEZIER_KNOTS.);
#349 = CARTESIAN_POINT('',(12.67,16.794186046512,2.642151262791));
#350 = CARTESIAN_POINT('',(12.67,16.767907215867,2.677141106645));
#351 = CARTESIAN_POINT('',(12.67,16.734244443867,2.708343355665));
#352 = CARTESIAN_POINT('',(12.67,16.693274418659,2.735719094846));
#353 = CARTESIAN_POINT('',(12.67,16.645203488372,2.759302425581));
#354 = ORIENTED_EDGE('',*,*,#355,.F.);
#355 = EDGE_CURVE('',#356,#346,#358,.T.);
#356 = VERTEX_POINT('',#357);
#357 = CARTESIAN_POINT('',(12.67,16.873255813953,2.467151262791));
#358 = B_SPLINE_CURVE_WITH_KNOTS('',4,(#359,#360,#361,#362,#363),
  .UNSPECIFIED.,.F.,.F.,(5,5),(0.,1.),.PIECEWISE_BEZIER_KNOTS.);
#359 = CARTESIAN_POINT('',(12.67,16.873255813953,2.467151262791));
#360 = CARTESIAN_POINT('',(12.67,16.85994547154,2.519524566636));
#361 = CARTESIAN_POINT('',(12.67,16.84235954862,2.566244163815));
#362 = CARTESIAN_POINT('',(12.67,16.820438642255,2.6071478018));
#363 = CARTESIAN_POINT('',(12.67,16.794186046512,2.642151262791));
#364 = ORIENTED_EDGE('',*,*,#365,.F.);
#365 = EDGE_CURVE('',#366,#356,#368,.T.);
#366 = VERTEX_POINT('',#367);
#367 = CARTESIAN_POINT('',(12.67,16.9,2.2093751));
#368 = B_SPLINE_CURVE_WITH_KNOTS('',5,(#369,#370,#371,#372,#373,#374),
  .UNSPECIFIED.,.F.,.F.,(6,6),(0.,1.),.PIECEWISE_BEZIER_KNOTS.);
#369 = CARTESIAN_POINT('',(12.67,16.9,2.2093751));
#370 = CARTESIAN_POINT('',(12.67,16.9,2.269717904676));
#371 = CARTESIAN_POINT('',(12.67,16.897386880428,2.325819245819));
#372 = CARTESIAN_POINT('',(12.67,16.892092174093,2.377517524239));
#373 = CARTESIAN_POINT('',(12.67,16.884060304172,2.424667302612));
#374 = CARTESIAN_POINT('',(12.67,16.873255813953,2.467151262791));
#375 = ORIENTED_EDGE('',*,*,#376,.F.);
#376 = EDGE_CURVE('',#228,#366,#377,.T.);
#377 = LINE('',#378,#379);
#378 = CARTESIAN_POINT('',(12.67,16.9,-81.39531245));
#379 = VECTOR('',#380,1.);
#380 = DIRECTION('',(0.,3.330669073875E-16,1.));
#381 = PLANE('',#382);
#382 = AXIS2_PLACEMENT_3D('',#383,#384,#385);
#383 = CARTESIAN_POINT('',(12.67,18.5,-165.));
#384 = DIRECTION('',(1.,0.,0.));
#385 = DIRECTION('',(0.,-1.,2.22044604925E-16));
#386 = ADVANCED_FACE('',(#387),#405,.F.);
#387 = FACE_BOUND('',#388,.F.);
#388 = EDGE_LOOP('',(#389,#397,#398,#399));
#389 = ORIENTED_EDGE('',*,*,#390,.F.);
#390 = EDGE_CURVE('',#145,#391,#393,.T.);
#391 = VERTEX_POINT('',#392);
#392 = CARTESIAN_POINT('',(12.05,16.9,2.992441960465));
#393 = LINE('',#394,#395);
#394 = CARTESIAN_POINT('',(12.05,16.9,4.048764634884));
#395 = VECTOR('',#396,1.);
#396 = DIRECTION('',(0.,-3.330669073875E-16,-1.));
#397 = ORIENTED_EDGE('',*,*,#152,.F.);
#398 = ORIENTED_EDGE('',*,*,#206,.F.);
#399 = ORIENTED_EDGE('',*,*,#400,.F.);
#400 = EDGE_CURVE('',#391,#207,#401,.T.);
#401 = LINE('',#402,#403);
#402 = CARTESIAN_POINT('',(12.05,16.9,2.992441960465));
#403 = VECTOR('',#404,1.);
#404 = DIRECTION('',(1.,-1.110223024625E-16,3.697785493223E-32));
#405 = PLANE('',#406);
#406 = AXIS2_PLACEMENT_3D('',#407,#408,#409);
#407 = CARTESIAN_POINT('',(12.05,16.9,4.048764634884));
#408 = DIRECTION('',(1.110223024625E-16,1.,-3.330669073875E-16));
#409 = DIRECTION('',(0.,-3.330669073875E-16,-1.));
#410 = ADVANCED_FACE('',(#411),#421,.T.);
#411 = FACE_BOUND('',#412,.T.);
#412 = EDGE_LOOP('',(#413,#414,#415));
#413 = ORIENTED_EDGE('',*,*,#390,.F.);
#414 = ORIENTED_EDGE('',*,*,#144,.F.);
#415 = ORIENTED_EDGE('',*,*,#416,.F.);
#416 = EDGE_CURVE('',#391,#135,#417,.T.);
#417 = B_SPLINE_CURVE_WITH_KNOTS('',2,(#418,#419,#420),.UNSPECIFIED.,.F.
  ,.F.,(3,3),(0.,1.),.PIECEWISE_BEZIER_KNOTS.);
#418 = CARTESIAN_POINT('',(12.05,16.9,2.992441960465));
#419 = CARTESIAN_POINT('',(12.05,16.828924418605,2.990261727907));
#420 = CARTESIAN_POINT('',(12.05,16.763372093023,3.015334402326));
#421 = PLANE('',#422);
#422 = AXIS2_PLACEMENT_3D('',#423,#424,#425);
#423 = CARTESIAN_POINT('',(12.05,16.125038212681,2.748378598282));
#424 = DIRECTION('',(1.,-1.110223024625E-16,3.697785493223E-32));
#425 = DIRECTION('',(0.,3.330669073875E-16,1.));
#426 = ADVANCED_FACE('',(#427),#433,.F.);
#427 = FACE_BOUND('',#428,.F.);
#428 = EDGE_LOOP('',(#429,#430,#431,#432));
#429 = ORIENTED_EDGE('',*,*,#416,.F.);
#430 = ORIENTED_EDGE('',*,*,#400,.T.);
#431 = ORIENTED_EDGE('',*,*,#214,.F.);
#432 = ORIENTED_EDGE('',*,*,#134,.T.);
#433 = SURFACE_OF_LINEAR_EXTRUSION('',#434,#438);
#434 = B_SPLINE_CURVE_WITH_KNOTS('',2,(#435,#436,#437),.UNSPECIFIED.,.F.
  ,.F.,(3,3),(0.,1.),.PIECEWISE_BEZIER_KNOTS.);
#435 = CARTESIAN_POINT('',(12.05,16.9,2.992441960465));
#436 = CARTESIAN_POINT('',(12.05,16.828924418605,2.990261727907));
#437 = CARTESIAN_POINT('',(12.05,16.763372093023,3.015334402326));
#438 = VECTOR('',#439,1.);
#439 = DIRECTION('',(-1.,1.110223024625E-16,-3.697785493223E-32));
#440 = ADVANCED_FACE('',(#441),#460,.T.);
#441 = FACE_BOUND('',#442,.T.);
#442 = EDGE_LOOP('',(#443,#451,#458,#459));
#443 = ORIENTED_EDGE('',*,*,#444,.T.);
#444 = EDGE_CURVE('',#169,#445,#447,.T.);
#445 = VERTEX_POINT('',#446);
#446 = CARTESIAN_POINT('',(-4.77,4.,10.1));
#447 = LINE('',#448,#449);
#448 = CARTESIAN_POINT('',(-4.77,4.,2.7));
#449 = VECTOR('',#450,1.);
#450 = DIRECTION('',(0.,2.22044604925E-16,1.));
#451 = ORIENTED_EDGE('',*,*,#452,.F.);
#452 = EDGE_CURVE('',#445,#445,#453,.T.);
#453 = CIRCLE('',#454,4.5);
#454 = AXIS2_PLACEMENT_3D('',#455,#456,#457);
#455 = CARTESIAN_POINT('',(-4.77,8.5,10.1));
#456 = DIRECTION('',(-0.,2.22044604925E-16,1.));
#457 = DIRECTION('',(0.,-1.,2.22044604925E-16));
#458 = ORIENTED_EDGE('',*,*,#444,.F.);
#459 = ORIENTED_EDGE('',*,*,#168,.T.);
#460 = CYLINDRICAL_SURFACE('',#461,4.5);
#461 = AXIS2_PLACEMENT_3D('',#462,#463,#464);
#462 = CARTESIAN_POINT('',(-4.77,8.5,2.7));
#463 = DIRECTION('',(0.,2.22044604925E-16,1.));
#464 = DIRECTION('',(0.,-1.,2.22044604925E-16));
#465 = ADVANCED_FACE('',(#466),#491,.F.);
#466 = FACE_BOUND('',#467,.F.);
#467 = EDGE_LOOP('',(#468,#478,#484,#485));
#468 = ORIENTED_EDGE('',*,*,#469,.F.);
#469 = EDGE_CURVE('',#470,#472,#474,.T.);
#470 = VERTEX_POINT('',#471);
#471 = CARTESIAN_POINT('',(12.05,16.9,1.6000001));
#472 = VERTEX_POINT('',#473);
#473 = CARTESIAN_POINT('',(12.05,15.3,1.6000001));
#474 = LINE('',#475,#476);
#475 = CARTESIAN_POINT('',(12.05,16.9,1.6000001));
#476 = VECTOR('',#477,1.);
#477 = DIRECTION('',(-1.110223024625E-16,-1.,3.330669073875E-16));
#478 = ORIENTED_EDGE('',*,*,#479,.T.);
#479 = EDGE_CURVE('',#470,#228,#480,.T.);
#480 = LINE('',#481,#482);
#481 = CARTESIAN_POINT('',(12.05,16.9,1.6000001));
#482 = VECTOR('',#483,1.);
#483 = DIRECTION('',(1.,-1.110223024625E-16,3.697785493223E-32));
#484 = ORIENTED_EDGE('',*,*,#225,.F.);
#485 = ORIENTED_EDGE('',*,*,#486,.F.);
#486 = EDGE_CURVE('',#472,#226,#487,.T.);
#487 = LINE('',#488,#489);
#488 = CARTESIAN_POINT('',(12.05,15.3,1.6000001));
#489 = VECTOR('',#490,1.);
#490 = DIRECTION('',(1.,-1.110223024625E-16,3.697785493223E-32));
#491 = PLANE('',#492);
#492 = AXIS2_PLACEMENT_3D('',#493,#494,#495);
#493 = CARTESIAN_POINT('',(12.05,16.9,1.6000001));
#494 = DIRECTION('',(0.,-3.330669073875E-16,-1.));
#495 = DIRECTION('',(-1.110223024625E-16,-1.,3.330669073875E-16));
#496 = ADVANCED_FACE('',(#497),#515,.F.);
#497 = FACE_BOUND('',#498,.F.);
#498 = EDGE_LOOP('',(#499,#507,#513,#514));
#499 = ORIENTED_EDGE('',*,*,#500,.F.);
#500 = EDGE_CURVE('',#501,#470,#503,.T.);
#501 = VERTEX_POINT('',#502);
#502 = CARTESIAN_POINT('',(12.05,16.9,2.2093751));
#503 = LINE('',#504,#505);
#504 = CARTESIAN_POINT('',(12.05,16.9,2.2093751));
#505 = VECTOR('',#506,1.);
#506 = DIRECTION('',(0.,-3.330669073875E-16,-1.));
#507 = ORIENTED_EDGE('',*,*,#508,.T.);
#508 = EDGE_CURVE('',#501,#366,#509,.T.);
#509 = LINE('',#510,#511);
#510 = CARTESIAN_POINT('',(12.05,16.9,2.2093751));
#511 = VECTOR('',#512,1.);
#512 = DIRECTION('',(1.,-1.110223024625E-16,3.697785493223E-32));
#513 = ORIENTED_EDGE('',*,*,#376,.F.);
#514 = ORIENTED_EDGE('',*,*,#479,.F.);
#515 = PLANE('',#516);
#516 = AXIS2_PLACEMENT_3D('',#517,#518,#519);
#517 = CARTESIAN_POINT('',(12.05,16.9,2.2093751));
#518 = DIRECTION('',(1.110223024625E-16,1.,-3.330669073875E-16));
#519 = DIRECTION('',(0.,-3.330669073875E-16,-1.));
#520 = ADVANCED_FACE('',(#521),#539,.F.);
#521 = FACE_BOUND('',#522,.F.);
#522 = EDGE_LOOP('',(#523,#531,#537,#538));
#523 = ORIENTED_EDGE('',*,*,#524,.F.);
#524 = EDGE_CURVE('',#525,#501,#527,.T.);
#525 = VERTEX_POINT('',#526);
#526 = CARTESIAN_POINT('',(12.05,16.873255813953,2.467151262791));
#527 = B_SPLINE_CURVE_WITH_KNOTS('',2,(#528,#529,#530),.UNSPECIFIED.,.F.
  ,.F.,(3,3),(0.,1.),.PIECEWISE_BEZIER_KNOTS.);
#528 = CARTESIAN_POINT('',(12.05,16.873255813953,2.467151262791));
#529 = CARTESIAN_POINT('',(12.05,16.9,2.36199137907));
#530 = CARTESIAN_POINT('',(12.05,16.9,2.2093751));
#531 = ORIENTED_EDGE('',*,*,#532,.T.);
#532 = EDGE_CURVE('',#525,#356,#533,.T.);
#533 = LINE('',#534,#535);
#534 = CARTESIAN_POINT('',(12.05,16.873255813953,2.467151262791));
#535 = VECTOR('',#536,1.);
#536 = DIRECTION('',(1.,-1.110223024625E-16,3.697785493223E-32));
#537 = ORIENTED_EDGE('',*,*,#365,.F.);
#538 = ORIENTED_EDGE('',*,*,#508,.F.);
#539 = SURFACE_OF_LINEAR_EXTRUSION('',#540,#544);
#540 = B_SPLINE_CURVE_WITH_KNOTS('',2,(#541,#542,#543),.UNSPECIFIED.,.F.
  ,.F.,(3,3),(0.,1.),.PIECEWISE_BEZIER_KNOTS.);
#541 = CARTESIAN_POINT('',(12.05,16.873255813953,2.467151262791));
#542 = CARTESIAN_POINT('',(12.05,16.9,2.36199137907));
#543 = CARTESIAN_POINT('',(12.05,16.9,2.2093751));
#544 = VECTOR('',#545,1.);
#545 = DIRECTION('',(-1.,1.110223024625E-16,-3.697785493223E-32));
#546 = ADVANCED_FACE('',(#547),#565,.F.);
#547 = FACE_BOUND('',#548,.F.);
#548 = EDGE_LOOP('',(#549,#557,#563,#564));
#549 = ORIENTED_EDGE('',*,*,#550,.F.);
#550 = EDGE_CURVE('',#551,#525,#553,.T.);
#551 = VERTEX_POINT('',#552);
#552 = CARTESIAN_POINT('',(12.05,16.794186046512,2.642151262791));
#553 = B_SPLINE_CURVE_WITH_KNOTS('',2,(#554,#555,#556),.UNSPECIFIED.,.F.
  ,.F.,(3,3),(0.,1.),.PIECEWISE_BEZIER_KNOTS.);
#554 = CARTESIAN_POINT('',(12.05,16.794186046512,2.642151262791));
#555 = CARTESIAN_POINT('',(12.05,16.846511627907,2.57238382093));
#556 = CARTESIAN_POINT('',(12.05,16.873255813953,2.467151262791));
#557 = ORIENTED_EDGE('',*,*,#558,.T.);
#558 = EDGE_CURVE('',#551,#346,#559,.T.);
#559 = LINE('',#560,#561);
#560 = CARTESIAN_POINT('',(12.05,16.794186046512,2.642151262791));
#561 = VECTOR('',#562,1.);
#562 = DIRECTION('',(1.,-1.110223024625E-16,3.697785493223E-32));
#563 = ORIENTED_EDGE('',*,*,#355,.F.);
#564 = ORIENTED_EDGE('',*,*,#532,.F.);
#565 = SURFACE_OF_LINEAR_EXTRUSION('',#566,#570);
#566 = B_SPLINE_CURVE_WITH_KNOTS('',2,(#567,#568,#569),.UNSPECIFIED.,.F.
  ,.F.,(3,3),(0.,1.),.PIECEWISE_BEZIER_KNOTS.);
#567 = CARTESIAN_POINT('',(12.05,16.794186046512,2.642151262791));
#568 = CARTESIAN_POINT('',(12.05,16.846511627907,2.57238382093));
#569 = CARTESIAN_POINT('',(12.05,16.873255813953,2.467151262791));
#570 = VECTOR('',#571,1.);
#571 = DIRECTION('',(-1.,1.110223024625E-16,-3.697785493223E-32));
#572 = ADVANCED_FACE('',(#573),#591,.F.);
#573 = FACE_BOUND('',#574,.F.);
#574 = EDGE_LOOP('',(#575,#583,#589,#590));
#575 = ORIENTED_EDGE('',*,*,#576,.F.);
#576 = EDGE_CURVE('',#577,#551,#579,.T.);
#577 = VERTEX_POINT('',#578);
#578 = CARTESIAN_POINT('',(12.05,16.645203488372,2.759302425581));
#579 = B_SPLINE_CURVE_WITH_KNOTS('',2,(#580,#581,#582),.UNSPECIFIED.,.F.
  ,.F.,(3,3),(0.,1.),.PIECEWISE_BEZIER_KNOTS.);
#580 = CARTESIAN_POINT('',(12.05,16.645203488372,2.759302425581));
#581 = CARTESIAN_POINT('',(12.05,16.741787790698,2.711918704651));
#582 = CARTESIAN_POINT('',(12.05,16.794186046512,2.642151262791));
#583 = ORIENTED_EDGE('',*,*,#584,.T.);
#584 = EDGE_CURVE('',#577,#333,#585,.T.);
#585 = LINE('',#586,#587);
#586 = CARTESIAN_POINT('',(12.05,16.645203488372,2.759302425581));
#587 = VECTOR('',#588,1.);
#588 = DIRECTION('',(1.,-1.110223024625E-16,3.697785493223E-32));
#589 = ORIENTED_EDGE('',*,*,#345,.F.);
#590 = ORIENTED_EDGE('',*,*,#558,.F.);
#591 = SURFACE_OF_LINEAR_EXTRUSION('',#592,#596);
#592 = B_SPLINE_CURVE_WITH_KNOTS('',2,(#593,#594,#595),.UNSPECIFIED.,.F.
  ,.F.,(3,3),(0.,1.),.PIECEWISE_BEZIER_KNOTS.);
#593 = CARTESIAN_POINT('',(12.05,16.645203488372,2.759302425581));
#594 = CARTESIAN_POINT('',(12.05,16.741787790698,2.711918704651));
#595 = CARTESIAN_POINT('',(12.05,16.794186046512,2.642151262791));
#596 = VECTOR('',#597,1.);
#597 = DIRECTION('',(-1.,1.110223024625E-16,-3.697785493223E-32));
#598 = ADVANCED_FACE('',(#599),#617,.F.);
#599 = FACE_BOUND('',#600,.F.);
#600 = EDGE_LOOP('',(#601,#609,#615,#616));
#601 = ORIENTED_EDGE('',*,*,#602,.F.);
#602 = EDGE_CURVE('',#603,#577,#605,.T.);
#603 = VERTEX_POINT('',#604);
#604 = CARTESIAN_POINT('',(12.05,16.436191860465,2.80675882093));
#605 = B_SPLINE_CURVE_WITH_KNOTS('',2,(#606,#607,#608),.UNSPECIFIED.,.F.
  ,.F.,(3,3),(0.,1.),.PIECEWISE_BEZIER_KNOTS.);
#606 = CARTESIAN_POINT('',(12.05,16.436191860465,2.80675882093));
#607 = CARTESIAN_POINT('',(12.05,16.548619186047,2.80675882093));
#608 = CARTESIAN_POINT('',(12.05,16.645203488372,2.759302425581));
#609 = ORIENTED_EDGE('',*,*,#610,.T.);
#610 = EDGE_CURVE('',#603,#320,#611,.T.);
#611 = LINE('',#612,#613);
#612 = CARTESIAN_POINT('',(12.05,16.436191860465,2.80675882093));
#613 = VECTOR('',#614,1.);
#614 = DIRECTION('',(1.,-1.110223024625E-16,3.697785493223E-32));
#615 = ORIENTED_EDGE('',*,*,#332,.F.);
#616 = ORIENTED_EDGE('',*,*,#584,.F.);
#617 = SURFACE_OF_LINEAR_EXTRUSION('',#618,#622);
#618 = B_SPLINE_CURVE_WITH_KNOTS('',2,(#619,#620,#621),.UNSPECIFIED.,.F.
  ,.F.,(3,3),(0.,1.),.PIECEWISE_BEZIER_KNOTS.);
#619 = CARTESIAN_POINT('',(12.05,16.436191860465,2.80675882093));
#620 = CARTESIAN_POINT('',(12.05,16.548619186047,2.80675882093));
#621 = CARTESIAN_POINT('',(12.05,16.645203488372,2.759302425581));
#622 = VECTOR('',#623,1.);
#623 = DIRECTION('',(-1.,1.110223024625E-16,-3.697785493223E-32));
#624 = ADVANCED_FACE('',(#625),#643,.F.);
#625 = FACE_BOUND('',#626,.F.);
#626 = EDGE_LOOP('',(#627,#635,#641,#642));
#627 = ORIENTED_EDGE('',*,*,#628,.F.);
#628 = EDGE_CURVE('',#629,#603,#631,.T.);
#629 = VERTEX_POINT('',#630);
#630 = CARTESIAN_POINT('',(12.05,16.193968023256,2.728779169767));
#631 = B_SPLINE_CURVE_WITH_KNOTS('',2,(#632,#633,#634),.UNSPECIFIED.,.F.
  ,.F.,(3,3),(0.,1.),.PIECEWISE_BEZIER_KNOTS.);
#632 = CARTESIAN_POINT('',(12.05,16.193968023256,2.728779169767));
#633 = CARTESIAN_POINT('',(12.05,16.296511627907,2.80675882093));
#634 = CARTESIAN_POINT('',(12.05,16.436191860465,2.80675882093));
#635 = ORIENTED_EDGE('',*,*,#636,.T.);
#636 = EDGE_CURVE('',#629,#305,#637,.T.);
#637 = LINE('',#638,#639);
#638 = CARTESIAN_POINT('',(12.05,16.193968023256,2.728779169767));
#639 = VECTOR('',#640,1.);
#640 = DIRECTION('',(1.,-1.110223024625E-16,3.697785493223E-32));
#641 = ORIENTED_EDGE('',*,*,#319,.F.);
#642 = ORIENTED_EDGE('',*,*,#610,.F.);
#643 = SURFACE_OF_LINEAR_EXTRUSION('',#644,#648);
#644 = B_SPLINE_CURVE_WITH_KNOTS('',2,(#645,#646,#647),.UNSPECIFIED.,.F.
  ,.F.,(3,3),(0.,1.),.PIECEWISE_BEZIER_KNOTS.);
#645 = CARTESIAN_POINT('',(12.05,16.193968023256,2.728779169767));
#646 = CARTESIAN_POINT('',(12.05,16.296511627907,2.80675882093));
#647 = CARTESIAN_POINT('',(12.05,16.436191860465,2.80675882093));
#648 = VECTOR('',#649,1.);
#649 = DIRECTION('',(-1.,1.110223024625E-16,-3.697785493223E-32));
#650 = ADVANCED_FACE('',(#651),#669,.F.);
#651 = FACE_BOUND('',#652,.F.);
#652 = EDGE_LOOP('',(#653,#661,#667,#668));
#653 = ORIENTED_EDGE('',*,*,#654,.F.);
#654 = EDGE_CURVE('',#655,#629,#657,.T.);
#655 = VERTEX_POINT('',#656);
#656 = CARTESIAN_POINT('',(12.05,16.048837209302,2.505886727907));
#657 = B_SPLINE_CURVE_WITH_KNOTS('',2,(#658,#659,#660),.UNSPECIFIED.,.F.
  ,.F.,(3,3),(0.,1.),.PIECEWISE_BEZIER_KNOTS.);
#658 = CARTESIAN_POINT('',(12.05,16.048837209302,2.505886727907));
#659 = CARTESIAN_POINT('',(12.05,16.091424418605,2.650872193023));
#660 = CARTESIAN_POINT('',(12.05,16.193968023256,2.728779169767));
#661 = ORIENTED_EDGE('',*,*,#662,.T.);
#662 = EDGE_CURVE('',#655,#294,#663,.T.);
#663 = LINE('',#664,#665);
#664 = CARTESIAN_POINT('',(12.05,16.048837209302,2.505886727907));
#665 = VECTOR('',#666,1.);
#666 = DIRECTION('',(1.,-1.110223024625E-16,3.697785493223E-32));
#667 = ORIENTED_EDGE('',*,*,#304,.F.);
#668 = ORIENTED_EDGE('',*,*,#636,.F.);
#669 = SURFACE_OF_LINEAR_EXTRUSION('',#670,#674);
#670 = B_SPLINE_CURVE_WITH_KNOTS('',2,(#671,#672,#673),.UNSPECIFIED.,.F.
  ,.F.,(3,3),(0.,1.),.PIECEWISE_BEZIER_KNOTS.);
#671 = CARTESIAN_POINT('',(12.05,16.048837209302,2.505886727907));
#672 = CARTESIAN_POINT('',(12.05,16.091424418605,2.650872193023));
#673 = CARTESIAN_POINT('',(12.05,16.193968023256,2.728779169767));
#674 = VECTOR('',#675,1.);
#675 = DIRECTION('',(-1.,1.110223024625E-16,-3.697785493223E-32));
#676 = ADVANCED_FACE('',(#677),#695,.F.);
#677 = FACE_BOUND('',#678,.F.);
#678 = EDGE_LOOP('',(#679,#687,#693,#694));
#679 = ORIENTED_EDGE('',*,*,#680,.F.);
#680 = EDGE_CURVE('',#681,#655,#683,.T.);
#681 = VERTEX_POINT('',#682);
#682 = CARTESIAN_POINT('',(12.05,15.90261627907,2.673764634884));
#683 = B_SPLINE_CURVE_WITH_KNOTS('',2,(#684,#685,#686),.UNSPECIFIED.,.F.
  ,.F.,(3,3),(0.,1.),.PIECEWISE_BEZIER_KNOTS.);
#684 = CARTESIAN_POINT('',(12.05,15.90261627907,2.673764634884));
#685 = CARTESIAN_POINT('',(12.05,15.993168604651,2.618168704651));
#686 = CARTESIAN_POINT('',(12.05,16.048837209302,2.505886727907));
#687 = ORIENTED_EDGE('',*,*,#688,.T.);
#688 = EDGE_CURVE('',#681,#281,#689,.T.);
#689 = LINE('',#690,#691);
#690 = CARTESIAN_POINT('',(12.05,15.90261627907,2.673764634884));
#691 = VECTOR('',#692,1.);
#692 = DIRECTION('',(1.,-1.110223024625E-16,3.697785493223E-32));
#693 = ORIENTED_EDGE('',*,*,#293,.F.);
#694 = ORIENTED_EDGE('',*,*,#662,.F.);
#695 = SURFACE_OF_LINEAR_EXTRUSION('',#696,#700);
#696 = B_SPLINE_CURVE_WITH_KNOTS('',2,(#697,#698,#699),.UNSPECIFIED.,.F.
  ,.F.,(3,3),(0.,1.),.PIECEWISE_BEZIER_KNOTS.);
#697 = CARTESIAN_POINT('',(12.05,15.90261627907,2.673764634884));
#698 = CARTESIAN_POINT('',(12.05,15.993168604651,2.618168704651));
#699 = CARTESIAN_POINT('',(12.05,16.048837209302,2.505886727907));
#700 = VECTOR('',#701,1.);
#701 = DIRECTION('',(-1.,1.110223024625E-16,-3.697785493223E-32));
#702 = ADVANCED_FACE('',(#703),#721,.F.);
#703 = FACE_BOUND('',#704,.F.);
#704 = EDGE_LOOP('',(#705,#713,#719,#720));
#705 = ORIENTED_EDGE('',*,*,#706,.F.);
#706 = EDGE_CURVE('',#707,#681,#709,.T.);
#707 = VERTEX_POINT('',#708);
#708 = CARTESIAN_POINT('',(12.05,15.709375,2.729360565116));
#709 = B_SPLINE_CURVE_WITH_KNOTS('',2,(#710,#711,#712),.UNSPECIFIED.,.F.
  ,.F.,(3,3),(0.,1.),.PIECEWISE_BEZIER_KNOTS.);
#710 = CARTESIAN_POINT('',(12.05,15.709375,2.729360565116));
#711 = CARTESIAN_POINT('',(12.05,15.81199127907,2.729360565116));
#712 = CARTESIAN_POINT('',(12.05,15.90261627907,2.673764634884));
#713 = ORIENTED_EDGE('',*,*,#714,.T.);
#714 = EDGE_CURVE('',#707,#268,#715,.T.);
#715 = LINE('',#716,#717);
#716 = CARTESIAN_POINT('',(12.05,15.709375,2.729360565116));
#717 = VECTOR('',#718,1.);
#718 = DIRECTION('',(1.,-1.110223024625E-16,3.697785493223E-32));
#719 = ORIENTED_EDGE('',*,*,#280,.F.);
#720 = ORIENTED_EDGE('',*,*,#688,.F.);
#721 = SURFACE_OF_LINEAR_EXTRUSION('',#722,#726);
#722 = B_SPLINE_CURVE_WITH_KNOTS('',2,(#723,#724,#725),.UNSPECIFIED.,.F.
  ,.F.,(3,3),(0.,1.),.PIECEWISE_BEZIER_KNOTS.);
#723 = CARTESIAN_POINT('',(12.05,15.709375,2.729360565116));
#724 = CARTESIAN_POINT('',(12.05,15.81199127907,2.729360565116));
#725 = CARTESIAN_POINT('',(12.05,15.90261627907,2.673764634884));
#726 = VECTOR('',#727,1.);
#727 = DIRECTION('',(-1.,1.110223024625E-16,-3.697785493223E-32));
#728 = ADVANCED_FACE('',(#729),#747,.F.);
#729 = FACE_BOUND('',#730,.F.);
#730 = EDGE_LOOP('',(#731,#739,#745,#746));
#731 = ORIENTED_EDGE('',*,*,#732,.F.);
#732 = EDGE_CURVE('',#733,#707,#735,.T.);
#733 = VERTEX_POINT('',#734);
#734 = CARTESIAN_POINT('',(12.05,15.498183139535,2.66664254186));
#735 = B_SPLINE_CURVE_WITH_KNOTS('',2,(#736,#737,#738),.UNSPECIFIED.,.F.
  ,.F.,(3,3),(0.,1.),.PIECEWISE_BEZIER_KNOTS.);
#736 = CARTESIAN_POINT('',(12.05,15.498183139535,2.66664254186));
#737 = CARTESIAN_POINT('',(12.05,15.599127906977,2.729360565116));
#738 = CARTESIAN_POINT('',(12.05,15.709375,2.729360565116));
#739 = ORIENTED_EDGE('',*,*,#740,.T.);
#740 = EDGE_CURVE('',#733,#255,#741,.T.);
#741 = LINE('',#742,#743);
#742 = CARTESIAN_POINT('',(12.05,15.498183139535,2.66664254186));
#743 = VECTOR('',#744,1.);
#744 = DIRECTION('',(1.,-1.110223024625E-16,3.697785493223E-32));
#745 = ORIENTED_EDGE('',*,*,#267,.F.);
#746 = ORIENTED_EDGE('',*,*,#714,.F.);
#747 = SURFACE_OF_LINEAR_EXTRUSION('',#748,#752);
#748 = B_SPLINE_CURVE_WITH_KNOTS('',2,(#749,#750,#751),.UNSPECIFIED.,.F.
  ,.F.,(3,3),(0.,1.),.PIECEWISE_BEZIER_KNOTS.);
#749 = CARTESIAN_POINT('',(12.05,15.498183139535,2.66664254186));
#750 = CARTESIAN_POINT('',(12.05,15.599127906977,2.729360565116));
#751 = CARTESIAN_POINT('',(12.05,15.709375,2.729360565116));
#752 = VECTOR('',#753,1.);
#753 = DIRECTION('',(-1.,1.110223024625E-16,-3.697785493223E-32));
#754 = ADVANCED_FACE('',(#755),#773,.F.);
#755 = FACE_BOUND('',#756,.F.);
#756 = EDGE_LOOP('',(#757,#765,#771,#772));
#757 = ORIENTED_EDGE('',*,*,#758,.F.);
#758 = EDGE_CURVE('',#759,#733,#761,.T.);
#759 = VERTEX_POINT('',#760);
#760 = CARTESIAN_POINT('',(12.05,15.348619186047,2.493314053488));
#761 = B_SPLINE_CURVE_WITH_KNOTS('',2,(#762,#763,#764),.UNSPECIFIED.,.F.
  ,.F.,(3,3),(0.,1.),.PIECEWISE_BEZIER_KNOTS.);
#762 = CARTESIAN_POINT('',(12.05,15.348619186047,2.493314053488));
#763 = CARTESIAN_POINT('',(12.05,15.397165697674,2.603997193023));
#764 = CARTESIAN_POINT('',(12.05,15.498183139535,2.66664254186));
#765 = ORIENTED_EDGE('',*,*,#766,.T.);
#766 = EDGE_CURVE('',#759,#244,#767,.T.);
#767 = LINE('',#768,#769);
#768 = CARTESIAN_POINT('',(12.05,15.348619186047,2.493314053488));
#769 = VECTOR('',#770,1.);
#770 = DIRECTION('',(1.,-1.110223024625E-16,3.697785493223E-32));
#771 = ORIENTED_EDGE('',*,*,#254,.F.);
#772 = ORIENTED_EDGE('',*,*,#740,.F.);
#773 = SURFACE_OF_LINEAR_EXTRUSION('',#774,#778);
#774 = B_SPLINE_CURVE_WITH_KNOTS('',2,(#775,#776,#777),.UNSPECIFIED.,.F.
  ,.F.,(3,3),(0.,1.),.PIECEWISE_BEZIER_KNOTS.);
#775 = CARTESIAN_POINT('',(12.05,15.348619186047,2.493314053488));
#776 = CARTESIAN_POINT('',(12.05,15.397165697674,2.603997193023));
#777 = CARTESIAN_POINT('',(12.05,15.498183139535,2.66664254186));
#778 = VECTOR('',#779,1.);
#779 = DIRECTION('',(-1.,1.110223024625E-16,-3.697785493223E-32));
#780 = ADVANCED_FACE('',(#781),#799,.F.);
#781 = FACE_BOUND('',#782,.F.);
#782 = EDGE_LOOP('',(#783,#791,#797,#798));
#783 = ORIENTED_EDGE('',*,*,#784,.F.);
#784 = EDGE_CURVE('',#785,#759,#787,.T.);
#785 = VERTEX_POINT('',#786);
#786 = CARTESIAN_POINT('',(12.05,15.3,2.199564053488));
#787 = B_SPLINE_CURVE_WITH_KNOTS('',2,(#788,#789,#790),.UNSPECIFIED.,.F.
  ,.F.,(3,3),(0.,1.),.PIECEWISE_BEZIER_KNOTS.);
#788 = CARTESIAN_POINT('',(12.05,15.3,2.199564053488));
#789 = CARTESIAN_POINT('',(12.05,15.3,2.382703588372));
#790 = CARTESIAN_POINT('',(12.05,15.348619186047,2.493314053488));
#791 = ORIENTED_EDGE('',*,*,#792,.T.);
#792 = EDGE_CURVE('',#785,#236,#793,.T.);
#793 = LINE('',#794,#795);
#794 = CARTESIAN_POINT('',(12.05,15.3,2.199564053488));
#795 = VECTOR('',#796,1.);
#796 = DIRECTION('',(1.,-1.110223024625E-16,3.697785493223E-32));
#797 = ORIENTED_EDGE('',*,*,#243,.F.);
#798 = ORIENTED_EDGE('',*,*,#766,.F.);
#799 = SURFACE_OF_LINEAR_EXTRUSION('',#800,#804);
#800 = B_SPLINE_CURVE_WITH_KNOTS('',2,(#801,#802,#803),.UNSPECIFIED.,.F.
  ,.F.,(3,3),(0.,1.),.PIECEWISE_BEZIER_KNOTS.);
#801 = CARTESIAN_POINT('',(12.05,15.3,2.199564053488));
#802 = CARTESIAN_POINT('',(12.05,15.3,2.382703588372));
#803 = CARTESIAN_POINT('',(12.05,15.348619186047,2.493314053488));
#804 = VECTOR('',#805,1.);
#805 = DIRECTION('',(-1.,1.110223024625E-16,-3.697785493223E-32));
#806 = ADVANCED_FACE('',(#807),#818,.F.);
#807 = FACE_BOUND('',#808,.F.);
#808 = EDGE_LOOP('',(#809,#815,#816,#817));
#809 = ORIENTED_EDGE('',*,*,#810,.F.);
#810 = EDGE_CURVE('',#472,#785,#811,.T.);
#811 = LINE('',#812,#813);
#812 = CARTESIAN_POINT('',(12.05,15.3,1.6000001));
#813 = VECTOR('',#814,1.);
#814 = DIRECTION('',(0.,3.330669073875E-16,1.));
#815 = ORIENTED_EDGE('',*,*,#486,.T.);
#816 = ORIENTED_EDGE('',*,*,#235,.F.);
#817 = ORIENTED_EDGE('',*,*,#792,.F.);
#818 = PLANE('',#819);
#819 = AXIS2_PLACEMENT_3D('',#820,#821,#822);
#820 = CARTESIAN_POINT('',(12.05,15.3,1.6000001));
#821 = DIRECTION('',(-1.110223024625E-16,-1.,3.330669073875E-16));
#822 = DIRECTION('',(0.,3.330669073875E-16,1.));
#823 = ADVANCED_FACE('',(#824,#827),#838,.T.);
#824 = FACE_BOUND('',#825,.T.);
#825 = EDGE_LOOP('',(#826));
#826 = ORIENTED_EDGE('',*,*,#452,.T.);
#827 = FACE_BOUND('',#828,.T.);
#828 = EDGE_LOOP('',(#829));
#829 = ORIENTED_EDGE('',*,*,#830,.F.);
#830 = EDGE_CURVE('',#831,#831,#833,.T.);
#831 = VERTEX_POINT('',#832);
#832 = CARTESIAN_POINT('',(-4.77,6.5,10.1));
#833 = CIRCLE('',#834,2.);
#834 = AXIS2_PLACEMENT_3D('',#835,#836,#837);
#835 = CARTESIAN_POINT('',(-4.77,8.5,10.1));
#836 = DIRECTION('',(-0.,2.22044604925E-16,1.));
#837 = DIRECTION('',(0.,-1.,2.22044604925E-16));
#838 = PLANE('',#839);
#839 = AXIS2_PLACEMENT_3D('',#840,#841,#842);
#840 = CARTESIAN_POINT('',(-4.77,8.5,10.1));
#841 = DIRECTION('',(0.,2.22044604925E-16,1.));
#842 = DIRECTION('',(0.,-1.,2.22044604925E-16));
#843 = ADVANCED_FACE('',(#844,#860,#942),#1016,.T.);
#844 = FACE_BOUND('',#845,.T.);
#845 = EDGE_LOOP('',(#846,#847,#848,#849,#850,#851,#852,#853,#854,#855,
    #856,#857,#858,#859));
#846 = ORIENTED_EDGE('',*,*,#469,.F.);
#847 = ORIENTED_EDGE('',*,*,#500,.F.);
#848 = ORIENTED_EDGE('',*,*,#524,.F.);
#849 = ORIENTED_EDGE('',*,*,#550,.F.);
#850 = ORIENTED_EDGE('',*,*,#576,.F.);
#851 = ORIENTED_EDGE('',*,*,#602,.F.);
#852 = ORIENTED_EDGE('',*,*,#628,.F.);
#853 = ORIENTED_EDGE('',*,*,#654,.F.);
#854 = ORIENTED_EDGE('',*,*,#680,.F.);
#855 = ORIENTED_EDGE('',*,*,#706,.F.);
#856 = ORIENTED_EDGE('',*,*,#732,.F.);
#857 = ORIENTED_EDGE('',*,*,#758,.F.);
#858 = ORIENTED_EDGE('',*,*,#784,.F.);
#859 = ORIENTED_EDGE('',*,*,#810,.F.);
#860 = FACE_BOUND('',#861,.T.);
#861 = EDGE_LOOP('',(#862,#872,#880,#888,#896,#904,#912,#920,#928,#936)
  );
#862 = ORIENTED_EDGE('',*,*,#863,.F.);
#863 = EDGE_CURVE('',#864,#866,#868,.T.);
#864 = VERTEX_POINT('',#865);
#865 = CARTESIAN_POINT('',(12.05,16.709302325581,1.81148265814));
#866 = VERTEX_POINT('',#867);
#867 = CARTESIAN_POINT('',(12.05,16.709302325581,2.2093751));
#868 = LINE('',#869,#870);
#869 = CARTESIAN_POINT('',(12.05,16.709302325581,1.81148265814));
#870 = VECTOR('',#871,1.);
#871 = DIRECTION('',(0.,3.330669073875E-16,1.));
#872 = ORIENTED_EDGE('',*,*,#873,.F.);
#873 = EDGE_CURVE('',#874,#864,#876,.T.);
#874 = VERTEX_POINT('',#875);
#875 = CARTESIAN_POINT('',(12.05,16.160465116279,1.81148265814));
#876 = LINE('',#877,#878);
#877 = CARTESIAN_POINT('',(12.05,16.160465116279,1.81148265814));
#878 = VECTOR('',#879,1.);
#879 = DIRECTION('',(1.110223024625E-16,1.,-3.330669073875E-16));
#880 = ORIENTED_EDGE('',*,*,#881,.F.);
#881 = EDGE_CURVE('',#882,#874,#884,.T.);
#882 = VERTEX_POINT('',#883);
#883 = CARTESIAN_POINT('',(12.05,16.160465116279,2.181032076744));
#884 = LINE('',#885,#886);
#885 = CARTESIAN_POINT('',(12.05,16.160465116279,2.181032076744));
#886 = VECTOR('',#887,1.);
#887 = DIRECTION('',(0.,-3.330669073875E-16,-1.));
#888 = ORIENTED_EDGE('',*,*,#889,.F.);
#889 = EDGE_CURVE('',#890,#882,#892,.T.);
#890 = VERTEX_POINT('',#891);
#891 = CARTESIAN_POINT('',(12.05,16.187136627907,2.414825681395));
#892 = B_SPLINE_CURVE_WITH_KNOTS('',2,(#893,#894,#895),.UNSPECIFIED.,.F.
  ,.F.,(3,3),(0.,1.),.PIECEWISE_BEZIER_KNOTS.);
#893 = CARTESIAN_POINT('',(12.05,16.187136627907,2.414825681395));
#894 = CARTESIAN_POINT('',(12.05,16.160465116279,2.333648355814));
#895 = CARTESIAN_POINT('',(12.05,16.160465116279,2.181032076744));
#896 = ORIENTED_EDGE('',*,*,#897,.F.);
#897 = EDGE_CURVE('',#898,#890,#900,.T.);
#898 = VERTEX_POINT('',#899);
#899 = CARTESIAN_POINT('',(12.05,16.279723837209,2.541860565116));
#900 = B_SPLINE_CURVE_WITH_KNOTS('',2,(#901,#902,#903),.UNSPECIFIED.,.F.
  ,.F.,(3,3),(0.,1.),.PIECEWISE_BEZIER_KNOTS.);
#901 = CARTESIAN_POINT('',(12.05,16.279723837209,2.541860565116));
#902 = CARTESIAN_POINT('',(12.05,16.213808139535,2.496075681395));
#903 = CARTESIAN_POINT('',(12.05,16.187136627907,2.414825681395));
#904 = ORIENTED_EDGE('',*,*,#905,.F.);
#905 = EDGE_CURVE('',#906,#898,#908,.T.);
#906 = VERTEX_POINT('',#907);
#907 = CARTESIAN_POINT('',(12.05,16.43488372093,2.587645448837));
#908 = B_SPLINE_CURVE_WITH_KNOTS('',2,(#909,#910,#911),.UNSPECIFIED.,.F.
  ,.F.,(3,3),(0.,1.),.PIECEWISE_BEZIER_KNOTS.);
#909 = CARTESIAN_POINT('',(12.05,16.43488372093,2.587645448837));
#910 = CARTESIAN_POINT('',(12.05,16.345566860465,2.587645448837));
#911 = CARTESIAN_POINT('',(12.05,16.279723837209,2.541860565116));
#912 = ORIENTED_EDGE('',*,*,#913,.F.);
#913 = EDGE_CURVE('',#914,#906,#916,.T.);
#914 = VERTEX_POINT('',#915);
#915 = CARTESIAN_POINT('',(12.05,16.569404069767,2.556032076744));
#916 = B_SPLINE_CURVE_WITH_KNOTS('',2,(#917,#918,#919),.UNSPECIFIED.,.F.
  ,.F.,(3,3),(0.,1.),.PIECEWISE_BEZIER_KNOTS.);
#917 = CARTESIAN_POINT('',(12.05,16.569404069767,2.556032076744));
#918 = CARTESIAN_POINT('',(12.05,16.511119186047,2.587645448837));
#919 = CARTESIAN_POINT('',(12.05,16.43488372093,2.587645448837));
#920 = ORIENTED_EDGE('',*,*,#921,.F.);
#921 = EDGE_CURVE('',#922,#914,#924,.T.);
#922 = VERTEX_POINT('',#923);
#923 = CARTESIAN_POINT('',(12.05,16.658139534884,2.475363472093));
#924 = B_SPLINE_CURVE_WITH_KNOTS('',2,(#925,#926,#927),.UNSPECIFIED.,.F.
  ,.F.,(3,3),(0.,1.),.PIECEWISE_BEZIER_KNOTS.);
#925 = CARTESIAN_POINT('',(12.05,16.658139534884,2.475363472093));
#926 = CARTESIAN_POINT('',(12.05,16.62761627907,2.524418704651));
#927 = CARTESIAN_POINT('',(12.05,16.569404069767,2.556032076744));
#928 = ORIENTED_EDGE('',*,*,#929,.F.);
#929 = EDGE_CURVE('',#930,#922,#932,.T.);
#930 = VERTEX_POINT('',#931);
#931 = CARTESIAN_POINT('',(12.05,16.701671511628,2.353270448837));
#932 = B_SPLINE_CURVE_WITH_KNOTS('',2,(#933,#934,#935),.UNSPECIFIED.,.F.
  ,.F.,(3,3),(0.,1.),.PIECEWISE_BEZIER_KNOTS.);
#933 = CARTESIAN_POINT('',(12.05,16.701671511628,2.353270448837));
#934 = CARTESIAN_POINT('',(12.05,16.688590116279,2.426308239535));
#935 = CARTESIAN_POINT('',(12.05,16.658139534884,2.475363472093));
#936 = ORIENTED_EDGE('',*,*,#937,.F.);
#937 = EDGE_CURVE('',#866,#930,#938,.T.);
#938 = B_SPLINE_CURVE_WITH_KNOTS('',2,(#939,#940,#941),.UNSPECIFIED.,.F.
  ,.F.,(3,3),(0.,1.),.PIECEWISE_BEZIER_KNOTS.);
#939 = CARTESIAN_POINT('',(12.05,16.709302325581,2.2093751));
#940 = CARTESIAN_POINT('',(12.05,16.709302325581,2.311846030233));
#941 = CARTESIAN_POINT('',(12.05,16.701671511628,2.353270448837));
#942 = FACE_BOUND('',#943,.T.);
#943 = EDGE_LOOP('',(#944,#954,#962,#970,#978,#986,#994,#1002,#1010));
#944 = ORIENTED_EDGE('',*,*,#945,.F.);
#945 = EDGE_CURVE('',#946,#948,#950,.T.);
#946 = VERTEX_POINT('',#947);
#947 = CARTESIAN_POINT('',(12.05,15.96976744186,1.81148265814));
#948 = VERTEX_POINT('',#949);
#949 = CARTESIAN_POINT('',(12.05,15.96976744186,2.157049518605));
#950 = LINE('',#951,#952);
#951 = CARTESIAN_POINT('',(12.05,15.96976744186,1.81148265814));
#952 = VECTOR('',#953,1.);
#953 = DIRECTION('',(0.,3.330669073875E-16,1.));
#954 = ORIENTED_EDGE('',*,*,#955,.F.);
#955 = EDGE_CURVE('',#956,#946,#958,.T.);
#956 = VERTEX_POINT('',#957);
#957 = CARTESIAN_POINT('',(12.05,15.490697674419,1.81148265814));
#958 = LINE('',#959,#960);
#959 = CARTESIAN_POINT('',(12.05,15.490697674419,1.81148265814));
#960 = VECTOR('',#961,1.);
#961 = DIRECTION('',(1.110223024625E-16,1.,-3.330669073875E-16));
#962 = ORIENTED_EDGE('',*,*,#963,.F.);
#963 = EDGE_CURVE('',#964,#956,#966,.T.);
#964 = VERTEX_POINT('',#965);
#965 = CARTESIAN_POINT('',(12.05,15.490697674419,2.130886727907));
#966 = LINE('',#967,#968);
#967 = CARTESIAN_POINT('',(12.05,15.490697674419,2.130886727907));
#968 = VECTOR('',#969,1.);
#969 = DIRECTION('',(0.,-3.330669073875E-16,-1.));
#970 = ORIENTED_EDGE('',*,*,#971,.F.);
#971 = EDGE_CURVE('',#972,#964,#974,.T.);
#972 = VERTEX_POINT('',#973);
#973 = CARTESIAN_POINT('',(12.05,15.512863372093,2.37398265814));
#974 = B_SPLINE_CURVE_WITH_KNOTS('',2,(#975,#976,#977),.UNSPECIFIED.,.F.
  ,.F.,(3,3),(0.,1.),.PIECEWISE_BEZIER_KNOTS.);
#975 = CARTESIAN_POINT('',(12.05,15.512863372093,2.37398265814));
#976 = CARTESIAN_POINT('',(12.05,15.490697674419,2.3031251));
#977 = CARTESIAN_POINT('',(12.05,15.490697674419,2.130886727907));
#978 = ORIENTED_EDGE('',*,*,#979,.F.);
#979 = EDGE_CURVE('',#980,#972,#982,.T.);
#980 = VERTEX_POINT('',#981);
#981 = CARTESIAN_POINT('',(12.05,15.595058139535,2.482994286047));
#982 = B_SPLINE_CURVE_WITH_KNOTS('',2,(#983,#984,#985),.UNSPECIFIED.,.F.
  ,.F.,(3,3),(0.,1.),.PIECEWISE_BEZIER_KNOTS.);
#983 = CARTESIAN_POINT('',(12.05,15.595058139535,2.482994286047));
#984 = CARTESIAN_POINT('',(12.05,15.535029069767,2.444840216279));
#985 = CARTESIAN_POINT('',(12.05,15.512863372093,2.37398265814));
#986 = ORIENTED_EDGE('',*,*,#987,.F.);
#987 = EDGE_CURVE('',#988,#980,#990,.T.);
#988 = VERTEX_POINT('',#989);
#989 = CARTESIAN_POINT('',(12.05,15.734011627907,2.521148355814));
#990 = B_SPLINE_CURVE_WITH_KNOTS('',2,(#991,#992,#993),.UNSPECIFIED.,.F.
  ,.F.,(3,3),(0.,1.),.PIECEWISE_BEZIER_KNOTS.);
#991 = CARTESIAN_POINT('',(12.05,15.734011627907,2.521148355814));
#992 = CARTESIAN_POINT('',(12.05,15.655087209302,2.521148355814));
#993 = CARTESIAN_POINT('',(12.05,15.595058139535,2.482994286047));
#994 = ORIENTED_EDGE('',*,*,#995,.F.);
#995 = EDGE_CURVE('',#996,#988,#998,.T.);
#996 = VERTEX_POINT('',#997);
#997 = CARTESIAN_POINT('',(12.05,15.872456395349,2.48023265814));
#998 = B_SPLINE_CURVE_WITH_KNOTS('',2,(#999,#1000,#1001),.UNSPECIFIED.,
  .F.,.F.,(3,3),(0.,1.),.PIECEWISE_BEZIER_KNOTS.);
#999 = CARTESIAN_POINT('',(12.05,15.872456395349,2.48023265814));
#1000 = CARTESIAN_POINT('',(12.05,15.817296511628,2.521148355814));
#1001 = CARTESIAN_POINT('',(12.05,15.734011627907,2.521148355814));
#1002 = ORIENTED_EDGE('',*,*,#1003,.F.);
#1003 = EDGE_CURVE('',#1004,#996,#1006,.T.);
#1004 = VERTEX_POINT('',#1005);
#1005 = CARTESIAN_POINT('',(12.05,15.951380813953,2.358721030233));
#1006 = B_SPLINE_CURVE_WITH_KNOTS('',2,(#1007,#1008,#1009),
  .UNSPECIFIED.,.F.,.F.,(3,3),(0.,1.),.PIECEWISE_BEZIER_KNOTS.);
#1007 = CARTESIAN_POINT('',(12.05,15.951380813953,2.358721030233));
#1008 = CARTESIAN_POINT('',(12.05,15.92761627907,2.439389634884));
#1009 = CARTESIAN_POINT('',(12.05,15.872456395349,2.48023265814));
#1010 = ORIENTED_EDGE('',*,*,#1011,.F.);
#1011 = EDGE_CURVE('',#948,#1004,#1012,.T.);
#1012 = B_SPLINE_CURVE_WITH_KNOTS('',2,(#1013,#1014,#1015),
  .UNSPECIFIED.,.F.,.F.,(3,3),(0.,1.),.PIECEWISE_BEZIER_KNOTS.);
#1013 = CARTESIAN_POINT('',(12.05,15.96976744186,2.157049518605));
#1014 = CARTESIAN_POINT('',(12.05,15.96976744186,2.297674518605));
#1015 = CARTESIAN_POINT('',(12.05,15.951380813953,2.358721030233));
#1016 = PLANE('',#1017);
#1017 = AXIS2_PLACEMENT_3D('',#1018,#1019,#1020);
#1018 = CARTESIAN_POINT('',(12.05,16.125038212681,2.748378598282));
#1019 = DIRECTION('',(1.,-1.110223024625E-16,3.697785493223E-32));
#1020 = DIRECTION('',(0.,3.330669073875E-16,1.));
#1021 = ADVANCED_FACE('',(#1022),#1041,.F.);
#1022 = FACE_BOUND('',#1023,.F.);
#1023 = EDGE_LOOP('',(#1024,#1025,#1033,#1040));
#1024 = ORIENTED_EDGE('',*,*,#830,.F.);
#1025 = ORIENTED_EDGE('',*,*,#1026,.F.);
#1026 = EDGE_CURVE('',#1027,#831,#1029,.T.);
#1027 = VERTEX_POINT('',#1028);
#1028 = CARTESIAN_POINT('',(-4.77,6.5,3.9));
#1029 = LINE('',#1030,#1031);
#1030 = CARTESIAN_POINT('',(-4.77,6.5,3.9));
#1031 = VECTOR('',#1032,1.);
#1032 = DIRECTION('',(0.,2.22044604925E-16,1.));
#1033 = ORIENTED_EDGE('',*,*,#1034,.T.);
#1034 = EDGE_CURVE('',#1027,#1027,#1035,.T.);
#1035 = CIRCLE('',#1036,2.);
#1036 = AXIS2_PLACEMENT_3D('',#1037,#1038,#1039);
#1037 = CARTESIAN_POINT('',(-4.77,8.5,3.9));
#1038 = DIRECTION('',(-0.,2.22044604925E-16,1.));
#1039 = DIRECTION('',(0.,-1.,2.22044604925E-16));
#1040 = ORIENTED_EDGE('',*,*,#1026,.T.);
#1041 = CYLINDRICAL_SURFACE('',#1042,2.);
#1042 = AXIS2_PLACEMENT_3D('',#1043,#1044,#1045);
#1043 = CARTESIAN_POINT('',(-4.77,8.5,3.9));
#1044 = DIRECTION('',(0.,2.22044604925E-16,1.));
#1045 = DIRECTION('',(0.,-1.,2.22044604925E-16));
#1046 = ADVANCED_FACE('',(#1047),#1072,.F.);
#1047 = FACE_BOUND('',#1048,.F.);
#1048 = EDGE_LOOP('',(#1049,#1050,#1058,#1066));
#1049 = ORIENTED_EDGE('',*,*,#863,.F.);
#1050 = ORIENTED_EDGE('',*,*,#1051,.T.);
#1051 = EDGE_CURVE('',#864,#1052,#1054,.T.);
#1052 = VERTEX_POINT('',#1053);
#1053 = CARTESIAN_POINT('',(12.67,16.709302325581,1.81148265814));
#1054 = LINE('',#1055,#1056);
#1055 = CARTESIAN_POINT('',(12.05,16.709302325581,1.81148265814));
#1056 = VECTOR('',#1057,1.);
#1057 = DIRECTION('',(1.,-1.110223024625E-16,3.697785493223E-32));
#1058 = ORIENTED_EDGE('',*,*,#1059,.F.);
#1059 = EDGE_CURVE('',#1060,#1052,#1062,.T.);
#1060 = VERTEX_POINT('',#1061);
#1061 = CARTESIAN_POINT('',(12.67,16.709302325581,2.2093751));
#1062 = LINE('',#1063,#1064);
#1063 = CARTESIAN_POINT('',(12.67,16.709302325581,-81.59425867093));
#1064 = VECTOR('',#1065,1.);
#1065 = DIRECTION('',(0.,-3.330669073875E-16,-1.));
#1066 = ORIENTED_EDGE('',*,*,#1067,.F.);
#1067 = EDGE_CURVE('',#866,#1060,#1068,.T.);
#1068 = LINE('',#1069,#1070);
#1069 = CARTESIAN_POINT('',(12.05,16.709302325581,2.2093751));
#1070 = VECTOR('',#1071,1.);
#1071 = DIRECTION('',(1.,-1.110223024625E-16,3.697785493223E-32));
#1072 = PLANE('',#1073);
#1073 = AXIS2_PLACEMENT_3D('',#1074,#1075,#1076);
#1074 = CARTESIAN_POINT('',(12.05,16.709302325581,1.81148265814));
#1075 = DIRECTION('',(-1.110223024625E-16,-1.,3.330669073875E-16));
#1076 = DIRECTION('',(0.,3.330669073875E-16,1.));
#1077 = ADVANCED_FACE('',(#1078),#1096,.F.);
#1078 = FACE_BOUND('',#1079,.F.);
#1079 = EDGE_LOOP('',(#1080,#1081,#1089,#1095));
#1080 = ORIENTED_EDGE('',*,*,#873,.F.);
#1081 = ORIENTED_EDGE('',*,*,#1082,.T.);
#1082 = EDGE_CURVE('',#874,#1083,#1085,.T.);
#1083 = VERTEX_POINT('',#1084);
#1084 = CARTESIAN_POINT('',(12.67,16.160465116279,1.81148265814));
#1085 = LINE('',#1086,#1087);
#1086 = CARTESIAN_POINT('',(12.05,16.160465116279,1.81148265814));
#1087 = VECTOR('',#1088,1.);
#1088 = DIRECTION('',(1.,-1.110223024625E-16,3.697785493223E-32));
#1089 = ORIENTED_EDGE('',*,*,#1090,.F.);
#1090 = EDGE_CURVE('',#1052,#1083,#1091,.T.);
#1091 = LINE('',#1092,#1093);
#1092 = CARTESIAN_POINT('',(12.67,17.33023255814,1.81148265814));
#1093 = VECTOR('',#1094,1.);
#1094 = DIRECTION('',(0.,-1.,3.330669073875E-16));
#1095 = ORIENTED_EDGE('',*,*,#1051,.F.);
#1096 = PLANE('',#1097);
#1097 = AXIS2_PLACEMENT_3D('',#1098,#1099,#1100);
#1098 = CARTESIAN_POINT('',(12.05,16.160465116279,1.81148265814));
#1099 = DIRECTION('',(0.,3.330669073875E-16,1.));
#1100 = DIRECTION('',(1.110223024625E-16,1.,-3.330669073875E-16));
#1101 = ADVANCED_FACE('',(#1102),#1120,.F.);
#1102 = FACE_BOUND('',#1103,.F.);
#1103 = EDGE_LOOP('',(#1104,#1105,#1113,#1119));
#1104 = ORIENTED_EDGE('',*,*,#881,.F.);
#1105 = ORIENTED_EDGE('',*,*,#1106,.T.);
#1106 = EDGE_CURVE('',#882,#1107,#1109,.T.);
#1107 = VERTEX_POINT('',#1108);
#1108 = CARTESIAN_POINT('',(12.67,16.160465116279,2.181032076744));
#1109 = LINE('',#1110,#1111);
#1110 = CARTESIAN_POINT('',(12.05,16.160465116279,2.181032076744));
#1111 = VECTOR('',#1112,1.);
#1112 = DIRECTION('',(1.,-1.110223024625E-16,3.697785493223E-32));
#1113 = ORIENTED_EDGE('',*,*,#1114,.F.);
#1114 = EDGE_CURVE('',#1083,#1107,#1115,.T.);
#1115 = LINE('',#1116,#1117);
#1116 = CARTESIAN_POINT('',(12.67,16.160465116279,-81.40948396162));
#1117 = VECTOR('',#1118,1.);
#1118 = DIRECTION('',(0.,3.330669073875E-16,1.));
#1119 = ORIENTED_EDGE('',*,*,#1082,.F.);
#1120 = PLANE('',#1121);
#1121 = AXIS2_PLACEMENT_3D('',#1122,#1123,#1124);
#1122 = CARTESIAN_POINT('',(12.05,16.160465116279,2.181032076744));
#1123 = DIRECTION('',(1.110223024625E-16,1.,-3.330669073875E-16));
#1124 = DIRECTION('',(0.,-3.330669073875E-16,-1.));
#1125 = ADVANCED_FACE('',(#1126),#1147,.F.);
#1126 = FACE_BOUND('',#1127,.F.);
#1127 = EDGE_LOOP('',(#1128,#1129,#1137,#1146));
#1128 = ORIENTED_EDGE('',*,*,#889,.F.);
#1129 = ORIENTED_EDGE('',*,*,#1130,.T.);
#1130 = EDGE_CURVE('',#890,#1131,#1133,.T.);
#1131 = VERTEX_POINT('',#1132);
#1132 = CARTESIAN_POINT('',(12.67,16.187136627907,2.414825681395));
#1133 = LINE('',#1134,#1135);
#1134 = CARTESIAN_POINT('',(12.05,16.187136627907,2.414825681395));
#1135 = VECTOR('',#1136,1.);
#1136 = DIRECTION('',(1.,-1.110223024625E-16,3.697785493223E-32));
#1137 = ORIENTED_EDGE('',*,*,#1138,.F.);
#1138 = EDGE_CURVE('',#1107,#1131,#1139,.T.);
#1139 = B_SPLINE_CURVE_WITH_KNOTS('',5,(#1140,#1141,#1142,#1143,#1144,
    #1145),.UNSPECIFIED.,.F.,.F.,(6,6),(0.,1.),
  .PIECEWISE_BEZIER_KNOTS.);
#1140 = CARTESIAN_POINT('',(12.67,16.160465116279,2.181032076744));
#1141 = CARTESIAN_POINT('',(12.67,16.160465116279,2.241066491271));
#1142 = CARTESIAN_POINT('',(12.67,16.163044576939,2.294781604722));
#1143 = CARTESIAN_POINT('',(12.67,16.168304757641,2.341831874074));
#1144 = CARTESIAN_POINT('',(12.67,16.176323775702,2.381915719779));
#1145 = CARTESIAN_POINT('',(12.67,16.187136627907,2.414825681395));
#1146 = ORIENTED_EDGE('',*,*,#1106,.F.);
#1147 = SURFACE_OF_LINEAR_EXTRUSION('',#1148,#1152);
#1148 = B_SPLINE_CURVE_WITH_KNOTS('',2,(#1149,#1150,#1151),
  .UNSPECIFIED.,.F.,.F.,(3,3),(0.,1.),.PIECEWISE_BEZIER_KNOTS.);
#1149 = CARTESIAN_POINT('',(12.05,16.187136627907,2.414825681395));
#1150 = CARTESIAN_POINT('',(12.05,16.160465116279,2.333648355814));
#1151 = CARTESIAN_POINT('',(12.05,16.160465116279,2.181032076744));
#1152 = VECTOR('',#1153,1.);
#1153 = DIRECTION('',(-1.,1.110223024625E-16,-3.697785493223E-32));
#1154 = ADVANCED_FACE('',(#1155),#1178,.F.);
#1155 = FACE_BOUND('',#1156,.F.);
#1156 = EDGE_LOOP('',(#1157,#1158,#1166,#1177));
#1157 = ORIENTED_EDGE('',*,*,#897,.F.);
#1158 = ORIENTED_EDGE('',*,*,#1159,.T.);
#1159 = EDGE_CURVE('',#898,#1160,#1162,.T.);
#1160 = VERTEX_POINT('',#1161);
#1161 = CARTESIAN_POINT('',(12.67,16.279723837209,2.541860565116));
#1162 = LINE('',#1163,#1164);
#1163 = CARTESIAN_POINT('',(12.05,16.279723837209,2.541860565116));
#1164 = VECTOR('',#1165,1.);
#1165 = DIRECTION('',(1.,-1.110223024625E-16,3.697785493223E-32));
#1166 = ORIENTED_EDGE('',*,*,#1167,.F.);
#1167 = EDGE_CURVE('',#1131,#1160,#1168,.T.);
#1168 = B_SPLINE_CURVE_WITH_KNOTS('',4,(#1169,#1170,#1171,#1172,#1173,
    #1174,#1175,#1176),.UNSPECIFIED.,.F.,.F.,(5,3,5),(0.,0.654128889458,
    1.),.UNSPECIFIED.);
#1169 = CARTESIAN_POINT('',(12.67,16.187136627907,2.414825681395));
#1170 = CARTESIAN_POINT('',(12.67,16.195844621343,2.441353029247));
#1171 = CARTESIAN_POINT('',(12.67,16.207354970534,2.46540130638));
#1172 = CARTESIAN_POINT('',(12.67,16.221680638688,2.486932540387));
#1173 = CARTESIAN_POINT('',(12.67,16.247864610965,2.515977494127));
#1174 = CARTESIAN_POINT('',(12.67,16.257704274415,2.525315400543));
#1175 = CARTESIAN_POINT('',(12.67,16.268325349177,2.533943202977));
#1176 = CARTESIAN_POINT('',(12.67,16.279723837209,2.541860565116));
#1177 = ORIENTED_EDGE('',*,*,#1130,.F.);
#1178 = SURFACE_OF_LINEAR_EXTRUSION('',#1179,#1183);
#1179 = B_SPLINE_CURVE_WITH_KNOTS('',2,(#1180,#1181,#1182),
  .UNSPECIFIED.,.F.,.F.,(3,3),(0.,1.),.PIECEWISE_BEZIER_KNOTS.);
#1180 = CARTESIAN_POINT('',(12.05,16.279723837209,2.541860565116));
#1181 = CARTESIAN_POINT('',(12.05,16.213808139535,2.496075681395));
#1182 = CARTESIAN_POINT('',(12.05,16.187136627907,2.414825681395));
#1183 = VECTOR('',#1184,1.);
#1184 = DIRECTION('',(-1.,1.110223024625E-16,-3.697785493223E-32));
#1185 = ADVANCED_FACE('',(#1186),#1209,.F.);
#1186 = FACE_BOUND('',#1187,.F.);
#1187 = EDGE_LOOP('',(#1188,#1189,#1197,#1208));
#1188 = ORIENTED_EDGE('',*,*,#905,.F.);
#1189 = ORIENTED_EDGE('',*,*,#1190,.T.);
#1190 = EDGE_CURVE('',#906,#1191,#1193,.T.);
#1191 = VERTEX_POINT('',#1192);
#1192 = CARTESIAN_POINT('',(12.67,16.43488372093,2.587645448837));
#1193 = LINE('',#1194,#1195);
#1194 = CARTESIAN_POINT('',(12.05,16.43488372093,2.587645448837));
#1195 = VECTOR('',#1196,1.);
#1196 = DIRECTION('',(1.,-1.110223024625E-16,3.697785493223E-32));
#1197 = ORIENTED_EDGE('',*,*,#1198,.F.);
#1198 = EDGE_CURVE('',#1160,#1191,#1199,.T.);
#1199 = B_SPLINE_CURVE_WITH_KNOTS('',4,(#1200,#1201,#1202,#1203,#1204,
    #1205,#1206,#1207),.UNSPECIFIED.,.F.,.F.,(5,3,5),(0.,0.20783477659,
    1.),.UNSPECIFIED.);
#1200 = CARTESIAN_POINT('',(12.67,16.279723837209,2.541860565116));
#1201 = CARTESIAN_POINT('',(12.67,16.286570491956,2.54662148398));
#1202 = CARTESIAN_POINT('',(12.67,16.293587377611,2.551053070433));
#1203 = CARTESIAN_POINT('',(12.67,16.30077409868,2.555154749354));
#1204 = CARTESIAN_POINT('',(12.67,16.336167637805,2.573301328297));
#1205 = CARTESIAN_POINT('',(12.67,16.366664601822,2.582879525833));
#1206 = CARTESIAN_POINT('',(12.67,16.399590243208,2.587645448837));
#1207 = CARTESIAN_POINT('',(12.67,16.43488372093,2.587645448837));
#1208 = ORIENTED_EDGE('',*,*,#1159,.F.);
#1209 = SURFACE_OF_LINEAR_EXTRUSION('',#1210,#1214);
#1210 = B_SPLINE_CURVE_WITH_KNOTS('',2,(#1211,#1212,#1213),
  .UNSPECIFIED.,.F.,.F.,(3,3),(0.,1.),.PIECEWISE_BEZIER_KNOTS.);
#1211 = CARTESIAN_POINT('',(12.05,16.43488372093,2.587645448837));
#1212 = CARTESIAN_POINT('',(12.05,16.345566860465,2.587645448837));
#1213 = CARTESIAN_POINT('',(12.05,16.279723837209,2.541860565116));
#1214 = VECTOR('',#1215,1.);
#1215 = DIRECTION('',(-1.,1.110223024625E-16,-3.697785493223E-32));
#1216 = ADVANCED_FACE('',(#1217),#1237,.F.);
#1217 = FACE_BOUND('',#1218,.F.);
#1218 = EDGE_LOOP('',(#1219,#1220,#1228,#1236));
#1219 = ORIENTED_EDGE('',*,*,#913,.F.);
#1220 = ORIENTED_EDGE('',*,*,#1221,.T.);
#1221 = EDGE_CURVE('',#914,#1222,#1224,.T.);
#1222 = VERTEX_POINT('',#1223);
#1223 = CARTESIAN_POINT('',(12.67,16.569404069767,2.556032076744));
#1224 = LINE('',#1225,#1226);
#1225 = CARTESIAN_POINT('',(12.05,16.569404069767,2.556032076744));
#1226 = VECTOR('',#1227,1.);
#1227 = DIRECTION('',(1.,-1.110223024625E-16,3.697785493223E-32));
#1228 = ORIENTED_EDGE('',*,*,#1229,.F.);
#1229 = EDGE_CURVE('',#1191,#1222,#1230,.T.);
#1230 = B_SPLINE_CURVE_WITH_KNOTS('',4,(#1231,#1232,#1233,#1234,#1235),
  .UNSPECIFIED.,.F.,.F.,(5,5),(0.,1.),.PIECEWISE_BEZIER_KNOTS.);
#1231 = CARTESIAN_POINT('',(12.67,16.43488372093,2.587645448837));
#1232 = CARTESIAN_POINT('',(12.67,16.472932233996,2.587645448837));
#1233 = CARTESIAN_POINT('',(12.67,16.50806764747,2.582395719904));
#1234 = CARTESIAN_POINT('',(12.67,16.540233741408,2.571853888261));
#1235 = CARTESIAN_POINT('',(12.67,16.569404069767,2.556032076744));
#1236 = ORIENTED_EDGE('',*,*,#1190,.F.);
#1237 = SURFACE_OF_LINEAR_EXTRUSION('',#1238,#1242);
#1238 = B_SPLINE_CURVE_WITH_KNOTS('',2,(#1239,#1240,#1241),
  .UNSPECIFIED.,.F.,.F.,(3,3),(0.,1.),.PIECEWISE_BEZIER_KNOTS.);
#1239 = CARTESIAN_POINT('',(12.05,16.569404069767,2.556032076744));
#1240 = CARTESIAN_POINT('',(12.05,16.511119186047,2.587645448837));
#1241 = CARTESIAN_POINT('',(12.05,16.43488372093,2.587645448837));
#1242 = VECTOR('',#1243,1.);
#1243 = DIRECTION('',(-1.,1.110223024625E-16,-3.697785493223E-32));
#1244 = ADVANCED_FACE('',(#1245),#1265,.F.);
#1245 = FACE_BOUND('',#1246,.F.);
#1246 = EDGE_LOOP('',(#1247,#1248,#1256,#1264));
#1247 = ORIENTED_EDGE('',*,*,#921,.F.);
#1248 = ORIENTED_EDGE('',*,*,#1249,.T.);
#1249 = EDGE_CURVE('',#922,#1250,#1252,.T.);
#1250 = VERTEX_POINT('',#1251);
#1251 = CARTESIAN_POINT('',(12.67,16.658139534884,2.475363472093));
#1252 = LINE('',#1253,#1254);
#1253 = CARTESIAN_POINT('',(12.05,16.658139534884,2.475363472093));
#1254 = VECTOR('',#1255,1.);
#1255 = DIRECTION('',(1.,-1.110223024625E-16,3.697785493223E-32));
#1256 = ORIENTED_EDGE('',*,*,#1257,.F.);
#1257 = EDGE_CURVE('',#1222,#1250,#1258,.T.);
#1258 = B_SPLINE_CURVE_WITH_KNOTS('',4,(#1259,#1260,#1261,#1262,#1263),
  .UNSPECIFIED.,.F.,.F.,(5,5),(0.,1.),.PIECEWISE_BEZIER_KNOTS.);
#1259 = CARTESIAN_POINT('',(12.67,16.569404069767,2.556032076744));
#1260 = CARTESIAN_POINT('',(12.67,16.598469891824,2.540247267013));
#1261 = CARTESIAN_POINT('',(12.67,16.622974038907,2.52154161903));
#1262 = CARTESIAN_POINT('',(12.67,16.642867478604,2.499907848258));
#1263 = CARTESIAN_POINT('',(12.67,16.658139534884,2.475363472093));
#1264 = ORIENTED_EDGE('',*,*,#1221,.F.);
#1265 = SURFACE_OF_LINEAR_EXTRUSION('',#1266,#1270);
#1266 = B_SPLINE_CURVE_WITH_KNOTS('',2,(#1267,#1268,#1269),
  .UNSPECIFIED.,.F.,.F.,(3,3),(0.,1.),.PIECEWISE_BEZIER_KNOTS.);
#1267 = CARTESIAN_POINT('',(12.05,16.658139534884,2.475363472093));
#1268 = CARTESIAN_POINT('',(12.05,16.62761627907,2.524418704651));
#1269 = CARTESIAN_POINT('',(12.05,16.569404069767,2.556032076744));
#1270 = VECTOR('',#1271,1.);
#1271 = DIRECTION('',(-1.,1.110223024625E-16,-3.697785493223E-32));
#1272 = ADVANCED_FACE('',(#1273),#1293,.F.);
#1273 = FACE_BOUND('',#1274,.F.);
#1274 = EDGE_LOOP('',(#1275,#1276,#1284,#1292));
#1275 = ORIENTED_EDGE('',*,*,#929,.F.);
#1276 = ORIENTED_EDGE('',*,*,#1277,.T.);
#1277 = EDGE_CURVE('',#930,#1278,#1280,.T.);
#1278 = VERTEX_POINT('',#1279);
#1279 = CARTESIAN_POINT('',(12.67,16.701671511628,2.353270448837));
#1280 = LINE('',#1281,#1282);
#1281 = CARTESIAN_POINT('',(12.05,16.701671511628,2.353270448837));
#1282 = VECTOR('',#1283,1.);
#1283 = DIRECTION('',(1.,-1.110223024625E-16,3.697785493223E-32));
#1284 = ORIENTED_EDGE('',*,*,#1285,.F.);
#1285 = EDGE_CURVE('',#1250,#1278,#1286,.T.);
#1286 = B_SPLINE_CURVE_WITH_KNOTS('',4,(#1287,#1288,#1289,#1290,#1291),
  .UNSPECIFIED.,.F.,.F.,(5,5),(0.,1.),.PIECEWISE_BEZIER_KNOTS.);
#1287 = CARTESIAN_POINT('',(12.67,16.658139534884,2.475363472093));
#1288 = CARTESIAN_POINT('',(12.67,16.673393028761,2.450790421098));
#1289 = CARTESIAN_POINT('',(12.67,16.685727885548,2.422226382485));
#1290 = CARTESIAN_POINT('',(12.67,16.695146609506,2.389701152352));
#1291 = CARTESIAN_POINT('',(12.67,16.701671511628,2.353270448837));
#1292 = ORIENTED_EDGE('',*,*,#1249,.F.);
#1293 = SURFACE_OF_LINEAR_EXTRUSION('',#1294,#1298);
#1294 = B_SPLINE_CURVE_WITH_KNOTS('',2,(#1295,#1296,#1297),
  .UNSPECIFIED.,.F.,.F.,(3,3),(0.,1.),.PIECEWISE_BEZIER_KNOTS.);
#1295 = CARTESIAN_POINT('',(12.05,16.701671511628,2.353270448837));
#1296 = CARTESIAN_POINT('',(12.05,16.688590116279,2.426308239535));
#1297 = CARTESIAN_POINT('',(12.05,16.658139534884,2.475363472093));
#1298 = VECTOR('',#1299,1.);
#1299 = DIRECTION('',(-1.,1.110223024625E-16,-3.697785493223E-32));
#1300 = ADVANCED_FACE('',(#1301),#1315,.F.);
#1301 = FACE_BOUND('',#1302,.F.);
#1302 = EDGE_LOOP('',(#1303,#1304,#1305,#1314));
#1303 = ORIENTED_EDGE('',*,*,#937,.F.);
#1304 = ORIENTED_EDGE('',*,*,#1067,.T.);
#1305 = ORIENTED_EDGE('',*,*,#1306,.F.);
#1306 = EDGE_CURVE('',#1278,#1060,#1307,.T.);
#1307 = B_SPLINE_CURVE_WITH_KNOTS('',5,(#1308,#1309,#1310,#1311,#1312,
    #1313),.UNSPECIFIED.,.F.,.F.,(6,6),(0.,1.),
  .PIECEWISE_BEZIER_KNOTS.);
#1308 = CARTESIAN_POINT('',(12.67,16.701671511628,2.353270448837));
#1309 = CARTESIAN_POINT('',(12.67,16.704746335433,2.336578548182));
#1310 = CARTESIAN_POINT('',(12.67,16.707039208874,2.313732807603));
#1311 = CARTESIAN_POINT('',(12.67,16.708553893588,2.284815344837));
#1312 = CARTESIAN_POINT('',(12.67,16.709302325581,2.249968113251));
#1313 = CARTESIAN_POINT('',(12.67,16.709302325581,2.2093751));
#1314 = ORIENTED_EDGE('',*,*,#1277,.F.);
#1315 = SURFACE_OF_LINEAR_EXTRUSION('',#1316,#1320);
#1316 = B_SPLINE_CURVE_WITH_KNOTS('',2,(#1317,#1318,#1319),
  .UNSPECIFIED.,.F.,.F.,(3,3),(0.,1.),.PIECEWISE_BEZIER_KNOTS.);
#1317 = CARTESIAN_POINT('',(12.05,16.709302325581,2.2093751));
#1318 = CARTESIAN_POINT('',(12.05,16.709302325581,2.311846030233));
#1319 = CARTESIAN_POINT('',(12.05,16.701671511628,2.353270448837));
#1320 = VECTOR('',#1321,1.);
#1321 = DIRECTION('',(-1.,1.110223024625E-16,-3.697785493223E-32));
#1322 = ADVANCED_FACE('',(#1323),#1348,.F.);
#1323 = FACE_BOUND('',#1324,.F.);
#1324 = EDGE_LOOP('',(#1325,#1326,#1334,#1342));
#1325 = ORIENTED_EDGE('',*,*,#945,.F.);
#1326 = ORIENTED_EDGE('',*,*,#1327,.T.);
#1327 = EDGE_CURVE('',#946,#1328,#1330,.T.);
#1328 = VERTEX_POINT('',#1329);
#1329 = CARTESIAN_POINT('',(12.67,15.96976744186,1.81148265814));
#1330 = LINE('',#1331,#1332);
#1331 = CARTESIAN_POINT('',(12.05,15.96976744186,1.81148265814));
#1332 = VECTOR('',#1333,1.);
#1333 = DIRECTION('',(1.,-1.110223024625E-16,3.697785493223E-32));
#1334 = ORIENTED_EDGE('',*,*,#1335,.F.);
#1335 = EDGE_CURVE('',#1336,#1328,#1338,.T.);
#1336 = VERTEX_POINT('',#1337);
#1337 = CARTESIAN_POINT('',(12.67,15.96976744186,2.157049518605));
#1338 = LINE('',#1339,#1340);
#1339 = CARTESIAN_POINT('',(12.67,15.96976744186,-81.59425867093));
#1340 = VECTOR('',#1341,1.);
#1341 = DIRECTION('',(0.,-3.330669073875E-16,-1.));
#1342 = ORIENTED_EDGE('',*,*,#1343,.F.);
#1343 = EDGE_CURVE('',#948,#1336,#1344,.T.);
#1344 = LINE('',#1345,#1346);
#1345 = CARTESIAN_POINT('',(12.05,15.96976744186,2.157049518605));
#1346 = VECTOR('',#1347,1.);
#1347 = DIRECTION('',(1.,-1.110223024625E-16,3.697785493223E-32));
#1348 = PLANE('',#1349);
#1349 = AXIS2_PLACEMENT_3D('',#1350,#1351,#1352);
#1350 = CARTESIAN_POINT('',(12.05,15.96976744186,1.81148265814));
#1351 = DIRECTION('',(-1.110223024625E-16,-1.,3.330669073875E-16));
#1352 = DIRECTION('',(0.,3.330669073875E-16,1.));
#1353 = ADVANCED_FACE('',(#1354),#1372,.F.);
#1354 = FACE_BOUND('',#1355,.F.);
#1355 = EDGE_LOOP('',(#1356,#1357,#1365,#1371));
#1356 = ORIENTED_EDGE('',*,*,#955,.F.);
#1357 = ORIENTED_EDGE('',*,*,#1358,.T.);
#1358 = EDGE_CURVE('',#956,#1359,#1361,.T.);
#1359 = VERTEX_POINT('',#1360);
#1360 = CARTESIAN_POINT('',(12.67,15.490697674419,1.81148265814));
#1361 = LINE('',#1362,#1363);
#1362 = CARTESIAN_POINT('',(12.05,15.490697674419,1.81148265814));
#1363 = VECTOR('',#1364,1.);
#1364 = DIRECTION('',(1.,-1.110223024625E-16,3.697785493223E-32));
#1365 = ORIENTED_EDGE('',*,*,#1366,.F.);
#1366 = EDGE_CURVE('',#1328,#1359,#1367,.T.);
#1367 = LINE('',#1368,#1369);
#1368 = CARTESIAN_POINT('',(12.67,16.995348837209,1.81148265814));
#1369 = VECTOR('',#1370,1.);
#1370 = DIRECTION('',(0.,-1.,3.330669073875E-16));
#1371 = ORIENTED_EDGE('',*,*,#1327,.F.);
#1372 = PLANE('',#1373);
#1373 = AXIS2_PLACEMENT_3D('',#1374,#1375,#1376);
#1374 = CARTESIAN_POINT('',(12.05,15.490697674419,1.81148265814));
#1375 = DIRECTION('',(0.,3.330669073875E-16,1.));
#1376 = DIRECTION('',(1.110223024625E-16,1.,-3.330669073875E-16));
#1377 = ADVANCED_FACE('',(#1378),#1396,.F.);
#1378 = FACE_BOUND('',#1379,.F.);
#1379 = EDGE_LOOP('',(#1380,#1381,#1389,#1395));
#1380 = ORIENTED_EDGE('',*,*,#963,.F.);
#1381 = ORIENTED_EDGE('',*,*,#1382,.T.);
#1382 = EDGE_CURVE('',#964,#1383,#1385,.T.);
#1383 = VERTEX_POINT('',#1384);
#1384 = CARTESIAN_POINT('',(12.67,15.490697674419,2.130886727907));
#1385 = LINE('',#1386,#1387);
#1386 = CARTESIAN_POINT('',(12.05,15.490697674419,2.130886727907));
#1387 = VECTOR('',#1388,1.);
#1388 = DIRECTION('',(1.,-1.110223024625E-16,3.697785493223E-32));
#1389 = ORIENTED_EDGE('',*,*,#1390,.F.);
#1390 = EDGE_CURVE('',#1359,#1383,#1391,.T.);
#1391 = LINE('',#1392,#1393);
#1392 = CARTESIAN_POINT('',(12.67,15.490697674419,-81.43455663604));
#1393 = VECTOR('',#1394,1.);
#1394 = DIRECTION('',(0.,3.330669073875E-16,1.));
#1395 = ORIENTED_EDGE('',*,*,#1358,.F.);
#1396 = PLANE('',#1397);
#1397 = AXIS2_PLACEMENT_3D('',#1398,#1399,#1400);
#1398 = CARTESIAN_POINT('',(12.05,15.490697674419,2.130886727907));
#1399 = DIRECTION('',(1.110223024625E-16,1.,-3.330669073875E-16));
#1400 = DIRECTION('',(0.,-3.330669073875E-16,-1.));
#1401 = ADVANCED_FACE('',(#1402),#1423,.F.);
#1402 = FACE_BOUND('',#1403,.F.);
#1403 = EDGE_LOOP('',(#1404,#1405,#1413,#1422));
#1404 = ORIENTED_EDGE('',*,*,#971,.F.);
#1405 = ORIENTED_EDGE('',*,*,#1406,.T.);
#1406 = EDGE_CURVE('',#972,#1407,#1409,.T.);
#1407 = VERTEX_POINT('',#1408);
#1408 = CARTESIAN_POINT('',(12.67,15.512863372093,2.37398265814));
#1409 = LINE('',#1410,#1411);
#1410 = CARTESIAN_POINT('',(12.05,15.512863372093,2.37398265814));
#1411 = VECTOR('',#1412,1.);
#1412 = DIRECTION('',(1.,-1.110223024625E-16,3.697785493223E-32));
#1413 = ORIENTED_EDGE('',*,*,#1414,.F.);
#1414 = EDGE_CURVE('',#1383,#1407,#1415,.T.);
#1415 = B_SPLINE_CURVE_WITH_KNOTS('',5,(#1416,#1417,#1418,#1419,#1420,
    #1421),.UNSPECIFIED.,.F.,.F.,(6,6),(0.,1.),
  .PIECEWISE_BEZIER_KNOTS.);
#1416 = CARTESIAN_POINT('',(12.67,15.490697674419,2.130886727907));
#1417 = CARTESIAN_POINT('',(12.67,15.490697674419,2.198044955588));
#1418 = CARTESIAN_POINT('',(12.67,15.492803927962,2.256594794959));
#1419 = CARTESIAN_POINT('',(12.67,15.497144705345,2.305820419276));
#1420 = CARTESIAN_POINT('',(12.67,15.503821279035,2.34507760656));
#1421 = CARTESIAN_POINT('',(12.67,15.512863372093,2.37398265814));
#1422 = ORIENTED_EDGE('',*,*,#1382,.F.);
#1423 = SURFACE_OF_LINEAR_EXTRUSION('',#1424,#1428);
#1424 = B_SPLINE_CURVE_WITH_KNOTS('',2,(#1425,#1426,#1427),
  .UNSPECIFIED.,.F.,.F.,(3,3),(0.,1.),.PIECEWISE_BEZIER_KNOTS.);
#1425 = CARTESIAN_POINT('',(12.05,15.512863372093,2.37398265814));
#1426 = CARTESIAN_POINT('',(12.05,15.490697674419,2.3031251));
#1427 = CARTESIAN_POINT('',(12.05,15.490697674419,2.130886727907));
#1428 = VECTOR('',#1429,1.);
#1429 = DIRECTION('',(-1.,1.110223024625E-16,-3.697785493223E-32));
#1430 = ADVANCED_FACE('',(#1431),#1454,.F.);
#1431 = FACE_BOUND('',#1432,.F.);
#1432 = EDGE_LOOP('',(#1433,#1434,#1442,#1453));
#1433 = ORIENTED_EDGE('',*,*,#979,.F.);
#1434 = ORIENTED_EDGE('',*,*,#1435,.T.);
#1435 = EDGE_CURVE('',#980,#1436,#1438,.T.);
#1436 = VERTEX_POINT('',#1437);
#1437 = CARTESIAN_POINT('',(12.67,15.595058139535,2.482994286047));
#1438 = LINE('',#1439,#1440);
#1439 = CARTESIAN_POINT('',(12.05,15.595058139535,2.482994286047));
#1440 = VECTOR('',#1441,1.);
#1441 = DIRECTION('',(1.,-1.110223024625E-16,3.697785493223E-32));
#1442 = ORIENTED_EDGE('',*,*,#1443,.F.);
#1443 = EDGE_CURVE('',#1407,#1436,#1444,.T.);
#1444 = B_SPLINE_CURVE_WITH_KNOTS('',4,(#1445,#1446,#1447,#1448,#1449,
    #1450,#1451,#1452),.UNSPECIFIED.,.F.,.F.,(5,3,5),(0.,0.589072233638,
    1.),.UNSPECIFIED.);
#1445 = CARTESIAN_POINT('',(12.67,15.512863372093,2.37398265814));
#1446 = CARTESIAN_POINT('',(12.67,15.519383741482,2.394826461923));
#1447 = CARTESIAN_POINT('',(12.67,15.528095790259,2.413807311344));
#1448 = CARTESIAN_POINT('',(12.67,15.539007071815,2.430903852473));
#1449 = CARTESIAN_POINT('',(12.67,15.561250678456,2.456713051069));
#1450 = CARTESIAN_POINT('',(12.67,15.571457784414,2.466397567428));
#1451 = CARTESIAN_POINT('',(12.67,15.58272894865,2.475157935908));
#1452 = CARTESIAN_POINT('',(12.67,15.595058139535,2.482994286047));
#1453 = ORIENTED_EDGE('',*,*,#1406,.F.);
#1454 = SURFACE_OF_LINEAR_EXTRUSION('',#1455,#1459);
#1455 = B_SPLINE_CURVE_WITH_KNOTS('',2,(#1456,#1457,#1458),
  .UNSPECIFIED.,.F.,.F.,(3,3),(0.,1.),.PIECEWISE_BEZIER_KNOTS.);
#1456 = CARTESIAN_POINT('',(12.05,15.595058139535,2.482994286047));
#1457 = CARTESIAN_POINT('',(12.05,15.535029069767,2.444840216279));
#1458 = CARTESIAN_POINT('',(12.05,15.512863372093,2.37398265814));
#1459 = VECTOR('',#1460,1.);
#1460 = DIRECTION('',(-1.,1.110223024625E-16,-3.697785493223E-32));
#1461 = ADVANCED_FACE('',(#1462),#1482,.F.);
#1462 = FACE_BOUND('',#1463,.F.);
#1463 = EDGE_LOOP('',(#1464,#1465,#1473,#1481));
#1464 = ORIENTED_EDGE('',*,*,#987,.F.);
#1465 = ORIENTED_EDGE('',*,*,#1466,.T.);
#1466 = EDGE_CURVE('',#988,#1467,#1469,.T.);
#1467 = VERTEX_POINT('',#1468);
#1468 = CARTESIAN_POINT('',(12.67,15.734011627907,2.521148355814));
#1469 = LINE('',#1470,#1471);
#1470 = CARTESIAN_POINT('',(12.05,15.734011627907,2.521148355814));
#1471 = VECTOR('',#1472,1.);
#1472 = DIRECTION('',(1.,-1.110223024625E-16,3.697785493223E-32));
#1473 = ORIENTED_EDGE('',*,*,#1474,.F.);
#1474 = EDGE_CURVE('',#1436,#1467,#1475,.T.);
#1475 = B_SPLINE_CURVE_WITH_KNOTS('',4,(#1476,#1477,#1478,#1479,#1480),
  .UNSPECIFIED.,.F.,.F.,(5,5),(0.,1.),.PIECEWISE_BEZIER_KNOTS.);
#1476 = CARTESIAN_POINT('',(12.67,15.595058139535,2.482994286047));
#1477 = CARTESIAN_POINT('',(12.67,15.625089288294,2.502081880597));
#1478 = CARTESIAN_POINT('',(12.67,15.65828588261,2.514811433729));
#1479 = CARTESIAN_POINT('',(12.67,15.694617814222,2.521148355814));
#1480 = CARTESIAN_POINT('',(12.67,15.734011627907,2.521148355814));
#1481 = ORIENTED_EDGE('',*,*,#1435,.F.);
#1482 = SURFACE_OF_LINEAR_EXTRUSION('',#1483,#1487);
#1483 = B_SPLINE_CURVE_WITH_KNOTS('',2,(#1484,#1485,#1486),
  .UNSPECIFIED.,.F.,.F.,(3,3),(0.,1.),.PIECEWISE_BEZIER_KNOTS.);
#1484 = CARTESIAN_POINT('',(12.05,15.734011627907,2.521148355814));
#1485 = CARTESIAN_POINT('',(12.05,15.655087209302,2.521148355814));
#1486 = CARTESIAN_POINT('',(12.05,15.595058139535,2.482994286047));
#1487 = VECTOR('',#1488,1.);
#1488 = DIRECTION('',(-1.,1.110223024625E-16,-3.697785493223E-32));
#1489 = ADVANCED_FACE('',(#1490),#1510,.F.);
#1490 = FACE_BOUND('',#1491,.F.);
#1491 = EDGE_LOOP('',(#1492,#1493,#1501,#1509));
#1492 = ORIENTED_EDGE('',*,*,#995,.F.);
#1493 = ORIENTED_EDGE('',*,*,#1494,.T.);
#1494 = EDGE_CURVE('',#996,#1495,#1497,.T.);
#1495 = VERTEX_POINT('',#1496);
#1496 = CARTESIAN_POINT('',(12.67,15.872456395349,2.48023265814));
#1497 = LINE('',#1498,#1499);
#1498 = CARTESIAN_POINT('',(12.05,15.872456395349,2.48023265814));
#1499 = VECTOR('',#1500,1.);
#1500 = DIRECTION('',(1.,-1.110223024625E-16,3.697785493223E-32));
#1501 = ORIENTED_EDGE('',*,*,#1502,.F.);
#1502 = EDGE_CURVE('',#1467,#1495,#1503,.T.);
#1503 = B_SPLINE_CURVE_WITH_KNOTS('',4,(#1504,#1505,#1506,#1507,#1508),
  .UNSPECIFIED.,.F.,.F.,(5,5),(0.,1.),.PIECEWISE_BEZIER_KNOTS.);
#1504 = CARTESIAN_POINT('',(12.67,15.734011627907,2.521148355814));
#1505 = CARTESIAN_POINT('',(12.67,15.77553058351,2.521148355814));
#1506 = CARTESIAN_POINT('',(12.67,15.812515931607,2.51436963594));
#1507 = CARTESIAN_POINT('',(12.67,15.844838682077,2.500718524506));
#1508 = CARTESIAN_POINT('',(12.67,15.872456395349,2.48023265814));
#1509 = ORIENTED_EDGE('',*,*,#1466,.F.);
#1510 = SURFACE_OF_LINEAR_EXTRUSION('',#1511,#1515);
#1511 = B_SPLINE_CURVE_WITH_KNOTS('',2,(#1512,#1513,#1514),
  .UNSPECIFIED.,.F.,.F.,(3,3),(0.,1.),.PIECEWISE_BEZIER_KNOTS.);
#1512 = CARTESIAN_POINT('',(12.05,15.872456395349,2.48023265814));
#1513 = CARTESIAN_POINT('',(12.05,15.817296511628,2.521148355814));
#1514 = CARTESIAN_POINT('',(12.05,15.734011627907,2.521148355814));
#1515 = VECTOR('',#1516,1.);
#1516 = DIRECTION('',(-1.,1.110223024625E-16,-3.697785493223E-32));
#1517 = ADVANCED_FACE('',(#1518),#1538,.F.);
#1518 = FACE_BOUND('',#1519,.F.);
#1519 = EDGE_LOOP('',(#1520,#1521,#1529,#1537));
#1520 = ORIENTED_EDGE('',*,*,#1003,.F.);
#1521 = ORIENTED_EDGE('',*,*,#1522,.T.);
#1522 = EDGE_CURVE('',#1004,#1523,#1525,.T.);
#1523 = VERTEX_POINT('',#1524);
#1524 = CARTESIAN_POINT('',(12.67,15.951380813953,2.358721030233));
#1525 = LINE('',#1526,#1527);
#1526 = CARTESIAN_POINT('',(12.05,15.951380813953,2.358721030233));
#1527 = VECTOR('',#1528,1.);
#1528 = DIRECTION('',(1.,-1.110223024625E-16,3.697785493223E-32));
#1529 = ORIENTED_EDGE('',*,*,#1530,.F.);
#1530 = EDGE_CURVE('',#1495,#1523,#1531,.T.);
#1531 = B_SPLINE_CURVE_WITH_KNOTS('',4,(#1532,#1533,#1534,#1535,#1536),
  .UNSPECIFIED.,.F.,.F.,(5,5),(0.,1.),.PIECEWISE_BEZIER_KNOTS.);
#1532 = CARTESIAN_POINT('',(12.67,15.872456395349,2.48023265814));
#1533 = CARTESIAN_POINT('',(12.67,15.900076976462,2.45978105526));
#1534 = CARTESIAN_POINT('',(12.67,15.922453367942,2.432669176911));
#1535 = CARTESIAN_POINT('',(12.67,15.939535820952,2.39892880464));
#1536 = CARTESIAN_POINT('',(12.67,15.951380813953,2.358721030233));
#1537 = ORIENTED_EDGE('',*,*,#1494,.F.);
#1538 = SURFACE_OF_LINEAR_EXTRUSION('',#1539,#1543);
#1539 = B_SPLINE_CURVE_WITH_KNOTS('',2,(#1540,#1541,#1542),
  .UNSPECIFIED.,.F.,.F.,(3,3),(0.,1.),.PIECEWISE_BEZIER_KNOTS.);
#1540 = CARTESIAN_POINT('',(12.05,15.951380813953,2.358721030233));
#1541 = CARTESIAN_POINT('',(12.05,15.92761627907,2.439389634884));
#1542 = CARTESIAN_POINT('',(12.05,15.872456395349,2.48023265814));
#1543 = VECTOR('',#1544,1.);
#1544 = DIRECTION('',(-1.,1.110223024625E-16,-3.697785493223E-32));
#1545 = ADVANCED_FACE('',(#1546),#1560,.F.);
#1546 = FACE_BOUND('',#1547,.F.);
#1547 = EDGE_LOOP('',(#1548,#1549,#1550,#1559));
#1548 = ORIENTED_EDGE('',*,*,#1011,.F.);
#1549 = ORIENTED_EDGE('',*,*,#1343,.T.);
#1550 = ORIENTED_EDGE('',*,*,#1551,.F.);
#1551 = EDGE_CURVE('',#1523,#1336,#1552,.T.);
#1552 = B_SPLINE_CURVE_WITH_KNOTS('',5,(#1553,#1554,#1555,#1556,#1557,
    #1558),.UNSPECIFIED.,.F.,.F.,(6,6),(0.,1.),
  .PIECEWISE_BEZIER_KNOTS.);
#1553 = CARTESIAN_POINT('',(12.67,15.951380813953,2.358721030233));
#1554 = CARTESIAN_POINT('',(12.67,15.958832126135,2.333981495716));
#1555 = CARTESIAN_POINT('',(12.67,15.964362659767,2.301184609002));
#1556 = CARTESIAN_POINT('',(12.67,15.967990039378,2.260531554367));
#1557 = CARTESIAN_POINT('',(12.67,15.96976744186,2.212354351213));
#1558 = CARTESIAN_POINT('',(12.67,15.96976744186,2.157049518605));
#1559 = ORIENTED_EDGE('',*,*,#1522,.F.);
#1560 = SURFACE_OF_LINEAR_EXTRUSION('',#1561,#1565);
#1561 = B_SPLINE_CURVE_WITH_KNOTS('',2,(#1562,#1563,#1564),
  .UNSPECIFIED.,.F.,.F.,(3,3),(0.,1.),.PIECEWISE_BEZIER_KNOTS.);
#1562 = CARTESIAN_POINT('',(12.05,15.96976744186,2.157049518605));
#1563 = CARTESIAN_POINT('',(12.05,15.96976744186,2.297674518605));
#1564 = CARTESIAN_POINT('',(12.05,15.951380813953,2.358721030233));
#1565 = VECTOR('',#1566,1.);
#1566 = DIRECTION('',(-1.,1.110223024625E-16,-3.697785493223E-32));
#1567 = ADVANCED_FACE('',(#1568),#1571,.T.);
#1568 = FACE_BOUND('',#1569,.F.);
#1569 = EDGE_LOOP('',(#1570));
#1570 = ORIENTED_EDGE('',*,*,#1034,.F.);
#1571 = PLANE('',#1572);
#1572 = AXIS2_PLACEMENT_3D('',#1573,#1574,#1575);
#1573 = CARTESIAN_POINT('',(-4.77,8.5,3.9));
#1574 = DIRECTION('',(0.,2.22044604925E-16,1.));
#1575 = DIRECTION('',(0.,-1.,2.22044604925E-16));
#1576 = ADVANCED_FACE('',(#1577),#1589,.T.);
#1577 = FACE_BOUND('',#1578,.T.);
#1578 = EDGE_LOOP('',(#1579,#1580,#1581,#1582,#1583,#1584,#1585,#1586,
    #1587,#1588));
#1579 = ORIENTED_EDGE('',*,*,#1059,.F.);
#1580 = ORIENTED_EDGE('',*,*,#1306,.F.);
#1581 = ORIENTED_EDGE('',*,*,#1285,.F.);
#1582 = ORIENTED_EDGE('',*,*,#1257,.F.);
#1583 = ORIENTED_EDGE('',*,*,#1229,.F.);
#1584 = ORIENTED_EDGE('',*,*,#1198,.F.);
#1585 = ORIENTED_EDGE('',*,*,#1167,.F.);
#1586 = ORIENTED_EDGE('',*,*,#1138,.F.);
#1587 = ORIENTED_EDGE('',*,*,#1114,.F.);
#1588 = ORIENTED_EDGE('',*,*,#1090,.F.);
#1589 = PLANE('',#1590);
#1590 = AXIS2_PLACEMENT_3D('',#1591,#1592,#1593);
#1591 = CARTESIAN_POINT('',(12.67,18.5,-165.));
#1592 = DIRECTION('',(1.,0.,0.));
#1593 = DIRECTION('',(0.,-1.,2.22044604925E-16));
#1594 = ADVANCED_FACE('',(#1595),#1606,.T.);
#1595 = FACE_BOUND('',#1596,.T.);
#1596 = EDGE_LOOP('',(#1597,#1598,#1599,#1600,#1601,#1602,#1603,#1604,
    #1605));
#1597 = ORIENTED_EDGE('',*,*,#1335,.F.);
#1598 = ORIENTED_EDGE('',*,*,#1551,.F.);
#1599 = ORIENTED_EDGE('',*,*,#1530,.F.);
#1600 = ORIENTED_EDGE('',*,*,#1502,.F.);
#1601 = ORIENTED_EDGE('',*,*,#1474,.F.);
#1602 = ORIENTED_EDGE('',*,*,#1443,.F.);
#1603 = ORIENTED_EDGE('',*,*,#1414,.F.);
#1604 = ORIENTED_EDGE('',*,*,#1390,.F.);
#1605 = ORIENTED_EDGE('',*,*,#1366,.F.);
#1606 = PLANE('',#1607);
#1607 = AXIS2_PLACEMENT_3D('',#1608,#1609,#1610);
#1608 = CARTESIAN_POINT('',(12.67,18.5,-165.));
#1609 = DIRECTION('',(1.,0.,0.));
#1610 = DIRECTION('',(0.,-1.,2.22044604925E-16));
#1611 = ( GEOMETRIC_REPRESENTATION_CONTEXT(3) 
GLOBAL_UNCERTAINTY_ASSIGNED_CONTEXT((#1615)) 
GLOBAL_UNIT_ASSIGNED_CONTEXT((#1612,#1613,#1614)) REPRESENTATION_CONTEXT
('Context #1','3D Context with UNIT and UNCERTAINTY') );
#1612 = ( LENGTH_UNIT() NAMED_UNIT(*) SI_UNIT(.MILLI.,.METRE.) );
#1613 = ( NAMED_UNIT(*) PLANE_ANGLE_UNIT() SI_UNIT($,.RADIAN.) );
#1614 = ( NAMED_UNIT(*) SI_UNIT($,.STERADIAN.) SOLID_ANGLE_UNIT() );
#1615 = UNCERTAINTY_MEASURE_WITH_UNIT(LENGTH_MEASURE(2.E-06),#1612,
  'distance_accuracy_value','confusion accuracy');
#1616 = PRODUCT_RELATED_PRODUCT_CATEGORY('part',$,(#7));
ENDSEC;
END-ISO-10303-21;
