ISO-10303-21;
HEADER;
FILE_DESCRIPTION(('FreeCAD Model'),'2;1');
FILE_NAME('Open CASCADE Shape Model','2026-09-24T17:19:19',('FreeCAD'),(
    'FreeCAD'),'Open CASCADE STEP processor 7.8','FreeCAD','Unknown');
FILE_SCHEMA(('AUTOMOTIVE_DESIGN { 1 0 10303 214 1 1 1 1 }'));
ENDSEC;
DATA;
#1 = APPLICATION_PROTOCOL_DEFINITION('international standard',
  'automotive_design',2000,#2);
#2 = APPLICATION_CONTEXT(
  'core data for automotive mechanical design processes');
#3 = SHAPE_DEFINITION_REPRESENTATION(#4,#10);
#4 = PRODUCT_DEFINITION_SHAPE('','',#5);
#5 = PRODUCT_DEFINITION('design','',#6,#9);
#6 = PRODUCT_DEFINITION_FORMATION('','',#7);
#7 = PRODUCT('Open CASCADE STEP translator 7.8 7',
  'Open CASCADE STEP translator 7.8 7','',(#8));
#8 = PRODUCT_CONTEXT('',#2,'mechanical');
#9 = PRODUCT_DEFINITION_CONTEXT('part definition',#2,'design');
#10 = ADVANCED_BREP_SHAPE_REPRESENTATION('',(#11,#15),#1433);
#11 = AXIS2_PLACEMENT_3D('',#12,#13,#14);
#12 = CARTESIAN_POINT('',(0.,0.,0.));
#13 = DIRECTION('',(0.,0.,1.));
#14 = DIRECTION('',(1.,0.,-0.));
#15 = MANIFOLD_SOLID_BREP('',#16);
#16 = CLOSED_SHELL('',(#17,#57,#279,#303,#590,#607,#624,#641,#658,#675,
    #692,#709,#798,#815,#832,#849,#866,#883,#895,#912,#929,#946,#963,
    #980,#997,#1014,#1031,#1057,#1152,#1183,#1253,#1272,#1291,#1310,
    #1329,#1348,#1362,#1381,#1400,#1419));
#17 = ADVANCED_FACE('',(#18),#52,.F.);
#18 = FACE_BOUND('',#19,.F.);
#19 = EDGE_LOOP('',(#20,#30,#38,#46));
#20 = ORIENTED_EDGE('',*,*,#21,.F.);
#21 = EDGE_CURVE('',#22,#24,#26,.T.);
#22 = VERTEX_POINT('',#23);
#23 = CARTESIAN_POINT('',(-12.35,12.35,7.105427357601E-15));
#24 = VERTEX_POINT('',#25);
#25 = CARTESIAN_POINT('',(-12.35,-12.35,1.24344978758E-14));
#26 = LINE('',#27,#28);
#27 = CARTESIAN_POINT('',(-12.35,12.35,7.105427357601E-15));
#28 = VECTOR('',#29,1.);
#29 = DIRECTION('',(0.,-1.,2.22044604925E-16));
#30 = ORIENTED_EDGE('',*,*,#31,.T.);
#31 = EDGE_CURVE('',#22,#32,#34,.T.);
#32 = VERTEX_POINT('',#33);
#33 = CARTESIAN_POINT('',(-12.35,12.35,2.));
#34 = LINE('',#35,#36);
#35 = CARTESIAN_POINT('',(-12.35,12.35,7.105427357601E-15));
#36 = VECTOR('',#37,1.);
#37 = DIRECTION('',(0.,2.22044604925E-16,1.));
#38 = ORIENTED_EDGE('',*,*,#39,.T.);
#39 = EDGE_CURVE('',#32,#40,#42,.T.);
#40 = VERTEX_POINT('',#41);
#41 = CARTESIAN_POINT('',(-12.35,-12.35,2.));
#42 = LINE('',#43,#44);
#43 = CARTESIAN_POINT('',(-12.35,12.35,2.));
#44 = VECTOR('',#45,1.);
#45 = DIRECTION('',(0.,-1.,2.22044604925E-16));
#46 = ORIENTED_EDGE('',*,*,#47,.T.);
#47 = EDGE_CURVE('',#40,#24,#48,.T.);
#48 = LINE('',#49,#50);
#49 = CARTESIAN_POINT('',(-12.35,-12.35,-101.3));
#50 = VECTOR('',#51,1.);
#51 = DIRECTION('',(0.,-2.22044604925E-16,-1.));
#52 = PLANE('',#53);
#53 = AXIS2_PLACEMENT_3D('',#54,#55,#56);
#54 = CARTESIAN_POINT('',(-12.35,12.35,7.105427357601E-15));
#55 = DIRECTION('',(1.,0.,0.));
#56 = DIRECTION('',(0.,-1.,2.22044604925E-16));
#57 = ADVANCED_FACE('',(#58,#186,#197,#208,#219,#230,#241,#252,#263),
  #274,.F.);
#58 = FACE_BOUND('',#59,.F.);
#59 = EDGE_LOOP('',(#60,#68,#69,#77,#86,#94,#103,#111,#120,#128,#136,
    #145,#154,#162,#171,#180));
#60 = ORIENTED_EDGE('',*,*,#61,.F.);
#61 = EDGE_CURVE('',#22,#62,#64,.T.);
#62 = VERTEX_POINT('',#63);
#63 = CARTESIAN_POINT('',(12.35,12.35,7.105427357601E-15));
#64 = LINE('',#65,#66);
#65 = CARTESIAN_POINT('',(-12.35,12.35,7.105427357601E-15));
#66 = VECTOR('',#67,1.);
#67 = DIRECTION('',(1.,0.,0.));
#68 = ORIENTED_EDGE('',*,*,#21,.T.);
#69 = ORIENTED_EDGE('',*,*,#70,.T.);
#70 = EDGE_CURVE('',#24,#71,#73,.T.);
#71 = VERTEX_POINT('',#72);
#72 = CARTESIAN_POINT('',(-6.509868415357,-12.35,1.24344978758E-14));
#73 = LINE('',#74,#75);
#74 = CARTESIAN_POINT('',(-20.,-12.35,1.06581410364E-14));
#75 = VECTOR('',#76,1.);
#76 = DIRECTION('',(1.,0.,0.));
#77 = ORIENTED_EDGE('',*,*,#78,.F.);
#78 = EDGE_CURVE('',#79,#71,#81,.T.);
#79 = VERTEX_POINT('',#80);
#80 = CARTESIAN_POINT('',(-3.470131584643,-12.35,1.24344978758E-14));
#81 = CIRCLE('',#82,1.6);
#82 = AXIS2_PLACEMENT_3D('',#83,#84,#85);
#83 = CARTESIAN_POINT('',(-4.99,-12.85,1.24344978758E-14));
#84 = DIRECTION('',(-0.,2.22044604925E-16,1.));
#85 = DIRECTION('',(0.,-1.,2.22044604925E-16));
#86 = ORIENTED_EDGE('',*,*,#87,.T.);
#87 = EDGE_CURVE('',#79,#88,#90,.T.);
#88 = VERTEX_POINT('',#89);
#89 = CARTESIAN_POINT('',(-9.868415357062E-03,-12.35,1.24344978758E-14)
  );
#90 = LINE('',#91,#92);
#91 = CARTESIAN_POINT('',(-20.,-12.35,1.06581410364E-14));
#92 = VECTOR('',#93,1.);
#93 = DIRECTION('',(1.,0.,0.));
#94 = ORIENTED_EDGE('',*,*,#95,.F.);
#95 = EDGE_CURVE('',#96,#88,#98,.T.);
#96 = VERTEX_POINT('',#97);
#97 = CARTESIAN_POINT('',(3.029868415357,-12.35,1.24344978758E-14));
#98 = CIRCLE('',#99,1.6);
#99 = AXIS2_PLACEMENT_3D('',#100,#101,#102);
#100 = CARTESIAN_POINT('',(1.51,-12.85,1.24344978758E-14));
#101 = DIRECTION('',(-0.,2.22044604925E-16,1.));
#102 = DIRECTION('',(0.,-1.,2.22044604925E-16));
#103 = ORIENTED_EDGE('',*,*,#104,.T.);
#104 = EDGE_CURVE('',#96,#105,#107,.T.);
#105 = VERTEX_POINT('',#106);
#106 = CARTESIAN_POINT('',(6.490131584643,-12.35,1.24344978758E-14));
#107 = LINE('',#108,#109);
#108 = CARTESIAN_POINT('',(-20.,-12.35,1.06581410364E-14));
#109 = VECTOR('',#110,1.);
#110 = DIRECTION('',(1.,0.,0.));
#111 = ORIENTED_EDGE('',*,*,#112,.F.);
#112 = EDGE_CURVE('',#113,#105,#115,.T.);
#113 = VERTEX_POINT('',#114);
#114 = CARTESIAN_POINT('',(9.529868415357,-12.35,1.24344978758E-14));
#115 = CIRCLE('',#116,1.6);
#116 = AXIS2_PLACEMENT_3D('',#117,#118,#119);
#117 = CARTESIAN_POINT('',(8.01,-12.85,1.24344978758E-14));
#118 = DIRECTION('',(-0.,2.22044604925E-16,1.));
#119 = DIRECTION('',(0.,-1.,2.22044604925E-16));
#120 = ORIENTED_EDGE('',*,*,#121,.T.);
#121 = EDGE_CURVE('',#113,#122,#124,.T.);
#122 = VERTEX_POINT('',#123);
#123 = CARTESIAN_POINT('',(12.35,-12.35,7.105427357601E-15));
#124 = LINE('',#125,#126);
#125 = CARTESIAN_POINT('',(-20.,-12.35,1.06581410364E-14));
#126 = VECTOR('',#127,1.);
#127 = DIRECTION('',(1.,0.,0.));
#128 = ORIENTED_EDGE('',*,*,#129,.T.);
#129 = EDGE_CURVE('',#122,#130,#132,.T.);
#130 = VERTEX_POINT('',#131);
#131 = CARTESIAN_POINT('',(12.35,-8.392281349634,1.24344978758E-14));
#132 = LINE('',#133,#134);
#133 = CARTESIAN_POINT('',(12.35,20.,3.552713678801E-15));
#134 = VECTOR('',#135,1.);
#135 = DIRECTION('',(0.,1.,-2.22044604925E-16));
#136 = ORIENTED_EDGE('',*,*,#137,.F.);
#137 = EDGE_CURVE('',#138,#130,#140,.T.);
#138 = VERTEX_POINT('',#139);
#139 = CARTESIAN_POINT('',(11.26,-8.821,1.24344978758E-14));
#140 = CIRCLE('',#141,1.6);
#141 = AXIS2_PLACEMENT_3D('',#142,#143,#144);
#142 = CARTESIAN_POINT('',(11.26,-7.221,1.24344978758E-14));
#143 = DIRECTION('',(-0.,2.22044604925E-16,1.));
#144 = DIRECTION('',(0.,-1.,2.22044604925E-16));
#145 = ORIENTED_EDGE('',*,*,#146,.F.);
#146 = EDGE_CURVE('',#147,#138,#149,.T.);
#147 = VERTEX_POINT('',#148);
#148 = CARTESIAN_POINT('',(12.35,-6.049718650366,1.06581410364E-14));
#149 = CIRCLE('',#150,1.6);
#150 = AXIS2_PLACEMENT_3D('',#151,#152,#153);
#151 = CARTESIAN_POINT('',(11.26,-7.221,1.24344978758E-14));
#152 = DIRECTION('',(-0.,2.22044604925E-16,1.));
#153 = DIRECTION('',(0.,-1.,2.22044604925E-16));
#154 = ORIENTED_EDGE('',*,*,#155,.T.);
#155 = EDGE_CURVE('',#147,#156,#158,.T.);
#156 = VERTEX_POINT('',#157);
#157 = CARTESIAN_POINT('',(12.35,2.865718650366,8.881784197001E-15));
#158 = LINE('',#159,#160);
#159 = CARTESIAN_POINT('',(12.35,20.,3.552713678801E-15));
#160 = VECTOR('',#161,1.);
#161 = DIRECTION('',(0.,1.,-2.22044604925E-16));
#162 = ORIENTED_EDGE('',*,*,#163,.F.);
#163 = EDGE_CURVE('',#164,#156,#166,.T.);
#164 = VERTEX_POINT('',#165);
#165 = CARTESIAN_POINT('',(11.26,2.437,8.881784197001E-15));
#166 = CIRCLE('',#167,1.6);
#167 = AXIS2_PLACEMENT_3D('',#168,#169,#170);
#168 = CARTESIAN_POINT('',(11.26,4.037,8.881784197001E-15));
#169 = DIRECTION('',(-0.,2.22044604925E-16,1.));
#170 = DIRECTION('',(0.,-1.,2.22044604925E-16));
#171 = ORIENTED_EDGE('',*,*,#172,.F.);
#172 = EDGE_CURVE('',#173,#164,#175,.T.);
#173 = VERTEX_POINT('',#174);
#174 = CARTESIAN_POINT('',(12.35,5.208281349634,8.881784197001E-15));
#175 = CIRCLE('',#176,1.6);
#176 = AXIS2_PLACEMENT_3D('',#177,#178,#179);
#177 = CARTESIAN_POINT('',(11.26,4.037,8.881784197001E-15));
#178 = DIRECTION('',(-0.,2.22044604925E-16,1.));
#179 = DIRECTION('',(0.,-1.,2.22044604925E-16));
#180 = ORIENTED_EDGE('',*,*,#181,.T.);
#181 = EDGE_CURVE('',#173,#62,#182,.T.);
#182 = LINE('',#183,#184);
#183 = CARTESIAN_POINT('',(12.35,20.,3.552713678801E-15));
#184 = VECTOR('',#185,1.);
#185 = DIRECTION('',(0.,1.,-2.22044604925E-16));
#186 = FACE_BOUND('',#187,.F.);
#187 = EDGE_LOOP('',(#188));
#188 = ORIENTED_EDGE('',*,*,#189,.F.);
#189 = EDGE_CURVE('',#190,#190,#192,.T.);
#190 = VERTEX_POINT('',#191);
#191 = CARTESIAN_POINT('',(-7.65,5.95,8.881784197001E-15));
#192 = CIRCLE('',#193,1.7);
#193 = AXIS2_PLACEMENT_3D('',#194,#195,#196);
#194 = CARTESIAN_POINT('',(-7.65,7.65,8.881784197001E-15));
#195 = DIRECTION('',(-0.,2.22044604925E-16,1.));
#196 = DIRECTION('',(0.,-1.,2.22044604925E-16));
#197 = FACE_BOUND('',#198,.F.);
#198 = EDGE_LOOP('',(#199));
#199 = ORIENTED_EDGE('',*,*,#200,.F.);
#200 = EDGE_CURVE('',#201,#201,#203,.T.);
#201 = VERTEX_POINT('',#202);
#202 = CARTESIAN_POINT('',(-1.74,2.437,8.881784197001E-15));
#203 = CIRCLE('',#204,1.6);
#204 = AXIS2_PLACEMENT_3D('',#205,#206,#207);
#205 = CARTESIAN_POINT('',(-1.74,4.037,8.881784197001E-15));
#206 = DIRECTION('',(-0.,2.22044604925E-16,1.));
#207 = DIRECTION('',(0.,-1.,2.22044604925E-16));
#208 = FACE_BOUND('',#209,.F.);
#209 = EDGE_LOOP('',(#210));
#210 = ORIENTED_EDGE('',*,*,#211,.F.);
#211 = EDGE_CURVE('',#212,#212,#214,.T.);
#212 = VERTEX_POINT('',#213);
#213 = CARTESIAN_POINT('',(4.76,2.437,8.881784197001E-15));
#214 = CIRCLE('',#215,1.6);
#215 = AXIS2_PLACEMENT_3D('',#216,#217,#218);
#216 = CARTESIAN_POINT('',(4.76,4.037,8.881784197001E-15));
#217 = DIRECTION('',(-0.,2.22044604925E-16,1.));
#218 = DIRECTION('',(0.,-1.,2.22044604925E-16));
#219 = FACE_BOUND('',#220,.F.);
#220 = EDGE_LOOP('',(#221));
#221 = ORIENTED_EDGE('',*,*,#222,.F.);
#222 = EDGE_CURVE('',#223,#223,#225,.T.);
#223 = VERTEX_POINT('',#224);
#224 = CARTESIAN_POINT('',(-4.99,-3.192,1.06581410364E-14));
#225 = CIRCLE('',#226,1.6);
#226 = AXIS2_PLACEMENT_3D('',#227,#228,#229);
#227 = CARTESIAN_POINT('',(-4.99,-1.592,1.06581410364E-14));
#228 = DIRECTION('',(-0.,2.22044604925E-16,1.));
#229 = DIRECTION('',(0.,-1.,2.22044604925E-16));
#230 = FACE_BOUND('',#231,.F.);
#231 = EDGE_LOOP('',(#232));
#232 = ORIENTED_EDGE('',*,*,#233,.F.);
#233 = EDGE_CURVE('',#234,#234,#236,.T.);
#234 = VERTEX_POINT('',#235);
#235 = CARTESIAN_POINT('',(1.51,-3.192,1.06581410364E-14));
#236 = CIRCLE('',#237,1.6);
#237 = AXIS2_PLACEMENT_3D('',#238,#239,#240);
#238 = CARTESIAN_POINT('',(1.51,-1.592,1.06581410364E-14));
#239 = DIRECTION('',(-0.,2.22044604925E-16,1.));
#240 = DIRECTION('',(0.,-1.,2.22044604925E-16));
#241 = FACE_BOUND('',#242,.F.);
#242 = EDGE_LOOP('',(#243));
#243 = ORIENTED_EDGE('',*,*,#244,.F.);
#244 = EDGE_CURVE('',#245,#245,#247,.T.);
#245 = VERTEX_POINT('',#246);
#246 = CARTESIAN_POINT('',(8.01,-3.192,1.06581410364E-14));
#247 = CIRCLE('',#248,1.6);
#248 = AXIS2_PLACEMENT_3D('',#249,#250,#251);
#249 = CARTESIAN_POINT('',(8.01,-1.592,1.06581410364E-14));
#250 = DIRECTION('',(-0.,2.22044604925E-16,1.));
#251 = DIRECTION('',(0.,-1.,2.22044604925E-16));
#252 = FACE_BOUND('',#253,.F.);
#253 = EDGE_LOOP('',(#254));
#254 = ORIENTED_EDGE('',*,*,#255,.F.);
#255 = EDGE_CURVE('',#256,#256,#258,.T.);
#256 = VERTEX_POINT('',#257);
#257 = CARTESIAN_POINT('',(-1.74,-8.821,1.24344978758E-14));
#258 = CIRCLE('',#259,1.6);
#259 = AXIS2_PLACEMENT_3D('',#260,#261,#262);
#260 = CARTESIAN_POINT('',(-1.74,-7.221,1.24344978758E-14));
#261 = DIRECTION('',(-0.,2.22044604925E-16,1.));
#262 = DIRECTION('',(0.,-1.,2.22044604925E-16));
#263 = FACE_BOUND('',#264,.F.);
#264 = EDGE_LOOP('',(#265));
#265 = ORIENTED_EDGE('',*,*,#266,.F.);
#266 = EDGE_CURVE('',#267,#267,#269,.T.);
#267 = VERTEX_POINT('',#268);
#268 = CARTESIAN_POINT('',(4.76,-8.821,1.24344978758E-14));
#269 = CIRCLE('',#270,1.6);
#270 = AXIS2_PLACEMENT_3D('',#271,#272,#273);
#271 = CARTESIAN_POINT('',(4.76,-7.221,1.24344978758E-14));
#272 = DIRECTION('',(-0.,2.22044604925E-16,1.));
#273 = DIRECTION('',(0.,-1.,2.22044604925E-16));
#274 = PLANE('',#275);
#275 = AXIS2_PLACEMENT_3D('',#276,#277,#278);
#276 = CARTESIAN_POINT('',(-12.35,12.35,7.105427357601E-15));
#277 = DIRECTION('',(0.,2.22044604925E-16,1.));
#278 = DIRECTION('',(0.,-1.,2.22044604925E-16));
#279 = ADVANCED_FACE('',(#280),#298,.T.);
#280 = FACE_BOUND('',#281,.T.);
#281 = EDGE_LOOP('',(#282,#290,#291,#292));
#282 = ORIENTED_EDGE('',*,*,#283,.F.);
#283 = EDGE_CURVE('',#40,#284,#286,.T.);
#284 = VERTEX_POINT('',#285);
#285 = CARTESIAN_POINT('',(-6.509868415357,-12.35,2.));
#286 = LINE('',#287,#288);
#287 = CARTESIAN_POINT('',(-20.,-12.35,2.));
#288 = VECTOR('',#289,1.);
#289 = DIRECTION('',(1.,0.,0.));
#290 = ORIENTED_EDGE('',*,*,#47,.T.);
#291 = ORIENTED_EDGE('',*,*,#70,.T.);
#292 = ORIENTED_EDGE('',*,*,#293,.T.);
#293 = EDGE_CURVE('',#71,#284,#294,.T.);
#294 = LINE('',#295,#296);
#295 = CARTESIAN_POINT('',(-6.509868415357,-12.35,-12.1));
#296 = VECTOR('',#297,1.);
#297 = DIRECTION('',(0.,2.22044604925E-16,1.));
#298 = PLANE('',#299);
#299 = AXIS2_PLACEMENT_3D('',#300,#301,#302);
#300 = CARTESIAN_POINT('',(-27.65,-12.35,-202.6));
#301 = DIRECTION('',(0.,-1.,2.22044604925E-16));
#302 = DIRECTION('',(1.,0.,0.));
#303 = ADVANCED_FACE('',(#304,#497,#508,#519,#530,#541,#552,#563,#574),
  #585,.T.);
#304 = FACE_BOUND('',#305,.T.);
#305 = EDGE_LOOP('',(#306,#314,#315,#316,#325,#333,#342,#350,#359,#367,
    #375,#385,#393,#403,#411,#421,#429,#439,#447,#456,#465,#473,#482,
    #491));
#306 = ORIENTED_EDGE('',*,*,#307,.F.);
#307 = EDGE_CURVE('',#32,#308,#310,.T.);
#308 = VERTEX_POINT('',#309);
#309 = CARTESIAN_POINT('',(12.35,12.35,2.));
#310 = LINE('',#311,#312);
#311 = CARTESIAN_POINT('',(-12.35,12.35,2.));
#312 = VECTOR('',#313,1.);
#313 = DIRECTION('',(1.,0.,0.));
#314 = ORIENTED_EDGE('',*,*,#39,.T.);
#315 = ORIENTED_EDGE('',*,*,#283,.T.);
#316 = ORIENTED_EDGE('',*,*,#317,.F.);
#317 = EDGE_CURVE('',#318,#284,#320,.T.);
#318 = VERTEX_POINT('',#319);
#319 = CARTESIAN_POINT('',(-3.470131584643,-12.35,2.));
#320 = CIRCLE('',#321,1.6);
#321 = AXIS2_PLACEMENT_3D('',#322,#323,#324);
#322 = CARTESIAN_POINT('',(-4.99,-12.85,2.));
#323 = DIRECTION('',(-0.,2.22044604925E-16,1.));
#324 = DIRECTION('',(0.,-1.,2.22044604925E-16));
#325 = ORIENTED_EDGE('',*,*,#326,.T.);
#326 = EDGE_CURVE('',#318,#327,#329,.T.);
#327 = VERTEX_POINT('',#328);
#328 = CARTESIAN_POINT('',(-9.868415357062E-03,-12.35,2.));
#329 = LINE('',#330,#331);
#330 = CARTESIAN_POINT('',(-20.,-12.35,2.));
#331 = VECTOR('',#332,1.);
#332 = DIRECTION('',(1.,0.,0.));
#333 = ORIENTED_EDGE('',*,*,#334,.F.);
#334 = EDGE_CURVE('',#335,#327,#337,.T.);
#335 = VERTEX_POINT('',#336);
#336 = CARTESIAN_POINT('',(3.029868415357,-12.35,2.));
#337 = CIRCLE('',#338,1.6);
#338 = AXIS2_PLACEMENT_3D('',#339,#340,#341);
#339 = CARTESIAN_POINT('',(1.51,-12.85,2.));
#340 = DIRECTION('',(-0.,2.22044604925E-16,1.));
#341 = DIRECTION('',(0.,-1.,2.22044604925E-16));
#342 = ORIENTED_EDGE('',*,*,#343,.T.);
#343 = EDGE_CURVE('',#335,#344,#346,.T.);
#344 = VERTEX_POINT('',#345);
#345 = CARTESIAN_POINT('',(6.490131584643,-12.35,2.));
#346 = LINE('',#347,#348);
#347 = CARTESIAN_POINT('',(-20.,-12.35,2.));
#348 = VECTOR('',#349,1.);
#349 = DIRECTION('',(1.,0.,0.));
#350 = ORIENTED_EDGE('',*,*,#351,.F.);
#351 = EDGE_CURVE('',#352,#344,#354,.T.);
#352 = VERTEX_POINT('',#353);
#353 = CARTESIAN_POINT('',(9.529868415357,-12.35,2.));
#354 = CIRCLE('',#355,1.6);
#355 = AXIS2_PLACEMENT_3D('',#356,#357,#358);
#356 = CARTESIAN_POINT('',(8.01,-12.85,2.));
#357 = DIRECTION('',(-0.,2.22044604925E-16,1.));
#358 = DIRECTION('',(0.,-1.,2.22044604925E-16));
#359 = ORIENTED_EDGE('',*,*,#360,.T.);
#360 = EDGE_CURVE('',#352,#361,#363,.T.);
#361 = VERTEX_POINT('',#362);
#362 = CARTESIAN_POINT('',(12.35,-12.35,2.));
#363 = LINE('',#364,#365);
#364 = CARTESIAN_POINT('',(-20.,-12.35,2.));
#365 = VECTOR('',#366,1.);
#366 = DIRECTION('',(1.,0.,0.));
#367 = ORIENTED_EDGE('',*,*,#368,.T.);
#368 = EDGE_CURVE('',#361,#369,#371,.T.);
#369 = VERTEX_POINT('',#370);
#370 = CARTESIAN_POINT('',(12.35,-10.36281367164,2.));
#371 = LINE('',#372,#373);
#372 = CARTESIAN_POINT('',(12.35,20.,2.));
#373 = VECTOR('',#374,1.);
#374 = DIRECTION('',(0.,1.,-2.22044604925E-16));
#375 = ORIENTED_EDGE('',*,*,#376,.T.);
#376 = EDGE_CURVE('',#369,#377,#379,.T.);
#377 = VERTEX_POINT('',#378);
#378 = CARTESIAN_POINT('',(11.73,-10.36281367164,2.));
#379 = B_SPLINE_CURVE_WITH_KNOTS('',4,(#380,#381,#382,#383,#384),
  .UNSPECIFIED.,.F.,.F.,(5,5),(0.,1.),.PIECEWISE_BEZIER_KNOTS.);
#380 = CARTESIAN_POINT('',(12.35,-10.36281367164,2.));
#381 = CARTESIAN_POINT('',(12.194999846516,-10.36281367164,2.));
#382 = CARTESIAN_POINT('',(12.039999693032,-10.36281367164,2.));
#383 = CARTESIAN_POINT('',(11.884999539549,-10.36281367164,2.));
#384 = CARTESIAN_POINT('',(11.729999386065,-10.36281367164,2.));
#385 = ORIENTED_EDGE('',*,*,#386,.T.);
#386 = EDGE_CURVE('',#377,#387,#389,.T.);
#387 = VERTEX_POINT('',#388);
#388 = CARTESIAN_POINT('',(11.73,-10.24859164562,2.));
#389 = LINE('',#390,#391);
#390 = CARTESIAN_POINT('',(11.73,1.258615010805,2.));
#391 = VECTOR('',#392,1.);
#392 = DIRECTION('',(1.110223024625E-16,1.,-2.22044604925E-16));
#393 = ORIENTED_EDGE('',*,*,#394,.F.);
#394 = EDGE_CURVE('',#395,#387,#397,.T.);
#395 = VERTEX_POINT('',#396);
#396 = CARTESIAN_POINT('',(12.35,-10.24859164562,2.));
#397 = B_SPLINE_CURVE_WITH_KNOTS('',4,(#398,#399,#400,#401,#402),
  .UNSPECIFIED.,.F.,.F.,(5,5),(0.,1.),.PIECEWISE_BEZIER_KNOTS.);
#398 = CARTESIAN_POINT('',(12.35,-10.24859164562,2.));
#399 = CARTESIAN_POINT('',(12.194999846516,-10.24859164562,2.));
#400 = CARTESIAN_POINT('',(12.039999693032,-10.24859164562,2.));
#401 = CARTESIAN_POINT('',(11.884999539549,-10.24859164562,2.));
#402 = CARTESIAN_POINT('',(11.729999386065,-10.24859164562,2.));
#403 = ORIENTED_EDGE('',*,*,#404,.T.);
#404 = EDGE_CURVE('',#395,#405,#407,.T.);
#405 = VERTEX_POINT('',#406);
#406 = CARTESIAN_POINT('',(12.35,-9.451003339573,2.));
#407 = LINE('',#408,#409);
#408 = CARTESIAN_POINT('',(12.35,20.,2.));
#409 = VECTOR('',#410,1.);
#410 = DIRECTION('',(0.,1.,-2.22044604925E-16));
#411 = ORIENTED_EDGE('',*,*,#412,.T.);
#412 = EDGE_CURVE('',#405,#413,#415,.T.);
#413 = VERTEX_POINT('',#414);
#414 = CARTESIAN_POINT('',(11.73,-9.451003339573,2.));
#415 = B_SPLINE_CURVE_WITH_KNOTS('',4,(#416,#417,#418,#419,#420),
  .UNSPECIFIED.,.F.,.F.,(5,5),(0.,1.),.PIECEWISE_BEZIER_KNOTS.);
#416 = CARTESIAN_POINT('',(12.35,-9.451003339573,2.));
#417 = CARTESIAN_POINT('',(12.194999846516,-9.451003339573,2.));
#418 = CARTESIAN_POINT('',(12.039999693032,-9.451003339573,2.));
#419 = CARTESIAN_POINT('',(11.884999539549,-9.451003339573,2.));
#420 = CARTESIAN_POINT('',(11.729999386065,-9.451003339573,2.));
#421 = ORIENTED_EDGE('',*,*,#422,.T.);
#422 = EDGE_CURVE('',#413,#423,#425,.T.);
#423 = VERTEX_POINT('',#424);
#424 = CARTESIAN_POINT('',(11.73,-9.335874330255,2.));
#425 = LINE('',#426,#427);
#426 = CARTESIAN_POINT('',(11.73,1.258615010805,2.));
#427 = VECTOR('',#428,1.);
#428 = DIRECTION('',(1.110223024625E-16,1.,-2.22044604925E-16));
#429 = ORIENTED_EDGE('',*,*,#430,.F.);
#430 = EDGE_CURVE('',#431,#423,#433,.T.);
#431 = VERTEX_POINT('',#432);
#432 = CARTESIAN_POINT('',(12.35,-9.335874330255,2.));
#433 = B_SPLINE_CURVE_WITH_KNOTS('',4,(#434,#435,#436,#437,#438),
  .UNSPECIFIED.,.F.,.F.,(5,5),(0.,1.),.PIECEWISE_BEZIER_KNOTS.);
#434 = CARTESIAN_POINT('',(12.35,-9.335874330255,2.));
#435 = CARTESIAN_POINT('',(12.194999846516,-9.335874330255,2.));
#436 = CARTESIAN_POINT('',(12.039999693032,-9.335874330255,2.));
#437 = CARTESIAN_POINT('',(11.884999539549,-9.335874330255,2.));
#438 = CARTESIAN_POINT('',(11.729999386065,-9.335874330255,2.));
#439 = ORIENTED_EDGE('',*,*,#440,.T.);
#440 = EDGE_CURVE('',#431,#441,#443,.T.);
#441 = VERTEX_POINT('',#442);
#442 = CARTESIAN_POINT('',(12.35,-8.392281349634,2.));
#443 = LINE('',#444,#445);
#444 = CARTESIAN_POINT('',(12.35,20.,2.));
#445 = VECTOR('',#446,1.);
#446 = DIRECTION('',(0.,1.,-2.22044604925E-16));
#447 = ORIENTED_EDGE('',*,*,#448,.F.);
#448 = EDGE_CURVE('',#449,#441,#451,.T.);
#449 = VERTEX_POINT('',#450);
#450 = CARTESIAN_POINT('',(11.26,-8.821,2.));
#451 = CIRCLE('',#452,1.6);
#452 = AXIS2_PLACEMENT_3D('',#453,#454,#455);
#453 = CARTESIAN_POINT('',(11.26,-7.221,2.));
#454 = DIRECTION('',(-0.,2.22044604925E-16,1.));
#455 = DIRECTION('',(0.,-1.,2.22044604925E-16));
#456 = ORIENTED_EDGE('',*,*,#457,.F.);
#457 = EDGE_CURVE('',#458,#449,#460,.T.);
#458 = VERTEX_POINT('',#459);
#459 = CARTESIAN_POINT('',(12.35,-6.049718650366,2.));
#460 = CIRCLE('',#461,1.6);
#461 = AXIS2_PLACEMENT_3D('',#462,#463,#464);
#462 = CARTESIAN_POINT('',(11.26,-7.221,2.));
#463 = DIRECTION('',(-0.,2.22044604925E-16,1.));
#464 = DIRECTION('',(0.,-1.,2.22044604925E-16));
#465 = ORIENTED_EDGE('',*,*,#466,.T.);
#466 = EDGE_CURVE('',#458,#467,#469,.T.);
#467 = VERTEX_POINT('',#468);
#468 = CARTESIAN_POINT('',(12.35,2.865718650366,2.));
#469 = LINE('',#470,#471);
#470 = CARTESIAN_POINT('',(12.35,20.,2.));
#471 = VECTOR('',#472,1.);
#472 = DIRECTION('',(0.,1.,-2.22044604925E-16));
#473 = ORIENTED_EDGE('',*,*,#474,.F.);
#474 = EDGE_CURVE('',#475,#467,#477,.T.);
#475 = VERTEX_POINT('',#476);
#476 = CARTESIAN_POINT('',(11.26,2.437,2.));
#477 = CIRCLE('',#478,1.6);
#478 = AXIS2_PLACEMENT_3D('',#479,#480,#481);
#479 = CARTESIAN_POINT('',(11.26,4.037,2.));
#480 = DIRECTION('',(-0.,2.22044604925E-16,1.));
#481 = DIRECTION('',(0.,-1.,2.22044604925E-16));
#482 = ORIENTED_EDGE('',*,*,#483,.F.);
#483 = EDGE_CURVE('',#484,#475,#486,.T.);
#484 = VERTEX_POINT('',#485);
#485 = CARTESIAN_POINT('',(12.35,5.208281349634,2.));
#486 = CIRCLE('',#487,1.6);
#487 = AXIS2_PLACEMENT_3D('',#488,#489,#490);
#488 = CARTESIAN_POINT('',(11.26,4.037,2.));
#489 = DIRECTION('',(-0.,2.22044604925E-16,1.));
#490 = DIRECTION('',(0.,-1.,2.22044604925E-16));
#491 = ORIENTED_EDGE('',*,*,#492,.T.);
#492 = EDGE_CURVE('',#484,#308,#493,.T.);
#493 = LINE('',#494,#495);
#494 = CARTESIAN_POINT('',(12.35,20.,2.));
#495 = VECTOR('',#496,1.);
#496 = DIRECTION('',(0.,1.,-2.22044604925E-16));
#497 = FACE_BOUND('',#498,.T.);
#498 = EDGE_LOOP('',(#499));
#499 = ORIENTED_EDGE('',*,*,#500,.F.);
#500 = EDGE_CURVE('',#501,#501,#503,.T.);
#501 = VERTEX_POINT('',#502);
#502 = CARTESIAN_POINT('',(-7.65,5.95,2.));
#503 = CIRCLE('',#504,1.7);
#504 = AXIS2_PLACEMENT_3D('',#505,#506,#507);
#505 = CARTESIAN_POINT('',(-7.65,7.65,2.));
#506 = DIRECTION('',(-0.,2.22044604925E-16,1.));
#507 = DIRECTION('',(0.,-1.,2.22044604925E-16));
#508 = FACE_BOUND('',#509,.T.);
#509 = EDGE_LOOP('',(#510));
#510 = ORIENTED_EDGE('',*,*,#511,.F.);
#511 = EDGE_CURVE('',#512,#512,#514,.T.);
#512 = VERTEX_POINT('',#513);
#513 = CARTESIAN_POINT('',(-1.74,2.437,2.));
#514 = CIRCLE('',#515,1.6);
#515 = AXIS2_PLACEMENT_3D('',#516,#517,#518);
#516 = CARTESIAN_POINT('',(-1.74,4.037,2.));
#517 = DIRECTION('',(-0.,2.22044604925E-16,1.));
#518 = DIRECTION('',(0.,-1.,2.22044604925E-16));
#519 = FACE_BOUND('',#520,.T.);
#520 = EDGE_LOOP('',(#521));
#521 = ORIENTED_EDGE('',*,*,#522,.F.);
#522 = EDGE_CURVE('',#523,#523,#525,.T.);
#523 = VERTEX_POINT('',#524);
#524 = CARTESIAN_POINT('',(-4.99,-3.192,2.));
#525 = CIRCLE('',#526,1.6);
#526 = AXIS2_PLACEMENT_3D('',#527,#528,#529);
#527 = CARTESIAN_POINT('',(-4.99,-1.592,2.));
#528 = DIRECTION('',(-0.,2.22044604925E-16,1.));
#529 = DIRECTION('',(0.,-1.,2.22044604925E-16));
#530 = FACE_BOUND('',#531,.T.);
#531 = EDGE_LOOP('',(#532));
#532 = ORIENTED_EDGE('',*,*,#533,.F.);
#533 = EDGE_CURVE('',#534,#534,#536,.T.);
#534 = VERTEX_POINT('',#535);
#535 = CARTESIAN_POINT('',(-1.74,-8.821,2.));
#536 = CIRCLE('',#537,1.6);
#537 = AXIS2_PLACEMENT_3D('',#538,#539,#540);
#538 = CARTESIAN_POINT('',(-1.74,-7.221,2.));
#539 = DIRECTION('',(-0.,2.22044604925E-16,1.));
#540 = DIRECTION('',(0.,-1.,2.22044604925E-16));
#541 = FACE_BOUND('',#542,.T.);
#542 = EDGE_LOOP('',(#543));
#543 = ORIENTED_EDGE('',*,*,#544,.F.);
#544 = EDGE_CURVE('',#545,#545,#547,.T.);
#545 = VERTEX_POINT('',#546);
#546 = CARTESIAN_POINT('',(4.76,2.437,2.));
#547 = CIRCLE('',#548,1.6);
#548 = AXIS2_PLACEMENT_3D('',#549,#550,#551);
#549 = CARTESIAN_POINT('',(4.76,4.037,2.));
#550 = DIRECTION('',(-0.,2.22044604925E-16,1.));
#551 = DIRECTION('',(0.,-1.,2.22044604925E-16));
#552 = FACE_BOUND('',#553,.T.);
#553 = EDGE_LOOP('',(#554));
#554 = ORIENTED_EDGE('',*,*,#555,.F.);
#555 = EDGE_CURVE('',#556,#556,#558,.T.);
#556 = VERTEX_POINT('',#557);
#557 = CARTESIAN_POINT('',(1.51,-3.192,2.));
#558 = CIRCLE('',#559,1.6);
#559 = AXIS2_PLACEMENT_3D('',#560,#561,#562);
#560 = CARTESIAN_POINT('',(1.51,-1.592,2.));
#561 = DIRECTION('',(-0.,2.22044604925E-16,1.));
#562 = DIRECTION('',(0.,-1.,2.22044604925E-16));
#563 = FACE_BOUND('',#564,.T.);
#564 = EDGE_LOOP('',(#565));
#565 = ORIENTED_EDGE('',*,*,#566,.F.);
#566 = EDGE_CURVE('',#567,#567,#569,.T.);
#567 = VERTEX_POINT('',#568);
#568 = CARTESIAN_POINT('',(4.76,-8.821,2.));
#569 = CIRCLE('',#570,1.6);
#570 = AXIS2_PLACEMENT_3D('',#571,#572,#573);
#571 = CARTESIAN_POINT('',(4.76,-7.221,2.));
#572 = DIRECTION('',(-0.,2.22044604925E-16,1.));
#573 = DIRECTION('',(0.,-1.,2.22044604925E-16));
#574 = FACE_BOUND('',#575,.T.);
#575 = EDGE_LOOP('',(#576));
#576 = ORIENTED_EDGE('',*,*,#577,.F.);
#577 = EDGE_CURVE('',#578,#578,#580,.T.);
#578 = VERTEX_POINT('',#579);
#579 = CARTESIAN_POINT('',(8.01,-3.192,2.));
#580 = CIRCLE('',#581,1.6);
#581 = AXIS2_PLACEMENT_3D('',#582,#583,#584);
#582 = CARTESIAN_POINT('',(8.01,-1.592,2.));
#583 = DIRECTION('',(-0.,2.22044604925E-16,1.));
#584 = DIRECTION('',(0.,-1.,2.22044604925E-16));
#585 = PLANE('',#586);
#586 = AXIS2_PLACEMENT_3D('',#587,#588,#589);
#587 = CARTESIAN_POINT('',(-12.35,12.35,2.));
#588 = DIRECTION('',(0.,2.22044604925E-16,1.));
#589 = DIRECTION('',(0.,-1.,2.22044604925E-16));
#590 = ADVANCED_FACE('',(#591),#602,.F.);
#591 = FACE_BOUND('',#592,.F.);
#592 = EDGE_LOOP('',(#593,#594,#595,#601));
#593 = ORIENTED_EDGE('',*,*,#31,.F.);
#594 = ORIENTED_EDGE('',*,*,#61,.T.);
#595 = ORIENTED_EDGE('',*,*,#596,.T.);
#596 = EDGE_CURVE('',#62,#308,#597,.T.);
#597 = LINE('',#598,#599);
#598 = CARTESIAN_POINT('',(12.35,12.35,-101.3));
#599 = VECTOR('',#600,1.);
#600 = DIRECTION('',(0.,2.22044604925E-16,1.));
#601 = ORIENTED_EDGE('',*,*,#307,.F.);
#602 = PLANE('',#603);
#603 = AXIS2_PLACEMENT_3D('',#604,#605,#606);
#604 = CARTESIAN_POINT('',(-12.35,12.35,7.105427357601E-15));
#605 = DIRECTION('',(0.,-1.,2.22044604925E-16));
#606 = DIRECTION('',(1.,0.,0.));
#607 = ADVANCED_FACE('',(#608),#619,.T.);
#608 = FACE_BOUND('',#609,.T.);
#609 = EDGE_LOOP('',(#610,#616,#617,#618));
#610 = ORIENTED_EDGE('',*,*,#611,.F.);
#611 = EDGE_CURVE('',#173,#484,#612,.T.);
#612 = LINE('',#613,#614);
#613 = CARTESIAN_POINT('',(12.35,5.208281349634,-12.1));
#614 = VECTOR('',#615,1.);
#615 = DIRECTION('',(0.,2.22044604925E-16,1.));
#616 = ORIENTED_EDGE('',*,*,#181,.T.);
#617 = ORIENTED_EDGE('',*,*,#596,.T.);
#618 = ORIENTED_EDGE('',*,*,#492,.F.);
#619 = PLANE('',#620);
#620 = AXIS2_PLACEMENT_3D('',#621,#622,#623);
#621 = CARTESIAN_POINT('',(12.35,27.65,-202.6));
#622 = DIRECTION('',(1.,0.,0.));
#623 = DIRECTION('',(0.,-1.,2.22044604925E-16));
#624 = ADVANCED_FACE('',(#625),#636,.F.);
#625 = FACE_BOUND('',#626,.F.);
#626 = EDGE_LOOP('',(#627,#633,#634,#635));
#627 = ORIENTED_EDGE('',*,*,#628,.T.);
#628 = EDGE_CURVE('',#164,#475,#629,.T.);
#629 = LINE('',#630,#631);
#630 = CARTESIAN_POINT('',(11.26,2.437,-12.1));
#631 = VECTOR('',#632,1.);
#632 = DIRECTION('',(0.,2.22044604925E-16,1.));
#633 = ORIENTED_EDGE('',*,*,#483,.F.);
#634 = ORIENTED_EDGE('',*,*,#611,.F.);
#635 = ORIENTED_EDGE('',*,*,#172,.T.);
#636 = CYLINDRICAL_SURFACE('',#637,1.6);
#637 = AXIS2_PLACEMENT_3D('',#638,#639,#640);
#638 = CARTESIAN_POINT('',(11.26,4.037,-12.1));
#639 = DIRECTION('',(0.,2.22044604925E-16,1.));
#640 = DIRECTION('',(0.,-1.,2.22044604925E-16));
#641 = ADVANCED_FACE('',(#642),#653,.F.);
#642 = FACE_BOUND('',#643,.F.);
#643 = EDGE_LOOP('',(#644,#645,#646,#647));
#644 = ORIENTED_EDGE('',*,*,#474,.F.);
#645 = ORIENTED_EDGE('',*,*,#628,.F.);
#646 = ORIENTED_EDGE('',*,*,#163,.T.);
#647 = ORIENTED_EDGE('',*,*,#648,.T.);
#648 = EDGE_CURVE('',#156,#467,#649,.T.);
#649 = LINE('',#650,#651);
#650 = CARTESIAN_POINT('',(12.35,2.865718650366,-12.1));
#651 = VECTOR('',#652,1.);
#652 = DIRECTION('',(0.,2.22044604925E-16,1.));
#653 = CYLINDRICAL_SURFACE('',#654,1.6);
#654 = AXIS2_PLACEMENT_3D('',#655,#656,#657);
#655 = CARTESIAN_POINT('',(11.26,4.037,-12.1));
#656 = DIRECTION('',(0.,2.22044604925E-16,1.));
#657 = DIRECTION('',(0.,-1.,2.22044604925E-16));
#658 = ADVANCED_FACE('',(#659),#670,.T.);
#659 = FACE_BOUND('',#660,.T.);
#660 = EDGE_LOOP('',(#661,#667,#668,#669));
#661 = ORIENTED_EDGE('',*,*,#662,.F.);
#662 = EDGE_CURVE('',#147,#458,#663,.T.);
#663 = LINE('',#664,#665);
#664 = CARTESIAN_POINT('',(12.35,-6.049718650366,-12.1));
#665 = VECTOR('',#666,1.);
#666 = DIRECTION('',(0.,2.22044604925E-16,1.));
#667 = ORIENTED_EDGE('',*,*,#155,.T.);
#668 = ORIENTED_EDGE('',*,*,#648,.T.);
#669 = ORIENTED_EDGE('',*,*,#466,.F.);
#670 = PLANE('',#671);
#671 = AXIS2_PLACEMENT_3D('',#672,#673,#674);
#672 = CARTESIAN_POINT('',(12.35,27.65,-202.6));
#673 = DIRECTION('',(1.,0.,0.));
#674 = DIRECTION('',(0.,-1.,2.22044604925E-16));
#675 = ADVANCED_FACE('',(#676),#687,.F.);
#676 = FACE_BOUND('',#677,.F.);
#677 = EDGE_LOOP('',(#678,#684,#685,#686));
#678 = ORIENTED_EDGE('',*,*,#679,.T.);
#679 = EDGE_CURVE('',#138,#449,#680,.T.);
#680 = LINE('',#681,#682);
#681 = CARTESIAN_POINT('',(11.26,-8.821,-12.1));
#682 = VECTOR('',#683,1.);
#683 = DIRECTION('',(0.,2.22044604925E-16,1.));
#684 = ORIENTED_EDGE('',*,*,#457,.F.);
#685 = ORIENTED_EDGE('',*,*,#662,.F.);
#686 = ORIENTED_EDGE('',*,*,#146,.T.);
#687 = CYLINDRICAL_SURFACE('',#688,1.6);
#688 = AXIS2_PLACEMENT_3D('',#689,#690,#691);
#689 = CARTESIAN_POINT('',(11.26,-7.221,-12.1));
#690 = DIRECTION('',(0.,2.22044604925E-16,1.));
#691 = DIRECTION('',(0.,-1.,2.22044604925E-16));
#692 = ADVANCED_FACE('',(#693),#704,.F.);
#693 = FACE_BOUND('',#694,.F.);
#694 = EDGE_LOOP('',(#695,#696,#697,#698));
#695 = ORIENTED_EDGE('',*,*,#448,.F.);
#696 = ORIENTED_EDGE('',*,*,#679,.F.);
#697 = ORIENTED_EDGE('',*,*,#137,.T.);
#698 = ORIENTED_EDGE('',*,*,#699,.T.);
#699 = EDGE_CURVE('',#130,#441,#700,.T.);
#700 = LINE('',#701,#702);
#701 = CARTESIAN_POINT('',(12.35,-8.392281349634,-12.1));
#702 = VECTOR('',#703,1.);
#703 = DIRECTION('',(0.,2.22044604925E-16,1.));
#704 = CYLINDRICAL_SURFACE('',#705,1.6);
#705 = AXIS2_PLACEMENT_3D('',#706,#707,#708);
#706 = CARTESIAN_POINT('',(11.26,-7.221,-12.1));
#707 = DIRECTION('',(0.,2.22044604925E-16,1.));
#708 = DIRECTION('',(0.,-1.,2.22044604925E-16));
#709 = ADVANCED_FACE('',(#710),#793,.T.);
#710 = FACE_BOUND('',#711,.T.);
#711 = EDGE_LOOP('',(#712,#718,#719,#720,#721,#734,#747,#757,#768,#781,
    #792));
#712 = ORIENTED_EDGE('',*,*,#713,.F.);
#713 = EDGE_CURVE('',#122,#361,#714,.T.);
#714 = LINE('',#715,#716);
#715 = CARTESIAN_POINT('',(12.35,-12.35,-202.6));
#716 = VECTOR('',#717,1.);
#717 = DIRECTION('',(0.,2.22044604925E-16,1.));
#718 = ORIENTED_EDGE('',*,*,#129,.T.);
#719 = ORIENTED_EDGE('',*,*,#699,.T.);
#720 = ORIENTED_EDGE('',*,*,#440,.F.);
#721 = ORIENTED_EDGE('',*,*,#722,.F.);
#722 = EDGE_CURVE('',#723,#431,#725,.T.);
#723 = VERTEX_POINT('',#724);
#724 = CARTESIAN_POINT('',(12.35,-9.398419331395,1.80675882093));
#725 = B_SPLINE_CURVE_WITH_KNOTS('',4,(#726,#727,#728,#729,#730,#731,
    #732,#733),.UNSPECIFIED.,.F.,.F.,(5,3,5),(0.,0.847328672897,1.),
  .UNSPECIFIED.);
#726 = CARTESIAN_POINT('',(12.35,-9.398419331395,1.80675882093));
#727 = CARTESIAN_POINT('',(12.35,-9.376656754479,1.840198146013));
#728 = CARTESIAN_POINT('',(12.35,-9.359720354946,1.877976342396));
#729 = CARTESIAN_POINT('',(12.35,-9.347624472605,1.919988499138));
#730 = CARTESIAN_POINT('',(12.35,-9.338934875686,1.974329863359));
#731 = CARTESIAN_POINT('',(12.35,-9.337761889616,1.982757166856));
#732 = CARTESIAN_POINT('',(12.35,-9.336741947759,1.991314313852));
#733 = CARTESIAN_POINT('',(12.35,-9.335874330255,2.));
#734 = ORIENTED_EDGE('',*,*,#735,.F.);
#735 = EDGE_CURVE('',#736,#723,#738,.T.);
#736 = VERTEX_POINT('',#737);
#737 = CARTESIAN_POINT('',(12.35,-9.589235101744,1.652779896512));
#738 = B_SPLINE_CURVE_WITH_KNOTS('',4,(#739,#740,#741,#742,#743,#744,
    #745,#746),.UNSPECIFIED.,.F.,.F.,(5,3,5),(0.,0.828340955545,1.),
  .UNSPECIFIED.);
#739 = CARTESIAN_POINT('',(12.35,-9.589235101744,1.652779896512));
#740 = CARTESIAN_POINT('',(12.35,-9.537779766574,1.674540825531));
#741 = CARTESIAN_POINT('',(12.35,-9.492744706343,1.701876342765));
#742 = CARTESIAN_POINT('',(12.35,-9.454402477865,1.734859062409));
#743 = CARTESIAN_POINT('',(12.35,-9.416295295058,1.781376904203));
#744 = CARTESIAN_POINT('',(12.35,-9.410044836434,1.789600456941));
#745 = CARTESIAN_POINT('',(12.35,-9.404086072132,1.79806148694));
#746 = CARTESIAN_POINT('',(12.35,-9.398419331395,1.80675882093));
#747 = ORIENTED_EDGE('',*,*,#748,.F.);
#748 = EDGE_CURVE('',#749,#736,#751,.T.);
#749 = VERTEX_POINT('',#750);
#750 = CARTESIAN_POINT('',(12.35,-9.857494549419,1.6000001));
#751 = B_SPLINE_CURVE_WITH_KNOTS('',4,(#752,#753,#754,#755,#756),
  .UNSPECIFIED.,.F.,.F.,(5,5),(0.,1.),.PIECEWISE_BEZIER_KNOTS.);
#752 = CARTESIAN_POINT('',(12.35,-9.857494549419,1.6000001));
#753 = CARTESIAN_POINT('',(12.35,-9.786032019817,1.6000001));
#754 = CARTESIAN_POINT('',(12.35,-9.717392116724,1.608744362879));
#755 = CARTESIAN_POINT('',(12.35,-9.651754649252,1.626362545892));
#756 = CARTESIAN_POINT('',(12.35,-9.589235101744,1.652779896512));
#757 = ORIENTED_EDGE('',*,*,#758,.F.);
#758 = EDGE_CURVE('',#759,#749,#761,.T.);
#759 = VERTEX_POINT('',#760);
#760 = CARTESIAN_POINT('',(12.35,-10.13020530523,1.659593123256));
#761 = B_SPLINE_CURVE_WITH_KNOTS('',5,(#762,#763,#764,#765,#766,#767),
  .UNSPECIFIED.,.F.,.F.,(6,6),(0.,1.),.PIECEWISE_BEZIER_KNOTS.);
#762 = CARTESIAN_POINT('',(12.35,-10.13020530523,1.659593123256));
#763 = CARTESIAN_POINT('',(12.35,-10.0834130645,1.63563082043));
#764 = CARTESIAN_POINT('',(12.35,-10.03262950167,1.617715019776));
#765 = CARTESIAN_POINT('',(12.35,-9.977948654202,1.605860840855));
#766 = CARTESIAN_POINT('',(12.35,-9.919511603532,1.6000001));
#767 = CARTESIAN_POINT('',(12.35,-9.857494549419,1.6000001));
#768 = ORIENTED_EDGE('',*,*,#769,.F.);
#769 = EDGE_CURVE('',#770,#759,#772,.T.);
#770 = VERTEX_POINT('',#771);
#771 = CARTESIAN_POINT('',(12.35,-10.30703125,1.829242469186));
#772 = B_SPLINE_CURVE_WITH_KNOTS('',4,(#773,#774,#775,#776,#777,#778,
    #779,#780),.UNSPECIFIED.,.F.,.F.,(5,3,5),(0.,0.379799786864,1.),
  .UNSPECIFIED.);
#773 = CARTESIAN_POINT('',(12.35,-10.30703125,1.829242469186));
#774 = CARTESIAN_POINT('',(12.35,-10.29556505557,1.808361925646));
#775 = CARTESIAN_POINT('',(12.35,-10.28274200414,1.788669711269));
#776 = CARTESIAN_POINT('',(12.35,-10.26856168013,1.770182066869));
#777 = CARTESIAN_POINT('',(12.35,-10.22767283094,1.724699945866));
#778 = CARTESIAN_POINT('',(12.35,-10.19871550148,1.699727873462));
#779 = CARTESIAN_POINT('',(12.35,-10.16619573886,1.678030672752));
#780 = CARTESIAN_POINT('',(12.35,-10.13020530523,1.659593123256));
#781 = ORIENTED_EDGE('',*,*,#782,.F.);
#782 = EDGE_CURVE('',#369,#770,#783,.T.);
#783 = B_SPLINE_CURVE_WITH_KNOTS('',4,(#784,#785,#786,#787,#788,#789,
    #790,#791),.UNSPECIFIED.,.F.,.F.,(5,3,5),(0.,0.5949236356,1.),
  .UNSPECIFIED.);
#784 = CARTESIAN_POINT('',(12.35,-10.36281367164,2.));
#785 = CARTESIAN_POINT('',(12.35,-10.35922033974,1.972911084736));
#786 = CARTESIAN_POINT('',(12.35,-10.3537636593,1.946477255281));
#787 = CARTESIAN_POINT('',(12.35,-10.34643729594,1.920714348755));
#788 = CARTESIAN_POINT('',(12.35,-10.33098721435,1.878557894728));
#789 = CARTESIAN_POINT('',(12.35,-10.32386400278,1.861797967292));
#790 = CARTESIAN_POINT('',(12.35,-10.3158774479,1.845358512435));
#791 = CARTESIAN_POINT('',(12.35,-10.30703125,1.829242469186));
#792 = ORIENTED_EDGE('',*,*,#368,.F.);
#793 = PLANE('',#794);
#794 = AXIS2_PLACEMENT_3D('',#795,#796,#797);
#795 = CARTESIAN_POINT('',(12.35,27.65,-202.6));
#796 = DIRECTION('',(1.,0.,0.));
#797 = DIRECTION('',(0.,-1.,2.22044604925E-16));
#798 = ADVANCED_FACE('',(#799),#810,.T.);
#799 = FACE_BOUND('',#800,.T.);
#800 = EDGE_LOOP('',(#801,#802,#803,#809));
#801 = ORIENTED_EDGE('',*,*,#713,.T.);
#802 = ORIENTED_EDGE('',*,*,#360,.F.);
#803 = ORIENTED_EDGE('',*,*,#804,.F.);
#804 = EDGE_CURVE('',#113,#352,#805,.T.);
#805 = LINE('',#806,#807);
#806 = CARTESIAN_POINT('',(9.529868415357,-12.35,-12.1));
#807 = VECTOR('',#808,1.);
#808 = DIRECTION('',(0.,2.22044604925E-16,1.));
#809 = ORIENTED_EDGE('',*,*,#121,.T.);
#810 = PLANE('',#811);
#811 = AXIS2_PLACEMENT_3D('',#812,#813,#814);
#812 = CARTESIAN_POINT('',(-27.65,-12.35,-202.6));
#813 = DIRECTION('',(0.,-1.,2.22044604925E-16));
#814 = DIRECTION('',(1.,0.,0.));
#815 = ADVANCED_FACE('',(#816),#827,.F.);
#816 = FACE_BOUND('',#817,.F.);
#817 = EDGE_LOOP('',(#818,#819,#820,#821));
#818 = ORIENTED_EDGE('',*,*,#351,.F.);
#819 = ORIENTED_EDGE('',*,*,#804,.F.);
#820 = ORIENTED_EDGE('',*,*,#112,.T.);
#821 = ORIENTED_EDGE('',*,*,#822,.T.);
#822 = EDGE_CURVE('',#105,#344,#823,.T.);
#823 = LINE('',#824,#825);
#824 = CARTESIAN_POINT('',(6.490131584643,-12.35,-12.1));
#825 = VECTOR('',#826,1.);
#826 = DIRECTION('',(0.,2.22044604925E-16,1.));
#827 = CYLINDRICAL_SURFACE('',#828,1.6);
#828 = AXIS2_PLACEMENT_3D('',#829,#830,#831);
#829 = CARTESIAN_POINT('',(8.01,-12.85,-12.1));
#830 = DIRECTION('',(0.,2.22044604925E-16,1.));
#831 = DIRECTION('',(0.,-1.,2.22044604925E-16));
#832 = ADVANCED_FACE('',(#833),#844,.T.);
#833 = FACE_BOUND('',#834,.T.);
#834 = EDGE_LOOP('',(#835,#841,#842,#843));
#835 = ORIENTED_EDGE('',*,*,#836,.F.);
#836 = EDGE_CURVE('',#96,#335,#837,.T.);
#837 = LINE('',#838,#839);
#838 = CARTESIAN_POINT('',(3.029868415357,-12.35,-12.1));
#839 = VECTOR('',#840,1.);
#840 = DIRECTION('',(0.,2.22044604925E-16,1.));
#841 = ORIENTED_EDGE('',*,*,#104,.T.);
#842 = ORIENTED_EDGE('',*,*,#822,.T.);
#843 = ORIENTED_EDGE('',*,*,#343,.F.);
#844 = PLANE('',#845);
#845 = AXIS2_PLACEMENT_3D('',#846,#847,#848);
#846 = CARTESIAN_POINT('',(-27.65,-12.35,-202.6));
#847 = DIRECTION('',(0.,-1.,2.22044604925E-16));
#848 = DIRECTION('',(1.,0.,0.));
#849 = ADVANCED_FACE('',(#850),#861,.F.);
#850 = FACE_BOUND('',#851,.F.);
#851 = EDGE_LOOP('',(#852,#853,#854,#855));
#852 = ORIENTED_EDGE('',*,*,#334,.F.);
#853 = ORIENTED_EDGE('',*,*,#836,.F.);
#854 = ORIENTED_EDGE('',*,*,#95,.T.);
#855 = ORIENTED_EDGE('',*,*,#856,.T.);
#856 = EDGE_CURVE('',#88,#327,#857,.T.);
#857 = LINE('',#858,#859);
#858 = CARTESIAN_POINT('',(-9.868415357062E-03,-12.35,-12.1));
#859 = VECTOR('',#860,1.);
#860 = DIRECTION('',(0.,2.22044604925E-16,1.));
#861 = CYLINDRICAL_SURFACE('',#862,1.6);
#862 = AXIS2_PLACEMENT_3D('',#863,#864,#865);
#863 = CARTESIAN_POINT('',(1.51,-12.85,-12.1));
#864 = DIRECTION('',(0.,2.22044604925E-16,1.));
#865 = DIRECTION('',(0.,-1.,2.22044604925E-16));
#866 = ADVANCED_FACE('',(#867),#878,.T.);
#867 = FACE_BOUND('',#868,.T.);
#868 = EDGE_LOOP('',(#869,#875,#876,#877));
#869 = ORIENTED_EDGE('',*,*,#870,.F.);
#870 = EDGE_CURVE('',#79,#318,#871,.T.);
#871 = LINE('',#872,#873);
#872 = CARTESIAN_POINT('',(-3.470131584643,-12.35,-12.1));
#873 = VECTOR('',#874,1.);
#874 = DIRECTION('',(0.,2.22044604925E-16,1.));
#875 = ORIENTED_EDGE('',*,*,#87,.T.);
#876 = ORIENTED_EDGE('',*,*,#856,.T.);
#877 = ORIENTED_EDGE('',*,*,#326,.F.);
#878 = PLANE('',#879);
#879 = AXIS2_PLACEMENT_3D('',#880,#881,#882);
#880 = CARTESIAN_POINT('',(-27.65,-12.35,-202.6));
#881 = DIRECTION('',(0.,-1.,2.22044604925E-16));
#882 = DIRECTION('',(1.,0.,0.));
#883 = ADVANCED_FACE('',(#884),#890,.F.);
#884 = FACE_BOUND('',#885,.F.);
#885 = EDGE_LOOP('',(#886,#887,#888,#889));
#886 = ORIENTED_EDGE('',*,*,#317,.F.);
#887 = ORIENTED_EDGE('',*,*,#870,.F.);
#888 = ORIENTED_EDGE('',*,*,#78,.T.);
#889 = ORIENTED_EDGE('',*,*,#293,.T.);
#890 = CYLINDRICAL_SURFACE('',#891,1.6);
#891 = AXIS2_PLACEMENT_3D('',#892,#893,#894);
#892 = CARTESIAN_POINT('',(-4.99,-12.85,-12.1));
#893 = DIRECTION('',(0.,2.22044604925E-16,1.));
#894 = DIRECTION('',(0.,-1.,2.22044604925E-16));
#895 = ADVANCED_FACE('',(#896),#907,.F.);
#896 = FACE_BOUND('',#897,.F.);
#897 = EDGE_LOOP('',(#898,#899,#905,#906));
#898 = ORIENTED_EDGE('',*,*,#500,.F.);
#899 = ORIENTED_EDGE('',*,*,#900,.F.);
#900 = EDGE_CURVE('',#190,#501,#901,.T.);
#901 = LINE('',#902,#903);
#902 = CARTESIAN_POINT('',(-7.65,5.95,-12.1));
#903 = VECTOR('',#904,1.);
#904 = DIRECTION('',(0.,2.22044604925E-16,1.));
#905 = ORIENTED_EDGE('',*,*,#189,.T.);
#906 = ORIENTED_EDGE('',*,*,#900,.T.);
#907 = CYLINDRICAL_SURFACE('',#908,1.7);
#908 = AXIS2_PLACEMENT_3D('',#909,#910,#911);
#909 = CARTESIAN_POINT('',(-7.65,7.65,-12.1));
#910 = DIRECTION('',(0.,2.22044604925E-16,1.));
#911 = DIRECTION('',(0.,-1.,2.22044604925E-16));
#912 = ADVANCED_FACE('',(#913),#924,.F.);
#913 = FACE_BOUND('',#914,.F.);
#914 = EDGE_LOOP('',(#915,#916,#922,#923));
#915 = ORIENTED_EDGE('',*,*,#511,.F.);
#916 = ORIENTED_EDGE('',*,*,#917,.F.);
#917 = EDGE_CURVE('',#201,#512,#918,.T.);
#918 = LINE('',#919,#920);
#919 = CARTESIAN_POINT('',(-1.74,2.437,-12.1));
#920 = VECTOR('',#921,1.);
#921 = DIRECTION('',(0.,2.22044604925E-16,1.));
#922 = ORIENTED_EDGE('',*,*,#200,.T.);
#923 = ORIENTED_EDGE('',*,*,#917,.T.);
#924 = CYLINDRICAL_SURFACE('',#925,1.6);
#925 = AXIS2_PLACEMENT_3D('',#926,#927,#928);
#926 = CARTESIAN_POINT('',(-1.74,4.037,-12.1));
#927 = DIRECTION('',(0.,2.22044604925E-16,1.));
#928 = DIRECTION('',(0.,-1.,2.22044604925E-16));
#929 = ADVANCED_FACE('',(#930),#941,.F.);
#930 = FACE_BOUND('',#931,.F.);
#931 = EDGE_LOOP('',(#932,#933,#939,#940));
#932 = ORIENTED_EDGE('',*,*,#544,.F.);
#933 = ORIENTED_EDGE('',*,*,#934,.F.);
#934 = EDGE_CURVE('',#212,#545,#935,.T.);
#935 = LINE('',#936,#937);
#936 = CARTESIAN_POINT('',(4.76,2.437,-12.1));
#937 = VECTOR('',#938,1.);
#938 = DIRECTION('',(0.,2.22044604925E-16,1.));
#939 = ORIENTED_EDGE('',*,*,#211,.T.);
#940 = ORIENTED_EDGE('',*,*,#934,.T.);
#941 = CYLINDRICAL_SURFACE('',#942,1.6);
#942 = AXIS2_PLACEMENT_3D('',#943,#944,#945);
#943 = CARTESIAN_POINT('',(4.76,4.037,-12.1));
#944 = DIRECTION('',(0.,2.22044604925E-16,1.));
#945 = DIRECTION('',(0.,-1.,2.22044604925E-16));
#946 = ADVANCED_FACE('',(#947),#958,.F.);
#947 = FACE_BOUND('',#948,.F.);
#948 = EDGE_LOOP('',(#949,#950,#956,#957));
#949 = ORIENTED_EDGE('',*,*,#522,.F.);
#950 = ORIENTED_EDGE('',*,*,#951,.F.);
#951 = EDGE_CURVE('',#223,#523,#952,.T.);
#952 = LINE('',#953,#954);
#953 = CARTESIAN_POINT('',(-4.99,-3.192,-12.1));
#954 = VECTOR('',#955,1.);
#955 = DIRECTION('',(0.,2.22044604925E-16,1.));
#956 = ORIENTED_EDGE('',*,*,#222,.T.);
#957 = ORIENTED_EDGE('',*,*,#951,.T.);
#958 = CYLINDRICAL_SURFACE('',#959,1.6);
#959 = AXIS2_PLACEMENT_3D('',#960,#961,#962);
#960 = CARTESIAN_POINT('',(-4.99,-1.592,-12.1));
#961 = DIRECTION('',(0.,2.22044604925E-16,1.));
#962 = DIRECTION('',(0.,-1.,2.22044604925E-16));
#963 = ADVANCED_FACE('',(#964),#975,.F.);
#964 = FACE_BOUND('',#965,.F.);
#965 = EDGE_LOOP('',(#966,#967,#973,#974));
#966 = ORIENTED_EDGE('',*,*,#555,.F.);
#967 = ORIENTED_EDGE('',*,*,#968,.F.);
#968 = EDGE_CURVE('',#234,#556,#969,.T.);
#969 = LINE('',#970,#971);
#970 = CARTESIAN_POINT('',(1.51,-3.192,-12.1));
#971 = VECTOR('',#972,1.);
#972 = DIRECTION('',(0.,2.22044604925E-16,1.));
#973 = ORIENTED_EDGE('',*,*,#233,.T.);
#974 = ORIENTED_EDGE('',*,*,#968,.T.);
#975 = CYLINDRICAL_SURFACE('',#976,1.6);
#976 = AXIS2_PLACEMENT_3D('',#977,#978,#979);
#977 = CARTESIAN_POINT('',(1.51,-1.592,-12.1));
#978 = DIRECTION('',(0.,2.22044604925E-16,1.));
#979 = DIRECTION('',(0.,-1.,2.22044604925E-16));
#980 = ADVANCED_FACE('',(#981),#992,.F.);
#981 = FACE_BOUND('',#982,.F.);
#982 = EDGE_LOOP('',(#983,#984,#990,#991));
#983 = ORIENTED_EDGE('',*,*,#577,.F.);
#984 = ORIENTED_EDGE('',*,*,#985,.F.);
#985 = EDGE_CURVE('',#245,#578,#986,.T.);
#986 = LINE('',#987,#988);
#987 = CARTESIAN_POINT('',(8.01,-3.192,-12.1));
#988 = VECTOR('',#989,1.);
#989 = DIRECTION('',(0.,2.22044604925E-16,1.));
#990 = ORIENTED_EDGE('',*,*,#244,.T.);
#991 = ORIENTED_EDGE('',*,*,#985,.T.);
#992 = CYLINDRICAL_SURFACE('',#993,1.6);
#993 = AXIS2_PLACEMENT_3D('',#994,#995,#996);
#994 = CARTESIAN_POINT('',(8.01,-1.592,-12.1));
#995 = DIRECTION('',(0.,2.22044604925E-16,1.));
#996 = DIRECTION('',(0.,-1.,2.22044604925E-16));
#997 = ADVANCED_FACE('',(#998),#1009,.F.);
#998 = FACE_BOUND('',#999,.F.);
#999 = EDGE_LOOP('',(#1000,#1001,#1007,#1008));
#1000 = ORIENTED_EDGE('',*,*,#533,.F.);
#1001 = ORIENTED_EDGE('',*,*,#1002,.F.);
#1002 = EDGE_CURVE('',#256,#534,#1003,.T.);
#1003 = LINE('',#1004,#1005);
#1004 = CARTESIAN_POINT('',(-1.74,-8.821,-12.1));
#1005 = VECTOR('',#1006,1.);
#1006 = DIRECTION('',(0.,2.22044604925E-16,1.));
#1007 = ORIENTED_EDGE('',*,*,#255,.T.);
#1008 = ORIENTED_EDGE('',*,*,#1002,.T.);
#1009 = CYLINDRICAL_SURFACE('',#1010,1.6);
#1010 = AXIS2_PLACEMENT_3D('',#1011,#1012,#1013);
#1011 = CARTESIAN_POINT('',(-1.74,-7.221,-12.1));
#1012 = DIRECTION('',(0.,2.22044604925E-16,1.));
#1013 = DIRECTION('',(0.,-1.,2.22044604925E-16));
#1014 = ADVANCED_FACE('',(#1015),#1026,.F.);
#1015 = FACE_BOUND('',#1016,.F.);
#1016 = EDGE_LOOP('',(#1017,#1018,#1024,#1025));
#1017 = ORIENTED_EDGE('',*,*,#566,.F.);
#1018 = ORIENTED_EDGE('',*,*,#1019,.F.);
#1019 = EDGE_CURVE('',#267,#567,#1020,.T.);
#1020 = LINE('',#1021,#1022);
#1021 = CARTESIAN_POINT('',(4.76,-8.821,-12.1));
#1022 = VECTOR('',#1023,1.);
#1023 = DIRECTION('',(0.,2.22044604925E-16,1.));
#1024 = ORIENTED_EDGE('',*,*,#266,.T.);
#1025 = ORIENTED_EDGE('',*,*,#1019,.T.);
#1026 = CYLINDRICAL_SURFACE('',#1027,1.6);
#1027 = AXIS2_PLACEMENT_3D('',#1028,#1029,#1030);
#1028 = CARTESIAN_POINT('',(4.76,-7.221,-12.1));
#1029 = DIRECTION('',(0.,2.22044604925E-16,1.));
#1030 = DIRECTION('',(0.,-1.,2.22044604925E-16));
#1031 = ADVANCED_FACE('',(#1032),#1050,.F.);
#1032 = FACE_BOUND('',#1033,.F.);
#1033 = EDGE_LOOP('',(#1034,#1042,#1043,#1044));
#1034 = ORIENTED_EDGE('',*,*,#1035,.F.);
#1035 = EDGE_CURVE('',#423,#1036,#1038,.T.);
#1036 = VERTEX_POINT('',#1037);
#1037 = CARTESIAN_POINT('',(11.73,-9.398419331395,1.80675882093));
#1038 = B_SPLINE_CURVE_WITH_KNOTS('',2,(#1039,#1040,#1041),
  .UNSPECIFIED.,.F.,.F.,(3,3),(0.,1.),.PIECEWISE_BEZIER_KNOTS.);
#1039 = CARTESIAN_POINT('',(11.73,-9.332558139535,2.069431422674));
#1040 = CARTESIAN_POINT('',(11.73,-9.332558139535,1.907957948837));
#1041 = CARTESIAN_POINT('',(11.73,-9.398419331395,1.80675882093));
#1042 = ORIENTED_EDGE('',*,*,#430,.F.);
#1043 = ORIENTED_EDGE('',*,*,#722,.F.);
#1044 = ORIENTED_EDGE('',*,*,#1045,.F.);
#1045 = EDGE_CURVE('',#1036,#723,#1046,.T.);
#1046 = LINE('',#1047,#1048);
#1047 = CARTESIAN_POINT('',(11.73,-9.398419331395,1.80675882093));
#1048 = VECTOR('',#1049,1.);
#1049 = DIRECTION('',(1.,-1.110223024625E-16,3.697785493223E-32));
#1050 = SURFACE_OF_LINEAR_EXTRUSION('',#1051,#1055);
#1051 = B_SPLINE_CURVE_WITH_KNOTS('',2,(#1052,#1053,#1054),
  .UNSPECIFIED.,.F.,.F.,(3,3),(0.,1.),.PIECEWISE_BEZIER_KNOTS.);
#1052 = CARTESIAN_POINT('',(11.73,-9.332558139535,2.069431422674));
#1053 = CARTESIAN_POINT('',(11.73,-9.332558139535,1.907957948837));
#1054 = CARTESIAN_POINT('',(11.73,-9.398419331395,1.80675882093));
#1055 = VECTOR('',#1056,1.);
#1056 = DIRECTION('',(-1.,1.110223024625E-16,-3.697785493223E-32));
#1057 = ADVANCED_FACE('',(#1058),#1147,.T.);
#1058 = FACE_BOUND('',#1059,.T.);
#1059 = EDGE_LOOP('',(#1060,#1061,#1069,#1077,#1085,#1093,#1101,#1107,
    #1108,#1116,#1124,#1132,#1140,#1146));
#1060 = ORIENTED_EDGE('',*,*,#422,.F.);
#1061 = ORIENTED_EDGE('',*,*,#1062,.F.);
#1062 = EDGE_CURVE('',#1063,#413,#1065,.T.);
#1063 = VERTEX_POINT('',#1064);
#1064 = CARTESIAN_POINT('',(11.73,-9.493032340116,1.888880913953));
#1065 = B_SPLINE_CURVE_WITH_KNOTS('',2,(#1066,#1067,#1068),
  .UNSPECIFIED.,.F.,.F.,(3,3),(0.,1.),.PIECEWISE_BEZIER_KNOTS.);
#1066 = CARTESIAN_POINT('',(11.73,-9.493032340116,1.888880913953));
#1067 = CARTESIAN_POINT('',(11.73,-9.445930232558,1.967233021512));
#1068 = CARTESIAN_POINT('',(11.73,-9.445930232558,2.058530259884));
#1069 = ORIENTED_EDGE('',*,*,#1070,.F.);
#1070 = EDGE_CURVE('',#1071,#1063,#1073,.T.);
#1071 = VERTEX_POINT('',#1072);
#1072 = CARTESIAN_POINT('',(11.73,-9.635337936047,1.773374009884));
#1073 = B_SPLINE_CURVE_WITH_KNOTS('',2,(#1074,#1075,#1076),
  .UNSPECIFIED.,.F.,.F.,(3,3),(0.,1.),.PIECEWISE_BEZIER_KNOTS.);
#1074 = CARTESIAN_POINT('',(11.73,-9.635337936047,1.773374009884));
#1075 = CARTESIAN_POINT('',(11.73,-9.540134447674,1.810528806395));
#1076 = CARTESIAN_POINT('',(11.73,-9.493032340116,1.888880913953));
#1077 = ORIENTED_EDGE('',*,*,#1078,.F.);
#1078 = EDGE_CURVE('',#1079,#1071,#1081,.T.);
#1079 = VERTEX_POINT('',#1080);
#1080 = CARTESIAN_POINT('',(11.73,-9.858175872093,1.736264634884));
#1081 = B_SPLINE_CURVE_WITH_KNOTS('',2,(#1082,#1083,#1084),
  .UNSPECIFIED.,.F.,.F.,(3,3),(0.,1.),.PIECEWISE_BEZIER_KNOTS.);
#1082 = CARTESIAN_POINT('',(11.73,-9.858175872093,1.736264634884));
#1083 = CARTESIAN_POINT('',(11.73,-9.730541424419,1.736264634884));
#1084 = CARTESIAN_POINT('',(11.73,-9.635337936047,1.773374009884));
#1085 = ORIENTED_EDGE('',*,*,#1086,.F.);
#1086 = EDGE_CURVE('',#1087,#1079,#1089,.T.);
#1087 = VERTEX_POINT('',#1088);
#1088 = CARTESIAN_POINT('',(11.73,-10.05030886627,1.767605477907));
#1089 = B_SPLINE_CURVE_WITH_KNOTS('',2,(#1090,#1091,#1092),
  .UNSPECIFIED.,.F.,.F.,(3,3),(0.,1.),.PIECEWISE_BEZIER_KNOTS.);
#1090 = CARTESIAN_POINT('',(11.73,-10.05030886627,1.767605477907));
#1091 = CARTESIAN_POINT('',(11.73,-9.95714934593,1.736264634884));
#1092 = CARTESIAN_POINT('',(11.73,-9.858175872093,1.736264634884));
#1093 = ORIENTED_EDGE('',*,*,#1094,.F.);
#1094 = EDGE_CURVE('',#1095,#1087,#1097,.T.);
#1095 = VERTEX_POINT('',#1096);
#1096 = CARTESIAN_POINT('',(11.73,-10.19879178779,1.876253733721));
#1097 = B_SPLINE_CURVE_WITH_KNOTS('',2,(#1098,#1099,#1100),
  .UNSPECIFIED.,.F.,.F.,(3,3),(0.,1.),.PIECEWISE_BEZIER_KNOTS.);
#1098 = CARTESIAN_POINT('',(11.73,-10.19879178779,1.876253733721));
#1099 = CARTESIAN_POINT('',(11.73,-10.14351380814,1.79894632093));
#1100 = CARTESIAN_POINT('',(11.73,-10.05030886627,1.767605477907));
#1101 = ORIENTED_EDGE('',*,*,#1102,.F.);
#1102 = EDGE_CURVE('',#387,#1095,#1103,.T.);
#1103 = B_SPLINE_CURVE_WITH_KNOTS('',2,(#1104,#1105,#1106),
  .UNSPECIFIED.,.F.,.F.,(3,3),(0.,1.),.PIECEWISE_BEZIER_KNOTS.);
#1104 = CARTESIAN_POINT('',(11.73,-10.25406976744,2.0687501));
#1105 = CARTESIAN_POINT('',(11.73,-10.25406976744,1.953606568023));
#1106 = CARTESIAN_POINT('',(11.73,-10.19879178779,1.876253733721));
#1107 = ORIENTED_EDGE('',*,*,#386,.F.);
#1108 = ORIENTED_EDGE('',*,*,#1109,.F.);
#1109 = EDGE_CURVE('',#1110,#377,#1112,.T.);
#1110 = VERTEX_POINT('',#1111);
#1111 = CARTESIAN_POINT('',(11.73,-10.30703125,1.829242469186));
#1112 = B_SPLINE_CURVE_WITH_KNOTS('',2,(#1113,#1114,#1115),
  .UNSPECIFIED.,.F.,.F.,(3,3),(0.,1.),.PIECEWISE_BEZIER_KNOTS.);
#1113 = CARTESIAN_POINT('',(11.73,-10.30703125,1.829242469186));
#1114 = CARTESIAN_POINT('',(11.73,-10.36744186046,1.93929879186));
#1115 = CARTESIAN_POINT('',(11.73,-10.36744186046,2.071475390698));
#1116 = ORIENTED_EDGE('',*,*,#1117,.F.);
#1117 = EDGE_CURVE('',#1118,#1110,#1120,.T.);
#1118 = VERTEX_POINT('',#1119);
#1119 = CARTESIAN_POINT('',(11.73,-10.13020530523,1.659593123256));
#1120 = B_SPLINE_CURVE_WITH_KNOTS('',2,(#1121,#1122,#1123),
  .UNSPECIFIED.,.F.,.F.,(3,3),(0.,1.),.PIECEWISE_BEZIER_KNOTS.);
#1121 = CARTESIAN_POINT('',(11.73,-10.13020530523,1.659593123256));
#1122 = CARTESIAN_POINT('',(11.73,-10.24662063953,1.719231568023));
#1123 = CARTESIAN_POINT('',(11.73,-10.30703125,1.829242469186));
#1124 = ORIENTED_EDGE('',*,*,#1125,.F.);
#1125 = EDGE_CURVE('',#1126,#1118,#1128,.T.);
#1126 = VERTEX_POINT('',#1127);
#1127 = CARTESIAN_POINT('',(11.73,-9.857494549419,1.6000001));
#1128 = B_SPLINE_CURVE_WITH_KNOTS('',2,(#1129,#1130,#1131),
  .UNSPECIFIED.,.F.,.F.,(3,3),(0.,1.),.PIECEWISE_BEZIER_KNOTS.);
#1129 = CARTESIAN_POINT('',(11.73,-9.857494549419,1.6000001));
#1130 = CARTESIAN_POINT('',(11.73,-10.01383539244,1.6000001));
#1131 = CARTESIAN_POINT('',(11.73,-10.13020530523,1.659593123256));
#1132 = ORIENTED_EDGE('',*,*,#1133,.F.);
#1133 = EDGE_CURVE('',#1134,#1126,#1136,.T.);
#1134 = VERTEX_POINT('',#1135);
#1135 = CARTESIAN_POINT('',(11.73,-9.589235101744,1.652779896512));
#1136 = B_SPLINE_CURVE_WITH_KNOTS('',2,(#1137,#1138,#1139),
  .UNSPECIFIED.,.F.,.F.,(3,3),(0.,1.),.PIECEWISE_BEZIER_KNOTS.);
#1137 = CARTESIAN_POINT('',(11.73,-9.589235101744,1.652779896512));
#1138 = CARTESIAN_POINT('',(11.73,-9.714144258721,1.6000001));
#1139 = CARTESIAN_POINT('',(11.73,-9.857494549419,1.6000001));
#1140 = ORIENTED_EDGE('',*,*,#1141,.F.);
#1141 = EDGE_CURVE('',#1036,#1134,#1142,.T.);
#1142 = B_SPLINE_CURVE_WITH_KNOTS('',2,(#1143,#1144,#1145),
  .UNSPECIFIED.,.F.,.F.,(3,3),(0.,1.),.PIECEWISE_BEZIER_KNOTS.);
#1143 = CARTESIAN_POINT('',(11.73,-9.398419331395,1.80675882093));
#1144 = CARTESIAN_POINT('',(11.73,-9.464325944767,1.705605114535));
#1145 = CARTESIAN_POINT('',(11.73,-9.589235101744,1.652779896512));
#1146 = ORIENTED_EDGE('',*,*,#1035,.F.);
#1147 = PLANE('',#1148);
#1148 = AXIS2_PLACEMENT_3D('',#1149,#1150,#1151);
#1149 = CARTESIAN_POINT('',(11.73,-9.83276997839,2.461432885106));
#1150 = DIRECTION('',(1.,-1.110223024625E-16,3.697785493223E-32));
#1151 = DIRECTION('',(0.,3.330669073875E-16,1.));
#1152 = ADVANCED_FACE('',(#1153),#1176,.F.);
#1153 = FACE_BOUND('',#1154,.F.);
#1154 = EDGE_LOOP('',(#1155,#1156,#1164,#1175));
#1155 = ORIENTED_EDGE('',*,*,#1062,.F.);
#1156 = ORIENTED_EDGE('',*,*,#1157,.T.);
#1157 = EDGE_CURVE('',#1063,#1158,#1160,.T.);
#1158 = VERTEX_POINT('',#1159);
#1159 = CARTESIAN_POINT('',(12.35,-9.493032340116,1.888880913953));
#1160 = LINE('',#1161,#1162);
#1161 = CARTESIAN_POINT('',(11.73,-9.493032340116,1.888880913953));
#1162 = VECTOR('',#1163,1.);
#1163 = DIRECTION('',(1.,-1.110223024625E-16,3.697785493223E-32));
#1164 = ORIENTED_EDGE('',*,*,#1165,.F.);
#1165 = EDGE_CURVE('',#405,#1158,#1166,.T.);
#1166 = B_SPLINE_CURVE_WITH_KNOTS('',4,(#1167,#1168,#1169,#1170,#1171,
    #1172,#1173,#1174),.UNSPECIFIED.,.F.,.F.,(5,3,5),(0.,0.245265245279,
    1.),.UNSPECIFIED.);
#1167 = CARTESIAN_POINT('',(12.35,-9.451003339573,2.));
#1168 = CARTESIAN_POINT('',(12.35,-9.452277108067,1.992827073368));
#1169 = CARTESIAN_POINT('',(12.35,-9.45376419952,1.985712130909));
#1170 = CARTESIAN_POINT('',(12.35,-9.455464640239,1.978655506161));
#1171 = CARTESIAN_POINT('',(12.35,-9.463267264117,1.950123040401));
#1172 = CARTESIAN_POINT('',(12.35,-9.471175705338,1.929143536796));
#1173 = CARTESIAN_POINT('',(12.35,-9.481101346084,1.908727553014));
#1174 = CARTESIAN_POINT('',(12.35,-9.493032340116,1.888880913954));
#1175 = ORIENTED_EDGE('',*,*,#412,.T.);
#1176 = SURFACE_OF_LINEAR_EXTRUSION('',#1177,#1181);
#1177 = B_SPLINE_CURVE_WITH_KNOTS('',2,(#1178,#1179,#1180),
  .UNSPECIFIED.,.F.,.F.,(3,3),(0.,1.),.PIECEWISE_BEZIER_KNOTS.);
#1178 = CARTESIAN_POINT('',(11.73,-9.493032340116,1.888880913953));
#1179 = CARTESIAN_POINT('',(11.73,-9.445930232558,1.967233021512));
#1180 = CARTESIAN_POINT('',(11.73,-9.445930232558,2.058530259884));
#1181 = VECTOR('',#1182,1.);
#1182 = DIRECTION('',(-1.,1.110223024625E-16,-3.697785493223E-32));
#1183 = ADVANCED_FACE('',(#1184),#1248,.T.);
#1184 = FACE_BOUND('',#1185,.T.);
#1185 = EDGE_LOOP('',(#1186,#1187,#1200,#1213,#1226,#1236,#1247));
#1186 = ORIENTED_EDGE('',*,*,#404,.F.);
#1187 = ORIENTED_EDGE('',*,*,#1188,.F.);
#1188 = EDGE_CURVE('',#1189,#395,#1191,.T.);
#1189 = VERTEX_POINT('',#1190);
#1190 = CARTESIAN_POINT('',(12.35,-10.19879178779,1.876253733721));
#1191 = B_SPLINE_CURVE_WITH_KNOTS('',4,(#1192,#1193,#1194,#1195,#1196,
    #1197,#1198,#1199),.UNSPECIFIED.,.F.,.F.,(5,3,5),(0.,0.828634044606,
    1.),.UNSPECIFIED.);
#1192 = CARTESIAN_POINT('',(12.35,-10.19879178779,1.876253733721));
#1193 = CARTESIAN_POINT('',(12.35,-10.21450305266,1.898239176678));
#1194 = CARTESIAN_POINT('',(12.35,-10.22723883963,1.922262023378));
#1195 = CARTESIAN_POINT('',(12.35,-10.23698322047,1.948302424678));
#1196 = CARTESIAN_POINT('',(12.35,-10.24515371423,1.982112663395));
#1197 = CARTESIAN_POINT('',(12.35,-10.24642666214,1.987991089794));
#1198 = CARTESIAN_POINT('',(12.35,-10.24757257063,1.993953680116));
#1199 = CARTESIAN_POINT('',(12.35,-10.24859164562,2.));
#1200 = ORIENTED_EDGE('',*,*,#1201,.F.);
#1201 = EDGE_CURVE('',#1202,#1189,#1204,.T.);
#1202 = VERTEX_POINT('',#1203);
#1203 = CARTESIAN_POINT('',(12.35,-10.05030886627,1.767605477907));
#1204 = B_SPLINE_CURVE_WITH_KNOTS('',4,(#1205,#1206,#1207,#1208,#1209,
    #1210,#1211,#1212),.UNSPECIFIED.,.F.,.F.,(5,3,5),(0.,0.588100325071,
    1.),.UNSPECIFIED.);
#1205 = CARTESIAN_POINT('',(12.35,-10.05030886627,1.767605477907));
#1206 = CARTESIAN_POINT('',(12.35,-10.07766769042,1.776805082518));
#1207 = CARTESIAN_POINT('',(12.35,-10.10289116353,1.788659587837));
#1208 = CARTESIAN_POINT('',(12.35,-10.12594247856,1.803180738775));
#1209 = CARTESIAN_POINT('',(12.35,-10.16141666354,1.832383640887));
#1210 = CARTESIAN_POINT('',(12.35,-10.17495471634,1.845713774654));
#1211 = CARTESIAN_POINT('',(12.35,-10.18741330659,1.860340689355));
#1212 = CARTESIAN_POINT('',(12.35,-10.19879178779,1.876253733721));
#1213 = ORIENTED_EDGE('',*,*,#1214,.F.);
#1214 = EDGE_CURVE('',#1215,#1202,#1217,.T.);
#1215 = VERTEX_POINT('',#1216);
#1216 = CARTESIAN_POINT('',(12.35,-9.858175872093,1.736264634884));
#1217 = B_SPLINE_CURVE_WITH_KNOTS('',4,(#1218,#1219,#1220,#1221,#1222,
    #1223,#1224,#1225),.UNSPECIFIED.,.F.,.F.,(5,3,5),(0.,0.564021655405,
    1.),.UNSPECIFIED.);
#1218 = CARTESIAN_POINT('',(12.35,-9.858175872093,1.736264634884));
#1219 = CARTESIAN_POINT('',(12.35,-9.886074742334,1.736264634884));
#1220 = CARTESIAN_POINT('',(12.35,-9.913677252155,1.737924813462));
#1221 = CARTESIAN_POINT('',(12.35,-9.940977062718,1.741248285844));
#1222 = CARTESIAN_POINT('',(12.35,-9.988832481488,1.750087921334));
#1223 = CARTESIAN_POINT('',(12.35,-10.00951218956,1.754935020271));
#1224 = CARTESIAN_POINT('',(12.35,-10.03000508671,1.760774854846));
#1225 = CARTESIAN_POINT('',(12.35,-10.05030886627,1.767605477907));
#1226 = ORIENTED_EDGE('',*,*,#1227,.F.);
#1227 = EDGE_CURVE('',#1228,#1215,#1230,.T.);
#1228 = VERTEX_POINT('',#1229);
#1229 = CARTESIAN_POINT('',(12.35,-9.635337936047,1.773374009884));
#1230 = B_SPLINE_CURVE_WITH_KNOTS('',4,(#1231,#1232,#1233,#1234,#1235),
  .UNSPECIFIED.,.F.,.F.,(5,5),(0.,1.),.PIECEWISE_BEZIER_KNOTS.);
#1231 = CARTESIAN_POINT('',(12.35,-9.635337936047,1.773374009884));
#1232 = CARTESIAN_POINT('',(12.35,-9.683169151812,1.754729876639));
#1233 = CARTESIAN_POINT('',(12.35,-9.736353041172,1.742371739324));
#1234 = CARTESIAN_POINT('',(12.35,-9.794759270427,1.736264634884));
#1235 = CARTESIAN_POINT('',(12.35,-9.858175872093,1.736264634884));
#1236 = ORIENTED_EDGE('',*,*,#1237,.F.);
#1237 = EDGE_CURVE('',#1158,#1228,#1238,.T.);
#1238 = B_SPLINE_CURVE_WITH_KNOTS('',4,(#1239,#1240,#1241,#1242,#1243,
    #1244,#1245,#1246),.UNSPECIFIED.,.F.,.F.,(5,3,5),(0.,0.239754985305,
    1.),.UNSPECIFIED.);
#1239 = CARTESIAN_POINT('',(12.35,-9.493032340116,1.888880913954));
#1240 = CARTESIAN_POINT('',(12.35,-9.498682908954,1.879481462416));
#1241 = CARTESIAN_POINT('',(12.35,-9.504796659132,1.870474469189));
#1242 = CARTESIAN_POINT('',(12.35,-9.511373370333,1.861861861559));
#1243 = CARTESIAN_POINT('',(12.35,-9.540730928579,1.827589397499));
#1244 = CARTESIAN_POINT('',(12.35,-9.567694462328,1.805511714324));
#1245 = CARTESIAN_POINT('',(12.35,-9.599268121055,1.787450874704));
#1246 = CARTESIAN_POINT('',(12.35,-9.635337936047,1.773374009884));
#1247 = ORIENTED_EDGE('',*,*,#1165,.F.);
#1248 = PLANE('',#1249);
#1249 = AXIS2_PLACEMENT_3D('',#1250,#1251,#1252);
#1250 = CARTESIAN_POINT('',(12.35,27.65,-202.6));
#1251 = DIRECTION('',(1.,0.,0.));
#1252 = DIRECTION('',(0.,-1.,2.22044604925E-16));
#1253 = ADVANCED_FACE('',(#1254),#1265,.F.);
#1254 = FACE_BOUND('',#1255,.F.);
#1255 = EDGE_LOOP('',(#1256,#1257,#1258,#1259));
#1256 = ORIENTED_EDGE('',*,*,#1102,.F.);
#1257 = ORIENTED_EDGE('',*,*,#394,.F.);
#1258 = ORIENTED_EDGE('',*,*,#1188,.F.);
#1259 = ORIENTED_EDGE('',*,*,#1260,.F.);
#1260 = EDGE_CURVE('',#1095,#1189,#1261,.T.);
#1261 = LINE('',#1262,#1263);
#1262 = CARTESIAN_POINT('',(11.73,-10.19879178779,1.876253733721));
#1263 = VECTOR('',#1264,1.);
#1264 = DIRECTION('',(1.,-1.110223024625E-16,3.697785493223E-32));
#1265 = SURFACE_OF_LINEAR_EXTRUSION('',#1266,#1270);
#1266 = B_SPLINE_CURVE_WITH_KNOTS('',2,(#1267,#1268,#1269),
  .UNSPECIFIED.,.F.,.F.,(3,3),(0.,1.),.PIECEWISE_BEZIER_KNOTS.);
#1267 = CARTESIAN_POINT('',(11.73,-10.25406976744,2.0687501));
#1268 = CARTESIAN_POINT('',(11.73,-10.25406976744,1.953606568023));
#1269 = CARTESIAN_POINT('',(11.73,-10.19879178779,1.876253733721));
#1270 = VECTOR('',#1271,1.);
#1271 = DIRECTION('',(-1.,1.110223024625E-16,-3.697785493223E-32));
#1272 = ADVANCED_FACE('',(#1273),#1284,.F.);
#1273 = FACE_BOUND('',#1274,.F.);
#1274 = EDGE_LOOP('',(#1275,#1276,#1282,#1283));
#1275 = ORIENTED_EDGE('',*,*,#1109,.F.);
#1276 = ORIENTED_EDGE('',*,*,#1277,.T.);
#1277 = EDGE_CURVE('',#1110,#770,#1278,.T.);
#1278 = LINE('',#1279,#1280);
#1279 = CARTESIAN_POINT('',(11.73,-10.30703125,1.829242469186));
#1280 = VECTOR('',#1281,1.);
#1281 = DIRECTION('',(1.,-1.110223024625E-16,3.697785493223E-32));
#1282 = ORIENTED_EDGE('',*,*,#782,.F.);
#1283 = ORIENTED_EDGE('',*,*,#376,.T.);
#1284 = SURFACE_OF_LINEAR_EXTRUSION('',#1285,#1289);
#1285 = B_SPLINE_CURVE_WITH_KNOTS('',2,(#1286,#1287,#1288),
  .UNSPECIFIED.,.F.,.F.,(3,3),(0.,1.),.PIECEWISE_BEZIER_KNOTS.);
#1286 = CARTESIAN_POINT('',(11.73,-10.30703125,1.829242469186));
#1287 = CARTESIAN_POINT('',(11.73,-10.36744186046,1.93929879186));
#1288 = CARTESIAN_POINT('',(11.73,-10.36744186046,2.071475390698));
#1289 = VECTOR('',#1290,1.);
#1290 = DIRECTION('',(-1.,1.110223024625E-16,-3.697785493223E-32));
#1291 = ADVANCED_FACE('',(#1292),#1303,.F.);
#1292 = FACE_BOUND('',#1293,.F.);
#1293 = EDGE_LOOP('',(#1294,#1295,#1301,#1302));
#1294 = ORIENTED_EDGE('',*,*,#1117,.F.);
#1295 = ORIENTED_EDGE('',*,*,#1296,.T.);
#1296 = EDGE_CURVE('',#1118,#759,#1297,.T.);
#1297 = LINE('',#1298,#1299);
#1298 = CARTESIAN_POINT('',(11.73,-10.13020530523,1.659593123256));
#1299 = VECTOR('',#1300,1.);
#1300 = DIRECTION('',(1.,-1.110223024625E-16,3.697785493223E-32));
#1301 = ORIENTED_EDGE('',*,*,#769,.F.);
#1302 = ORIENTED_EDGE('',*,*,#1277,.F.);
#1303 = SURFACE_OF_LINEAR_EXTRUSION('',#1304,#1308);
#1304 = B_SPLINE_CURVE_WITH_KNOTS('',2,(#1305,#1306,#1307),
  .UNSPECIFIED.,.F.,.F.,(3,3),(0.,1.),.PIECEWISE_BEZIER_KNOTS.);
#1305 = CARTESIAN_POINT('',(11.73,-10.13020530523,1.659593123256));
#1306 = CARTESIAN_POINT('',(11.73,-10.24662063953,1.719231568023));
#1307 = CARTESIAN_POINT('',(11.73,-10.30703125,1.829242469186));
#1308 = VECTOR('',#1309,1.);
#1309 = DIRECTION('',(-1.,1.110223024625E-16,-3.697785493223E-32));
#1310 = ADVANCED_FACE('',(#1311),#1322,.F.);
#1311 = FACE_BOUND('',#1312,.F.);
#1312 = EDGE_LOOP('',(#1313,#1314,#1320,#1321));
#1313 = ORIENTED_EDGE('',*,*,#1125,.F.);
#1314 = ORIENTED_EDGE('',*,*,#1315,.T.);
#1315 = EDGE_CURVE('',#1126,#749,#1316,.T.);
#1316 = LINE('',#1317,#1318);
#1317 = CARTESIAN_POINT('',(11.73,-9.857494549419,1.6000001));
#1318 = VECTOR('',#1319,1.);
#1319 = DIRECTION('',(1.,-1.110223024625E-16,3.697785493223E-32));
#1320 = ORIENTED_EDGE('',*,*,#758,.F.);
#1321 = ORIENTED_EDGE('',*,*,#1296,.F.);
#1322 = SURFACE_OF_LINEAR_EXTRUSION('',#1323,#1327);
#1323 = B_SPLINE_CURVE_WITH_KNOTS('',2,(#1324,#1325,#1326),
  .UNSPECIFIED.,.F.,.F.,(3,3),(0.,1.),.PIECEWISE_BEZIER_KNOTS.);
#1324 = CARTESIAN_POINT('',(11.73,-9.857494549419,1.6000001));
#1325 = CARTESIAN_POINT('',(11.73,-10.01383539244,1.6000001));
#1326 = CARTESIAN_POINT('',(11.73,-10.13020530523,1.659593123256));
#1327 = VECTOR('',#1328,1.);
#1328 = DIRECTION('',(-1.,1.110223024625E-16,-3.697785493223E-32));
#1329 = ADVANCED_FACE('',(#1330),#1341,.F.);
#1330 = FACE_BOUND('',#1331,.F.);
#1331 = EDGE_LOOP('',(#1332,#1333,#1339,#1340));
#1332 = ORIENTED_EDGE('',*,*,#1133,.F.);
#1333 = ORIENTED_EDGE('',*,*,#1334,.T.);
#1334 = EDGE_CURVE('',#1134,#736,#1335,.T.);
#1335 = LINE('',#1336,#1337);
#1336 = CARTESIAN_POINT('',(11.73,-9.589235101744,1.652779896512));
#1337 = VECTOR('',#1338,1.);
#1338 = DIRECTION('',(1.,-1.110223024625E-16,3.697785493223E-32));
#1339 = ORIENTED_EDGE('',*,*,#748,.F.);
#1340 = ORIENTED_EDGE('',*,*,#1315,.F.);
#1341 = SURFACE_OF_LINEAR_EXTRUSION('',#1342,#1346);
#1342 = B_SPLINE_CURVE_WITH_KNOTS('',2,(#1343,#1344,#1345),
  .UNSPECIFIED.,.F.,.F.,(3,3),(0.,1.),.PIECEWISE_BEZIER_KNOTS.);
#1343 = CARTESIAN_POINT('',(11.73,-9.589235101744,1.652779896512));
#1344 = CARTESIAN_POINT('',(11.73,-9.714144258721,1.6000001));
#1345 = CARTESIAN_POINT('',(11.73,-9.857494549419,1.6000001));
#1346 = VECTOR('',#1347,1.);
#1347 = DIRECTION('',(-1.,1.110223024625E-16,-3.697785493223E-32));
#1348 = ADVANCED_FACE('',(#1349),#1355,.F.);
#1349 = FACE_BOUND('',#1350,.F.);
#1350 = EDGE_LOOP('',(#1351,#1352,#1353,#1354));
#1351 = ORIENTED_EDGE('',*,*,#1141,.F.);
#1352 = ORIENTED_EDGE('',*,*,#1045,.T.);
#1353 = ORIENTED_EDGE('',*,*,#735,.F.);
#1354 = ORIENTED_EDGE('',*,*,#1334,.F.);
#1355 = SURFACE_OF_LINEAR_EXTRUSION('',#1356,#1360);
#1356 = B_SPLINE_CURVE_WITH_KNOTS('',2,(#1357,#1358,#1359),
  .UNSPECIFIED.,.F.,.F.,(3,3),(0.,1.),.PIECEWISE_BEZIER_KNOTS.);
#1357 = CARTESIAN_POINT('',(11.73,-9.398419331395,1.80675882093));
#1358 = CARTESIAN_POINT('',(11.73,-9.464325944767,1.705605114535));
#1359 = CARTESIAN_POINT('',(11.73,-9.589235101744,1.652779896512));
#1360 = VECTOR('',#1361,1.);
#1361 = DIRECTION('',(-1.,1.110223024625E-16,-3.697785493223E-32));
#1362 = ADVANCED_FACE('',(#1363),#1374,.F.);
#1363 = FACE_BOUND('',#1364,.F.);
#1364 = EDGE_LOOP('',(#1365,#1366,#1367,#1368));
#1365 = ORIENTED_EDGE('',*,*,#1094,.F.);
#1366 = ORIENTED_EDGE('',*,*,#1260,.T.);
#1367 = ORIENTED_EDGE('',*,*,#1201,.F.);
#1368 = ORIENTED_EDGE('',*,*,#1369,.F.);
#1369 = EDGE_CURVE('',#1087,#1202,#1370,.T.);
#1370 = LINE('',#1371,#1372);
#1371 = CARTESIAN_POINT('',(11.73,-10.05030886627,1.767605477907));
#1372 = VECTOR('',#1373,1.);
#1373 = DIRECTION('',(1.,-1.110223024625E-16,3.697785493223E-32));
#1374 = SURFACE_OF_LINEAR_EXTRUSION('',#1375,#1379);
#1375 = B_SPLINE_CURVE_WITH_KNOTS('',2,(#1376,#1377,#1378),
  .UNSPECIFIED.,.F.,.F.,(3,3),(0.,1.),.PIECEWISE_BEZIER_KNOTS.);
#1376 = CARTESIAN_POINT('',(11.73,-10.19879178779,1.876253733721));
#1377 = CARTESIAN_POINT('',(11.73,-10.14351380814,1.79894632093));
#1378 = CARTESIAN_POINT('',(11.73,-10.05030886627,1.767605477907));
#1379 = VECTOR('',#1380,1.);
#1380 = DIRECTION('',(-1.,1.110223024625E-16,-3.697785493223E-32));
#1381 = ADVANCED_FACE('',(#1382),#1393,.F.);
#1382 = FACE_BOUND('',#1383,.F.);
#1383 = EDGE_LOOP('',(#1384,#1385,#1386,#1387));
#1384 = ORIENTED_EDGE('',*,*,#1086,.F.);
#1385 = ORIENTED_EDGE('',*,*,#1369,.T.);
#1386 = ORIENTED_EDGE('',*,*,#1214,.F.);
#1387 = ORIENTED_EDGE('',*,*,#1388,.F.);
#1388 = EDGE_CURVE('',#1079,#1215,#1389,.T.);
#1389 = LINE('',#1390,#1391);
#1390 = CARTESIAN_POINT('',(11.73,-9.858175872093,1.736264634884));
#1391 = VECTOR('',#1392,1.);
#1392 = DIRECTION('',(1.,-1.110223024625E-16,3.697785493223E-32));
#1393 = SURFACE_OF_LINEAR_EXTRUSION('',#1394,#1398);
#1394 = B_SPLINE_CURVE_WITH_KNOTS('',2,(#1395,#1396,#1397),
  .UNSPECIFIED.,.F.,.F.,(3,3),(0.,1.),.PIECEWISE_BEZIER_KNOTS.);
#1395 = CARTESIAN_POINT('',(11.73,-10.05030886627,1.767605477907));
#1396 = CARTESIAN_POINT('',(11.73,-9.95714934593,1.736264634884));
#1397 = CARTESIAN_POINT('',(11.73,-9.858175872093,1.736264634884));
#1398 = VECTOR('',#1399,1.);
#1399 = DIRECTION('',(-1.,1.110223024625E-16,-3.697785493223E-32));
#1400 = ADVANCED_FACE('',(#1401),#1412,.F.);
#1401 = FACE_BOUND('',#1402,.F.);
#1402 = EDGE_LOOP('',(#1403,#1404,#1405,#1406));
#1403 = ORIENTED_EDGE('',*,*,#1078,.F.);
#1404 = ORIENTED_EDGE('',*,*,#1388,.T.);
#1405 = ORIENTED_EDGE('',*,*,#1227,.F.);
#1406 = ORIENTED_EDGE('',*,*,#1407,.F.);
#1407 = EDGE_CURVE('',#1071,#1228,#1408,.T.);
#1408 = LINE('',#1409,#1410);
#1409 = CARTESIAN_POINT('',(11.73,-9.635337936047,1.773374009884));
#1410 = VECTOR('',#1411,1.);
#1411 = DIRECTION('',(1.,-1.110223024625E-16,3.697785493223E-32));
#1412 = SURFACE_OF_LINEAR_EXTRUSION('',#1413,#1417);
#1413 = B_SPLINE_CURVE_WITH_KNOTS('',2,(#1414,#1415,#1416),
  .UNSPECIFIED.,.F.,.F.,(3,3),(0.,1.),.PIECEWISE_BEZIER_KNOTS.);
#1414 = CARTESIAN_POINT('',(11.73,-9.858175872093,1.736264634884));
#1415 = CARTESIAN_POINT('',(11.73,-9.730541424419,1.736264634884));
#1416 = CARTESIAN_POINT('',(11.73,-9.635337936047,1.773374009884));
#1417 = VECTOR('',#1418,1.);
#1418 = DIRECTION('',(-1.,1.110223024625E-16,-3.697785493223E-32));
#1419 = ADVANCED_FACE('',(#1420),#1426,.F.);
#1420 = FACE_BOUND('',#1421,.F.);
#1421 = EDGE_LOOP('',(#1422,#1423,#1424,#1425));
#1422 = ORIENTED_EDGE('',*,*,#1070,.F.);
#1423 = ORIENTED_EDGE('',*,*,#1407,.T.);
#1424 = ORIENTED_EDGE('',*,*,#1237,.F.);
#1425 = ORIENTED_EDGE('',*,*,#1157,.F.);
#1426 = SURFACE_OF_LINEAR_EXTRUSION('',#1427,#1431);
#1427 = B_SPLINE_CURVE_WITH_KNOTS('',2,(#1428,#1429,#1430),
  .UNSPECIFIED.,.F.,.F.,(3,3),(0.,1.),.PIECEWISE_BEZIER_KNOTS.);
#1428 = CARTESIAN_POINT('',(11.73,-9.635337936047,1.773374009884));
#1429 = CARTESIAN_POINT('',(11.73,-9.540134447674,1.810528806395));
#1430 = CARTESIAN_POINT('',(11.73,-9.493032340116,1.888880913953));
#1431 = VECTOR('',#1432,1.);
#1432 = DIRECTION('',(-1.,1.110223024625E-16,-3.697785493223E-32));
#1433 = ( GEOMETRIC_REPRESENTATION_CONTEXT(3) 
GLOBAL_UNCERTAINTY_ASSIGNED_CONTEXT((#1437)) 
GLOBAL_UNIT_ASSIGNED_CONTEXT((#1434,#1435,#1436)) REPRESENTATION_CONTEXT
('Context #1','3D Context with UNIT and UNCERTAINTY') );
#1434 = ( LENGTH_UNIT() NAMED_UNIT(*) SI_UNIT(.MILLI.,.METRE.) );
#1435 = ( NAMED_UNIT(*) PLANE_ANGLE_UNIT() SI_UNIT($,.RADIAN.) );
#1436 = ( NAMED_UNIT(*) SI_UNIT($,.STERADIAN.) SOLID_ANGLE_UNIT() );
#1437 = UNCERTAINTY_MEASURE_WITH_UNIT(LENGTH_MEASURE(1.E-06),#1434,
  'distance_accuracy_value','confusion accuracy');
#1438 = PRODUCT_RELATED_PRODUCT_CATEGORY('part',$,(#7));
ENDSEC;
END-ISO-10303-21;
