ISO-10303-21;
HEADER;
FILE_DESCRIPTION(('FreeCAD Model'),'2;1');
FILE_NAME('Open CASCADE Shape Model','2026-09-21T21:01:56',('FreeCAD'),(
    'FreeCAD'),'Open CASCADE STEP processor 7.8','FreeCAD','Unknown');
FILE_SCHEMA(('AUTOMOTIVE_DESIGN { 1 0 10303 214 1 1 1 1 }'));
ENDSEC;
DATA;
#1 = APPLICATION_PROTOCOL_DEFINITION('international standard',
  'automotive_design',2000,#2);
#2 = APPLICATION_CONTEXT(
  'core data for automotive mechanical design processes');
#3 = SHAPE_DEFINITION_REPRESENTATION(#4,#10);
#4 = PRODUCT_DEFINITION_SHAPE('','',#5);
#5 = PRODUCT_DEFINITION('design','',#6,#9);
#6 = PRODUCT_DEFINITION_FORMATION('','',#7);
#7 = PRODUCT('Open CASCADE STEP translator 7.8 9',
  'Open CASCADE STEP translator 7.8 9','',(#8));
#8 = PRODUCT_CONTEXT('',#2,'mechanical');
#9 = PRODUCT_DEFINITION_CONTEXT('part definition',#2,'design');
#10 = ADVANCED_BREP_SHAPE_REPRESENTATION('',(#11,#15),#544);
#11 = AXIS2_PLACEMENT_3D('',#12,#13,#14);
#12 = CARTESIAN_POINT('',(0.,0.,0.));
#13 = DIRECTION('',(0.,0.,1.));
#14 = DIRECTION('',(1.,0.,-0.));
#15 = MANIFOLD_SOLID_BREP('',#16);
#16 = CLOSED_SHELL('',(#17,#142,#174,#198,#222,#239,#276,#301,#313,#345,
    #479,#499,#510,#535));
#17 = ADVANCED_FACE('',(#18,#79),#137,.T.);
#18 = FACE_BOUND('',#19,.T.);
#19 = EDGE_LOOP('',(#20,#31,#39,#46,#47,#56,#64,#73));
#20 = ORIENTED_EDGE('',*,*,#21,.F.);
#21 = EDGE_CURVE('',#22,#24,#26,.T.);
#22 = VERTEX_POINT('',#23);
#23 = CARTESIAN_POINT('',(-3.673940397442E-15,18.,15.));
#24 = VERTEX_POINT('',#25);
#25 = CARTESIAN_POINT('',(-14.92481155659,18.,-1.5));
#26 = CIRCLE('',#27,15.);
#27 = AXIS2_PLACEMENT_3D('',#28,#29,#30);
#28 = CARTESIAN_POINT('',(0.,18.,0.));
#29 = DIRECTION('',(0.,1.,0.));
#30 = DIRECTION('',(0.,-0.,1.));
#31 = ORIENTED_EDGE('',*,*,#32,.F.);
#32 = EDGE_CURVE('',#33,#22,#35,.T.);
#33 = VERTEX_POINT('',#34);
#34 = CARTESIAN_POINT('',(-3.673940397442E-15,0.,15.));
#35 = LINE('',#36,#37);
#36 = CARTESIAN_POINT('',(-3.673940397442E-15,0.,15.));
#37 = VECTOR('',#38,1.);
#38 = DIRECTION('',(0.,1.,0.));
#39 = ORIENTED_EDGE('',*,*,#40,.T.);
#40 = EDGE_CURVE('',#33,#33,#41,.T.);
#41 = CIRCLE('',#42,15.);
#42 = AXIS2_PLACEMENT_3D('',#43,#44,#45);
#43 = CARTESIAN_POINT('',(0.,0.,0.));
#44 = DIRECTION('',(0.,1.,0.));
#45 = DIRECTION('',(0.,-0.,1.));
#46 = ORIENTED_EDGE('',*,*,#32,.T.);
#47 = ORIENTED_EDGE('',*,*,#48,.F.);
#48 = EDGE_CURVE('',#49,#22,#51,.T.);
#49 = VERTEX_POINT('',#50);
#50 = CARTESIAN_POINT('',(-14.92481155659,18.,1.5));
#51 = CIRCLE('',#52,15.);
#52 = AXIS2_PLACEMENT_3D('',#53,#54,#55);
#53 = CARTESIAN_POINT('',(0.,18.,0.));
#54 = DIRECTION('',(0.,1.,0.));
#55 = DIRECTION('',(0.,-0.,1.));
#56 = ORIENTED_EDGE('',*,*,#57,.F.);
#57 = EDGE_CURVE('',#58,#49,#60,.T.);
#58 = VERTEX_POINT('',#59);
#59 = CARTESIAN_POINT('',(-14.92481155659,16.5,1.5));
#60 = LINE('',#61,#62);
#61 = CARTESIAN_POINT('',(-14.92481155659,0.,1.5));
#62 = VECTOR('',#63,1.);
#63 = DIRECTION('',(0.,1.,0.));
#64 = ORIENTED_EDGE('',*,*,#65,.F.);
#65 = EDGE_CURVE('',#66,#58,#68,.T.);
#66 = VERTEX_POINT('',#67);
#67 = CARTESIAN_POINT('',(-14.92481155659,16.5,-1.5));
#68 = CIRCLE('',#69,15.);
#69 = AXIS2_PLACEMENT_3D('',#70,#71,#72);
#70 = CARTESIAN_POINT('',(0.,16.5,0.));
#71 = DIRECTION('',(0.,1.,0.));
#72 = DIRECTION('',(0.,-0.,1.));
#73 = ORIENTED_EDGE('',*,*,#74,.T.);
#74 = EDGE_CURVE('',#66,#24,#75,.T.);
#75 = LINE('',#76,#77);
#76 = CARTESIAN_POINT('',(-14.92481155659,0.,-1.5));
#77 = VECTOR('',#78,1.);
#78 = DIRECTION('',(0.,1.,0.));
#79 = FACE_BOUND('',#80,.T.);
#80 = EDGE_LOOP('',(#81));
#81 = ORIENTED_EDGE('',*,*,#82,.T.);
#82 = EDGE_CURVE('',#83,#83,#85,.T.);
#83 = VERTEX_POINT('',#84);
#84 = CARTESIAN_POINT('',(-14.9033553269,7.,1.7));
#85 = B_SPLINE_CURVE_WITH_KNOTS('',8,(#86,#87,#88,#89,#90,#91,#92,#93,
    #94,#95,#96,#97,#98,#99,#100,#101,#102,#103,#104,#105,#106,#107,#108
    ,#109,#110,#111,#112,#113,#114,#115,#116,#117,#118,#119,#120,#121,
    #122,#123,#124,#125,#126,#127,#128,#129,#130,#131,#132,#133,#134,
    #135,#136),.UNSPECIFIED.,.T.,.F.,(9,7,7,7,7,7,7,9),(0.,
    0.152767705277,0.285836943371,0.422068100261,0.588677846051,
    0.714466993315,0.837908194356,1.),.UNSPECIFIED.);
#86 = CARTESIAN_POINT('',(-14.9033553269,7.,1.7));
#87 = CARTESIAN_POINT('',(-14.9033553269,6.822074268387,1.7));
#88 = CARTESIAN_POINT('',(-14.90578275675,6.644220003346,1.678718493161)
  );
#89 = CARTESIAN_POINT('',(-14.91063549478,6.468017312361,1.636180117694)
  );
#90 = CARTESIAN_POINT('',(-14.91778388939,6.295205358264,1.571994686703)
  );
#91 = CARTESIAN_POINT('',(-14.92696422858,6.127877279552,1.485480352736)
  );
#92 = CARTESIAN_POINT('',(-14.93771975899,5.968691150147,1.375777407247)
  );
#93 = CARTESIAN_POINT('',(-14.94933482081,5.82116544617,1.242018464891)
  );
#94 = CARTESIAN_POINT('',(-14.9708011563,5.575986076836,0.945647518761)
  );
#95 = CARTESIAN_POINT('',(-14.98099713662,5.470811770532,0.784696646681)
  );
#96 = CARTESIAN_POINT('',(-14.9903742982,5.383138684944,0.603153367687)
  );
#97 = CARTESIAN_POINT('',(-14.99771744871,5.319344706832,0.405383146204)
  );
#98 = CARTESIAN_POINT('',(-15.00192930227,5.283644329699,0.197262025728)
  );
#99 = CARTESIAN_POINT('',(-15.00251601589,5.278031811615,
    -1.457099427151E-02));
#100 = CARTESIAN_POINT('',(-14.99966469429,5.302197935783,
    -0.223320338045));
#101 = CARTESIAN_POINT('',(-14.98828351947,5.405836156924,
    -0.626964559333));
#102 = CARTESIAN_POINT('',(-14.97979466997,5.48501950953,-0.815226397787
    ));
#103 = CARTESIAN_POINT('',(-14.96950361973,5.585877925904,
    -0.985252990193));
#104 = CARTESIAN_POINT('',(-14.95841347706,5.704006386457,
    -1.135775491728));
#105 = CARTESIAN_POINT('',(-14.94741363267,5.835480055823,-1.26620685749
    ));
#106 = CARTESIAN_POINT('',(-14.93720264113,5.976752634323,
    -1.376462873176));
#107 = CARTESIAN_POINT('',(-14.92827462979,6.124614334773,
    -1.466886857545));
#108 = CARTESIAN_POINT('',(-14.91193045631,6.461533080809,-1.6254287851)
  );
#109 = CARTESIAN_POINT('',(-14.90519610045,6.654475420858,
    -1.685041318753));
#110 = CARTESIAN_POINT('',(-14.90125330853,6.85187205957,-1.718175599416
    ));
#111 = CARTESIAN_POINT('',(-14.90037380516,7.051322012112,
    -1.725334547394));
#112 = CARTESIAN_POINT('',(-14.90264047905,7.250520666574,
    -1.706531603442));
#113 = CARTESIAN_POINT('',(-14.90793681183,7.446960512658,
    -1.661412793219));
#114 = CARTESIAN_POINT('',(-14.91589443441,7.63770576576,-1.58937839465)
  );
#115 = CARTESIAN_POINT('',(-14.93335062729,7.955842916146,-1.41448101619
    ));
#116 = CARTESIAN_POINT('',(-14.94207490304,8.088783360735,
    -1.322683812257));
#117 = CARTESIAN_POINT('',(-14.95172858806,8.215261250908,
    -1.213821816898));
#118 = CARTESIAN_POINT('',(-14.96187069097,8.332532080241,
    -1.087743963912));
#119 = CARTESIAN_POINT('',(-14.97190987879,8.437642938129,
    -0.944673675115));
#120 = CARTESIAN_POINT('',(-14.98112786353,8.527408964071,
    -0.785252241012));
#121 = CARTESIAN_POINT('',(-14.98874357698,8.598353177012,
    -0.610648180919));
#122 = CARTESIAN_POINT('',(-14.99923938701,8.69392916968,-0.238404266369
    ));
#123 = CARTESIAN_POINT('',(-15.00208659643,8.718325548826,
    -4.544020902621E-02));
#124 = CARTESIAN_POINT('',(-15.00202234335,8.717250698638,0.150978352077
    ));
#125 = CARTESIAN_POINT('',(-14.99883236795,8.690147384083,0.34521379808)
  );
#126 = CARTESIAN_POINT('',(-14.99285076387,8.638346288837,0.531648709554
    ));
#127 = CARTESIAN_POINT('',(-14.98486348987,8.565007093641,0.705222487479
    ));
#128 = CARTESIAN_POINT('',(-14.97584757994,8.475085810399,0.86193130782)
  );
#129 = CARTESIAN_POINT('',(-14.95464345836,8.244337137718,1.179529609071
    ));
#130 = CARTESIAN_POINT('',(-14.94197963817,8.092392254977,1.33186079799)
  );
#131 = CARTESIAN_POINT('',(-14.93000849573,7.925862927121,1.456653314001
    ));
#132 = CARTESIAN_POINT('',(-14.91968268344,7.74926570384,1.554916864266)
  );
#133 = CARTESIAN_POINT('',(-14.91160233902,7.565994403152,1.627707945085
    ));
#134 = CARTESIAN_POINT('',(-14.90610511951,7.378670230896,1.675891057505
    ));
#135 = CARTESIAN_POINT('',(-14.9033553269,7.189371270835,1.7));
#136 = CARTESIAN_POINT('',(-14.9033553269,7.,1.7));
#137 = CYLINDRICAL_SURFACE('',#138,15.);
#138 = AXIS2_PLACEMENT_3D('',#139,#140,#141);
#139 = CARTESIAN_POINT('',(0.,0.,0.));
#140 = DIRECTION('',(0.,1.,0.));
#141 = DIRECTION('',(0.,-0.,1.));
#142 = ADVANCED_FACE('',(#143),#169,.T.);
#143 = FACE_BOUND('',#144,.T.);
#144 = EDGE_LOOP('',(#145,#146,#147,#155,#163));
#145 = ORIENTED_EDGE('',*,*,#48,.T.);
#146 = ORIENTED_EDGE('',*,*,#21,.T.);
#147 = ORIENTED_EDGE('',*,*,#148,.T.);
#148 = EDGE_CURVE('',#24,#149,#151,.T.);
#149 = VERTEX_POINT('',#150);
#150 = CARTESIAN_POINT('',(1.,18.,-1.5));
#151 = LINE('',#152,#153);
#152 = CARTESIAN_POINT('',(-8.,18.,-1.5));
#153 = VECTOR('',#154,1.);
#154 = DIRECTION('',(1.,0.,0.));
#155 = ORIENTED_EDGE('',*,*,#156,.F.);
#156 = EDGE_CURVE('',#157,#149,#159,.T.);
#157 = VERTEX_POINT('',#158);
#158 = CARTESIAN_POINT('',(1.,18.,1.5));
#159 = LINE('',#160,#161);
#160 = CARTESIAN_POINT('',(1.,18.,-0.75));
#161 = VECTOR('',#162,1.);
#162 = DIRECTION('',(-0.,0.,-1.));
#163 = ORIENTED_EDGE('',*,*,#164,.F.);
#164 = EDGE_CURVE('',#49,#157,#165,.T.);
#165 = LINE('',#166,#167);
#166 = CARTESIAN_POINT('',(-8.,18.,1.5));
#167 = VECTOR('',#168,1.);
#168 = DIRECTION('',(1.,0.,0.));
#169 = PLANE('',#170);
#170 = AXIS2_PLACEMENT_3D('',#171,#172,#173);
#171 = CARTESIAN_POINT('',(0.,18.,0.));
#172 = DIRECTION('',(0.,1.,0.));
#173 = DIRECTION('',(0.,-0.,1.));
#174 = ADVANCED_FACE('',(#175),#193,.T.);
#175 = FACE_BOUND('',#176,.T.);
#176 = EDGE_LOOP('',(#177,#178,#186,#192));
#177 = ORIENTED_EDGE('',*,*,#74,.F.);
#178 = ORIENTED_EDGE('',*,*,#179,.T.);
#179 = EDGE_CURVE('',#66,#180,#182,.T.);
#180 = VERTEX_POINT('',#181);
#181 = CARTESIAN_POINT('',(1.,16.5,-1.5));
#182 = LINE('',#183,#184);
#183 = CARTESIAN_POINT('',(-16.,16.5,-1.5));
#184 = VECTOR('',#185,1.);
#185 = DIRECTION('',(1.,0.,-0.));
#186 = ORIENTED_EDGE('',*,*,#187,.T.);
#187 = EDGE_CURVE('',#180,#149,#188,.T.);
#188 = LINE('',#189,#190);
#189 = CARTESIAN_POINT('',(1.,16.5,-1.5));
#190 = VECTOR('',#191,1.);
#191 = DIRECTION('',(-0.,1.,0.));
#192 = ORIENTED_EDGE('',*,*,#148,.F.);
#193 = PLANE('',#194);
#194 = AXIS2_PLACEMENT_3D('',#195,#196,#197);
#195 = CARTESIAN_POINT('',(-16.,16.5,-1.5));
#196 = DIRECTION('',(0.,0.,1.));
#197 = DIRECTION('',(1.,0.,-0.));
#198 = ADVANCED_FACE('',(#199),#217,.T.);
#199 = FACE_BOUND('',#200,.T.);
#200 = EDGE_LOOP('',(#201,#202,#203,#211));
#201 = ORIENTED_EDGE('',*,*,#179,.F.);
#202 = ORIENTED_EDGE('',*,*,#65,.T.);
#203 = ORIENTED_EDGE('',*,*,#204,.T.);
#204 = EDGE_CURVE('',#58,#205,#207,.T.);
#205 = VERTEX_POINT('',#206);
#206 = CARTESIAN_POINT('',(1.,16.5,1.5));
#207 = LINE('',#208,#209);
#208 = CARTESIAN_POINT('',(-16.,16.5,1.5));
#209 = VECTOR('',#210,1.);
#210 = DIRECTION('',(1.,0.,-0.));
#211 = ORIENTED_EDGE('',*,*,#212,.F.);
#212 = EDGE_CURVE('',#180,#205,#213,.T.);
#213 = LINE('',#214,#215);
#214 = CARTESIAN_POINT('',(1.,16.5,-1.5));
#215 = VECTOR('',#216,1.);
#216 = DIRECTION('',(0.,0.,1.));
#217 = PLANE('',#218);
#218 = AXIS2_PLACEMENT_3D('',#219,#220,#221);
#219 = CARTESIAN_POINT('',(-16.,16.5,-1.5));
#220 = DIRECTION('',(-0.,1.,0.));
#221 = DIRECTION('',(0.,0.,1.));
#222 = ADVANCED_FACE('',(#223),#234,.F.);
#223 = FACE_BOUND('',#224,.F.);
#224 = EDGE_LOOP('',(#225,#226,#227,#233));
#225 = ORIENTED_EDGE('',*,*,#57,.F.);
#226 = ORIENTED_EDGE('',*,*,#204,.T.);
#227 = ORIENTED_EDGE('',*,*,#228,.T.);
#228 = EDGE_CURVE('',#205,#157,#229,.T.);
#229 = LINE('',#230,#231);
#230 = CARTESIAN_POINT('',(1.,16.5,1.5));
#231 = VECTOR('',#232,1.);
#232 = DIRECTION('',(-0.,1.,0.));
#233 = ORIENTED_EDGE('',*,*,#164,.F.);
#234 = PLANE('',#235);
#235 = AXIS2_PLACEMENT_3D('',#236,#237,#238);
#236 = CARTESIAN_POINT('',(-16.,16.5,1.5));
#237 = DIRECTION('',(0.,0.,1.));
#238 = DIRECTION('',(1.,0.,-0.));
#239 = ADVANCED_FACE('',(#240,#243),#271,.F.);
#240 = FACE_BOUND('',#241,.F.);
#241 = EDGE_LOOP('',(#242));
#242 = ORIENTED_EDGE('',*,*,#40,.T.);
#243 = FACE_BOUND('',#244,.F.);
#244 = EDGE_LOOP('',(#245,#256,#264));
#245 = ORIENTED_EDGE('',*,*,#246,.F.);
#246 = EDGE_CURVE('',#247,#249,#251,.T.);
#247 = VERTEX_POINT('',#248);
#248 = CARTESIAN_POINT('',(-2.003122562401,0.,2.3));
#249 = VERTEX_POINT('',#250);
#250 = CARTESIAN_POINT('',(-7.470345474799E-16,0.,3.05));
#251 = CIRCLE('',#252,3.05);
#252 = AXIS2_PLACEMENT_3D('',#253,#254,#255);
#253 = CARTESIAN_POINT('',(0.,0.,0.));
#254 = DIRECTION('',(0.,1.,0.));
#255 = DIRECTION('',(0.,-0.,1.));
#256 = ORIENTED_EDGE('',*,*,#257,.T.);
#257 = EDGE_CURVE('',#247,#258,#260,.T.);
#258 = VERTEX_POINT('',#259);
#259 = CARTESIAN_POINT('',(-2.003122562401,0.,-2.3));
#260 = LINE('',#261,#262);
#261 = CARTESIAN_POINT('',(-2.003122562401,0.,-2.025));
#262 = VECTOR('',#263,1.);
#263 = DIRECTION('',(-0.,0.,-1.));
#264 = ORIENTED_EDGE('',*,*,#265,.F.);
#265 = EDGE_CURVE('',#249,#258,#266,.T.);
#266 = CIRCLE('',#267,3.05);
#267 = AXIS2_PLACEMENT_3D('',#268,#269,#270);
#268 = CARTESIAN_POINT('',(0.,0.,0.));
#269 = DIRECTION('',(0.,1.,0.));
#270 = DIRECTION('',(0.,-0.,1.));
#271 = PLANE('',#272);
#272 = AXIS2_PLACEMENT_3D('',#273,#274,#275);
#273 = CARTESIAN_POINT('',(0.,0.,0.));
#274 = DIRECTION('',(0.,1.,0.));
#275 = DIRECTION('',(0.,-0.,1.));
#276 = ADVANCED_FACE('',(#277),#296,.F.);
#277 = FACE_BOUND('',#278,.F.);
#278 = EDGE_LOOP('',(#279,#288,#294,#295));
#279 = ORIENTED_EDGE('',*,*,#280,.F.);
#280 = EDGE_CURVE('',#281,#281,#283,.T.);
#281 = VERTEX_POINT('',#282);
#282 = CARTESIAN_POINT('',(-2.003122562401,7.,1.7));
#283 = CIRCLE('',#284,1.7);
#284 = AXIS2_PLACEMENT_3D('',#285,#286,#287);
#285 = CARTESIAN_POINT('',(-2.003122562401,7.,0.));
#286 = DIRECTION('',(1.,0.,0.));
#287 = DIRECTION('',(-0.,0.,1.));
#288 = ORIENTED_EDGE('',*,*,#289,.F.);
#289 = EDGE_CURVE('',#83,#281,#290,.T.);
#290 = LINE('',#291,#292);
#291 = CARTESIAN_POINT('',(-16.,7.,1.7));
#292 = VECTOR('',#293,1.);
#293 = DIRECTION('',(1.,0.,0.));
#294 = ORIENTED_EDGE('',*,*,#82,.T.);
#295 = ORIENTED_EDGE('',*,*,#289,.T.);
#296 = CYLINDRICAL_SURFACE('',#297,1.7);
#297 = AXIS2_PLACEMENT_3D('',#298,#299,#300);
#298 = CARTESIAN_POINT('',(-16.,7.,0.));
#299 = DIRECTION('',(1.,0.,0.));
#300 = DIRECTION('',(-0.,0.,1.));
#301 = ADVANCED_FACE('',(#302),#308,.F.);
#302 = FACE_BOUND('',#303,.F.);
#303 = EDGE_LOOP('',(#304,#305,#306,#307));
#304 = ORIENTED_EDGE('',*,*,#228,.F.);
#305 = ORIENTED_EDGE('',*,*,#212,.F.);
#306 = ORIENTED_EDGE('',*,*,#187,.T.);
#307 = ORIENTED_EDGE('',*,*,#156,.F.);
#308 = PLANE('',#309);
#309 = AXIS2_PLACEMENT_3D('',#310,#311,#312);
#310 = CARTESIAN_POINT('',(1.,16.5,-1.5));
#311 = DIRECTION('',(1.,0.,-0.));
#312 = DIRECTION('',(0.,0.,1.));
#313 = ADVANCED_FACE('',(#314),#340,.F.);
#314 = FACE_BOUND('',#315,.F.);
#315 = EDGE_LOOP('',(#316,#324,#333,#339));
#316 = ORIENTED_EDGE('',*,*,#317,.T.);
#317 = EDGE_CURVE('',#249,#318,#320,.T.);
#318 = VERTEX_POINT('',#319);
#319 = CARTESIAN_POINT('',(-7.470345474799E-16,14.,3.05));
#320 = LINE('',#321,#322);
#321 = CARTESIAN_POINT('',(-7.470345474799E-16,0.,3.05));
#322 = VECTOR('',#323,1.);
#323 = DIRECTION('',(0.,1.,0.));
#324 = ORIENTED_EDGE('',*,*,#325,.F.);
#325 = EDGE_CURVE('',#326,#318,#328,.T.);
#326 = VERTEX_POINT('',#327);
#327 = CARTESIAN_POINT('',(-2.003122562401,14.,2.3));
#328 = CIRCLE('',#329,3.05);
#329 = AXIS2_PLACEMENT_3D('',#330,#331,#332);
#330 = CARTESIAN_POINT('',(0.,14.,0.));
#331 = DIRECTION('',(0.,1.,0.));
#332 = DIRECTION('',(0.,-0.,1.));
#333 = ORIENTED_EDGE('',*,*,#334,.F.);
#334 = EDGE_CURVE('',#247,#326,#335,.T.);
#335 = LINE('',#336,#337);
#336 = CARTESIAN_POINT('',(-2.003122562401,0.,2.3));
#337 = VECTOR('',#338,1.);
#338 = DIRECTION('',(0.,1.,0.));
#339 = ORIENTED_EDGE('',*,*,#246,.T.);
#340 = CYLINDRICAL_SURFACE('',#341,3.05);
#341 = AXIS2_PLACEMENT_3D('',#342,#343,#344);
#342 = CARTESIAN_POINT('',(0.,0.,0.));
#343 = DIRECTION('',(0.,1.,0.));
#344 = DIRECTION('',(0.,-0.,1.));
#345 = ADVANCED_FACE('',(#346,#365),#474,.F.);
#346 = FACE_BOUND('',#347,.F.);
#347 = EDGE_LOOP('',(#348,#357,#358,#359));
#348 = ORIENTED_EDGE('',*,*,#349,.F.);
#349 = EDGE_CURVE('',#318,#350,#352,.T.);
#350 = VERTEX_POINT('',#351);
#351 = CARTESIAN_POINT('',(-2.003122562401,14.,-2.3));
#352 = CIRCLE('',#353,3.05);
#353 = AXIS2_PLACEMENT_3D('',#354,#355,#356);
#354 = CARTESIAN_POINT('',(0.,14.,0.));
#355 = DIRECTION('',(0.,1.,0.));
#356 = DIRECTION('',(0.,-0.,1.));
#357 = ORIENTED_EDGE('',*,*,#317,.F.);
#358 = ORIENTED_EDGE('',*,*,#265,.T.);
#359 = ORIENTED_EDGE('',*,*,#360,.T.);
#360 = EDGE_CURVE('',#258,#350,#361,.T.);
#361 = LINE('',#362,#363);
#362 = CARTESIAN_POINT('',(-2.003122562401,0.,-2.3));
#363 = VECTOR('',#364,1.);
#364 = DIRECTION('',(0.,1.,0.));
#365 = FACE_BOUND('',#366,.F.);
#366 = EDGE_LOOP('',(#367));
#367 = ORIENTED_EDGE('',*,*,#368,.F.);
#368 = EDGE_CURVE('',#369,#369,#371,.T.);
#369 = VERTEX_POINT('',#370);
#370 = CARTESIAN_POINT('',(2.53229145242,7.,1.7));
#371 = B_SPLINE_CURVE_WITH_KNOTS('',6,(#372,#373,#374,#375,#376,#377,
    #378,#379,#380,#381,#382,#383,#384,#385,#386,#387,#388,#389,#390,
    #391,#392,#393,#394,#395,#396,#397,#398,#399,#400,#401,#402,#403,
    #404,#405,#406,#407,#408,#409,#410,#411,#412,#413,#414,#415,#416,
    #417,#418,#419,#420,#421,#422,#423,#424,#425,#426,#427,#428,#429,
    #430,#431,#432,#433,#434,#435,#436,#437,#438,#439,#440,#441,#442,
    #443,#444,#445,#446,#447,#448,#449,#450,#451,#452,#453,#454,#455,
    #456,#457,#458,#459,#460,#461,#462,#463,#464,#465,#466,#467,#468,
    #469,#470,#471,#472,#473),.UNSPECIFIED.,.T.,.F.,(7,5,5,5,5,5,5,5,5,5
    ,5,5,5,5,5,5,5,5,5,5,7),(0.,4.905640279705E-02,9.617678607244E-02,
    0.14394412294,0.188206368382,0.249750032216,0.311297453245,
    0.354983037827,0.403345746471,0.450683953145,0.499494248535,
    0.548548251975,0.595666330583,0.661166296605,0.71013839182,
    0.749348165025,0.811119261254,0.854963607677,0.903502075733,
    0.951012318582,1.),.UNSPECIFIED.);
#372 = CARTESIAN_POINT('',(2.53229145242,7.,1.7));
#373 = CARTESIAN_POINT('',(2.53229145242,6.919632204633,1.7));
#374 = CARTESIAN_POINT('',(2.535351769667,6.839310264136,1.695440627815)
  );
#375 = CARTESIAN_POINT('',(2.541468091317,6.759316682532,1.686332043471)
  );
#376 = CARTESIAN_POINT('',(2.550529896035,6.679947996711,1.672698479195)
  );
#377 = CARTESIAN_POINT('',(2.562330530257,6.601514844336,1.654590909348)
  );
#378 = CARTESIAN_POINT('',(2.590261788,6.450214857728,1.610496150109));
#379 = CARTESIAN_POINT('',(2.606204017196,6.377247853256,1.584847529741)
  );
#380 = CARTESIAN_POINT('',(2.624171496195,6.305594874207,1.555194582328)
  );
#381 = CARTESIAN_POINT('',(2.643891052331,6.235430961433,1.52156398796)
  );
#382 = CARTESIAN_POINT('',(2.665057455172,6.16695375402,1.483977428534)
  );
#383 = CARTESIAN_POINT('',(2.709932619133,6.032902073806,1.400373819089)
  );
#384 = CARTESIAN_POINT('',(2.733679323984,5.967359147569,1.35423521077)
  );
#385 = CARTESIAN_POINT('',(2.758268045996,5.903910092014,1.304015399579)
  );
#386 = CARTESIAN_POINT('',(2.783363299595,5.84276049337,1.249668347876)
  );
#387 = CARTESIAN_POINT('',(2.808605249814,5.784170013926,1.191135459277)
  );
#388 = CARTESIAN_POINT('',(2.856773630349,5.676827976569,1.070170962999)
  );
#389 = CARTESIAN_POINT('',(2.879749243844,5.627636060163,1.008302204949)
  );
#390 = CARTESIAN_POINT('',(2.902208047042,5.581176208535,0.942722257812)
  );
#391 = CARTESIAN_POINT('',(2.923798570831,5.537786536501,0.87342936575)
  );
#392 = CARTESIAN_POINT('',(2.944147947077,5.497849296787,0.800446178581)
  );
#393 = CARTESIAN_POINT('',(2.988893290578,5.411661569999,0.617287935957)
  );
#394 = CARTESIAN_POINT('',(3.011954150078,5.368674629153,0.50295263918)
  );
#395 = CARTESIAN_POINT('',(3.030550470637,5.334895694505,0.382262909564)
  );
#396 = CARTESIAN_POINT('',(3.043465163354,5.311724017804,0.256942103238)
  );
#397 = CARTESIAN_POINT('',(3.05,5.3,0.128875881944));
#398 = CARTESIAN_POINT('',(3.05,5.3,-0.128883749721));
#399 = CARTESIAN_POINT('',(3.043464361502,5.311725448023,-0.25694710577)
  );
#400 = CARTESIAN_POINT('',(3.030550134939,5.334896316563,-0.382259780616
    ));
#401 = CARTESIAN_POINT('',(3.011955687186,5.368671957369,-0.502942088476
    ));
#402 = CARTESIAN_POINT('',(2.988896043282,5.411656267785,-0.61727666818)
  );
#403 = CARTESIAN_POINT('',(2.944390991048,5.497381149585,-0.799451315135
    ));
#404 = CARTESIAN_POINT('',(2.924326381868,5.536750778616,-0.871534947388
    ));
#405 = CARTESIAN_POINT('',(2.903047468634,5.579489697281,-0.940024446109
    ));
#406 = CARTESIAN_POINT('',(2.880913319845,5.625229237922,-1.004896696305
    ));
#407 = CARTESIAN_POINT('',(2.858262837491,5.673642328682,-1.06615204625)
  );
#408 = CARTESIAN_POINT('',(2.810111214537,5.780677411307,-1.187640246433
    ));
#409 = CARTESIAN_POINT('',(2.784546400214,5.839877720944,-1.247107485343
    ));
#410 = CARTESIAN_POINT('',(2.759118923946,5.901710897002,-1.302281201645
    ));
#411 = CARTESIAN_POINT('',(2.734202885634,5.965906048819,-1.353222555082
    ));
#412 = CARTESIAN_POINT('',(2.710146689781,6.032249360409,-1.399979656559
    ));
#413 = CARTESIAN_POINT('',(2.66489031057,6.167466046602,-1.484284251979)
  );
#414 = CARTESIAN_POINT('',(2.643633494988,6.23627698018,-1.52201855421)
  );
#415 = CARTESIAN_POINT('',(2.623839214427,6.306789229187,-1.555759675016
    ));
#416 = CARTESIAN_POINT('',(2.605816968027,6.378802181078,-1.585485457019
    ));
#417 = CARTESIAN_POINT('',(2.589843479456,6.45213820919,-1.611168733771)
  );
#418 = CARTESIAN_POINT('',(2.562038457019,6.603461095182,-1.655039028298
    ));
#419 = CARTESIAN_POINT('',(2.550350491795,6.681523201318,-1.672968362689
    ));
#420 = CARTESIAN_POINT('',(2.54137724339,6.760507490299,-1.686467330849)
  );
#421 = CARTESIAN_POINT('',(2.535321444762,6.840107735503,-1.695485820338
    ));
#422 = CARTESIAN_POINT('',(2.53229145242,6.920031484555,-1.7));
#423 = CARTESIAN_POINT('',(2.53229145242,7.080367795367,-1.7));
#424 = CARTESIAN_POINT('',(2.535351769667,7.160689735864,-1.695440627815
    ));
#425 = CARTESIAN_POINT('',(2.541468091317,7.240683317468,-1.686332043471
    ));
#426 = CARTESIAN_POINT('',(2.550529896035,7.320052003289,-1.672698479195
    ));
#427 = CARTESIAN_POINT('',(2.562330530257,7.398485155664,-1.654590909348
    ));
#428 = CARTESIAN_POINT('',(2.590261788,7.549785142272,-1.610496150109));
#429 = CARTESIAN_POINT('',(2.606204017196,7.622752146744,-1.584847529741
    ));
#430 = CARTESIAN_POINT('',(2.624171496195,7.694405125793,-1.555194582328
    ));
#431 = CARTESIAN_POINT('',(2.643891052331,7.764569038567,-1.52156398796)
  );
#432 = CARTESIAN_POINT('',(2.665057455172,7.83304624598,-1.483977428534)
  );
#433 = CARTESIAN_POINT('',(2.718320410612,7.992154047262,-1.384747143193
    ));
#434 = CARTESIAN_POINT('',(2.751471785885,8.081041606534,-1.319415720227
    ));
#435 = CARTESIAN_POINT('',(2.785982762367,8.165875103122,-1.246400984368
    ));
#436 = CARTESIAN_POINT('',(2.820977922593,8.246098477784,-1.165544571941
    ));
#437 = CARTESIAN_POINT('',(2.855483913821,8.320941421415,-1.076666090888
    ));
#438 = CARTESIAN_POINT('',(2.912998897049,8.440511642411,-0.907086542475
    ));
#439 = CARTESIAN_POINT('',(2.936758068186,8.488168314574,-0.829845515397
    ));
#440 = CARTESIAN_POINT('',(2.959130201344,8.531716732193,-0.748036201914
    ));
#441 = CARTESIAN_POINT('',(2.979557884999,8.570549600191,-0.661844275106
    ));
#442 = CARTESIAN_POINT('',(2.997490824329,8.604053417095,-0.57151909396)
  );
#443 = CARTESIAN_POINT('',(3.024354301578,8.653651300186,-0.402001483279
    ));
#444 = CARTESIAN_POINT('',(3.034364109215,8.671878844854,-0.324197416658
    ));
#445 = CARTESIAN_POINT('',(3.042112485427,8.685850114902,-0.244509728302
    ));
#446 = CARTESIAN_POINT('',(3.047366955575,8.695275310613,-0.163515079217
    ));
#447 = CARTESIAN_POINT('',(3.05,8.7,-8.18101491623E-02));
#448 = CARTESIAN_POINT('',(3.05,8.7,0.128883749721));
#449 = CARTESIAN_POINT('',(3.043464361502,8.688274551977,0.25694710577)
  );
#450 = CARTESIAN_POINT('',(3.030550134939,8.665103683437,0.382259780616)
  );
#451 = CARTESIAN_POINT('',(3.011955687186,8.631328042631,0.502942088476)
  );
#452 = CARTESIAN_POINT('',(2.988896043282,8.588343732215,0.61727666818)
  );
#453 = CARTESIAN_POINT('',(2.944390991048,8.502618850415,0.799451315135)
  );
#454 = CARTESIAN_POINT('',(2.924326381868,8.463249221384,0.871534947388)
  );
#455 = CARTESIAN_POINT('',(2.903047468634,8.420510302719,0.940024446109)
  );
#456 = CARTESIAN_POINT('',(2.880913319845,8.374770762078,1.004896696305)
  );
#457 = CARTESIAN_POINT('',(2.858262837491,8.326357671318,1.06615204625)
  );
#458 = CARTESIAN_POINT('',(2.810111214537,8.219322588693,1.187640246433)
  );
#459 = CARTESIAN_POINT('',(2.784546400214,8.160122279057,1.247107485343)
  );
#460 = CARTESIAN_POINT('',(2.759118923946,8.098289102998,1.302281201645)
  );
#461 = CARTESIAN_POINT('',(2.734202885634,8.034093951181,1.353222555082)
  );
#462 = CARTESIAN_POINT('',(2.710146689781,7.967750639591,1.399979656559)
  );
#463 = CARTESIAN_POINT('',(2.66489031057,7.832533953398,1.484284251979)
  );
#464 = CARTESIAN_POINT('',(2.643633494988,7.76372301982,1.52201855421));
#465 = CARTESIAN_POINT('',(2.623839214427,7.693210770813,1.555759675016)
  );
#466 = CARTESIAN_POINT('',(2.605816968027,7.621197818922,1.585485457019)
  );
#467 = CARTESIAN_POINT('',(2.589843479456,7.54786179081,1.611168733771)
  );
#468 = CARTESIAN_POINT('',(2.562038457019,7.396538904818,1.655039028298)
  );
#469 = CARTESIAN_POINT('',(2.550350491795,7.318476798682,1.672968362689)
  );
#470 = CARTESIAN_POINT('',(2.54137724339,7.239492509701,1.686467330849)
  );
#471 = CARTESIAN_POINT('',(2.535321444762,7.159892264497,1.695485820338)
  );
#472 = CARTESIAN_POINT('',(2.53229145242,7.079968515445,1.7));
#473 = CARTESIAN_POINT('',(2.53229145242,7.,1.7));
#474 = CYLINDRICAL_SURFACE('',#475,3.05);
#475 = AXIS2_PLACEMENT_3D('',#476,#477,#478);
#476 = CARTESIAN_POINT('',(0.,0.,0.));
#477 = DIRECTION('',(0.,1.,0.));
#478 = DIRECTION('',(0.,-0.,1.));
#479 = ADVANCED_FACE('',(#480,#491),#494,.T.);
#480 = FACE_BOUND('',#481,.T.);
#481 = EDGE_LOOP('',(#482,#483,#484,#485));
#482 = ORIENTED_EDGE('',*,*,#334,.F.);
#483 = ORIENTED_EDGE('',*,*,#257,.T.);
#484 = ORIENTED_EDGE('',*,*,#360,.T.);
#485 = ORIENTED_EDGE('',*,*,#486,.F.);
#486 = EDGE_CURVE('',#326,#350,#487,.T.);
#487 = LINE('',#488,#489);
#488 = CARTESIAN_POINT('',(-2.003122562401,14.,-2.025));
#489 = VECTOR('',#490,1.);
#490 = DIRECTION('',(-0.,0.,-1.));
#491 = FACE_BOUND('',#492,.T.);
#492 = EDGE_LOOP('',(#493));
#493 = ORIENTED_EDGE('',*,*,#280,.F.);
#494 = PLANE('',#495);
#495 = AXIS2_PLACEMENT_3D('',#496,#497,#498);
#496 = CARTESIAN_POINT('',(-2.003122562401,-1.,-4.05));
#497 = DIRECTION('',(1.,0.,-0.));
#498 = DIRECTION('',(0.,0.,1.));
#499 = ADVANCED_FACE('',(#500),#505,.F.);
#500 = FACE_BOUND('',#501,.F.);
#501 = EDGE_LOOP('',(#502,#503,#504));
#502 = ORIENTED_EDGE('',*,*,#325,.T.);
#503 = ORIENTED_EDGE('',*,*,#349,.T.);
#504 = ORIENTED_EDGE('',*,*,#486,.F.);
#505 = PLANE('',#506);
#506 = AXIS2_PLACEMENT_3D('',#507,#508,#509);
#507 = CARTESIAN_POINT('',(0.,14.,0.));
#508 = DIRECTION('',(0.,1.,0.));
#509 = DIRECTION('',(0.,-0.,1.));
#510 = ADVANCED_FACE('',(#511),#530,.F.);
#511 = FACE_BOUND('',#512,.F.);
#512 = EDGE_LOOP('',(#513,#521,#528,#529));
#513 = ORIENTED_EDGE('',*,*,#514,.T.);
#514 = EDGE_CURVE('',#369,#515,#517,.T.);
#515 = VERTEX_POINT('',#516);
#516 = CARTESIAN_POINT('',(14.,7.,1.7));
#517 = LINE('',#518,#519);
#518 = CARTESIAN_POINT('',(-16.,7.,1.7));
#519 = VECTOR('',#520,1.);
#520 = DIRECTION('',(1.,0.,0.));
#521 = ORIENTED_EDGE('',*,*,#522,.F.);
#522 = EDGE_CURVE('',#515,#515,#523,.T.);
#523 = CIRCLE('',#524,1.7);
#524 = AXIS2_PLACEMENT_3D('',#525,#526,#527);
#525 = CARTESIAN_POINT('',(14.,7.,0.));
#526 = DIRECTION('',(1.,0.,0.));
#527 = DIRECTION('',(-0.,0.,1.));
#528 = ORIENTED_EDGE('',*,*,#514,.F.);
#529 = ORIENTED_EDGE('',*,*,#368,.T.);
#530 = CYLINDRICAL_SURFACE('',#531,1.7);
#531 = AXIS2_PLACEMENT_3D('',#532,#533,#534);
#532 = CARTESIAN_POINT('',(-16.,7.,0.));
#533 = DIRECTION('',(1.,0.,0.));
#534 = DIRECTION('',(-0.,0.,1.));
#535 = ADVANCED_FACE('',(#536),#539,.F.);
#536 = FACE_BOUND('',#537,.F.);
#537 = EDGE_LOOP('',(#538));
#538 = ORIENTED_EDGE('',*,*,#522,.T.);
#539 = PLANE('',#540);
#540 = AXIS2_PLACEMENT_3D('',#541,#542,#543);
#541 = CARTESIAN_POINT('',(14.,7.,0.));
#542 = DIRECTION('',(1.,0.,0.));
#543 = DIRECTION('',(-0.,0.,1.));
#544 = ( GEOMETRIC_REPRESENTATION_CONTEXT(3) 
GLOBAL_UNCERTAINTY_ASSIGNED_CONTEXT((#548)) GLOBAL_UNIT_ASSIGNED_CONTEXT
((#545,#546,#547)) REPRESENTATION_CONTEXT('Context #1',
  '3D Context with UNIT and UNCERTAINTY') );
#545 = ( LENGTH_UNIT() NAMED_UNIT(*) SI_UNIT(.MILLI.,.METRE.) );
#546 = ( NAMED_UNIT(*) PLANE_ANGLE_UNIT() SI_UNIT($,.RADIAN.) );
#547 = ( NAMED_UNIT(*) SI_UNIT($,.STERADIAN.) SOLID_ANGLE_UNIT() );
#548 = UNCERTAINTY_MEASURE_WITH_UNIT(LENGTH_MEASURE(1.E-07),#545,
  'distance_accuracy_value','confusion accuracy');
#549 = PRODUCT_RELATED_PRODUCT_CATEGORY('part',$,(#7));
ENDSEC;
END-ISO-10303-21;
