ISO-10303-21;
HEADER;
FILE_DESCRIPTION(('FreeCAD Model'),'2;1');
FILE_NAME('Open CASCADE Shape Model','2026-09-25T00:30:27',('FreeCAD'),(
    'FreeCAD'),'Open CASCADE STEP processor 7.8','FreeCAD','Unknown');
FILE_SCHEMA(('AUTOMOTIVE_DESIGN { 1 0 10303 214 1 1 1 1 }'));
ENDSEC;
DATA;
#1 = APPLICATION_PROTOCOL_DEFINITION('international standard',
  'automotive_design',2000,#2);
#2 = APPLICATION_CONTEXT(
  'core data for automotive mechanical design processes');
#3 = SHAPE_DEFINITION_REPRESENTATION(#4,#10);
#4 = PRODUCT_DEFINITION_SHAPE('','',#5);
#5 = PRODUCT_DEFINITION('design','',#6,#9);
#6 = PRODUCT_DEFINITION_FORMATION('','',#7);
#7 = PRODUCT('Open CASCADE STEP translator 7.8 11',
  'Open CASCADE STEP translator 7.8 11','',(#8));
#8 = PRODUCT_CONTEXT('',#2,'mechanical');
#9 = PRODUCT_DEFINITION_CONTEXT('part definition',#2,'design');
#10 = ADVANCED_BREP_SHAPE_REPRESENTATION('',(#11,#15),#735);
#11 = AXIS2_PLACEMENT_3D('',#12,#13,#14);
#12 = CARTESIAN_POINT('',(0.,0.,0.));
#13 = DIRECTION('',(0.,0.,1.));
#14 = DIRECTION('',(1.,0.,-0.));
#15 = MANIFOLD_SOLID_BREP('',#16);
#16 = CLOSED_SHELL('',(#17,#206,#321,#357,#393,#429,#465,#540,#572,#606,
    #624,#642,#660,#678,#696,#721));
#17 = ADVANCED_FACE('',(#18),#201,.T.);
#18 = FACE_BOUND('',#19,.T.);
#19 = EDGE_LOOP('',(#20,#31,#39,#46,#47,#56,#93,#102,#130,#139,#166,#175
    ));
#20 = ORIENTED_EDGE('',*,*,#21,.F.);
#21 = EDGE_CURVE('',#22,#24,#26,.T.);
#22 = VERTEX_POINT('',#23);
#23 = CARTESIAN_POINT('',(-6.858022075225E-15,3.,28.));
#24 = VERTEX_POINT('',#25);
#25 = CARTESIAN_POINT('',(18.841739473347,3.,20.712046099276));
#26 = CIRCLE('',#27,28.);
#27 = AXIS2_PLACEMENT_3D('',#28,#29,#30);
#28 = CARTESIAN_POINT('',(0.,3.,0.));
#29 = DIRECTION('',(0.,1.,0.));
#30 = DIRECTION('',(0.,-0.,1.));
#31 = ORIENTED_EDGE('',*,*,#32,.F.);
#32 = EDGE_CURVE('',#33,#22,#35,.T.);
#33 = VERTEX_POINT('',#34);
#34 = CARTESIAN_POINT('',(-6.858022075225E-15,0.,28.));
#35 = LINE('',#36,#37);
#36 = CARTESIAN_POINT('',(-6.858022075225E-15,0.,28.));
#37 = VECTOR('',#38,1.);
#38 = DIRECTION('',(0.,1.,0.));
#39 = ORIENTED_EDGE('',*,*,#40,.T.);
#40 = EDGE_CURVE('',#33,#33,#41,.T.);
#41 = CIRCLE('',#42,28.);
#42 = AXIS2_PLACEMENT_3D('',#43,#44,#45);
#43 = CARTESIAN_POINT('',(0.,0.,0.));
#44 = DIRECTION('',(0.,1.,0.));
#45 = DIRECTION('',(0.,-0.,1.));
#46 = ORIENTED_EDGE('',*,*,#32,.T.);
#47 = ORIENTED_EDGE('',*,*,#48,.F.);
#48 = EDGE_CURVE('',#49,#22,#51,.T.);
#49 = VERTEX_POINT('',#50);
#50 = CARTESIAN_POINT('',(-18.84173947334,3.,20.712046099277));
#51 = CIRCLE('',#52,28.);
#52 = AXIS2_PLACEMENT_3D('',#53,#54,#55);
#53 = CARTESIAN_POINT('',(0.,3.,0.));
#54 = DIRECTION('',(0.,1.,0.));
#55 = DIRECTION('',(0.,-0.,1.));
#56 = ORIENTED_EDGE('',*,*,#57,.F.);
#57 = EDGE_CURVE('',#58,#49,#60,.T.);
#58 = VERTEX_POINT('',#59);
#59 = CARTESIAN_POINT('',(-20.71204609927,3.,18.841739473346));
#60 = B_SPLINE_CURVE_WITH_KNOTS('',6,(#61,#62,#63,#64,#65,#66,#67,#68,
    #69,#70,#71,#72,#73,#74,#75,#76,#77,#78,#79,#80,#81,#82,#83,#84,#85,
    #86,#87,#88,#89,#90,#91,#92),.UNSPECIFIED.,.F.,.F.,(7,5,5,5,5,5,7),(
    0.,0.278051943428,0.36124459961,0.500287932074,0.591954262946,
    0.722604414287,1.),.UNSPECIFIED.);
#61 = CARTESIAN_POINT('',(-20.71204609927,3.,18.841739473346));
#62 = CARTESIAN_POINT('',(-20.64532582127,2.939572731276,18.91508267373)
  );
#63 = CARTESIAN_POINT('',(-20.57570574232,2.881427866327,18.990987405388
    ));
#64 = CARTESIAN_POINT('',(-20.50257415219,2.825957185396,19.070035064448
    ));
#65 = CARTESIAN_POINT('',(-20.425390081,2.774017600674,19.15268771454));
#66 = CARTESIAN_POINT('',(-20.34364812714,2.726965312916,19.239329410951
    ));
#67 = CARTESIAN_POINT('',(-20.23085178744,2.674629491447,19.357532170559
    ));
#68 = CARTESIAN_POINT('',(-20.20443342306,2.663188685794,19.385128894651
    ));
#69 = CARTESIAN_POINT('',(-20.17756820683,2.652412593787,19.413100963633
    ));
#70 = CARTESIAN_POINT('',(-20.15025817447,2.642360177663,19.441440971519
    ));
#71 = CARTESIAN_POINT('',(-20.12251429477,2.633092970107,19.470132333656
    ));
#72 = CARTESIAN_POINT('',(-20.04730055164,2.610596476969,19.547641974118
    ));
#73 = CARTESIAN_POINT('',(-19.99906983283,2.598877603131,19.597063883856
    ));
#74 = CARTESIAN_POINT('',(-19.94981097641,2.589812323607,19.647241363641
    ));
#75 = CARTESIAN_POINT('',(-19.89973166799,2.583668632113,19.697942177232
    ));
#76 = CARTESIAN_POINT('',(-19.84912214899,2.580614182187,19.748860731625
    ));
#77 = CARTESIAN_POINT('',(-19.76491874317,2.580665898165,19.833058905311
    ));
#78 = CARTESIAN_POINT('',(-19.73139305669,2.582027451891,19.86644684058)
  );
#79 = CARTESIAN_POINT('',(-19.6979042627,2.584730265925,19.899662192186)
  );
#80 = CARTESIAN_POINT('',(-19.66454703253,2.58874324507,19.932613141104)
  );
#81 = CARTESIAN_POINT('',(-19.63140513073,2.594011324635,19.965220974633
    ));
#82 = CARTESIAN_POINT('',(-19.55172816649,2.609658079137,20.043308712325
    ));
#83 = CARTESIAN_POINT('',(-19.50548828864,2.621258038274,20.088368352482
    ));
#84 = CARTESIAN_POINT('',(-19.46002315147,2.635060367159,20.132425522789
    ));
#85 = CARTESIAN_POINT('',(-19.4154381303,2.650812286151,20.175397931712)
  );
#86 = CARTESIAN_POINT('',(-19.37178135335,2.66827412662,20.217259339216)
  );
#87 = CARTESIAN_POINT('',(-19.23832914143,2.727508774783,20.344591800808
    ));
#88 = CARTESIAN_POINT('',(-19.15192464321,2.77449742985,20.426102630554)
  );
#89 = CARTESIAN_POINT('',(-19.06948786391,2.826341209055,20.503080393024
    ));
#90 = CARTESIAN_POINT('',(-18.99063677415,2.881696411289,20.576027348953
    ));
#91 = CARTESIAN_POINT('',(-18.9149125137,2.939712889402,20.645480620474)
  );
#92 = CARTESIAN_POINT('',(-18.8417387451,3.0000006,20.712046761762));
#93 = ORIENTED_EDGE('',*,*,#94,.F.);
#94 = EDGE_CURVE('',#95,#58,#97,.T.);
#95 = VERTEX_POINT('',#96);
#96 = CARTESIAN_POINT('',(-20.71204609927,3.,-18.84173947334));
#97 = CIRCLE('',#98,28.);
#98 = AXIS2_PLACEMENT_3D('',#99,#100,#101);
#99 = CARTESIAN_POINT('',(0.,3.,0.));
#100 = DIRECTION('',(0.,1.,0.));
#101 = DIRECTION('',(0.,-0.,1.));
#102 = ORIENTED_EDGE('',*,*,#103,.F.);
#103 = EDGE_CURVE('',#104,#95,#106,.T.);
#104 = VERTEX_POINT('',#105);
#105 = CARTESIAN_POINT('',(-18.84173947334,3.,-20.71204609927));
#106 = B_SPLINE_CURVE_WITH_KNOTS('',8,(#107,#108,#109,#110,#111,#112,
    #113,#114,#115,#116,#117,#118,#119,#120,#121,#122,#123,#124,#125,
    #126,#127,#128,#129),.UNSPECIFIED.,.F.,.F.,(9,7,7,9),(0.,
    0.365391369142,0.643410914243,1.),.UNSPECIFIED.);
#107 = CARTESIAN_POINT('',(-18.84173947334,3.,-20.71204609927));
#108 = CARTESIAN_POINT('',(-18.9140063194,2.940459536755,-20.64630498034
    ));
#109 = CARTESIAN_POINT('',(-18.98851894842,2.883130508307,
    -20.57799424915));
#110 = CARTESIAN_POINT('',(-19.06587684886,2.828200602348,
    -20.50650443137));
#111 = CARTESIAN_POINT('',(-19.14654240155,2.776235828649,
    -20.43132259428));
#112 = CARTESIAN_POINT('',(-19.23085667523,2.72819646121,-20.35201908832
    ));
#113 = CARTESIAN_POINT('',(-19.31902403406,2.685397009661,
    -20.26827056392));
#114 = CARTESIAN_POINT('',(-19.41114753109,2.649539309159,
    -20.17982183127));
#115 = CARTESIAN_POINT('',(-19.57995549599,2.601780911407,
    -20.01588572298));
#116 = CARTESIAN_POINT('',(-19.65525860675,2.586146964003,
    -19.94216767731));
#117 = CARTESIAN_POINT('',(-19.73192719224,2.576612367616,
    -19.86646035347));
#118 = CARTESIAN_POINT('',(-19.80902612811,2.573874374942,
    -19.78963654714));
#119 = CARTESIAN_POINT('',(-19.88567386254,2.57813907767,-19.71255990465
    ));
#120 = CARTESIAN_POINT('',(-19.96102479205,2.589105949526,
    -19.63610243063));
#121 = CARTESIAN_POINT('',(-20.03425035559,2.60601789352,-19.56116069789
    ));
#122 = CARTESIAN_POINT('',(-20.19466781853,2.655660468135,
    -19.39567383441));
#123 = CARTESIAN_POINT('',(-20.28032816828,2.691625815433,
    -19.30632290171));
#124 = CARTESIAN_POINT('',(-20.36153391971,2.733996569341,
    -19.22073645915));
#125 = CARTESIAN_POINT('',(-20.43853237688,2.781243231405,
    -19.13880396483));
#126 = CARTESIAN_POINT('',(-20.51165014716,2.832159293987,
    -19.06030807419));
#127 = CARTESIAN_POINT('',(-20.58127672739,2.885888008716,
    -18.98493813644));
#128 = CARTESIAN_POINT('',(-20.64789106795,2.941895986653,
    -18.91226279535));
#129 = CARTESIAN_POINT('',(-20.71204676176,3.0000006,-18.8417387451));
#130 = ORIENTED_EDGE('',*,*,#131,.F.);
#131 = EDGE_CURVE('',#132,#104,#134,.T.);
#132 = VERTEX_POINT('',#133);
#133 = CARTESIAN_POINT('',(18.841739473346,3.,-20.71204609927));
#134 = CIRCLE('',#135,28.);
#135 = AXIS2_PLACEMENT_3D('',#136,#137,#138);
#136 = CARTESIAN_POINT('',(0.,3.,0.));
#137 = DIRECTION('',(0.,1.,0.));
#138 = DIRECTION('',(0.,-0.,1.));
#139 = ORIENTED_EDGE('',*,*,#140,.F.);
#140 = EDGE_CURVE('',#141,#132,#143,.T.);
#141 = VERTEX_POINT('',#142);
#142 = CARTESIAN_POINT('',(20.712046099277,3.,-18.84173947334));
#143 = B_SPLINE_CURVE_WITH_KNOTS('',6,(#144,#145,#146,#147,#148,#149,
    #150,#151,#152,#153,#154,#155,#156,#157,#158,#159,#160,#161,#162,
    #163,#164,#165),.UNSPECIFIED.,.F.,.F.,(7,5,5,5,7),(0.,0.246345812736
    ,0.492689163035,0.739032590738,1.),.UNSPECIFIED.);
#144 = CARTESIAN_POINT('',(20.712046099277,3.,-18.84173947334));
#145 = CARTESIAN_POINT('',(20.63678971913,2.931841748231,-18.9244661036)
  );
#146 = CARTESIAN_POINT('',(20.561131950304,2.869565745298,
    -19.00683734138));
#147 = CARTESIAN_POINT('',(20.485084456617,2.813512716058,
    -19.08884045861));
#148 = CARTESIAN_POINT('',(20.408645574895,2.763998953741,
    -19.17047724033));
#149 = CARTESIAN_POINT('',(20.331812654233,2.721302316658,
    -19.25175061576));
#150 = CARTESIAN_POINT('',(20.177376908161,2.649994489539,
    -19.41355115465));
#151 = CARTESIAN_POINT('',(20.099768187904,2.621379869766,-19.4940845379
    ));
#152 = CARTESIAN_POINT('',(20.021776470507,2.600029595491,
    -19.57424281403));
#153 = CARTESIAN_POINT('',(19.943402522927,2.586100521987,
    -19.65402522621));
#154 = CARTESIAN_POINT('',(19.864645756683,2.579671843709,-19.7334324628
    ));
#155 = CARTESIAN_POINT('',(19.706374901396,2.581799772857,
    -19.89148803021));
#156 = CARTESIAN_POINT('',(19.626860513867,2.590356420164,-19.9701366568
    ));
#157 = CARTESIAN_POINT('',(19.546971598655,2.606398980826,
    -20.04840183474));
#158 = CARTESIAN_POINT('',(19.466707257928,2.629834222898,
    -20.12628435033));
#159 = CARTESIAN_POINT('',(19.38606814549,2.660492639902,-20.20378353576
    ));
#160 = CARTESIAN_POINT('',(19.219249740499,2.738019462925,
    -20.36257537157));
#161 = CARTESIAN_POINT('',(19.137352503157,2.783731367521,-20.4397015724
    ));
#162 = CARTESIAN_POINT('',(19.059027699661,2.833712716303,
    -20.51275380502));
#163 = CARTESIAN_POINT('',(18.983931529022,2.886841346179,
    -20.58217632163));
#164 = CARTESIAN_POINT('',(18.911663911156,2.942389406059,
    -20.64843587261));
#165 = CARTESIAN_POINT('',(18.8417387451,3.0000006,-20.71204676176));
#166 = ORIENTED_EDGE('',*,*,#167,.F.);
#167 = EDGE_CURVE('',#168,#141,#170,.T.);
#168 = VERTEX_POINT('',#169);
#169 = CARTESIAN_POINT('',(20.712046099276,3.,18.841739473347));
#170 = CIRCLE('',#171,28.);
#171 = AXIS2_PLACEMENT_3D('',#172,#173,#174);
#172 = CARTESIAN_POINT('',(0.,3.,0.));
#173 = DIRECTION('',(0.,1.,0.));
#174 = DIRECTION('',(0.,-0.,1.));
#175 = ORIENTED_EDGE('',*,*,#176,.F.);
#176 = EDGE_CURVE('',#24,#168,#177,.T.);
#177 = B_SPLINE_CURVE_WITH_KNOTS('',8,(#178,#179,#180,#181,#182,#183,
    #184,#185,#186,#187,#188,#189,#190,#191,#192,#193,#194,#195,#196,
    #197,#198,#199,#200),.UNSPECIFIED.,.F.,.F.,(9,7,7,9),(0.,
    0.241062972304,0.591170441402,1.),.UNSPECIFIED.);
#178 = CARTESIAN_POINT('',(18.841739473346,3.,20.712046099277));
#179 = CARTESIAN_POINT('',(18.899451605889,2.952451126709,
    20.659545396998));
#180 = CARTESIAN_POINT('',(18.956997633166,2.907627939573,
    20.606859921354));
#181 = CARTESIAN_POINT('',(19.014376233128,2.865630201876,
    20.553990870049));
#182 = CARTESIAN_POINT('',(19.071586273447,2.826551773895,
    20.500939276319));
#183 = CARTESIAN_POINT('',(19.128626811506,2.790480612901,
    20.447706008925));
#184 = CARTESIAN_POINT('',(19.18549709441,2.757498773158,20.394291772161
    ));
#185 = CARTESIAN_POINT('',(19.242196558977,2.727682405925,
    20.340697105849));
#186 = CARTESIAN_POINT('',(19.38082358926,2.662497394898,20.208822745566
    ));
#187 = CARTESIAN_POINT('',(19.46723457001,2.628517229617,20.125897593694
    ));
#188 = CARTESIAN_POINT('',(19.557247261158,2.60102483476,20.038678863933
    ));
#189 = CARTESIAN_POINT('',(19.649962372538,2.581847553712,
    19.947897320934));
#190 = CARTESIAN_POINT('',(19.744263951085,2.572510597798,
    19.854534860813));
#191 = CARTESIAN_POINT('',(19.838766266488,2.573858874287,
    19.759900461129));
#192 = CARTESIAN_POINT('',(19.931688510075,2.585452060995,
    19.665808695043));
#193 = CARTESIAN_POINT('',(20.124802678975,2.628737964302,
    19.468293702258));
#194 = CARTESIAN_POINT('',(20.223686153591,2.663495476782,
    19.365863974048));
#195 = CARTESIAN_POINT('',(20.316962923337,2.707450853087,
    19.268071933562));
#196 = CARTESIAN_POINT('',(20.404854034864,2.758186934962,
    19.174912507107));
#197 = CARTESIAN_POINT('',(20.48769962711,2.813864230474,19.086211430075
    ));
#198 = CARTESIAN_POINT('',(20.56603579971,2.873130774117,19.001558472788
    ));
#199 = CARTESIAN_POINT('',(20.640539321558,2.935237647286,
    18.920344306155));
#200 = CARTESIAN_POINT('',(20.712046761762,3.0000006,18.8417387451));
#201 = CYLINDRICAL_SURFACE('',#202,28.);
#202 = AXIS2_PLACEMENT_3D('',#203,#204,#205);
#203 = CARTESIAN_POINT('',(0.,0.,0.));
#204 = DIRECTION('',(0.,1.,0.));
#205 = DIRECTION('',(0.,-0.,1.));
#206 = ADVANCED_FACE('',(#207,#278),#316,.T.);
#207 = FACE_BOUND('',#208,.T.);
#208 = EDGE_LOOP('',(#209,#210,#219,#226,#227,#236,#243,#244,#253,#260,
    #261,#270,#277));
#209 = ORIENTED_EDGE('',*,*,#21,.T.);
#210 = ORIENTED_EDGE('',*,*,#211,.T.);
#211 = EDGE_CURVE('',#24,#212,#214,.T.);
#212 = VERTEX_POINT('',#213);
#213 = CARTESIAN_POINT('',(17.677669529664,3.,14.427669529664));
#214 = CIRCLE('',#215,3.25);
#215 = AXIS2_PLACEMENT_3D('',#216,#217,#218);
#216 = CARTESIAN_POINT('',(17.677669529664,3.,17.677669529664));
#217 = DIRECTION('',(0.,-1.,0.));
#218 = DIRECTION('',(0.,-0.,-1.));
#219 = ORIENTED_EDGE('',*,*,#220,.T.);
#220 = EDGE_CURVE('',#212,#168,#221,.T.);
#221 = CIRCLE('',#222,3.25);
#222 = AXIS2_PLACEMENT_3D('',#223,#224,#225);
#223 = CARTESIAN_POINT('',(17.677669529664,3.,17.677669529664));
#224 = DIRECTION('',(0.,-1.,0.));
#225 = DIRECTION('',(0.,-0.,-1.));
#226 = ORIENTED_EDGE('',*,*,#167,.T.);
#227 = ORIENTED_EDGE('',*,*,#228,.T.);
#228 = EDGE_CURVE('',#141,#229,#231,.T.);
#229 = VERTEX_POINT('',#230);
#230 = CARTESIAN_POINT('',(17.677669529664,3.,-20.92766952966));
#231 = CIRCLE('',#232,3.25);
#232 = AXIS2_PLACEMENT_3D('',#233,#234,#235);
#233 = CARTESIAN_POINT('',(17.677669529664,3.,-17.67766952966));
#234 = DIRECTION('',(0.,-1.,0.));
#235 = DIRECTION('',(0.,-0.,-1.));
#236 = ORIENTED_EDGE('',*,*,#237,.T.);
#237 = EDGE_CURVE('',#229,#132,#238,.T.);
#238 = CIRCLE('',#239,3.25);
#239 = AXIS2_PLACEMENT_3D('',#240,#241,#242);
#240 = CARTESIAN_POINT('',(17.677669529664,3.,-17.67766952966));
#241 = DIRECTION('',(0.,-1.,0.));
#242 = DIRECTION('',(0.,-0.,-1.));
#243 = ORIENTED_EDGE('',*,*,#131,.T.);
#244 = ORIENTED_EDGE('',*,*,#245,.T.);
#245 = EDGE_CURVE('',#104,#246,#248,.T.);
#246 = VERTEX_POINT('',#247);
#247 = CARTESIAN_POINT('',(-17.67766952966,3.,-20.92766952966));
#248 = CIRCLE('',#249,3.25);
#249 = AXIS2_PLACEMENT_3D('',#250,#251,#252);
#250 = CARTESIAN_POINT('',(-17.67766952966,3.,-17.67766952966));
#251 = DIRECTION('',(0.,-1.,0.));
#252 = DIRECTION('',(0.,-0.,-1.));
#253 = ORIENTED_EDGE('',*,*,#254,.T.);
#254 = EDGE_CURVE('',#246,#95,#255,.T.);
#255 = CIRCLE('',#256,3.25);
#256 = AXIS2_PLACEMENT_3D('',#257,#258,#259);
#257 = CARTESIAN_POINT('',(-17.67766952966,3.,-17.67766952966));
#258 = DIRECTION('',(0.,-1.,0.));
#259 = DIRECTION('',(0.,-0.,-1.));
#260 = ORIENTED_EDGE('',*,*,#94,.T.);
#261 = ORIENTED_EDGE('',*,*,#262,.T.);
#262 = EDGE_CURVE('',#58,#263,#265,.T.);
#263 = VERTEX_POINT('',#264);
#264 = CARTESIAN_POINT('',(-17.67766952966,3.,14.427669529664));
#265 = CIRCLE('',#266,3.25);
#266 = AXIS2_PLACEMENT_3D('',#267,#268,#269);
#267 = CARTESIAN_POINT('',(-17.67766952966,3.,17.677669529664));
#268 = DIRECTION('',(0.,-1.,0.));
#269 = DIRECTION('',(0.,-0.,-1.));
#270 = ORIENTED_EDGE('',*,*,#271,.T.);
#271 = EDGE_CURVE('',#263,#49,#272,.T.);
#272 = CIRCLE('',#273,3.25);
#273 = AXIS2_PLACEMENT_3D('',#274,#275,#276);
#274 = CARTESIAN_POINT('',(-17.67766952966,3.,17.677669529664));
#275 = DIRECTION('',(0.,-1.,0.));
#276 = DIRECTION('',(0.,-0.,-1.));
#277 = ORIENTED_EDGE('',*,*,#48,.T.);
#278 = FACE_BOUND('',#279,.T.);
#279 = EDGE_LOOP('',(#280,#291,#300,#309));
#280 = ORIENTED_EDGE('',*,*,#281,.F.);
#281 = EDGE_CURVE('',#282,#284,#286,.T.);
#282 = VERTEX_POINT('',#283);
#283 = CARTESIAN_POINT('',(-5.094530684453E-15,3.,20.8));
#284 = VERTEX_POINT('',#285);
#285 = CARTESIAN_POINT('',(20.690681818182,3.,2.12971498064));
#286 = CIRCLE('',#287,20.8);
#287 = AXIS2_PLACEMENT_3D('',#288,#289,#290);
#288 = CARTESIAN_POINT('',(0.,3.,0.));
#289 = DIRECTION('',(0.,1.,0.));
#290 = DIRECTION('',(0.,-0.,1.));
#291 = ORIENTED_EDGE('',*,*,#292,.F.);
#292 = EDGE_CURVE('',#293,#282,#295,.T.);
#293 = VERTEX_POINT('',#294);
#294 = CARTESIAN_POINT('',(20.690681818182,3.,-2.12971498064));
#295 = CIRCLE('',#296,20.8);
#296 = AXIS2_PLACEMENT_3D('',#297,#298,#299);
#297 = CARTESIAN_POINT('',(0.,3.,0.));
#298 = DIRECTION('',(0.,1.,0.));
#299 = DIRECTION('',(0.,-0.,1.));
#300 = ORIENTED_EDGE('',*,*,#301,.F.);
#301 = EDGE_CURVE('',#302,#293,#304,.T.);
#302 = VERTEX_POINT('',#303);
#303 = CARTESIAN_POINT('',(22.,3.,2.5));
#304 = CIRCLE('',#305,2.5);
#305 = AXIS2_PLACEMENT_3D('',#306,#307,#308);
#306 = CARTESIAN_POINT('',(22.,3.,0.));
#307 = DIRECTION('',(0.,1.,0.));
#308 = DIRECTION('',(0.,-0.,1.));
#309 = ORIENTED_EDGE('',*,*,#310,.F.);
#310 = EDGE_CURVE('',#284,#302,#311,.T.);
#311 = CIRCLE('',#312,2.5);
#312 = AXIS2_PLACEMENT_3D('',#313,#314,#315);
#313 = CARTESIAN_POINT('',(22.,3.,0.));
#314 = DIRECTION('',(0.,1.,0.));
#315 = DIRECTION('',(0.,-0.,1.));
#316 = PLANE('',#317);
#317 = AXIS2_PLACEMENT_3D('',#318,#319,#320);
#318 = CARTESIAN_POINT('',(0.,3.,0.));
#319 = DIRECTION('',(0.,1.,0.));
#320 = DIRECTION('',(0.,-0.,1.));
#321 = ADVANCED_FACE('',(#322),#352,.F.);
#322 = FACE_BOUND('',#323,.F.);
#323 = EDGE_LOOP('',(#324,#332,#341,#348,#349,#350,#351));
#324 = ORIENTED_EDGE('',*,*,#325,.T.);
#325 = EDGE_CURVE('',#212,#326,#328,.T.);
#326 = VERTEX_POINT('',#327);
#327 = CARTESIAN_POINT('',(17.677669529664,0.4,15.977669529664));
#328 = LINE('',#329,#330);
#329 = CARTESIAN_POINT('',(17.677669529664,3.,14.427669529664));
#330 = VECTOR('',#331,1.);
#331 = DIRECTION('',(1.25419640541E-16,-0.858946974209,0.512064542317));
#332 = ORIENTED_EDGE('',*,*,#333,.F.);
#333 = EDGE_CURVE('',#334,#326,#336,.T.);
#334 = VERTEX_POINT('',#335);
#335 = CARTESIAN_POINT('',(17.677669529664,0.4,19.377669529664));
#336 = CIRCLE('',#337,1.7);
#337 = AXIS2_PLACEMENT_3D('',#338,#339,#340);
#338 = CARTESIAN_POINT('',(17.677669529664,0.4,17.677669529664));
#339 = DIRECTION('',(0.,-1.,0.));
#340 = DIRECTION('',(0.,-0.,-1.));
#341 = ORIENTED_EDGE('',*,*,#342,.F.);
#342 = EDGE_CURVE('',#326,#334,#343,.T.);
#343 = CIRCLE('',#344,1.7);
#344 = AXIS2_PLACEMENT_3D('',#345,#346,#347);
#345 = CARTESIAN_POINT('',(17.677669529664,0.4,17.677669529664));
#346 = DIRECTION('',(0.,-1.,0.));
#347 = DIRECTION('',(0.,-0.,-1.));
#348 = ORIENTED_EDGE('',*,*,#325,.F.);
#349 = ORIENTED_EDGE('',*,*,#220,.T.);
#350 = ORIENTED_EDGE('',*,*,#176,.F.);
#351 = ORIENTED_EDGE('',*,*,#211,.T.);
#352 = CONICAL_SURFACE('',#353,3.25,0.537586646659);
#353 = AXIS2_PLACEMENT_3D('',#354,#355,#356);
#354 = CARTESIAN_POINT('',(17.677669529664,3.,17.677669529664));
#355 = DIRECTION('',(-0.,1.,-0.));
#356 = DIRECTION('',(0.,-0.,-1.));
#357 = ADVANCED_FACE('',(#358),#388,.F.);
#358 = FACE_BOUND('',#359,.F.);
#359 = EDGE_LOOP('',(#360,#368,#377,#384,#385,#386,#387));
#360 = ORIENTED_EDGE('',*,*,#361,.T.);
#361 = EDGE_CURVE('',#229,#362,#364,.T.);
#362 = VERTEX_POINT('',#363);
#363 = CARTESIAN_POINT('',(17.677669529664,0.4,-19.37766952966));
#364 = LINE('',#365,#366);
#365 = CARTESIAN_POINT('',(17.677669529664,3.,-20.92766952966));
#366 = VECTOR('',#367,1.);
#367 = DIRECTION('',(1.25419640541E-16,-0.858946974209,0.512064542317));
#368 = ORIENTED_EDGE('',*,*,#369,.F.);
#369 = EDGE_CURVE('',#370,#362,#372,.T.);
#370 = VERTEX_POINT('',#371);
#371 = CARTESIAN_POINT('',(17.677669529664,0.4,-15.97766952966));
#372 = CIRCLE('',#373,1.7);
#373 = AXIS2_PLACEMENT_3D('',#374,#375,#376);
#374 = CARTESIAN_POINT('',(17.677669529664,0.4,-17.67766952966));
#375 = DIRECTION('',(0.,-1.,0.));
#376 = DIRECTION('',(0.,-0.,-1.));
#377 = ORIENTED_EDGE('',*,*,#378,.F.);
#378 = EDGE_CURVE('',#362,#370,#379,.T.);
#379 = CIRCLE('',#380,1.7);
#380 = AXIS2_PLACEMENT_3D('',#381,#382,#383);
#381 = CARTESIAN_POINT('',(17.677669529664,0.4,-17.67766952966));
#382 = DIRECTION('',(0.,-1.,0.));
#383 = DIRECTION('',(0.,-0.,-1.));
#384 = ORIENTED_EDGE('',*,*,#361,.F.);
#385 = ORIENTED_EDGE('',*,*,#237,.T.);
#386 = ORIENTED_EDGE('',*,*,#140,.F.);
#387 = ORIENTED_EDGE('',*,*,#228,.T.);
#388 = CONICAL_SURFACE('',#389,3.25,0.537586646659);
#389 = AXIS2_PLACEMENT_3D('',#390,#391,#392);
#390 = CARTESIAN_POINT('',(17.677669529664,3.,-17.67766952966));
#391 = DIRECTION('',(-0.,1.,-0.));
#392 = DIRECTION('',(0.,-0.,-1.));
#393 = ADVANCED_FACE('',(#394),#424,.F.);
#394 = FACE_BOUND('',#395,.F.);
#395 = EDGE_LOOP('',(#396,#404,#413,#420,#421,#422,#423));
#396 = ORIENTED_EDGE('',*,*,#397,.T.);
#397 = EDGE_CURVE('',#246,#398,#400,.T.);
#398 = VERTEX_POINT('',#399);
#399 = CARTESIAN_POINT('',(-17.67766952966,0.4,-19.37766952966));
#400 = LINE('',#401,#402);
#401 = CARTESIAN_POINT('',(-17.67766952966,3.,-20.92766952966));
#402 = VECTOR('',#403,1.);
#403 = DIRECTION('',(1.25419640541E-16,-0.858946974209,0.512064542317));
#404 = ORIENTED_EDGE('',*,*,#405,.F.);
#405 = EDGE_CURVE('',#406,#398,#408,.T.);
#406 = VERTEX_POINT('',#407);
#407 = CARTESIAN_POINT('',(-17.67766952966,0.4,-15.97766952966));
#408 = CIRCLE('',#409,1.7);
#409 = AXIS2_PLACEMENT_3D('',#410,#411,#412);
#410 = CARTESIAN_POINT('',(-17.67766952966,0.4,-17.67766952966));
#411 = DIRECTION('',(0.,-1.,0.));
#412 = DIRECTION('',(0.,-0.,-1.));
#413 = ORIENTED_EDGE('',*,*,#414,.F.);
#414 = EDGE_CURVE('',#398,#406,#415,.T.);
#415 = CIRCLE('',#416,1.7);
#416 = AXIS2_PLACEMENT_3D('',#417,#418,#419);
#417 = CARTESIAN_POINT('',(-17.67766952966,0.4,-17.67766952966));
#418 = DIRECTION('',(0.,-1.,0.));
#419 = DIRECTION('',(0.,-0.,-1.));
#420 = ORIENTED_EDGE('',*,*,#397,.F.);
#421 = ORIENTED_EDGE('',*,*,#254,.T.);
#422 = ORIENTED_EDGE('',*,*,#103,.F.);
#423 = ORIENTED_EDGE('',*,*,#245,.T.);
#424 = CONICAL_SURFACE('',#425,3.25,0.537586646659);
#425 = AXIS2_PLACEMENT_3D('',#426,#427,#428);
#426 = CARTESIAN_POINT('',(-17.67766952966,3.,-17.67766952966));
#427 = DIRECTION('',(-0.,1.,-0.));
#428 = DIRECTION('',(0.,-0.,-1.));
#429 = ADVANCED_FACE('',(#430),#460,.F.);
#430 = FACE_BOUND('',#431,.F.);
#431 = EDGE_LOOP('',(#432,#440,#449,#456,#457,#458,#459));
#432 = ORIENTED_EDGE('',*,*,#433,.T.);
#433 = EDGE_CURVE('',#263,#434,#436,.T.);
#434 = VERTEX_POINT('',#435);
#435 = CARTESIAN_POINT('',(-17.67766952966,0.4,15.977669529664));
#436 = LINE('',#437,#438);
#437 = CARTESIAN_POINT('',(-17.67766952966,3.,14.427669529664));
#438 = VECTOR('',#439,1.);
#439 = DIRECTION('',(1.25419640541E-16,-0.858946974209,0.512064542317));
#440 = ORIENTED_EDGE('',*,*,#441,.F.);
#441 = EDGE_CURVE('',#442,#434,#444,.T.);
#442 = VERTEX_POINT('',#443);
#443 = CARTESIAN_POINT('',(-17.67766952966,0.4,19.377669529664));
#444 = CIRCLE('',#445,1.7);
#445 = AXIS2_PLACEMENT_3D('',#446,#447,#448);
#446 = CARTESIAN_POINT('',(-17.67766952966,0.4,17.677669529664));
#447 = DIRECTION('',(0.,-1.,0.));
#448 = DIRECTION('',(0.,-0.,-1.));
#449 = ORIENTED_EDGE('',*,*,#450,.F.);
#450 = EDGE_CURVE('',#434,#442,#451,.T.);
#451 = CIRCLE('',#452,1.7);
#452 = AXIS2_PLACEMENT_3D('',#453,#454,#455);
#453 = CARTESIAN_POINT('',(-17.67766952966,0.4,17.677669529664));
#454 = DIRECTION('',(0.,-1.,0.));
#455 = DIRECTION('',(0.,-0.,-1.));
#456 = ORIENTED_EDGE('',*,*,#433,.F.);
#457 = ORIENTED_EDGE('',*,*,#271,.T.);
#458 = ORIENTED_EDGE('',*,*,#57,.F.);
#459 = ORIENTED_EDGE('',*,*,#262,.T.);
#460 = CONICAL_SURFACE('',#461,3.25,0.537586646659);
#461 = AXIS2_PLACEMENT_3D('',#462,#463,#464);
#462 = CARTESIAN_POINT('',(-17.67766952966,3.,17.677669529664));
#463 = DIRECTION('',(-0.,1.,-0.));
#464 = DIRECTION('',(0.,-0.,-1.));
#465 = ADVANCED_FACE('',(#466,#469,#480,#491,#502,#513,#524),#535,.F.);
#466 = FACE_BOUND('',#467,.F.);
#467 = EDGE_LOOP('',(#468));
#468 = ORIENTED_EDGE('',*,*,#40,.T.);
#469 = FACE_BOUND('',#470,.F.);
#470 = EDGE_LOOP('',(#471));
#471 = ORIENTED_EDGE('',*,*,#472,.F.);
#472 = EDGE_CURVE('',#473,#473,#475,.T.);
#473 = VERTEX_POINT('',#474);
#474 = CARTESIAN_POINT('',(-17.67766952966,0.,-15.97766952966));
#475 = CIRCLE('',#476,1.7);
#476 = AXIS2_PLACEMENT_3D('',#477,#478,#479);
#477 = CARTESIAN_POINT('',(-17.67766952966,0.,-17.67766952966));
#478 = DIRECTION('',(0.,1.,0.));
#479 = DIRECTION('',(0.,-0.,1.));
#480 = FACE_BOUND('',#481,.F.);
#481 = EDGE_LOOP('',(#482));
#482 = ORIENTED_EDGE('',*,*,#483,.F.);
#483 = EDGE_CURVE('',#484,#484,#486,.T.);
#484 = VERTEX_POINT('',#485);
#485 = CARTESIAN_POINT('',(-4.65365783676E-15,0.,19.));
#486 = CIRCLE('',#487,19.);
#487 = AXIS2_PLACEMENT_3D('',#488,#489,#490);
#488 = CARTESIAN_POINT('',(0.,0.,0.));
#489 = DIRECTION('',(0.,1.,0.));
#490 = DIRECTION('',(0.,-0.,1.));
#491 = FACE_BOUND('',#492,.F.);
#492 = EDGE_LOOP('',(#493));
#493 = ORIENTED_EDGE('',*,*,#494,.F.);
#494 = EDGE_CURVE('',#495,#495,#497,.T.);
#495 = VERTEX_POINT('',#496);
#496 = CARTESIAN_POINT('',(-17.67766952966,0.,19.377669529664));
#497 = CIRCLE('',#498,1.7);
#498 = AXIS2_PLACEMENT_3D('',#499,#500,#501);
#499 = CARTESIAN_POINT('',(-17.67766952966,0.,17.677669529664));
#500 = DIRECTION('',(0.,1.,0.));
#501 = DIRECTION('',(0.,-0.,1.));
#502 = FACE_BOUND('',#503,.F.);
#503 = EDGE_LOOP('',(#504));
#504 = ORIENTED_EDGE('',*,*,#505,.F.);
#505 = EDGE_CURVE('',#506,#506,#508,.T.);
#506 = VERTEX_POINT('',#507);
#507 = CARTESIAN_POINT('',(17.677669529664,0.,-15.97766952966));
#508 = CIRCLE('',#509,1.7);
#509 = AXIS2_PLACEMENT_3D('',#510,#511,#512);
#510 = CARTESIAN_POINT('',(17.677669529664,0.,-17.67766952966));
#511 = DIRECTION('',(0.,1.,0.));
#512 = DIRECTION('',(0.,-0.,1.));
#513 = FACE_BOUND('',#514,.F.);
#514 = EDGE_LOOP('',(#515));
#515 = ORIENTED_EDGE('',*,*,#516,.F.);
#516 = EDGE_CURVE('',#517,#517,#519,.T.);
#517 = VERTEX_POINT('',#518);
#518 = CARTESIAN_POINT('',(22.,0.,2.5));
#519 = CIRCLE('',#520,2.5);
#520 = AXIS2_PLACEMENT_3D('',#521,#522,#523);
#521 = CARTESIAN_POINT('',(22.,0.,0.));
#522 = DIRECTION('',(0.,1.,0.));
#523 = DIRECTION('',(0.,-0.,1.));
#524 = FACE_BOUND('',#525,.F.);
#525 = EDGE_LOOP('',(#526));
#526 = ORIENTED_EDGE('',*,*,#527,.F.);
#527 = EDGE_CURVE('',#528,#528,#530,.T.);
#528 = VERTEX_POINT('',#529);
#529 = CARTESIAN_POINT('',(17.677669529664,0.,19.377669529664));
#530 = CIRCLE('',#531,1.7);
#531 = AXIS2_PLACEMENT_3D('',#532,#533,#534);
#532 = CARTESIAN_POINT('',(17.677669529664,0.,17.677669529664));
#533 = DIRECTION('',(0.,1.,0.));
#534 = DIRECTION('',(0.,-0.,1.));
#535 = PLANE('',#536);
#536 = AXIS2_PLACEMENT_3D('',#537,#538,#539);
#537 = CARTESIAN_POINT('',(0.,0.,0.));
#538 = DIRECTION('',(0.,1.,0.));
#539 = DIRECTION('',(0.,-0.,1.));
#540 = ADVANCED_FACE('',(#541),#567,.T.);
#541 = FACE_BOUND('',#542,.T.);
#542 = EDGE_LOOP('',(#543,#551,#552,#560));
#543 = ORIENTED_EDGE('',*,*,#544,.F.);
#544 = EDGE_CURVE('',#282,#545,#547,.T.);
#545 = VERTEX_POINT('',#546);
#546 = CARTESIAN_POINT('',(-5.094530684453E-15,6.,20.8));
#547 = LINE('',#548,#549);
#548 = CARTESIAN_POINT('',(-5.094530684453E-15,2.7,20.8));
#549 = VECTOR('',#550,1.);
#550 = DIRECTION('',(0.,1.,0.));
#551 = ORIENTED_EDGE('',*,*,#281,.T.);
#552 = ORIENTED_EDGE('',*,*,#553,.T.);
#553 = EDGE_CURVE('',#284,#554,#556,.T.);
#554 = VERTEX_POINT('',#555);
#555 = CARTESIAN_POINT('',(20.690681818182,6.,2.12971498064));
#556 = LINE('',#557,#558);
#557 = CARTESIAN_POINT('',(20.690681818182,2.7,2.12971498064));
#558 = VECTOR('',#559,1.);
#559 = DIRECTION('',(0.,1.,0.));
#560 = ORIENTED_EDGE('',*,*,#561,.F.);
#561 = EDGE_CURVE('',#545,#554,#562,.T.);
#562 = CIRCLE('',#563,20.8);
#563 = AXIS2_PLACEMENT_3D('',#564,#565,#566);
#564 = CARTESIAN_POINT('',(0.,6.,0.));
#565 = DIRECTION('',(0.,1.,0.));
#566 = DIRECTION('',(0.,-0.,1.));
#567 = CYLINDRICAL_SURFACE('',#568,20.8);
#568 = AXIS2_PLACEMENT_3D('',#569,#570,#571);
#569 = CARTESIAN_POINT('',(0.,2.7,0.));
#570 = DIRECTION('',(0.,1.,0.));
#571 = DIRECTION('',(0.,-0.,1.));
#572 = ADVANCED_FACE('',(#573),#601,.F.);
#573 = FACE_BOUND('',#574,.F.);
#574 = EDGE_LOOP('',(#575,#576,#582,#583,#584,#585,#586,#595));
#575 = ORIENTED_EDGE('',*,*,#301,.F.);
#576 = ORIENTED_EDGE('',*,*,#577,.F.);
#577 = EDGE_CURVE('',#517,#302,#578,.T.);
#578 = LINE('',#579,#580);
#579 = CARTESIAN_POINT('',(22.,-1.,2.5));
#580 = VECTOR('',#581,1.);
#581 = DIRECTION('',(0.,1.,0.));
#582 = ORIENTED_EDGE('',*,*,#516,.T.);
#583 = ORIENTED_EDGE('',*,*,#577,.T.);
#584 = ORIENTED_EDGE('',*,*,#310,.F.);
#585 = ORIENTED_EDGE('',*,*,#553,.T.);
#586 = ORIENTED_EDGE('',*,*,#587,.F.);
#587 = EDGE_CURVE('',#588,#554,#590,.T.);
#588 = VERTEX_POINT('',#589);
#589 = CARTESIAN_POINT('',(20.690681818182,6.,-2.12971498064));
#590 = CIRCLE('',#591,2.5);
#591 = AXIS2_PLACEMENT_3D('',#592,#593,#594);
#592 = CARTESIAN_POINT('',(22.,6.,0.));
#593 = DIRECTION('',(0.,1.,0.));
#594 = DIRECTION('',(0.,-0.,1.));
#595 = ORIENTED_EDGE('',*,*,#596,.F.);
#596 = EDGE_CURVE('',#293,#588,#597,.T.);
#597 = LINE('',#598,#599);
#598 = CARTESIAN_POINT('',(20.690681818182,2.7,-2.12971498064));
#599 = VECTOR('',#600,1.);
#600 = DIRECTION('',(0.,1.,0.));
#601 = CYLINDRICAL_SURFACE('',#602,2.5);
#602 = AXIS2_PLACEMENT_3D('',#603,#604,#605);
#603 = CARTESIAN_POINT('',(22.,-1.,0.));
#604 = DIRECTION('',(0.,1.,0.));
#605 = DIRECTION('',(0.,-0.,1.));
#606 = ADVANCED_FACE('',(#607),#619,.T.);
#607 = FACE_BOUND('',#608,.T.);
#608 = EDGE_LOOP('',(#609,#610,#611,#618));
#609 = ORIENTED_EDGE('',*,*,#292,.T.);
#610 = ORIENTED_EDGE('',*,*,#544,.T.);
#611 = ORIENTED_EDGE('',*,*,#612,.F.);
#612 = EDGE_CURVE('',#588,#545,#613,.T.);
#613 = CIRCLE('',#614,20.8);
#614 = AXIS2_PLACEMENT_3D('',#615,#616,#617);
#615 = CARTESIAN_POINT('',(0.,6.,0.));
#616 = DIRECTION('',(0.,1.,0.));
#617 = DIRECTION('',(0.,-0.,1.));
#618 = ORIENTED_EDGE('',*,*,#596,.F.);
#619 = CYLINDRICAL_SURFACE('',#620,20.8);
#620 = AXIS2_PLACEMENT_3D('',#621,#622,#623);
#621 = CARTESIAN_POINT('',(0.,2.7,0.));
#622 = DIRECTION('',(0.,1.,0.));
#623 = DIRECTION('',(0.,-0.,1.));
#624 = ADVANCED_FACE('',(#625),#637,.F.);
#625 = FACE_BOUND('',#626,.F.);
#626 = EDGE_LOOP('',(#627,#628,#634,#635,#636));
#627 = ORIENTED_EDGE('',*,*,#342,.T.);
#628 = ORIENTED_EDGE('',*,*,#629,.F.);
#629 = EDGE_CURVE('',#528,#334,#630,.T.);
#630 = LINE('',#631,#632);
#631 = CARTESIAN_POINT('',(17.677669529664,-1.,19.377669529664));
#632 = VECTOR('',#633,1.);
#633 = DIRECTION('',(0.,1.,0.));
#634 = ORIENTED_EDGE('',*,*,#527,.T.);
#635 = ORIENTED_EDGE('',*,*,#629,.T.);
#636 = ORIENTED_EDGE('',*,*,#333,.T.);
#637 = CYLINDRICAL_SURFACE('',#638,1.7);
#638 = AXIS2_PLACEMENT_3D('',#639,#640,#641);
#639 = CARTESIAN_POINT('',(17.677669529664,-1.,17.677669529664));
#640 = DIRECTION('',(0.,1.,0.));
#641 = DIRECTION('',(0.,-0.,1.));
#642 = ADVANCED_FACE('',(#643),#655,.F.);
#643 = FACE_BOUND('',#644,.F.);
#644 = EDGE_LOOP('',(#645,#646,#652,#653,#654));
#645 = ORIENTED_EDGE('',*,*,#378,.T.);
#646 = ORIENTED_EDGE('',*,*,#647,.F.);
#647 = EDGE_CURVE('',#506,#370,#648,.T.);
#648 = LINE('',#649,#650);
#649 = CARTESIAN_POINT('',(17.677669529664,-1.,-15.97766952966));
#650 = VECTOR('',#651,1.);
#651 = DIRECTION('',(0.,1.,0.));
#652 = ORIENTED_EDGE('',*,*,#505,.T.);
#653 = ORIENTED_EDGE('',*,*,#647,.T.);
#654 = ORIENTED_EDGE('',*,*,#369,.T.);
#655 = CYLINDRICAL_SURFACE('',#656,1.7);
#656 = AXIS2_PLACEMENT_3D('',#657,#658,#659);
#657 = CARTESIAN_POINT('',(17.677669529664,-1.,-17.67766952966));
#658 = DIRECTION('',(0.,1.,0.));
#659 = DIRECTION('',(0.,-0.,1.));
#660 = ADVANCED_FACE('',(#661),#673,.F.);
#661 = FACE_BOUND('',#662,.F.);
#662 = EDGE_LOOP('',(#663,#664,#670,#671,#672));
#663 = ORIENTED_EDGE('',*,*,#414,.T.);
#664 = ORIENTED_EDGE('',*,*,#665,.F.);
#665 = EDGE_CURVE('',#473,#406,#666,.T.);
#666 = LINE('',#667,#668);
#667 = CARTESIAN_POINT('',(-17.67766952966,-1.,-15.97766952966));
#668 = VECTOR('',#669,1.);
#669 = DIRECTION('',(0.,1.,0.));
#670 = ORIENTED_EDGE('',*,*,#472,.T.);
#671 = ORIENTED_EDGE('',*,*,#665,.T.);
#672 = ORIENTED_EDGE('',*,*,#405,.T.);
#673 = CYLINDRICAL_SURFACE('',#674,1.7);
#674 = AXIS2_PLACEMENT_3D('',#675,#676,#677);
#675 = CARTESIAN_POINT('',(-17.67766952966,-1.,-17.67766952966));
#676 = DIRECTION('',(0.,1.,0.));
#677 = DIRECTION('',(0.,-0.,1.));
#678 = ADVANCED_FACE('',(#679),#691,.F.);
#679 = FACE_BOUND('',#680,.F.);
#680 = EDGE_LOOP('',(#681,#682,#688,#689,#690));
#681 = ORIENTED_EDGE('',*,*,#450,.T.);
#682 = ORIENTED_EDGE('',*,*,#683,.F.);
#683 = EDGE_CURVE('',#495,#442,#684,.T.);
#684 = LINE('',#685,#686);
#685 = CARTESIAN_POINT('',(-17.67766952966,-1.,19.377669529664));
#686 = VECTOR('',#687,1.);
#687 = DIRECTION('',(0.,1.,0.));
#688 = ORIENTED_EDGE('',*,*,#494,.T.);
#689 = ORIENTED_EDGE('',*,*,#683,.T.);
#690 = ORIENTED_EDGE('',*,*,#441,.T.);
#691 = CYLINDRICAL_SURFACE('',#692,1.7);
#692 = AXIS2_PLACEMENT_3D('',#693,#694,#695);
#693 = CARTESIAN_POINT('',(-17.67766952966,-1.,17.677669529664));
#694 = DIRECTION('',(0.,1.,0.));
#695 = DIRECTION('',(0.,-0.,1.));
#696 = ADVANCED_FACE('',(#697),#716,.F.);
#697 = FACE_BOUND('',#698,.F.);
#698 = EDGE_LOOP('',(#699,#708,#714,#715));
#699 = ORIENTED_EDGE('',*,*,#700,.F.);
#700 = EDGE_CURVE('',#701,#701,#703,.T.);
#701 = VERTEX_POINT('',#702);
#702 = CARTESIAN_POINT('',(-4.65365783676E-15,6.,19.));
#703 = CIRCLE('',#704,19.);
#704 = AXIS2_PLACEMENT_3D('',#705,#706,#707);
#705 = CARTESIAN_POINT('',(0.,6.,0.));
#706 = DIRECTION('',(0.,1.,0.));
#707 = DIRECTION('',(0.,-0.,1.));
#708 = ORIENTED_EDGE('',*,*,#709,.F.);
#709 = EDGE_CURVE('',#484,#701,#710,.T.);
#710 = LINE('',#711,#712);
#711 = CARTESIAN_POINT('',(-4.65365783676E-15,-0.5,19.));
#712 = VECTOR('',#713,1.);
#713 = DIRECTION('',(0.,1.,0.));
#714 = ORIENTED_EDGE('',*,*,#483,.T.);
#715 = ORIENTED_EDGE('',*,*,#709,.T.);
#716 = CYLINDRICAL_SURFACE('',#717,19.);
#717 = AXIS2_PLACEMENT_3D('',#718,#719,#720);
#718 = CARTESIAN_POINT('',(0.,-0.5,0.));
#719 = DIRECTION('',(0.,1.,0.));
#720 = DIRECTION('',(0.,-0.,1.));
#721 = ADVANCED_FACE('',(#722,#727),#730,.T.);
#722 = FACE_BOUND('',#723,.T.);
#723 = EDGE_LOOP('',(#724,#725,#726));
#724 = ORIENTED_EDGE('',*,*,#612,.T.);
#725 = ORIENTED_EDGE('',*,*,#561,.T.);
#726 = ORIENTED_EDGE('',*,*,#587,.F.);
#727 = FACE_BOUND('',#728,.T.);
#728 = EDGE_LOOP('',(#729));
#729 = ORIENTED_EDGE('',*,*,#700,.F.);
#730 = PLANE('',#731);
#731 = AXIS2_PLACEMENT_3D('',#732,#733,#734);
#732 = CARTESIAN_POINT('',(0.,6.,0.));
#733 = DIRECTION('',(0.,1.,0.));
#734 = DIRECTION('',(0.,-0.,1.));
#735 = ( GEOMETRIC_REPRESENTATION_CONTEXT(3) 
GLOBAL_UNCERTAINTY_ASSIGNED_CONTEXT((#739)) GLOBAL_UNIT_ASSIGNED_CONTEXT
((#736,#737,#738)) REPRESENTATION_CONTEXT('Context #1',
  '3D Context with UNIT and UNCERTAINTY') );
#736 = ( LENGTH_UNIT() NAMED_UNIT(*) SI_UNIT(.MILLI.,.METRE.) );
#737 = ( NAMED_UNIT(*) PLANE_ANGLE_UNIT() SI_UNIT($,.RADIAN.) );
#738 = ( NAMED_UNIT(*) SI_UNIT($,.STERADIAN.) SOLID_ANGLE_UNIT() );
#739 = UNCERTAINTY_MEASURE_WITH_UNIT(LENGTH_MEASURE(1.E-07),#736,
  'distance_accuracy_value','confusion accuracy');
#740 = PRODUCT_RELATED_PRODUCT_CATEGORY('part',$,(#7));
ENDSEC;
END-ISO-10303-21;
